<?xml version="1.0" standalone="no"?>
<!DOCTYPE svg PUBLIC "-//W3C//DTD SVG 20010904//EN"
 "http://www.w3.org/TR/2001/REC-SVG-20010904/DTD/svg10.dtd">
<svg version="1.0" xmlns="http://www.w3.org/2000/svg"
 width="851.000000pt" height="851.000000pt" viewBox="0 0 851.000000 851.000000"
 preserveAspectRatio="xMidYMid meet">
<metadata>
Created by potrace 1.14, written by Peter Selinger 2001-2017
</metadata>
<g transform="translate(0.000000,851.000000) scale(0.100000,-0.100000)"
fill="#000000" stroke="none">
<path d="M4531 8214 c0 -11 3 -14 6 -6 3 7 2 16 -1 19 -3 4 -6 -2 -5 -13z"/>
<path d="M2325 8198 c-16 -6 -32 -15 -35 -19 -7 -11 -117 -49 -141 -49 -10 0
-30 -5 -44 -10 l-27 -10 31 -35 c17 -20 31 -41 31 -47 0 -6 18 -50 41 -97 l41
-86 -51 -46 -50 -47 44 -31 c24 -17 47 -31 51 -31 4 0 50 -25 101 -56 70 -42
98 -53 106 -45 8 8 8 11 0 11 -7 0 -15 9 -18 21 -8 25 -62 106 -76 115 -6 4
-4 13 7 25 9 10 20 17 24 14 4 -2 13 7 21 21 7 14 26 32 41 40 15 8 25 20 23
27 -2 6 -6 37 -9 67 -7 76 -59 280 -71 279 -5 0 -23 -5 -40 -11z"/>
<path d="M4340 8141 c0 -11 5 -23 10 -26 6 -3 10 -14 10 -24 0 -20 -48 -38
-135 -51 -45 -7 -121 -27 -240 -62 -22 -6 -45 -16 -52 -21 -23 -17 -243 -20
-298 -4 -27 8 -86 24 -130 37 -44 12 -95 29 -114 36 -46 20 -71 10 -71 -27 0
-16 -4 -29 -9 -29 -5 0 -21 -36 -35 -81 -14 -44 -55 -140 -90 -212 -92 -189
-186 -440 -186 -498 0 -24 -61 -116 -149 -224 -36 -44 -68 -82 -71 -85 -7 -6
-93 -112 -102 -125 -4 -5 -31 -37 -60 -70 -29 -33 -62 -77 -73 -98 l-20 -37
25 -48 c13 -26 40 -67 60 -91 19 -24 44 -59 55 -77 40 -64 108 -159 124 -172
22 -18 6 -26 -82 -42 -40 -7 -89 -21 -110 -32 -37 -19 -38 -20 -23 -41 9 -12
50 -71 91 -132 77 -114 204 -254 255 -280 41 -21 38 -46 -15 -121 -75 -104
-177 -161 -292 -163 -111 -1 -186 46 -324 205 l-74 86 -45 -6 c-72 -10 -100
-16 -189 -41 -92 -26 -124 -45 -75 -45 36 0 101 -18 109 -30 3 -5 -14 -29 -38
-53 -120 -124 -271 -370 -333 -542 -9 -27 -21 -55 -26 -61 -25 -34 -34 -424
-12 -526 10 -46 24 -31 24 25 0 41 6 63 29 98 41 64 168 182 228 213 71 36 98
34 119 -6 17 -32 17 -76 -1 -389 l-3 -57 62 -58 c34 -33 91 -74 126 -93 36
-18 99 -51 140 -72 41 -21 107 -48 145 -60 39 -12 88 -27 110 -34 45 -15 92
-24 177 -32 56 -5 56 -5 97 -67 47 -72 127 -163 135 -155 3 3 -30 50 -74 105
-44 54 -80 102 -80 107 0 16 62 6 90 -15 16 -12 33 -18 37 -15 3 4 -2 13 -12
21 -24 17 -12 24 72 36 39 5 79 13 89 17 17 6 17 8 -4 13 -19 4 -29 20 -48 74
-13 38 -24 74 -24 79 0 5 18 -6 41 -25 75 -60 173 -128 186 -128 24 0 14 -30
-57 -173 -38 -78 -71 -155 -72 -172 -3 -29 -1 -30 42 -33 35 -2 48 -8 55 -24
6 -12 33 -35 60 -51 28 -16 52 -33 55 -37 3 -4 22 -15 42 -23 42 -18 42 -15
-3 -112 -26 -57 -34 -65 -70 -65 -18 0 -33 -9 -45 -27 -10 -16 -24 -34 -31
-41 -16 -17 -16 -30 0 -62 9 -16 12 -50 9 -99 -4 -68 -6 -75 -32 -89 -26 -15
-28 -20 -23 -67 3 -27 6 -63 7 -79 2 -16 10 -34 18 -40 12 -9 13 -15 4 -29 -8
-12 -8 -22 2 -37 18 -29 15 -58 -9 -70 -18 -10 -20 -18 -15 -82 5 -70 20 -97
54 -98 6 0 12 -8 12 -19 0 -18 -2 -18 -41 -4 -23 7 -44 11 -48 8 -3 -3 -11 9
-17 27 -8 25 -17 33 -36 34 -33 1 -48 11 -48 32 -1 14 -2 14 -12 -3 -21 -35
-27 -133 -14 -226 14 -102 18 -95 -84 -161 -73 -48 -140 -62 -254 -54 -82 5
-100 11 -183 53 -155 78 -224 143 -295 275 -16 28 -28 57 -28 64 0 40 -82 -14
-142 -93 -43 -56 -99 -144 -161 -248 -35 -60 -81 -182 -102 -271 -17 -75 -20
-178 -5 -169 5 3 10 16 10 27 0 43 25 101 61 142 30 34 52 47 106 64 134 43
217 20 292 -78 23 -32 53 -68 65 -81 12 -13 40 -51 63 -84 38 -57 156 -175
173 -175 5 0 12 9 15 20 12 37 18 32 94 -70 73 -97 137 -160 163 -160 59 0
351 96 426 141 48 27 66 24 85 -16 13 -26 23 -35 42 -35 34 0 31 -14 -7 -41
-54 -38 -76 -79 -43 -79 28 0 15 -16 -41 -50 -31 -19 -79 -55 -107 -82 -28
-26 -60 -48 -71 -48 -145 -4 -537 -47 -626 -70 -25 -7 -67 -17 -95 -24 -107
-27 -145 -41 -145 -53 0 -17 17 -20 205 -32 88 -6 192 -15 230 -21 39 -5 106
-14 150 -19 44 -6 116 -16 160 -25 110 -20 282 -36 455 -42 100 -4 150 -10
160 -19 10 -9 69 -15 190 -20 247 -11 804 -13 935 -4 61 5 187 13 280 19 94 6
211 17 260 25 50 8 144 22 210 31 66 8 129 21 140 28 11 6 31 13 45 14 14 1
50 8 80 17 30 8 82 20 115 26 33 6 65 16 72 21 18 14 101 39 163 48 30 4 87
15 125 24 157 37 282 53 468 62 75 3 137 10 137 14 0 14 -25 26 -60 28 -19 2
-82 9 -140 17 -108 14 -176 20 -340 30 -52 3 -120 8 -150 10 -30 3 -189 7
-354 10 l-298 5 -42 37 c-53 47 -59 59 -52 94 6 31 -3 39 -47 44 -36 4 -37 4
-37 18 0 9 29 22 74 35 92 27 106 28 99 4 -3 -12 4 -25 21 -36 26 -16 77 -14
226 9 63 9 178 25 213 29 21 2 40 6 43 8 3 3 22 2 42 -3 31 -7 40 -5 60 14 13
12 30 37 38 56 30 72 142 204 241 283 52 42 355 130 490 142 47 4 53 3 69 -21
9 -15 46 -56 83 -92 119 -117 126 -134 96 -247 -15 -57 -84 -151 -113 -153 -7
-1 -10 -5 -7 -11 3 -5 29 1 63 17 31 14 86 36 122 49 91 31 252 103 271 120 8
8 20 14 25 14 26 0 149 92 320 238 67 57 224 250 224 274 0 18 -70 141 -112
198 -23 30 -118 132 -213 227 -146 146 -177 172 -210 179 -27 5 -47 2 -69 -9
-17 -9 -53 -19 -81 -22 -27 -3 -60 -8 -72 -11 -16 -3 -23 0 -23 11 0 8 4 15
10 15 9 0 50 71 50 87 0 4 -19 -12 -43 -35 -29 -29 -46 -39 -56 -33 -11 7 -11
13 3 32 17 25 20 39 9 39 -10 0 -83 -65 -83 -74 0 -3 -12 -24 -26 -46 -28 -42
-23 -41 -194 -56 -65 -6 -269 -8 -368 -5 -109 4 -298 53 -372 97 l-25 15 24
-20 c13 -12 18 -21 12 -21 -7 0 -22 10 -35 23 -13 12 -30 23 -37 25 -29 6
-211 103 -269 142 -33 23 -75 55 -93 73 -17 18 -59 55 -92 83 -118 98 -205
192 -205 220 0 16 36 19 45 4 4 -6 16 -5 33 4 15 7 59 23 97 36 39 12 77 28
85 34 8 7 27 17 43 24 15 6 27 16 27 21 0 6 -18 47 -39 92 -44 91 -43 99 8
163 17 21 31 42 31 45 0 3 22 29 49 57 43 46 48 56 46 92 -2 41 -31 98 -92
183 -18 26 -33 50 -33 55 0 4 -10 18 -22 31 -12 13 -19 26 -15 29 8 9 99 -24
175 -63 88 -46 96 -44 88 15 -3 26 -17 83 -31 127 -14 44 -25 81 -25 83 0 6
90 1 125 -9 67 -17 148 -51 181 -75 17 -12 39 -24 50 -26 16 -3 19 2 16 32 -3
32 -55 192 -82 250 -6 14 -31 36 -54 49 l-44 22 37 36 c34 33 39 35 89 31 67
-6 68 7 4 70 -70 69 -178 162 -189 162 -5 0 -19 9 -30 20 -19 17 -20 23 -10
49 12 32 -2 61 -29 61 -7 0 -33 21 -57 46 l-44 46 -34 -21 c-49 -30 -61 -28
-54 12 6 29 3 33 -24 44 -51 19 -40 44 37 88 37 21 78 48 92 60 14 12 60 46
103 75 91 62 100 81 63 136 -47 72 -86 201 -95 314 -9 117 -15 99 79 230 50
70 138 265 189 418 47 142 90 230 142 293 27 32 42 63 52 107 8 34 12 64 9 67
-11 11 -52 4 -99 -16 -94 -40 -335 -130 -401 -148 -37 -11 -74 -22 -83 -25
-19 -8 -32 18 -59 125 -11 44 -29 104 -40 132 -11 29 -28 86 -39 128 -19 76
-19 78 0 210 11 74 26 156 35 182 16 49 16 49 53 43 83 -15 153 -48 180 -87
47 -69 49 -48 8 86 -31 102 -153 335 -241 461 -27 39 -74 38 -159 0 -86 -39
-224 -71 -264 -61 -14 3 -45 19 -67 34 -23 16 -88 53 -146 83 -58 30 -121 66
-140 79 -38 25 -73 42 -183 84 -77 30 -95 30 -250 -4 -99 -22 -117 -21 -117 4
0 20 -19 29 -34 16 -10 -9 -15 -8 -20 4 -8 22 -36 19 -36 -4z m70 -42 c0 -5
-4 -9 -10 -9 -5 0 -10 7 -10 16 0 8 5 12 10 9 6 -3 10 -10 10 -16z m-905 -529
c3 -5 14 -10 23 -10 9 0 26 -7 37 -16 19 -14 19 -15 -15 -41 -58 -44 -184
-173 -176 -180 3 -4 21 7 39 24 68 63 117 106 139 121 l23 15 -21 -24 c-31
-35 -74 -102 -74 -114 1 -5 34 26 75 70 l75 80 101 -105 c56 -58 105 -115 110
-127 9 -25 35 -22 42 5 3 10 5 4 6 -11 0 -16 -4 -37 -10 -48 -11 -21 5 -54 21
-44 10 6 90 -52 90 -66 0 -6 -16 -25 -36 -42 -21 -18 -48 -42 -62 -54 -14 -13
-28 -23 -31 -23 -3 0 -19 -13 -36 -28 -16 -15 -55 -46 -85 -68 -30 -23 -61
-48 -69 -57 -23 -28 10 -21 53 11 64 46 219 173 257 209 30 29 38 32 48 19 10
-11 0 -24 -53 -71 -35 -32 -87 -74 -115 -94 -102 -73 -135 -96 -153 -106 -10
-5 -18 -13 -18 -17 0 -5 -4 -8 -10 -8 -5 0 -42 -22 -82 -49 -40 -26 -139 -82
-220 -123 l-146 -75 21 43 c16 34 18 47 9 56 -13 13 -83 -21 -167 -82 -103
-75 -176 -115 -185 -101 -10 17 -31 5 -24 -14 4 -9 -1 -17 -12 -21 -50 -16
-104 -40 -104 -45 0 -3 13 -18 30 -34 33 -32 54 -27 24 6 -19 21 -19 21 11 17
30 -3 30 -4 36 -78 3 -42 10 -87 14 -100 7 -21 6 -23 -7 -13 -8 7 -19 9 -23 5
-5 -4 -5 -1 -1 6 4 7 1 15 -8 18 -20 8 -126 139 -161 199 -32 55 -86 137 -97
145 -3 3 0 14 8 25 8 11 17 18 19 15 2 -3 29 33 61 80 32 47 74 106 93 132
191 250 337 424 447 529 38 36 104 103 148 147 43 45 82 79 87 76 5 -3 9 1 9
8 0 15 19 38 31 38 4 0 11 -4 14 -10z m539 -741 c15 -22 25 -43 23 -46 -3 -2
-40 -7 -84 -9 l-78 -5 50 50 c27 28 52 51 56 51 3 0 19 -18 33 -41z m526 -66
c-1 -8 -152 -114 -173 -122 -5 -2 -26 -14 -45 -27 -42 -29 -56 -30 -91 -4 -72
51 -193 64 -321 37 -36 -8 -66 -13 -68 -12 -9 7 23 97 37 103 9 4 77 8 151 7
113 0 141 -3 175 -20 22 -10 46 -25 53 -32 7 -7 25 -13 39 -13 26 0 200 65
218 81 11 11 25 12 25 2z m1795 -30 c-6 -24 -32 -62 -82 -118 -26 -28 -37 -54
-87 -200 -70 -208 -85 -244 -136 -341 -45 -85 -133 -193 -153 -186 -5 1 -6 -2
-2 -8 7 -12 -40 -72 -49 -63 -3 4 -6 -1 -6 -10 0 -9 -7 -17 -15 -17 -8 0 -15
-5 -15 -11 0 -5 5 -7 11 -3 8 4 8 0 0 -15 -13 -24 -26 -29 -17 -6 3 8 1 15 -4
15 -6 0 -10 7 -10 15 0 8 -9 15 -20 15 -11 0 -20 6 -20 13 0 8 9 22 20 32 20
18 29 51 10 40 -5 -3 4 23 21 58 36 78 79 245 79 310 0 49 14 63 24 24 9 -36
-11 -217 -29 -267 -26 -72 0 -33 43 65 53 122 113 221 208 345 57 76 104 164
94 180 -12 19 -137 7 -205 -20 -16 -7 -55 -16 -85 -20 -111 -16 -292 -88 -464
-184 -44 -25 -83 -43 -87 -40 -15 9 3 40 34 58 63 37 122 66 137 66 8 0 74 20
145 45 72 25 158 55 193 66 34 11 97 35 140 53 42 18 120 47 172 64 52 18 109
41 125 51 39 25 38 25 30 -6z m-2520 -83 c-13 -40 -22 -76 -19 -81 3 -5 17 -3
32 5 33 17 152 36 184 30 66 -14 116 -29 140 -41 26 -13 93 -114 124 -189 14
-33 14 -35 -3 -26 -122 61 -195 81 -299 82 -59 0 -75 -4 -104 -25 -19 -14 -40
-25 -47 -25 -17 0 -17 -30 0 -30 6 0 4 -5 -6 -11 -9 -6 -29 -33 -43 -61 -20
-40 -23 -52 -13 -59 10 -6 18 2 29 24 45 91 51 97 95 91 47 -7 90 -22 125 -43
24 -15 22 -16 -55 -22 -47 -3 -80 -10 -83 -17 -2 -7 -12 -12 -21 -12 -23 0
-47 -27 -115 -130 -75 -114 -105 -205 -115 -350 -5 -65 -5 -119 0 -125 5 -5 9
3 9 20 0 55 14 59 44 16 45 -64 125 -111 190 -111 52 0 172 39 215 69 17 12
31 24 31 25 0 2 -16 20 -35 40 -40 43 -43 56 -16 80 17 16 26 16 76 6 31 -6
59 -10 61 -7 3 2 13 35 24 73 24 82 25 143 5 209 -8 27 -13 50 -12 51 1 1 25
-13 54 -32 134 -86 202 -268 144 -384 -32 -62 -66 -96 -136 -135 -114 -64
-158 -76 -274 -76 -58 0 -122 5 -141 11 -43 13 -50 13 -50 0 0 -5 3 -9 8 -8 4
0 23 -6 43 -15 20 -9 58 -19 86 -23 65 -8 257 13 308 35 22 9 51 16 65 15 30
-2 53 14 46 33 -6 16 4 16 40 3 47 -18 76 26 32 49 -13 6 -15 9 -5 6 21 -6 34
20 19 38 -7 8 -4 20 13 39 l24 27 15 -47 c8 -26 22 -93 31 -149 20 -122 22
-116 -94 -253 -204 -241 -469 -435 -732 -535 -38 -15 -71 -31 -75 -36 -8 -13
-141 -11 -150 2 -3 6 -25 19 -48 29 -96 41 -366 302 -417 403 -63 124 -81 275
-55 468 7 48 11 130 9 182 l-2 96 23 -11 c36 -16 64 -81 45 -104 -16 -19 16
-31 36 -14 13 11 18 10 30 -6 11 -15 15 -16 15 -4 0 12 4 10 15 -4 8 -11 15
-14 15 -8 0 8 9 10 24 6 39 -9 39 13 1 26 -38 12 -85 73 -85 108 0 10 -4 22
-10 28 -15 15 -16 162 -1 222 14 54 33 74 54 53 8 -8 6 -19 -8 -44 -30 -49
-28 -167 2 -199 16 -17 20 -27 12 -35 -16 -16 39 -100 74 -112 37 -13 73 3 86
39 11 33 -1 200 -18 243 -6 16 -11 40 -11 55 0 15 -16 54 -36 87 l-36 59 23
16 c13 8 71 53 129 99 58 46 136 104 174 128 37 25 104 74 147 110 l79 65 0
-36 c0 -19 4 -37 9 -40 7 -5 18 23 37 94 6 25 34 63 41 57 1 -2 -8 -36 -22
-77z m-946 -585 c5 2 11 -11 13 -31 4 -32 2 -35 -16 -28 -35 12 -218 17 -225
6 -4 -6 -11 -5 -19 4 -10 11 2 18 70 38 114 34 120 35 146 19 12 -8 26 -11 31
-8z m-85 -149 c20 -29 36 -58 36 -65 0 -14 -17 -15 -25 -1 -3 5 -15 15 -26 21
-18 9 -19 8 -10 -9 10 -20 144 -144 162 -150 10 -4 13 -32 3 -32 -16 0 -56 29
-111 83 -74 72 -183 223 -127 177 13 -11 16 -10 21 8 9 38 40 25 77 -32z
m1217 -112 c12 -14 11 -16 -5 -13 -11 2 -21 10 -24 17 -5 17 13 15 29 -4z
m1744 -24 c3 -5 1 -10 -4 -10 -6 0 -11 5 -11 10 0 6 2 10 4 10 3 0 8 -4 11
-10z m-265 -136 c0 -8 -5 -12 -10 -9 -6 4 -8 11 -5 16 9 14 15 11 15 -7z m-40
-4 c0 -5 -8 -10 -17 -10 -15 0 -16 2 -3 10 19 12 20 12 20 0z m45 -30 c3 -5 1
-10 -4 -10 -6 0 -11 5 -11 10 0 6 2 10 4 10 3 0 8 -4 11 -10z m-3276 -72 c71
-83 147 -150 224 -196 42 -25 74 -49 70 -52 -5 -4 -39 -17 -78 -29 -142 -45
-345 -162 -345 -198 0 -14 3 -14 23 3 34 31 126 87 187 116 101 47 109 44 40
-15 -114 -97 -197 -198 -250 -304 -26 -54 -51 -108 -54 -119 l-6 -21 -40 19
c-39 20 -39 20 -97 -2 -32 -12 -65 -27 -73 -34 -8 -7 -23 -16 -32 -19 -14 -5
-14 -1 4 31 12 20 28 42 36 49 8 6 11 17 7 23 -5 8 -11 7 -23 -2 -8 -7 15 25
52 72 37 47 78 91 89 97 16 9 18 13 6 13 -47 0 -220 -209 -297 -360 -23 -46
-45 -87 -49 -90 -15 -13 9 163 32 234 14 43 25 85 25 93 0 28 73 230 102 283
71 128 257 328 292 314 9 -3 16 -2 16 3 0 16 -39 91 -52 99 -20 13 41 33 101
34 52 0 56 -2 90 -42z m2511 -61 c0 -7 -32 -62 -71 -123 -75 -114 -139 -233
-139 -256 1 -18 26 16 56 77 29 56 74 119 81 112 2 -3 -7 -32 -21 -66 -14 -33
-26 -66 -25 -73 0 -10 2 -10 6 1 5 11 7 11 15 0 6 -10 7 -7 3 10 -4 14 -3 21
2 18 5 -4 17 9 26 28 19 41 40 47 31 10 -5 -20 -3 -24 10 -19 12 4 15 -1 15
-23 0 -15 2 -40 6 -54 4 -17 1 -40 -8 -60 -9 -19 -19 -54 -22 -79 -8 -49 -34
-108 -35 -77 0 34 -15 16 -34 -44 -19 -57 -20 -59 -32 -37 -12 21 -13 19 -14
-26 0 -57 -11 -54 -21 7 -6 37 -7 34 -8 -28 0 -38 -1 -86 -1 -105 l-1 -35 -24
50 c-33 71 -49 150 -40 210 4 27 7 57 7 67 -1 9 8 18 19 21 19 5 27 27 9 27
-59 0 -92 -204 -55 -340 17 -65 18 -70 6 -70 -5 0 -18 21 -28 48 -26 67 -25
303 1 382 35 102 180 366 244 443 18 20 42 23 42 4z m-1820 -126 c0 -83 -2
-92 -26 -118 -17 -19 -27 -24 -31 -15 -2 6 -11 12 -20 12 -11 0 -13 -7 -8 -32
l7 -33 -21 19 c-27 24 -38 14 -22 -20 7 -17 8 -31 2 -37 -6 -6 -11 -1 -16 12
-3 12 -13 21 -21 21 -18 0 -18 -10 2 -38 8 -12 14 -28 11 -35 -2 -6 -11 3 -21
21 -17 32 -36 43 -36 19 0 -7 7 -22 15 -33 24 -32 17 -52 -8 -21 -29 35 -40
25 -22 -20 20 -48 20 -70 0 -53 -21 18 -32 3 -16 -21 15 -25 7 -37 -14 -19
-13 10 -15 9 -15 -8 0 -12 4 -23 10 -27 11 -7 3 -33 -17 -57 -8 -9 -23 -47
-33 -85 -31 -113 -32 -117 -45 -133 -7 -9 -12 -56 -13 -125 -1 -102 1 -117 34
-210 51 -144 95 -255 105 -261 12 -7 11 8 -1 43 l-10 28 20 -25 c11 -14 20
-29 20 -35 0 -5 15 -27 33 -47 40 -47 77 -95 77 -101 0 -2 -12 -2 -26 1 -20 4
-31 16 -46 51 -25 57 -27 59 -38 41 -6 -10 -3 -26 11 -48 18 -31 18 -33 2 -28
-10 2 -38 7 -63 11 -109 14 -177 30 -200 45 -14 10 -51 27 -83 39 -92 34 -135
59 -302 176 l-50 35 3 93 c5 153 22 330 36 372 8 22 20 60 27 85 37 130 159
287 319 409 85 66 128 83 197 80 65 -2 126 26 215 100 40 34 74 61 76 61 1 0
2 -40 2 -89z m2625 -236 c32 -9 61 -26 81 -47 55 -60 56 -63 23 -65 -16 -1
-28 1 -25 5 2 4 -7 8 -21 9 -43 2 -133 55 -155 92 l-21 33 34 -7 c19 -3 57
-13 84 -20z m-197 -108 c31 -29 56 -116 43 -150 -12 -32 -44 -53 -93 -62 -43
-8 -47 -17 -16 -39 16 -11 25 -13 35 -4 15 12 43 -6 43 -28 0 -8 -7 -14 -15
-14 -8 0 -15 4 -15 9 0 19 -40 -3 -46 -24 -7 -29 -29 -38 -44 -19 -17 19 -20
19 -65 -20 -22 -19 -43 -32 -47 -30 -4 3 -14 26 -22 52 -12 41 -12 50 2 74 9
15 13 30 10 33 -9 10 -78 -6 -92 -21 -12 -11 -16 -11 -25 0 -14 16 -17 92 -6
127 18 58 131 156 186 161 48 4 140 -20 167 -45z m-488 4 c-12 -24 -30 -28
-30 -6 0 13 31 38 38 30 2 -2 -1 -13 -8 -24z m850 -32 c0 -6 -4 -7 -10 -4 -5
3 -10 11 -10 16 0 6 5 7 10 4 6 -3 10 -11 10 -16z m-903 -101 c-3 -8 -6 -5 -6
6 -1 11 2 17 5 13 3 -3 4 -12 1 -19z m1084 10 c6 -57 -35 -112 -56 -78 -4 6
-2 17 4 24 6 7 7 17 3 21 -4 5 1 5 11 2 16 -6 21 2 18 31 -1 6 3 12 9 12 5 0
11 -6 11 -12z m-90 -141 c-8 -8 -11 -7 -11 4 0 20 13 34 18 19 3 -7 -1 -17 -7
-23z m-982 -39 c1 -8 -20 -5 -38 6 -12 8 -11 11 5 23 16 12 19 11 26 -4 3 -10
7 -21 7 -25z m1257 -34 c21 -18 42 -34 46 -34 4 0 5 -7 1 -16 -4 -11 -9 -12
-16 -5 -6 6 -18 11 -26 11 -11 0 -10 -4 5 -15 10 -8 14 -15 8 -15 -6 0 -17 7
-24 15 -7 8 -24 15 -39 15 -31 0 -51 16 -51 42 0 11 5 15 14 12 11 -4 13 0 9
15 -7 28 24 18 73 -25z m-1242 -19 c3 -16 8 -46 11 -66 3 -21 12 -42 20 -49
19 -16 19 -31 1 -24 -8 3 -28 -2 -44 -10 l-30 -15 -16 39 c-20 51 -21 120 -2
120 7 0 20 8 27 17 12 15 12 16 -3 10 -10 -3 -18 -2 -18 3 0 5 11 9 25 8 19
-2 26 -9 29 -33z m884 -12 c17 -13 31 -32 31 -41 -1 -15 -2 -15 -6 1 -7 27
-33 21 -33 -8 0 -14 -4 -25 -10 -25 -5 0 -10 15 -10 33 0 26 -6 36 -25 45 -15
7 -27 8 -30 2 -8 -12 -25 -13 -25 -2 0 13 43 30 60 24 8 -3 30 -16 48 -29z
m437 -33 c3 -5 -1 -10 -9 -10 -9 0 -16 5 -16 10 0 6 4 10 9 10 6 0 13 -4 16
-10z m-3355 -71 c0 -10 4 -20 9 -23 4 -3 11 -18 14 -34 3 -15 17 -40 31 -55
14 -16 26 -30 26 -33 0 -9 92 -97 156 -150 57 -47 125 -76 142 -60 3 4 -2 22
-11 41 -31 64 -17 81 43 50 18 -9 60 -15 112 -16 46 -1 88 -4 93 -9 6 -4 22
-10 37 -14 23 -5 26 -3 22 17 -2 12 -2 16 2 9 3 -6 9 -10 13 -7 4 2 4 -19 0
-47 -5 -29 -7 -61 -5 -72 2 -12 1 -15 -1 -8 -3 7 -9 10 -14 6 -5 -3 -7 -9 -4
-14 3 -5 -6 -7 -20 -4 -17 3 -27 -1 -32 -12 -5 -13 -7 -13 -14 -2 -8 11 -11
11 -18 -1 -5 -8 -16 -11 -26 -7 -10 3 -28 0 -40 -8 -20 -13 -25 -12 -54 5 -36
22 -65 25 -58 7 2 -7 12 -12 21 -12 9 1 16 -2 16 -7 0 -5 3 -8 8 -8 21 4 31
-3 26 -16 -7 -17 31 -22 41 -5 8 14 46 13 43 -1 -2 -6 5 -13 15 -14 9 -2 17 3
17 10 0 7 14 16 30 20 17 4 30 11 30 16 0 6 5 7 10 4 6 -4 -2 -23 -21 -47 -18
-22 -35 -35 -38 -29 -6 10 -51 7 -75 -5 -6 -3 -3 1 7 9 9 8 17 17 17 21 0 11
-18 6 -34 -9 -12 -12 -20 -13 -34 -6 -11 6 -22 8 -25 5 -3 -3 -3 3 -1 13 4 13
0 20 -10 20 -9 0 -16 -4 -16 -9 0 -24 -99 22 -158 73 -18 16 -38 29 -45 29 -7
0 -21 3 -33 6 -15 4 -23 -1 -32 -21 -18 -39 -15 -72 14 -143 14 -35 24 -65 22
-67 -2 -1 -26 -5 -54 -9 -58 -7 -61 -5 -171 139 -92 122 -97 135 -98 245 0
105 15 158 69 242 28 42 32 46 44 31 6 -9 12 -25 12 -34z m2990 27 c0 -2 -8
-10 -17 -17 -16 -13 -17 -12 -4 4 13 16 21 21 21 13z m18 -38 c-8 -12 -20 -24
-26 -26 -7 -2 -2 8 11 22 27 32 34 33 15 4z m132 12 c8 -5 12 -11 10 -14 -3
-2 -14 2 -24 10 -22 15 -10 19 14 4z m-450 -12 c0 -6 -3 -8 -7 -5 -3 4 -15 0
-25 -10 -10 -9 -21 -13 -25 -10 -8 8 26 36 45 37 6 0 12 -5 12 -12z m457 -18
c14 -11 34 -20 44 -20 10 0 21 -5 24 -10 4 -6 37 -31 73 -56 37 -26 59 -44 50
-40 -10 3 -18 1 -18 -4 0 -6 -12 -10 -26 -10 -14 0 -70 -14 -124 -30 -100 -32
-140 -59 -143 -99 -1 -11 -6 -21 -13 -21 -16 0 -35 25 -26 34 4 4 3 6 -3 5 -5
-2 -36 9 -68 25 -61 28 -87 27 -51 -2 11 -9 26 -30 34 -45 8 -16 25 -40 38
-54 29 -31 25 -35 -20 -23 -30 9 -35 14 -30 35 3 18 0 25 -12 25 -9 0 -16 -4
-16 -10 0 -5 5 -10 11 -10 6 0 9 -6 6 -12 -2 -9 -20 -12 -54 -10 -64 5 -138
-25 -154 -62 -11 -24 -13 -24 -26 -8 -13 15 -14 14 -10 -15 4 -37 2 -38 -33
-18 -38 22 -68 19 -73 -7 -4 -20 -4 -20 -6 4 -1 36 -18 78 -31 78 -5 0 -12
-11 -16 -25 -3 -14 -11 -25 -17 -25 -6 0 -32 -20 -57 -45 -33 -33 -51 -44 -64
-39 -11 4 -15 13 -11 23 5 13 4 14 -6 4 -16 -16 -59 -17 -59 -2 0 5 5 7 11 3
13 -8 3 79 -12 108 -12 23 -11 41 2 33 17 -11 148 -6 171 6 18 10 24 8 36 -7
13 -18 14 -18 7 4 -5 16 -2 22 9 22 9 0 16 -4 16 -10 0 -5 5 -10 11 -10 6 0 8
8 4 19 -8 26 15 32 73 20 117 -26 121 -25 76 22 l-27 28 29 6 c39 9 117 36
129 46 6 4 41 22 79 38 62 28 67 29 61 11 -10 -32 24 -25 69 14 44 39 74 41
111 6 14 -13 25 -19 25 -12 0 6 -12 20 -27 32 -28 22 -37 61 -21 93 11 22 24
22 55 -3z m-1071 -55 c-41 -36 -56 -37 -56 -5 0 13 10 22 33 29 57 17 63 11
23 -24z m524 23 c0 6 7 12 15 12 8 0 15 -5 15 -11 0 -6 9 -8 20 -4 15 5 18 3
14 -9 -3 -9 -13 -16 -21 -16 -8 0 -12 -4 -9 -9 3 -4 -6 -6 -21 -3 -17 3 -24 1
-19 -6 3 -6 2 -14 -4 -17 -6 -4 -8 -14 -6 -23 9 -28 -38 -44 -79 -26 -42 17
-55 18 -55 1 0 -27 -71 -71 -132 -80 l-37 -6 15 42 c8 23 13 46 10 53 -3 7 10
12 37 12 55 0 77 4 72 12 -2 3 4 13 14 22 10 9 20 21 22 27 6 15 132 39 141
26 5 -6 8 -5 8 3z m-1839 -43 c-18 -8 -41 -15 -50 -14 -22 1 39 28 64 28 14 0
9 -4 -14 -14z m1473 -31 c23 4 26 2 26 -24 0 -36 -10 -61 -21 -54 -5 3 -9 16
-9 30 0 13 -4 24 -10 24 -12 0 -40 -54 -40 -78 0 -17 -5 -18 -37 -12 -57 11
-91 30 -96 54 -2 11 -8 30 -12 40 -6 14 -5 17 4 12 7 -5 22 1 35 13 13 12 36
26 52 30 24 7 34 4 55 -16 18 -17 34 -23 53 -19z m-1554 22 c0 -3 -4 -8 -10
-11 -5 -3 -10 -1 -10 4 0 6 5 11 10 11 6 0 10 -2 10 -4z m15 -67 c9 -17 15
-33 13 -35 -3 -2 -12 12 -21 31 -21 43 -13 47 8 4z m845 9 c0 -6 -15 -28 -34
-49 -46 -50 -74 -149 -43 -149 10 0 13 -18 14 -65 0 -36 -3 -67 -7 -70 -9 -5
-41 116 -47 175 -4 54 38 148 77 167 25 12 40 9 40 -9z m-830 -88 c0 -5 -5
-10 -11 -10 -5 0 -7 5 -4 10 3 6 8 10 11 10 2 0 4 -4 4 -10z m927 -104 c-13
-14 -28 -26 -33 -26 -4 0 5 13 21 30 16 16 30 28 32 26 2 -2 -7 -16 -20 -30z
m-590 -20 c1 -1 -15 -2 -36 -2 -34 -1 -37 1 -33 22 l4 24 32 -22 c17 -12 32
-22 33 -22z m1171 -2 c7 -14 8 -23 2 -19 -15 9 -32 45 -22 45 5 0 14 -12 20
-26z m-34 -10 c6 -10 24 -39 39 -63 44 -68 25 -59 -24 12 -28 41 -49 62 -59
60 -13 -4 -13 -3 0 6 19 14 31 10 44 -15z m-39 -31 c10 -16 29 -40 43 -55 20
-22 22 -28 10 -28 -9 0 -22 -2 -30 -5 -9 -4 -23 14 -41 50 -31 64 -31 65 -13
65 7 0 22 -12 31 -27z m-85 -52 c0 -5 3 -18 6 -28 5 -16 4 -16 -10 1 -18 23
-20 36 -6 36 6 0 10 -4 10 -9z m-1059 -91 c16 0 29 -4 29 -10 0 -5 -9 -10 -21
-10 -43 0 -109 51 -109 84 0 17 7 13 36 -21 27 -33 43 -43 65 -43z m1138 -34
l-11 -46 -18 23 c-9 12 -19 37 -22 54 -4 31 -4 32 14 16 17 -15 18 -15 18 13
0 28 0 28 15 7 13 -18 14 -30 4 -67z m-1654 55 c3 -5 16 -8 30 -5 19 3 23 1
19 -11 -4 -8 -10 -15 -16 -15 -12 0 -68 29 -68 35 0 9 29 5 35 -4z m95 -1
c-20 -13 -33 -13 -25 0 3 6 14 10 23 10 15 0 15 -2 2 -10z m962 -9 c2 -5 19
-19 38 -31 l35 -22 -34 6 c-37 7 -74 33 -65 47 7 12 21 11 26 0z m-688 -50
c25 -22 49 -70 42 -87 -6 -15 -36 -20 -36 -6 0 12 -42 30 -97 42 -36 9 -56 7
-97 -6 -28 -9 -56 -21 -63 -26 -7 -6 -13 -4 -16 4 -2 7 -11 -3 -20 -22 -24
-52 -70 -101 -86 -91 -10 7 -2 26 34 83 47 72 49 74 110 92 119 34 201 40 229
17z m551 -107 c80 -23 148 -65 168 -104 34 -68 4 -272 -55 -368 -47 -77 -54
-78 -249 -46 -68 11 -131 14 -210 10 -63 -2 -133 -5 -156 -5 -24 0 -43 -4 -43
-9 0 -13 -86 -36 -106 -28 -9 3 -30 0 -47 -8 -45 -20 -67 -26 -67 -20 0 25
134 266 185 334 23 30 50 70 59 87 20 40 108 111 144 118 15 3 47 12 72 20
134 44 202 49 305 19z m1027 -98 c7 4 8 2 4 -4 -4 -6 -13 -9 -21 -6 -8 4 -12
11 -8 17 5 8 8 7 11 -1 2 -7 9 -9 14 -6z m230 -90 c23 -13 48 -33 56 -44 12
-18 10 -20 -18 -24 -24 -4 -34 0 -42 16 -8 15 -8 21 1 24 6 2 9 8 6 12 -3 5
-12 7 -21 3 -9 -3 -14 0 -12 8 2 8 -4 13 -14 13 -10 -1 -18 2 -18 7 0 15 17
10 62 -15z m-1892 -45 c0 -5 -8 -18 -17 -30 -17 -20 -20 -21 -38 -6 -20 15
-20 15 -1 30 22 16 56 20 56 6z m1657 -108 c8 -20 -41 -66 -66 -61 -26 5 -25
44 1 62 29 21 57 20 65 -1z m-1732 -335 c11 -103 23 -135 76 -198 62 -75 137
-120 200 -120 125 0 229 40 320 124 30 28 64 58 75 67 39 32 90 95 111 139 22
45 22 45 16 10 -3 -19 -24 -89 -48 -155 -56 -156 -69 -232 -68 -390 1 -71 -2
-134 -7 -140 -4 -5 -10 -21 -12 -35 -9 -55 -20 163 -15 275 4 66 4 130 1 142
-6 22 -7 22 -42 7 -20 -8 -50 -25 -66 -38 -39 -29 -102 -61 -140 -70 -58 -14
-161 -8 -214 13 -80 32 -83 30 -76 -34 5 -39 3 -55 -5 -55 -6 0 -14 8 -17 18
-3 9 -14 35 -24 57 -19 39 -54 152 -65 210 -4 17 -16 65 -27 108 l-22 77 -35
-6 c-20 -4 -56 -13 -79 -21 -50 -17 -57 -14 -38 13 12 15 102 46 188 63 3 0 9
-27 13 -61z m786 -147 c-17 -50 -35 -119 -41 -153 -13 -81 -27 -138 -34 -146
-4 -3 -4 8 -2 24 3 16 10 61 16 99 11 69 78 280 87 271 2 -2 -9 -45 -26 -95z
m345 -49 c0 -10 -21 -35 -46 -57 -25 -22 -47 -43 -48 -48 -2 -4 -13 -12 -25
-18 -19 -11 -19 -10 4 21 22 30 108 120 114 120 1 0 2 -8 1 -18z m-1298 -128
c15 -18 35 -47 45 -64 l18 -30 -41 21 c-23 12 -56 25 -73 28 -27 6 -33 12 -38
43 -4 29 -2 38 10 41 29 6 51 -5 79 -39z m3860 -196 c-17 -26 -68 -43 -68 -23
0 21 29 38 74 44 5 0 2 -9 -6 -21z m-2608 -63 c-7 -8 -9 -15 -4 -15 5 0 1 -5
-8 -11 -10 -5 -18 -15 -18 -21 0 -7 5 -7 14 1 11 9 15 9 19 -1 5 -12 11 15 8
35 -2 13 11 7 25 -10 18 -24 17 -31 -5 -38 -20 -6 -126 -89 -212 -164 -60 -53
-76 -53 -69 -1 2 18 81 96 93 92 5 -1 6 2 2 7 -12 20 103 110 119 94 3 -4 6 1
6 10 0 9 8 21 18 26 24 14 26 13 12 -4z m-1275 -31 c17 -9 57 -26 90 -39 33
-12 81 -37 108 -54 76 -52 58 -68 -35 -30 -29 12 -89 34 -132 49 -67 22 -81
31 -87 53 -11 41 6 48 56 21z m-182 -246 c-2 -5 0 -7 5 -6 6 2 18 -5 29 -14
102 -95 167 -147 208 -168 27 -14 62 -36 78 -50 47 -41 204 -120 237 -120 18
0 20 -4 14 -22 -4 -13 -11 -26 -16 -29 -5 -3 -6 -19 -2 -34 6 -25 5 -27 -12
-21 -10 5 -38 11 -62 13 -38 5 -44 9 -49 35 -4 19 -10 27 -19 24 -8 -3 -14 1
-14 10 0 8 -5 12 -10 9 -6 -3 -7 -17 -4 -31 3 -13 2 -24 -4 -24 -11 0 -211
120 -257 154 -16 12 -51 34 -76 49 -44 25 -47 30 -58 87 -7 33 -14 91 -17 128
l-4 67 19 -25 c11 -13 17 -28 14 -32z m253 -694 c-6 -16 -8 -16 -16 -4 -6 8
-10 24 -10 35 0 18 1 18 16 3 10 -10 14 -23 10 -34z m65 16 c5 0 1 -8 -8 -18
-16 -16 -19 -16 -25 -2 -11 25 -9 32 8 26 9 -3 20 -6 25 -6z m19 -42 c0 -6 -6
-5 -15 2 -8 7 -15 14 -15 16 0 2 7 1 15 -2 8 -4 15 -11 15 -16z m985 -325 c15
-19 18 -106 5 -158 l-7 -30 -11 28 c-10 24 -16 27 -62 27 -55 0 -187 18 -209
29 -16 8 -43 89 -36 108 4 13 113 21 238 17 53 -2 71 -6 82 -21z m872 21 c-3
-3 -12 -4 -19 -1 -8 3 -5 6 6 6 11 1 17 -2 13 -5z"/>
<path d="M3162 7131 c-40 -38 -72 -74 -72 -81 0 -13 125 105 141 133 5 9 8 17
6 17 -2 0 -36 -31 -75 -69z"/>
<path d="M2948 6907 c-148 -155 -284 -325 -277 -346 4 -11 69 67 131 158 20
30 52 68 70 85 27 26 137 147 196 219 42 49 -6 3 -120 -116z"/>
<path d="M3523 6738 c-61 -30 -79 -48 -48 -48 16 0 125 65 125 75 0 9 -15 4
-77 -27z"/>
<path d="M3324 5619 c-15 -30 -15 -33 17 -95 34 -66 53 -88 101 -119 26 -16
28 -16 53 9 21 21 26 34 23 64 -3 33 -6 37 -28 35 -38 -4 -113 39 -124 70 -12
34 -1 45 22 24 10 -10 22 -17 27 -17 5 0 21 -12 36 -26 27 -26 49 -25 49 2 0
8 5 14 10 14 6 0 10 6 10 14 0 17 -33 30 -57 22 -10 -3 -31 3 -48 14 -44 29
-72 26 -91 -11z"/>
<path d="M4055 5380 c-8 -12 20 -24 35 -15 6 3 8 11 5 16 -8 12 -32 12 -40 -1z"/>
<path d="M4187 5294 c-13 -13 -7 -24 14 -24 11 0 19 5 17 12 -5 14 -22 21 -31
12z"/>
<path d="M3403 5233 c-12 -2 -24 -14 -27 -28 -3 -13 -9 -31 -12 -42 -4 -13 -3
-15 4 -4 12 16 14 12 37 -67 14 -46 26 -69 48 -84 41 -29 78 -16 94 35 11 32
10 45 -8 92 -13 35 -32 64 -53 80 -32 25 -40 26 -83 18z m82 -53 l29 -30 -25
0 c-34 0 -64 23 -56 44 9 23 19 20 52 -14z"/>
<path d="M4267 5213 c-4 -3 -7 -11 -7 -17 0 -6 5 -5 12 2 6 6 9 14 7 17 -3 3
-9 2 -12 -2z"/>
<path d="M3447 4934 c-9 -9 36 -72 56 -78 29 -7 26 40 -5 67 -21 17 -40 22
-51 11z"/>
<path d="M5626 5057 c3 -10 9 -15 12 -12 3 3 0 11 -7 18 -10 9 -11 8 -5 -6z"/>
<path d="M5198 4970 c-31 -24 -61 -94 -53 -121 4 -11 19 -26 35 -34 44 -23 87
-19 126 13 33 26 45 52 23 52 -5 0 -8 4 -5 9 9 13 -10 57 -34 81 -25 25 -60
26 -92 0z"/>
<path d="M3397 4233 c-4 -3 -7 -11 -7 -17 0 -6 5 -5 12 2 6 6 9 14 7 17 -3 3
-9 2 -12 -2z"/>
<path d="M3420 4221 c0 -6 5 -13 10 -16 6 -3 10 1 10 9 0 9 -4 16 -10 16 -5 0
-10 -4 -10 -9z"/>
<path d="M3467 4179 c-10 -22 -16 -46 -14 -53 3 -6 8 3 12 19 5 17 12 33 18
36 5 4 7 14 5 23 -2 11 -9 2 -21 -25z"/>
<path d="M3320 4170 c0 -5 5 -10 10 -10 6 0 10 5 10 10 0 6 -4 10 -10 10 -5 0
-10 -4 -10 -10z"/>
<path d="M3426 4171 c-4 -7 -5 -15 -2 -18 9 -9 19 4 14 18 -4 11 -6 11 -12 0z"/>
<path d="M3405 4130 c-3 -5 -1 -10 4 -10 6 0 11 5 11 10 0 6 -2 10 -4 10 -3 0
-8 -4 -11 -10z"/>
<path d="M3241 4126 c12 -10 60 -16 54 -6 -3 5 -18 10 -32 10 -15 0 -24 -2
-22 -4z"/>
<path d="M3421 4046 c-8 -9 -8 -16 -2 -20 6 -4 15 3 21 14 12 23 -2 27 -19 6z"/>
<path d="M3792 3481 c-31 -39 -31 -40 -9 -43 17 -2 22 -10 22 -32 0 -35 37
-53 78 -37 23 9 27 17 27 48 0 21 -9 53 -20 71 -27 45 -58 43 -98 -7z"/>
<path d="M5480 3590 c0 -5 5 -10 10 -10 6 0 10 5 10 10 0 6 -4 10 -10 10 -5 0
-10 -4 -10 -10z"/>
<path d="M4541 2514 c0 -11 3 -14 6 -6 3 7 2 16 -1 19 -3 4 -6 -2 -5 -13z"/>
<path d="M4491 2484 c0 -11 3 -14 6 -6 3 7 2 16 -1 19 -3 4 -6 -2 -5 -13z"/>
<path d="M2489 8046 c-13 -14 -11 -63 6 -126 8 -30 15 -74 15 -97 0 -42 -1
-43 -47 -56 -56 -17 -57 -21 -7 -109 40 -72 84 -122 96 -110 4 4 3 35 -2 67
-15 91 -15 92 29 99 46 7 51 16 57 116 3 41 10 99 15 129 5 29 6 57 4 62 -3 4
3 12 12 18 16 9 15 11 -7 12 -104 4 -162 3 -171 -5z"/>
<path d="M6171 7433 c-1 -26 19 -73 31 -73 10 0 11 14 1 24 -5 4 -13 22 -20
39 -9 26 -12 28 -12 10z"/>
<path d="M6224 6979 c-3 -6 -1 -16 4 -21 8 -8 11 -5 9 11 -1 24 -3 25 -13 10z"/>
<path d="M5830 6950 c0 -5 5 -10 11 -10 5 0 7 5 4 10 -3 6 -8 10 -11 10 -2 0
-4 -4 -4 -10z"/>
<path d="M6567 5994 c-4 -4 -7 -14 -7 -23 0 -11 3 -12 11 -4 6 6 10 16 7 23
-2 6 -7 8 -11 4z"/>
<path d="M6231 5184 c0 -11 3 -14 6 -6 3 7 2 16 -1 19 -3 4 -6 -2 -5 -13z"/>
<path d="M5900 5109 c0 -5 5 -7 10 -4 6 3 10 8 10 11 0 2 -4 4 -10 4 -5 0 -10
-5 -10 -11z"/>
<path d="M5860 5090 c0 -5 5 -10 10 -10 6 0 10 5 10 10 0 6 -4 10 -10 10 -5 0
-10 -4 -10 -10z"/>
<path d="M5800 5051 c0 -6 9 -9 20 -8 11 1 20 5 20 9 0 4 -9 8 -20 8 -11 0
-20 -4 -20 -9z"/>
<path d="M5820 3980 c0 -5 5 -10 10 -10 6 0 10 5 10 10 0 6 -4 10 -10 10 -5 0
-10 -4 -10 -10z"/>
<path d="M5940 3785 c0 -15 -2 -17 -9 -6 -6 9 -11 10 -15 2 -4 -6 -2 -11 3
-11 6 0 11 -8 12 -17 0 -13 2 -14 6 -4 5 11 7 11 14 0 7 -11 9 -9 9 6 0 11 -5
27 -10 35 -8 12 -10 12 -10 -5z"/>
<path d="M5937 3710 c3 -11 13 -20 22 -20 14 0 14 2 1 10 -13 9 -13 11 0 20
12 8 11 10 -7 10 -16 0 -20 -5 -16 -20z"/>
<path d="M5910 3664 c0 -18 -4 -25 -14 -21 -10 4 -12 0 -9 -14 4 -14 0 -19
-13 -19 -16 0 -17 2 -4 10 13 8 13 10 -2 10 -21 0 -102 -104 -95 -122 4 -10 6
-10 6 -1 1 7 8 10 19 7 14 -5 15 -4 2 5 -13 10 -8 15 13 12 4 0 7 4 7 9 0 6 4
10 10 10 5 0 7 -7 4 -15 -13 -32 7 -13 21 21 8 19 19 33 25 29 5 -3 10 -2 10
4 0 6 6 9 13 7 6 -1 9 -1 5 1 -15 8 -8 20 17 31 14 6 25 17 25 23 0 8 -5 8
-15 -1 -14 -12 -15 -10 -11 13 3 15 0 27 -5 27 -5 0 -9 -12 -9 -26z"/>
<path d="M5532 3172 c-16 -10 1 -62 19 -62 7 0 10 3 7 6 -4 3 -2 19 2 35 9 30
-1 37 -28 21z"/>
<path d="M6170 3172 c0 -12 19 -26 26 -19 2 2 -2 10 -11 17 -9 8 -15 8 -15 2z"/>
<path d="M5574 3141 c3 -14 0 -31 -6 -38 -8 -10 -6 -13 6 -13 18 0 20 24 5 55
-8 18 -9 17 -5 -4z"/>
<path d="M3136 2741 c-4 -7 -5 -15 -2 -18 9 -9 19 4 14 18 -4 11 -6 11 -12 0z"/>
<path d="M7430 2729 c0 -11 -4 -17 -10 -14 -5 3 -10 1 -10 -4 0 -18 19 -12 30
8 13 25 13 31 0 31 -5 0 -10 -9 -10 -21z"/>
<path d="M6290 2670 c0 -5 5 -10 10 -10 6 0 10 5 10 10 0 6 -4 10 -10 10 -5 0
-10 -4 -10 -10z"/>
<path d="M6407 2655 c3 -8 9 -12 14 -9 12 7 11 11 -5 17 -10 4 -13 1 -9 -8z"/>
<path d="M6448 2653 c7 -3 16 -2 19 1 4 3 -2 6 -13 5 -11 0 -14 -3 -6 -6z"/>
<path d="M6500 2648 c0 -10 6 -18 14 -18 8 0 17 -6 20 -12 3 -7 4 -4 3 7 -2
16 3 20 26 18 15 -1 27 2 27 8 0 5 -16 9 -35 7 -19 -1 -35 -7 -35 -13 0 -5 -5
-3 -10 5 -8 13 -10 12 -10 -2z"/>
<path d="M6602 2634 c3 -27 7 -29 31 -11 15 11 15 13 -8 23 -23 11 -24 10 -23
-12z"/>
<path d="M3136 2637 c3 -10 9 -15 12 -12 3 3 0 11 -7 18 -10 9 -11 8 -5 -6z"/>
<path d="M6670 2640 c0 -4 7 -13 15 -20 12 -10 15 -9 16 6 0 11 3 14 6 7 2 -7
10 -13 16 -13 8 0 7 4 -1 12 -13 13 -52 19 -52 8z"/>
<path d="M6740 2630 c0 -11 4 -20 9 -20 5 0 7 9 4 20 -3 11 -7 20 -9 20 -2 0
-4 -9 -4 -20z"/>
<path d="M6768 2633 c6 -2 18 -2 25 0 6 3 1 5 -13 5 -14 0 -19 -2 -12 -5z"/>
<path d="M6808 2622 c-4 -12 1 -18 13 -19 13 -1 19 5 19 18 0 24 -26 25 -32 1z"/>
<path d="M6850 2631 c0 -6 4 -13 10 -16 6 -3 7 1 4 9 -7 18 -14 21 -14 7z"/>
<path d="M6901 2621 c-1 -17 3 -22 15 -17 9 3 38 6 65 6 27 0 49 4 49 9 0 13
-69 19 -74 6 -2 -5 -5 -4 -5 3 -1 10 -6 9 -18 -4 -16 -15 -17 -15 -24 2 -7 17
-8 16 -8 -5z"/>
<path d="M3162 2610 c1 -13 9 -25 16 -28 17 -5 15 23 -4 39 -14 11 -15 10 -12
-11z"/>
<path d="M7662 2604 c-13 -15 2 -32 129 -142 43 -37 49 -39 42 -12 -3 11 -8
18 -12 15 -4 -2 -19 20 -34 48 -15 29 -27 44 -27 35 0 -10 -5 -18 -11 -18 -6
0 -8 8 -4 18 3 11 -3 30 -16 45 -19 25 -40 36 -38 20 4 -23 -4 -36 -9 -17 -6
19 -9 20 -20 8z"/>
<path d="M3140 2565 c0 -8 5 -15 10 -15 6 0 10 7 10 15 0 8 -4 15 -10 15 -5 0
-10 -7 -10 -15z"/>
<path d="M2992 2230 c0 -14 2 -19 5 -12 2 6 2 18 0 25 -3 6 -5 1 -5 -13z"/>
<path d="M450 1550 c-8 -5 -10 -10 -5 -10 6 0 17 5 25 10 8 5 11 10 5 10 -5 0
-17 -5 -25 -10z"/>
<path d="M2635 1370 c3 -5 8 -10 11 -10 2 0 4 5 4 10 0 6 -5 10 -11 10 -5 0
-7 -4 -4 -10z"/>
<path d="M1170 1280 c0 -5 7 -10 16 -10 8 0 12 5 9 10 -3 6 -10 10 -16 10 -5
0 -9 -4 -9 -10z"/>
<path d="M3036 1241 c-4 -7 -5 -15 -2 -18 9 -9 19 4 14 18 -4 11 -6 11 -12 0z"/>
<path d="M3060 1239 c0 -5 5 -7 10 -4 6 3 10 8 10 11 0 2 -4 4 -10 4 -5 0 -10
-5 -10 -11z"/>
<path d="M2590 1210 c0 -5 5 -10 10 -10 6 0 10 5 10 10 0 6 -4 10 -10 10 -5 0
-10 -4 -10 -10z"/>
<path d="M2565 1201 c-3 -5 -1 -12 5 -16 5 -3 10 1 10 9 0 18 -6 21 -15 7z"/>
<path d="M2740 1206 c0 -2 7 -7 16 -10 8 -3 12 -2 9 4 -6 10 -25 14 -25 6z"/>
<path d="M2870 1201 c0 -5 7 -12 16 -15 22 -9 24 -8 24 9 0 8 -9 15 -20 15
-11 0 -20 -4 -20 -9z"/>
<path d="M2920 1195 c0 -8 4 -15 10 -15 5 0 7 7 4 15 -4 8 -8 15 -10 15 -2 0
-4 -7 -4 -15z"/>
<path d="M1660 1192 c0 -2 7 -11 16 -19 13 -14 17 -14 24 -3 5 8 7 17 4 21 -4
8 -44 8 -44 1z"/>
<path d="M2730 1170 c-9 -6 -10 -10 -3 -10 6 0 15 5 18 10 8 12 4 12 -15 0z"/>
<path d="M2835 1160 c3 -5 8 -10 11 -10 2 0 4 5 4 10 0 6 -5 10 -11 10 -5 0
-7 -4 -4 -10z"/>
<path d="M2925 1160 c-3 -5 -1 -10 4 -10 6 0 11 5 11 10 0 6 -2 10 -4 10 -3 0
-8 -4 -11 -10z"/>
<path d="M2316 1145 c4 -8 8 -15 10 -15 2 0 4 7 4 15 0 8 -4 15 -10 15 -5 0
-7 -7 -4 -15z"/>
<path d="M2100 1140 c8 -5 20 -10 25 -10 6 0 3 5 -5 10 -8 5 -19 10 -25 10 -5
0 -3 -5 5 -10z"/>
<path d="M1845 1130 c-3 -6 1 -7 9 -4 18 7 21 14 7 14 -6 0 -13 -4 -16 -10z"/>
<path d="M2005 1079 c-4 -6 -2 -16 5 -22 10 -9 11 -9 6 0 -3 6 -1 13 6 15 9 3
9 6 1 11 -7 4 -15 2 -18 -4z"/>
<path d="M7288 1075 c-1 -1 -43 -6 -93 -10 -115 -8 -268 -32 -300 -47 -14 -6
-24 -16 -22 -22 4 -12 32 -13 92 -2 35 6 -19 -19 -157 -72 -12 -5 -15 -11 -9
-21 8 -12 20 -12 73 -3 194 36 256 54 384 112 23 11 54 22 68 26 35 8 30 36
-6 40 -14 1 -28 1 -30 -1z"/>
<path d="M7400 1058 c0 -29 16 -41 39 -28 12 6 20 17 18 23 -5 17 -57 22 -57
5z"/>
<path d="M2180 820 c0 -19 5 -30 14 -30 8 0 34 -8 58 -19 24 -10 78 -21 121
-25 l77 -8 0 26 c0 14 -5 26 -11 26 -6 0 -44 14 -86 30 -47 19 -92 30 -124 30
-48 0 -49 -1 -49 -30z"/>
<path d="M2140 752 c0 -22 42 -47 64 -39 24 10 19 25 -14 42 -38 20 -50 19
-50 -3z"/>
</g>
</svg>
