<svg width="686" height="268" viewBox="0 0 686 268" fill="none" xmlns="http://www.w3.org/2000/svg">
<rect width="686" height="268" />
<rect id="SushiLogo-fond" y="6" width="686" height="248" fill="#BF0000"/>
<g id="SushiLogo-img">
<g id="Objects">
<g id="Group">
<g id="Group_2">
<path id="Vector" d="M183.8 70.5C197.7 70.5 208.6 65.9 211.5 59.3C212 58.2 212.3 57 212.3 55.8C212.3 54.6 212 53.4 211.5 52.3C208.6 45.7 197.7 41.1 183.8 41.1C169.9 41.1 159 45.7 156.1 52.3C155.6 53.4 155.3 54.6 155.3 55.8C155.3 57 155.6 58.2 156.1 59.3C159 65.9 170 70.5 183.8 70.5Z" fill="white"/>
<path id="Vector_2" d="M101.4 89.8C110.7 89.8 118.7 87.7 123.8 84.4C125.2 83.5 126.4 82.5 127.3 81.4C128 80.5 128.6 79.6 129.1 78.7C129.6 77.6 129.9 76.4 129.9 75.2C129.9 74 129.6 72.8 129.1 71.7C128.7 70.7 128.1 69.8 127.3 69C126.4 67.9 125.2 66.9 123.8 66C118.7 62.6 110.7 60.6 101.4 60.6C87.5 60.6 76.6 65.2 73.7 71.8C73.2 72.9 72.9 74.1 72.9 75.3C72.9 76.5 73.2 77.7 73.7 78.8C76.6 85.2 87.5 89.8 101.4 89.8Z" fill="white"/>
<path id="Vector_3" d="M290.5 148C289.1 143.7 287.8 140.8 286.6 139.4C285.6 138.3 284.2 137.6 282.7 137.6C282.3 137.6 281.8 137.7 281.4 137.8C281.1 137.9 265.9 141.7 243.4 147.5C243.7 146.3 243.9 145.1 243.9 143.9V119.7C266.3 101.8 281.8 89.1 285 85.9C286.3 84.6 286.9 82.6 286.5 80.8C286.3 79.9 285.9 77.9 280.9 72.6C277.8 69.3 275.3 67.3 273.6 66.6C273 66.3 272.3 66.2 271.6 66.2C270.4 66.2 269.2 66.6 268.2 67.4C268 67.6 258.5 75.6 244 88V55.8C244 39.6 217.6 27 184 27C155.5 27 132.3 36.1 125.8 48.7C118.4 47.2 110.2 46.3 101.6 46.3C68 46.3 41.6 59 41.6 75.1V163.1C41.6 176.1 58.5 186.7 82.6 190.5C81.5 190.8 80.5 191.1 79.4 191.4C67.3 194.9 57.9 197.9 51.3 200.2C40.2 204 38 205.7 36.8 208.1C36.1 209.6 36.1 211.4 36.7 212.9C37.6 214.8 39.5 216 41.5 216C41.9 216 42.2 216 42.6 215.9C43.5 215.7 46.3 215.1 50.6 214.2C71.4 209.8 93.2 205.2 114.8 200.6C113.3 202 111.8 203.4 110.3 204.7C101 213.2 93.9 220 89 225C80.8 233.3 79.4 235.8 79.5 238.4C79.5 240.1 80.3 241.7 81.6 242.7C82.6 243.5 83.7 243.9 84.9 243.9C86 243.9 87.2 243.5 88.2 242.8C88.9 242.3 91.2 240.5 94.7 237.7C113.3 223.1 132.8 207.8 151.9 192.8C221.2 177.9 280.7 164.8 288.6 162.1C290.4 161.5 291.7 160 292.2 158.1C292.2 157 292.7 155 290.5 148ZM286.6 156.9C279 159.6 219.6 172.6 161.1 185.2C166.5 180.9 171.9 176.7 177.2 172.5C178.6 171.4 180 170.3 181.5 169.1C181.6 169 181.7 168.9 181.9 168.8C186.9 167.5 191.8 166.2 196.6 164.9C205.9 162.5 214.9 160.1 223.4 158C227.2 157 230.9 156.1 234.5 155.2C236.6 154.7 238.6 154.1 240.6 153.6C265.7 147.2 282.9 142.9 282.9 142.9C284.2 144.6 287.9 156.4 286.6 156.9ZM140 195.1C110.4 218.4 87.2 236.5 84.7 238.5C83 237.1 100.3 220.5 124.9 198.3C126.2 197.1 127.5 196 128.8 194.8C130.1 193.6 131.4 192.5 132.7 191.3C134.7 189.5 136.7 187.7 138.8 185.9C141.7 183.3 144.7 180.6 147.8 177.9C148.3 177.4 148.9 177 149.4 176.5C150.3 175.7 151.3 174.8 152.3 174C152.8 173.6 153.2 173.2 153.7 172.8C154.7 171.9 155.7 171 156.8 170.1C156.9 170 157 169.9 157.1 169.8C157.8 169.2 158.5 168.6 159.2 168C159.6 167.7 160 167.3 160.4 167C160.6 166.8 160.9 166.6 161.1 166.4C162 165.6 162.9 164.9 163.7 164.1C164.7 163.2 165.7 162.4 166.7 161.5C191.3 140 217.1 117.9 236.9 101C238.1 100 239.3 99 240.4 98C241.6 97 242.8 96 243.9 95C260.5 80.8 271.5 71.5 271.5 71.5C273.6 72.4 282.2 81.3 281.2 82.3C278.2 85.3 263.8 97.1 243.9 113.1C242.7 114 241.6 115 240.4 115.9C239.2 116.8 238.1 117.8 236.9 118.7C219.8 132.4 199.5 148.4 179.5 164.2C178.9 164.7 178.3 165.2 177.7 165.7C176.6 166.6 175.5 167.4 174.4 168.3C174.1 168.5 173.9 168.7 173.6 168.9C172.3 169.9 170.9 171 169.6 172C169.5 172.1 169.3 172.2 169.2 172.3C162.5 177.6 155.9 182.8 149.6 187.8C148 189 146.5 190.3 144.9 191.5C143.1 192.6 141.6 193.9 140 195.1ZM96.8 191.9C101.1 190.7 105.5 189.5 110 188.2C118.5 185.8 127.4 183.4 136.5 180.9C135.2 182 134 183.1 132.8 184.2C130.8 185.9 128.9 187.6 127.1 189.3C125.5 190.7 124 192.1 122.5 193.5C79.9 202.6 44.9 210 41.4 210.7C40.4 208.6 64 201.2 96.8 191.9ZM49.2 71.6C53.4 62.4 73.7 53.3 101.4 53.3C109.6 53.3 117.2 54.1 123.8 55.5C125 55.7 126.1 56 127.3 56.3C128.6 56.6 129.8 56.9 130.9 57.3C133.1 57.9 135.2 58.6 137.1 59.4C145.7 62.8 151.4 67.2 153.5 71.7C153.8 72.4 154 73.1 154.2 73.8C154.3 74.3 154.3 74.7 154.3 75.2C154.3 75.9 154.2 76.7 154 77.4C153.9 77.8 153.7 78.3 153.5 78.7C153.2 79.3 152.8 80 152.4 80.6C149 85.4 141.4 90 130.8 93.1C129.7 93.4 128.5 93.7 127.3 94C126.2 94.3 125 94.5 123.8 94.8C117.1 96.2 109.6 97 101.4 97C73.7 97 53.4 88 49.2 78.7C48.7 77.5 48.4 76.4 48.4 75.2C48.4 74 48.7 72.8 49.2 71.6ZM183.8 34C211.5 34 231.8 43.1 236 52.3C236.5 53.5 236.8 54.6 236.8 55.8C236.8 57 236.5 58.1 236 59.3C231.8 68.5 211.5 77.6 183.8 77.6C177.7 77.6 171.9 77.2 166.6 76.4V79.9V83.4V154.3C164.8 155.9 163.1 157.4 161.3 158.9V82.6V79V75.4V75C161.3 73.2 161 71.5 160.4 69.8C159 65.9 156 62.3 151.8 59.2C150.1 58 148.3 56.8 146.3 55.7C143.9 54.4 141.3 53.2 138.5 52.2C136.7 51.5 134.8 50.9 132.8 50.3C138.7 41.9 158 34 183.8 34ZM71.4 135.4C71.4 138.5 68.9 141 65.8 141C62.7 141 60.2 138.5 60.2 135.4C60.2 132.3 62.7 129.8 65.8 129.8C68.9 129.8 71.4 132.3 71.4 135.4ZM137 140.9C133.9 140.9 131.4 138.4 131.4 135.3C131.4 132.2 133.9 129.7 137 129.7C140.1 129.7 142.6 132.2 142.6 135.3C142.6 138.4 140.1 140.9 137 140.9ZM112 142.3C112 148.4 107 153.4 100.9 153.4C94.8 153.4 89.8 148.4 89.8 142.3H112Z" fill="white"/>
</g>
</g>
</g>
</g>
<g id="SushiLogo-text">
<path id="Sushi" d="M389.04 108.12C389.04 113.96 385.32 119.04 377.88 123.36C370.44 127.6 358.64 130.56 342.48 132.24C341.92 131.84 341.04 130.88 339.84 129.36C338.64 127.84 337.6 126.36 336.72 124.92C334.4 121.08 332.68 116.6 331.56 111.48L342.84 113.16C346.52 113.56 349.76 113.76 352.56 113.76C361.44 113.76 365.88 111.8 365.88 107.88C355 106.92 347.28 105.44 342.72 103.44C338.16 101.36 335.88 97.72 335.88 92.52C335.88 84.92 340.4 78.84 349.44 74.28C358.48 69.72 370.72 67.44 386.16 67.44L389.88 93C381.56 90.6 370.2 89.2 355.8 88.8C357.48 91.2 360.28 93.08 364.2 94.44C368.12 95.8 371.84 96.72 375.36 97.2C378.96 97.68 382.12 98.8 384.84 100.56C387.64 102.32 389.04 104.84 389.04 108.12ZM393.388 123.72C393.068 119.8 392.908 116.36 392.908 113.4C392.908 105.16 393.748 98.52 395.428 93.48L396.988 89.28C398.508 88 401.428 86.84 405.748 85.8C410.148 84.76 414.668 84.24 419.308 84.24C418.588 85.52 417.668 87.32 416.548 89.64C415.428 91.88 414.108 95.92 412.588 101.76C411.148 107.6 410.428 112.88 410.428 117.6C410.428 118.8 410.468 119.96 410.548 121.08C411.348 120.84 412.508 119.88 414.028 118.2C415.548 116.44 416.868 114.48 417.988 112.32C421.188 106.48 423.748 98.6 425.668 88.68C431.908 91.48 438.468 92.88 445.348 92.88C443.108 99.04 441.268 105.4 439.828 111.96C438.388 118.44 437.508 123.4 437.188 126.84L436.828 132C434.588 131.2 432.108 129.6 429.388 127.2C426.748 124.72 424.788 122.12 423.508 119.4C423.108 120.2 422.188 121.48 420.748 123.24C419.308 124.92 417.948 126.32 416.668 127.44C413.228 130.4 409.628 132.2 405.868 132.84L393.388 123.72ZM489.389 112.8C489.389 117.44 486.429 121.52 480.509 125.04C474.589 128.56 465.509 130.96 453.269 132.24C449.269 126.64 446.509 120.08 444.989 112.56C444.989 112.56 445.869 112.76 447.629 113.16C453.469 114.68 457.949 115.44 461.069 115.44C464.269 115.44 466.829 115.24 468.749 114.84C470.749 114.36 472.029 113.44 472.589 112.08C463.149 111.2 457.669 110.44 456.149 109.8C454.709 109.08 453.429 108.36 452.309 107.64C450.469 106.44 449.549 104.32 449.549 101.28C449.549 98.24 450.389 95.44 452.069 92.88C453.829 90.32 456.029 88.28 458.669 86.76C461.389 85.24 464.509 83.96 468.029 82.92C474.109 81.24 480.749 80.4 487.949 80.4L490.829 100.92C483.549 98.92 474.349 97.76 463.229 97.44C464.349 100.4 469.069 102.52 477.389 103.8C480.429 104.2 483.189 105.16 485.669 106.68C488.149 108.12 489.389 110.16 489.389 112.8ZM532.176 83.76C536.896 83.76 541.536 89.08 546.096 99.72C542.256 104.84 539.376 111.84 537.456 120.72C536.656 124.16 536.216 127.6 536.136 131.04H535.416C529.096 131.04 524.976 128.2 523.056 122.52C522.336 120.44 521.976 118.32 521.976 116.16C521.976 111.44 523.096 105.68 525.336 98.88C519.976 103.52 514.856 110.92 509.976 121.08C509.656 122.92 509.336 125.84 509.016 129.84C504.456 128.88 501.056 127.56 498.816 125.88C496.736 124.36 495.496 123.12 495.096 122.16C495.256 114.8 495.976 106.52 497.256 97.32C498.616 88.12 499.896 80.76 501.096 75.24C502.296 69.64 502.976 66.8 503.136 66.72C506.976 65.52 510.856 64.6 514.776 63.96C518.776 63.24 521.776 62.84 523.776 62.76H526.776C521.656 74.2 517.336 87.08 513.816 101.4C516.856 95.96 519.976 91.68 523.176 88.56C526.456 85.36 529.456 83.76 532.176 83.76ZM572.41 97.8C570.81 101.16 569.53 104.36 568.57 107.4C567.61 110.36 566.73 114.08 565.93 118.56C565.21 122.96 564.85 126.36 564.85 128.76C564.85 131.08 564.85 132.44 564.85 132.84C561.17 131.16 557.97 129.44 555.25 127.68C552.53 125.92 550.69 124.56 549.73 123.6L548.41 122.16C548.41 114.88 548.85 108.12 549.73 101.88C550.61 95.64 551.49 91.24 552.37 88.68L553.69 84.72C560.89 86 567.33 87.84 573.01 90.24L575.89 91.44C575.17 92.32 574.01 94.44 572.41 97.8ZM571.81 85.56C570.85 85.16 569.61 84.56 568.09 83.76C566.65 82.96 564.41 81.2 561.37 78.48C558.41 75.76 556.37 72.88 555.25 69.84C557.25 68.96 559.13 67.76 560.89 66.24C562.73 64.64 564.05 63.32 564.85 62.28L566.05 60.6C570.93 61.4 575.09 62.68 578.53 64.44L580.33 65.4C580.17 66.44 579.93 67.76 579.61 69.36C579.37 70.96 578.49 73.6 576.97 77.28C575.53 80.88 573.81 83.64 571.81 85.56Z" fill="white"/>
<path id="San" d="M526.632 171.296C526.632 175.968 523.656 180.032 517.704 183.488C511.752 186.88 502.312 189.248 489.384 190.592C488.936 190.272 488.232 189.504 487.272 188.288C486.312 187.072 485.48 185.888 484.776 184.736C482.92 181.664 481.544 178.08 480.648 173.984L489.672 175.328C492.616 175.648 495.208 175.808 497.448 175.808C504.552 175.808 508.104 174.24 508.104 171.104C499.4 170.336 493.224 169.152 489.576 167.552C485.928 165.888 484.104 162.976 484.104 158.816C484.104 152.736 487.72 147.872 494.952 144.224C502.184 140.576 511.976 138.752 524.328 138.752L527.304 159.2C520.648 157.28 511.56 156.16 500.04 155.84C501.384 157.76 503.624 159.264 506.76 160.352C509.896 161.44 512.872 162.176 515.688 162.56C518.568 162.944 521.096 163.84 523.272 165.248C525.512 166.656 526.632 168.672 526.632 171.296ZM564.383 171.968C564.383 177.344 565.023 182.048 566.303 186.08L557.951 189.92C553.919 188.96 551.487 186.336 550.655 182.048C548.991 183.968 547.135 185.6 545.087 186.944C543.103 188.288 541.439 188.96 540.095 188.96C537.087 188.96 534.335 187.616 531.839 184.928C529.407 182.24 528.191 179.68 528.191 177.248C528.191 174.816 528.703 172.256 529.727 169.568C530.751 166.816 532.191 164.192 534.047 161.696C535.903 159.136 538.399 157.056 541.535 155.456C544.671 153.792 547.743 152.96 550.751 152.96C553.759 152.96 555.935 153.44 557.279 154.4L559.775 149.408C562.015 150.24 563.999 151.392 565.727 152.864C567.455 154.272 568.639 155.488 569.279 156.512L570.239 158.048C569.279 161.696 567.679 165.28 565.439 168.8L564.383 170.528C564.383 171.04 564.383 171.52 564.383 171.968ZM542.111 179.456C544.799 179.456 547.647 177.888 550.655 174.752C551.423 169.568 553.087 164.032 555.647 158.144C550.783 160.832 547.135 164.32 544.703 168.608C542.719 172.128 541.727 175.168 541.727 177.728C541.727 178.304 541.791 178.88 541.919 179.456C541.983 179.456 542.047 179.456 542.111 179.456ZM593.69 184.736C595.866 176.8 596.954 170.72 596.954 166.496C596.954 166.176 596.954 165.888 596.954 165.632L596.762 163.904C593.114 167.04 589.498 171.968 585.914 178.688C585.594 180.992 585.274 184.192 584.954 188.288C582.458 187.712 580.186 186.944 578.138 185.984C576.09 185.024 574.65 184.224 573.818 183.584L572.57 182.528C572.954 173.376 573.69 165.056 574.778 157.568L575.258 153.824L591.962 150.176C590.682 153.632 589.434 158.496 588.218 164.768C590.522 160.736 592.922 157.568 595.418 155.264C597.914 152.96 600.186 151.808 602.234 151.808C606.01 151.808 609.722 156.064 613.37 164.576C612.922 165.472 612.346 166.752 611.642 168.416C610.938 170.016 609.978 173.184 608.762 177.92C607.546 182.592 606.874 187.104 606.746 191.456C600.794 189.6 596.442 187.36 593.69 184.736Z" fill="white"/>
</g>
</svg>
