<?xml version="1.0" standalone="no"?>
<!DOCTYPE svg PUBLIC "-//W3C//DTD SVG 20010904//EN"
 "http://www.w3.org/TR/2001/REC-SVG-20010904/DTD/svg10.dtd">
<svg version="1.0" xmlns="http://www.w3.org/2000/svg"
 width="486.000000pt" height="486.000000pt" viewBox="0 0 486.000000 486.000000"
 preserveAspectRatio="xMidYMid meet">
<metadata>
Created by potrace 1.14, written by Peter Selinger 2001-2017
</metadata>
<g transform="translate(0.000000,486.000000) scale(0.100000,-0.100000)"
fill="#000000" stroke="none">
<path d="M1010 4728 c0 -13 20 -56 45 -97 60 -100 100 -215 119 -344 24 -162
23 -167 -32 -234 -85 -104 -153 -201 -162 -234 -5 -17 -15 -96 -22 -175 -7
-85 -16 -144 -23 -144 -5 0 -34 11 -64 25 -30 14 -57 22 -60 19 -3 -4 0 -9 7
-11 6 -3 40 -25 73 -50 50 -36 60 -48 55 -67 -3 -12 -10 -76 -16 -141 -6 -66
-18 -163 -27 -215 -26 -157 -23 -203 19 -290 50 -104 154 -215 242 -259 36
-19 66 -37 66 -40 1 -41 27 -148 47 -194 l26 -58 -21 -27 c-11 -15 -26 -25
-34 -22 -7 2 -31 4 -52 5 -35 0 -46 7 -105 69 -36 38 -74 77 -84 85 -10 9 -30
29 -46 44 -32 32 -93 46 -116 27 -8 -7 -18 -29 -21 -49 l-6 -37 -38 38 c-43
43 -92 52 -109 19 -38 -69 -18 -158 59 -270 27 -39 44 -71 37 -71 -6 0 -31 -8
-54 -17 -51 -21 -69 -66 -37 -91 30 -23 97 -52 121 -52 34 0 177 -48 262 -87
95 -44 148 -42 189 5 38 43 149 132 165 132 7 0 19 6 25 12 10 10 11 -7 6 -77
-7 -91 -27 -150 -71 -204 l-19 -23 -42 21 c-120 61 -297 115 -426 131 -119 14
-214 2 -301 -39 -68 -31 -130 -80 -118 -91 4 -4 40 -15 78 -23 92 -21 199 -66
272 -114 44 -30 274 -211 346 -273 5 -4 -3 -31 -18 -60 -14 -28 -24 -55 -21
-58 3 -3 17 0 31 6 14 7 27 12 29 12 1 0 13 -24 26 -52 13 -29 26 -55 27 -57
2 -2 14 2 28 9 52 28 70 -27 38 -126 l-16 -52 45 -71 c25 -38 56 -95 69 -125
13 -31 28 -56 32 -56 4 0 21 9 36 21 16 11 43 21 62 22 31 2 35 -1 49 -41 13
-38 17 -42 41 -37 21 5 32 0 52 -24 29 -35 42 -38 51 -14 6 14 9 12 21 -10 11
-21 12 -39 5 -75 -5 -26 -13 -104 -16 -174 -7 -124 -7 -127 19 -171 34 -58 71
-87 111 -87 45 0 63 16 90 82 l23 58 19 -23 c11 -12 32 -39 48 -60 34 -46 73
-67 125 -67 62 0 76 27 67 139 -4 49 -13 124 -20 167 -30 172 -30 198 -3 230
22 25 27 27 42 14 15 -12 19 -11 35 10 16 21 21 23 45 12 65 -30 95 -7 95 73
l0 46 31 -22 32 -22 27 33 27 33 45 -26 c25 -14 48 -23 52 -20 3 3 6 25 6 47
0 62 9 83 41 96 39 17 37 32 -13 74 -43 35 -43 35 -26 63 36 60 58 68 190 69
134 0 136 1 137 70 1 28 3 30 31 26 18 -3 30 0 30 7 0 6 -27 68 -61 137 -61
127 -66 159 -21 135 34 -18 46 -13 76 35 23 36 43 53 85 73 51 23 71 26 236
32 217 8 283 23 429 98 77 39 160 115 198 183 14 25 41 88 61 139 19 52 53
139 73 193 48 125 97 201 191 295 40 41 71 76 68 79 -3 3 -54 6 -113 6 -191 0
-331 -59 -448 -187 -56 -63 -100 -142 -170 -312 -71 -172 -143 -242 -300 -294
-176 -59 -283 -31 -331 85 -10 24 -23 44 -30 44 -23 0 -71 -51 -90 -95 -20
-50 -33 -58 -33 -20 0 16 -16 42 -41 70 l-42 45 32 -6 c43 -9 47 9 21 103 -12
43 -24 91 -27 108 l-6 29 42 -36 c43 -37 178 -108 204 -108 8 0 17 7 21 15 7
20 -105 144 -188 206 l-64 49 -7 77 c-12 150 -21 177 -73 223 -85 74 -112 102
-106 111 3 5 62 48 131 97 142 97 299 240 320 289 17 42 17 126 -2 249 -8 54
-15 126 -15 160 0 53 5 68 42 130 39 65 193 255 270 334 136 138 293 274 591
510 67 52 122 101 125 108 7 22 -44 13 -170 -32 -336 -119 -482 -194 -852
-440 -71 -47 -130 -85 -131 -83 -12 21 -71 164 -82 199 -17 59 -13 68 73 161
70 76 126 155 121 171 -4 12 -66 23 -322 61 -93 13 -195 29 -225 35 -102 20
-464 60 -538 60 -186 0 -336 -61 -480 -196 -74 -69 -96 -84 -103 -73 -5 8 -27
43 -48 79 -59 98 -149 200 -220 248 -71 48 -101 54 -101 20z m196 -162 c92
-109 162 -239 142 -264 -7 -9 -34 -42 -59 -74 l-47 -56 -20 107 c-27 134 -62
245 -111 343 l-37 76 28 -21 c16 -12 62 -61 104 -111z m2726 -126 c-208 -150
-574 -478 -674 -603 -205 -256 -256 -329 -297 -427 -74 -174 -237 -387 -298
-390 -11 0 -33 80 -33 124 0 13 11 48 25 77 16 35 23 44 19 24 -4 -16 -11 -34
-15 -39 -5 -6 -9 -14 -9 -20 0 -5 6 -2 13 9 10 13 16 15 21 6 6 -9 13 -8 27 5
25 22 24 29 -3 31 -16 2 -19 0 -9 -6 7 -5 10 -14 7 -20 -26 -41 -31 66 -6 119
14 30 48 57 84 66 22 5 26 3 26 -15 0 -24 -59 -140 -96 -188 -14 -18 -36 -36
-49 -39 -24 -6 -35 -24 -15 -24 5 0 7 -7 4 -15 -12 -30 85 72 115 121 39 64
93 195 85 203 -4 3 -9 1 -11 -6 -2 -7 -10 -10 -17 -7 -6 2 -31 -2 -54 -10
l-43 -15 31 57 c33 60 58 92 47 59 -4 -11 -3 -16 4 -12 5 4 8 12 6 18 -6 15
11 47 24 47 6 0 7 -5 3 -12 -4 -7 -3 -8 5 -4 6 4 9 11 6 16 -7 12 113 90 138
90 18 0 19 -2 5 -17 -32 -37 -31 -47 3 -22 39 30 45 62 12 67 -22 3 -93 -28
-128 -57 -11 -8 -7 -1 9 16 16 18 34 30 39 26 6 -3 7 -1 3 5 -7 11 27 56 42
58 14 1 72 39 72 48 0 4 -17 -4 -37 -19 l-38 -28 34 36 c19 20 39 33 44 30 6
-3 7 -2 4 4 -3 5 16 31 43 57 44 44 52 47 67 35 16 -12 17 -12 5 2 -11 14 -6
22 35 58 51 44 66 51 56 25 -4 -11 3 -8 18 7 28 27 29 39 2 18 -16 -12 -15
-11 1 8 10 13 23 20 28 17 4 -3 7 0 6 7 -2 7 6 14 17 16 17 3 18 2 5 -7 -13
-10 -13 -11 0 -7 8 2 15 12 15 23 0 12 6 19 17 18 10 -1 16 3 15 8 -1 6 14 19
33 30 52 30 60 41 15 22 -91 -38 -254 -171 -452 -371 -165 -166 -217 -240
-297 -418 -32 -71 -61 -134 -66 -138 -4 -5 -15 43 -25 106 -18 110 -18 117 -1
160 36 95 149 227 329 385 194 170 333 262 637 421 141 73 374 177 404 180 5
1 -9 -12 -32 -29z m-2574 -394 c2 -2 -20 -3 -49 -2 l-53 1 -30 -52 c-16 -29
-31 -51 -33 -49 -5 5 57 109 69 117 9 6 87 -7 96 -15z m-40 -12 c21 -6 22 -8
6 -25 -11 -12 -15 -30 -12 -54 4 -31 1 -35 -19 -35 -20 0 -23 5 -23 34 0 19
-5 38 -10 41 -7 4 -7 13 0 26 11 20 21 22 58 13z m124 -40 c54 -21 68 -30 69
-47 0 -21 1 -21 8 -3 5 14 10 16 15 8 12 -20 -4 -51 -35 -67 -26 -14 -35 -14
-84 0 -64 19 -85 37 -85 72 0 24 24 63 39 63 3 0 36 -12 73 -26z m78 -6 c10
-6 7 -7 -10 -2 -14 3 -32 11 -40 16 -10 6 -7 7 10 2 14 -3 32 -11 40 -16z
m-260 -53 c0 -16 -5 -37 -11 -45 -9 -13 -10 -12 -5 2 3 10 2 28 -3 40 l-8 21
-16 -24 c-21 -29 -22 -46 -2 -29 20 16 20 1 1 -45 -12 -28 -20 -34 -39 -33
-26 2 -27 28 -1 28 8 0 14 2 14 4 0 2 3 12 7 22 4 12 3 15 -6 10 -13 -8 7 37
37 82 18 28 32 14 32 -33z m348 -4 c9 -5 45 -22 80 -37 50 -22 62 -32 62 -50
0 -26 -43 -64 -72 -64 -27 0 -80 28 -100 54 -20 24 -23 77 -6 94 14 14 14 14
36 3z m117 -27 c25 -14 45 -28 45 -30 0 -5 -121 55 -130 63 -11 12 42 -10 85
-33z m-560 -21 c-37 -65 -52 -79 -25 -23 23 46 39 70 47 70 3 0 -7 -21 -22
-47z m207 -4 c104 -36 357 -163 468 -237 58 -37 134 -86 170 -107 36 -21 77
-49 92 -61 15 -12 33 -24 40 -27 10 -3 10 -7 1 -17 -8 -9 -23 -3 -64 30 -161
127 -697 410 -777 410 -19 0 -54 -35 -45 -44 4 -3 0 -6 -7 -6 -7 0 -10 -3 -7
-6 4 -4 -2 -19 -12 -33 -26 -37 -68 -130 -76 -168 -4 -18 -11 -35 -16 -38 -5
-4 -9 -17 -9 -31 0 -16 -4 -23 -11 -18 -8 4 -9 0 -4 -15 4 -13 2 -21 -5 -21
-6 0 -8 -5 -4 -12 4 -6 3 -8 -3 -5 -14 9 -24 -28 -11 -41 6 -6 6 -12 -1 -17
-22 -13 -23 28 -2 94 20 62 158 348 183 378 14 18 28 16 100 -8z m186 -53 c15
-17 13 -16 -26 3 l-43 22 23 19 c23 18 23 18 26 -3 2 -12 11 -30 20 -41z m317
-39 c79 -58 87 -67 70 -90 -18 -25 -74 -32 -117 -14 -45 19 -71 56 -65 94 4
28 4 28 6 -3 1 -31 20 -51 64 -67 28 -10 19 7 -13 25 -34 19 -41 43 -10 33 30
-9 24 7 -10 30 -20 13 -25 22 -17 27 21 13 31 9 92 -35z m-762 8 c-3 -9 -8
-14 -10 -11 -3 3 -2 9 2 15 9 16 15 13 8 -4z m89 -3 c-5 -15 -34 -12 -39 3 -2
6 8 10 21 10 15 0 22 -5 18 -13z m232 -18 c61 -20 146 -52 188 -71 l77 -35
-115 -111 c-63 -60 -142 -146 -176 -191 -33 -45 -64 -82 -69 -84 -10 -4 -69
26 -69 36 0 5 7 33 16 63 20 68 58 143 98 194 30 39 10 31 -26 -10 -26 -29
-76 -137 -89 -192 -7 -26 -13 -49 -14 -51 -4 -5 -108 48 -127 65 -15 13 -14
20 11 96 42 123 150 327 174 327 5 0 60 -16 121 -36z m-274 -21 c0 -12 -3 -13
-14 -4 -11 9 -19 5 -39 -20 -20 -26 -25 -28 -30 -14 -4 9 -3 14 2 11 5 -3 19
10 30 30 18 30 24 34 36 24 8 -7 15 -19 15 -27z m580 2 c0 -29 0 -29 -35 -13
l-26 12 23 13 c33 18 38 16 38 -12z m-550 11 c0 -3 -4 -8 -10 -11 -5 -3 -10
-1 -10 4 0 6 5 11 10 11 6 0 10 -2 10 -4z m-50 -47 c0 -12 -16 -37 -35 -56
-19 -19 -35 -37 -35 -39 0 -10 20 -2 36 13 13 13 16 14 12 3 -6 -21 -50 -42
-62 -30 -13 13 3 46 44 93 19 20 35 37 37 37 2 0 3 -9 3 -21z m878 -36 c15
-10 51 -35 80 -57 59 -44 66 -74 21 -90 -36 -12 -70 -2 -121 37 -33 25 -44 41
-46 66 -3 31 11 61 30 61 5 0 21 -8 36 -17z m-977 -40 c-11 -21 -20 -35 -21
-31 0 12 33 78 38 74 2 -2 -6 -21 -17 -43z m892 -12 c3 -14 4 -27 3 -28 -1 -1
-20 10 -43 25 l-41 27 38 1 c34 1 39 -2 43 -25z m-153 -18 c0 7 34 -13 120
-68 151 -97 180 -118 180 -133 0 -15 2 -15 11 -2 9 13 10 13 6 0 -6 -24 -81
-76 -144 -101 -60 -24 -133 -30 -193 -16 l-35 8 30 -26 c37 -31 11 -35 -29 -4
-21 16 -26 17 -26 5 0 -16 42 -49 78 -61 16 -4 20 -11 14 -18 -5 -7 -4 -21 3
-34 l12 -23 21 21 c20 18 22 18 20 2 0 -10 0 -34 1 -53 l2 -35 19 24 20 23 0
-23 c0 -13 4 -30 9 -38 7 -10 13 -5 26 22 9 20 13 42 9 49 -4 7 6 1 22 -13 35
-32 86 -59 112 -59 20 0 36 -25 27 -40 -3 -5 -12 -7 -20 -3 -10 3 -15 -1 -15
-14 0 -28 29 -124 46 -150 17 -27 3 -30 -22 -6 -17 17 -17 16 -11 -9 4 -14 4
-28 -1 -31 -4 -2 -2 -3 3 -3 6 1 28 -18 51 -41 l41 -42 -26 -25 c-14 -13 -61
-43 -104 -67 -122 -65 -177 -65 -415 1 -40 11 -88 26 -105 34 l-32 13 35 10
35 10 -52 32 c-29 18 -53 37 -53 42 0 5 -5 9 -12 9 -15 0 -58 40 -58 54 0 6 7
2 15 -8 8 -11 15 -15 15 -9 0 13 -25 35 -32 28 -9 -9 -57 62 -72 107 -19 56
-30 123 -23 142 5 13 11 11 33 -9 15 -14 32 -22 38 -18 6 3 8 3 4 -2 -8 -9 59
-61 98 -75 15 -6 25 -18 25 -32 l2 -23 4 23 c3 13 13 32 24 43 29 29 24 134
-8 159 -19 14 -20 19 -8 24 8 3 15 12 15 20 0 8 4 18 10 21 6 3 7 -1 4 -9 -3
-9 -1 -16 5 -16 13 0 25 45 16 60 -5 8 -16 3 -35 -15 l-28 -27 -51 17 c-28 9
-51 20 -51 24 0 4 15 23 34 43 19 20 32 38 30 41 -2 2 3 10 13 18 14 12 16 12
8 0 -5 -10 -4 -12 3 -7 7 4 12 15 12 25 0 19 42 64 53 56 4 -3 5 -2 2 2 -8 10
16 33 28 26 5 -3 7 -2 4 4 -7 11 25 43 87 89 22 16 37 22 32 14 -6 -13 -6 -13
6 0 28 33 73 59 80 47 4 -7 8 -9 8 -4z m-680 -33 c0 -5 -4 -10 -9 -10 -6 0
-13 5 -16 10 -3 6 1 10 9 10 9 0 16 -4 16 -10z m1170 -67 c0 -8 -54 34 -75 58
-11 13 1 6 28 -15 26 -21 47 -40 47 -43z m-1200 46 c16 -29 9 -29 -17 -2 -16
16 -18 23 -8 23 8 0 19 -9 25 -21z m1296 -12 c-18 -12 -105 -73 -273 -192 -84
-60 -203 -116 -203 -96 0 5 21 14 47 21 29 9 87 44 157 97 113 83 263 180 281
181 6 1 2 -5 -9 -11z m-152 -18 c28 -22 27 -32 -5 -50 -19 -10 -20 -8 -17 20
3 36 -14 43 -22 9 -3 -12 -9 -18 -12 -13 -7 13 8 55 20 55 5 0 21 -9 36 -21z
m-1213 -12 c-10 -9 -11 -8 -5 6 3 10 9 15 12 12 3 -3 0 -11 -7 -18z m1135 -13
c-3 -9 -6 -18 -6 -20 0 -3 -10 1 -22 7 -22 12 -22 12 -3 20 31 12 38 10 31 -7z
m197 -52 c24 -21 21 -58 -5 -76 -30 -21 -48 -20 -78 5 -24 19 -24 20 -2 9 24
-12 78 -5 87 10 3 5 -6 21 -20 37 -17 19 -24 23 -25 13 0 -9 5 -21 11 -27 17
-17 -26 -27 -53 -12 l-22 12 34 28 c33 28 40 28 73 1z m-1293 -29 c41 -26 113
-68 160 -95 47 -26 81 -48 76 -48 -14 0 -172 87 -218 120 -50 37 -55 37 -61 3
-5 -27 -5 -27 -3 2 1 22 -6 35 -24 47 -53 38 -1 16 70 -29z m480 44 c0 -2 -10
-12 -22 -23 l-23 -19 19 23 c18 21 26 27 26 19z m-50 -60 c0 -2 -10 -12 -22
-23 l-23 -19 19 23 c18 21 26 27 26 19z m771 -43 c34 -25 53 -33 62 -27 32 25
45 22 49 -13 l4 -34 -23 22 c-13 12 -25 19 -28 16 -3 -2 42 -51 98 -109 123
-124 186 -208 194 -255 3 -19 10 -37 14 -40 5 -3 9 -13 9 -22 -1 -14 -2 -14
-12 3 -58 105 -134 204 -237 305 -64 63 -135 128 -159 145 -23 18 -39 35 -35
38 10 10 12 10 64 -29z m185 11 c9 -14 20 -23 24 -20 10 6 52 -102 48 -120 -5
-19 -62 1 -97 34 -24 23 -31 37 -31 68 0 36 13 63 32 63 4 0 15 -11 24 -25z
m-253 -23 c16 -18 14 -19 -45 -30 -34 -6 -63 -10 -65 -9 -3 4 79 57 87 57 4 0
14 -8 23 -18z m-1027 -150 c-1 -141 15 -200 77 -292 46 -67 136 -153 187 -178
l45 -23 -82 6 c-45 3 -89 8 -98 11 -8 4 -15 1 -15 -5 0 -6 26 -18 58 -27 31
-9 80 -27 107 -39 28 -13 68 -27 90 -30 37 -6 160 -42 178 -52 4 -3 -3 -19
-16 -36 -52 -69 -107 -221 -107 -298 0 -42 26 -135 47 -167 21 -34 10 -37 -41
-13 -104 51 -171 218 -136 340 12 43 4 54 -10 15 -20 -51 -23 -155 -7 -201 20
-57 11 -54 -15 5 -17 38 -21 66 -21 143 1 103 16 154 45 154 38 0 26 14 -23
24 -28 6 -67 18 -85 27 -50 24 -128 113 -167 191 -62 122 -71 169 -72 353 0
91 4 182 8 202 7 34 10 36 30 27 22 -10 23 -15 23 -137z m-159 106 c-3 -8 -6
-5 -6 6 -1 11 2 17 5 13 3 -3 4 -12 1 -19z m258 -176 c1 -131 3 -154 24 -206
13 -34 44 -82 70 -110 25 -28 35 -42 21 -31 -71 56 -136 149 -167 237 -27 74
-42 212 -29 262 6 24 7 24 43 10 l38 -15 0 -147z m-258 126 c-3 -8 -6 -5 -6 6
-1 11 2 17 5 13 3 -3 4 -12 1 -19z m425 -32 c24 -8 52 -16 63 -19 14 -3 10 -5
-10 -6 -28 -1 -175 61 -175 74 0 3 18 -4 40 -15 21 -11 58 -26 82 -34z m852
22 c-3 -5 0 -7 8 -6 18 4 60 -82 53 -109 -3 -13 -1 -23 5 -23 13 0 13 -94 -1
-142 -5 -21 -14 -38 -19 -38 -6 0 -9 -3 -8 -7 9 -32 -63 -85 -134 -98 l-37 -7
6 106 c4 71 3 106 -4 106 -6 0 -13 6 -16 14 -4 10 9 24 38 40 50 30 95 108 95
165 0 26 3 32 9 21 6 -8 7 -18 5 -22z m-967 5 l27 -18 -29 -5 c-27 -5 -30 -9
-27 -41 1 -20 -2 -47 -7 -60 -8 -20 -10 -16 -10 27 -1 51 8 114 16 114 2 0 16
-8 30 -17z m-203 -398 c34 -100 87 -196 141 -255 24 -26 40 -52 37 -62 -3 -16
-8 -15 -55 9 -87 43 -160 106 -187 159 -24 46 -25 58 -25 214 0 148 3 173 25
245 l25 80 6 -155 c5 -132 10 -167 33 -235z m-80 353 c-3 -13 -13 -36 -20 -53
-8 -16 -12 -21 -8 -10 3 11 8 35 11 53 3 17 10 32 15 32 5 0 6 -10 2 -22z
m1484 -4 c2 -1 2 -14 0 -29 l-3 -26 -35 35 -34 36 34 -6 c19 -4 36 -8 38 -10z
m-498 -9 c15 -18 6 -45 -15 -45 -18 0 -30 24 -21 45 7 19 20 19 36 0z m200
-27 c0 -6 -7 -7 -16 -4 -9 3 -18 6 -20 6 -3 0 -3 4 1 10 7 11 35 2 35 -12z
m351 -50 c10 -21 16 -38 14 -38 -11 0 -45 66 -44 85 0 14 2 16 6 5 3 -8 14
-32 24 -52z m-1156 7 c0 -28 -29 -25 -33 3 -3 19 0 23 15 20 10 -2 18 -12 18
-23z m1115 -138 c46 -64 48 -69 38 -105 -18 -67 -56 -129 -125 -205 -127 -141
-225 -286 -244 -363 -15 -58 -7 -139 16 -164 18 -20 17 -20 -12 -20 -23 0 -39
9 -61 34 -40 46 -56 118 -49 225 5 96 29 170 84 262 l35 58 57 -1 c74 -1 119
21 180 88 40 43 52 65 61 110 12 59 7 101 -10 74 -5 -8 -6 -18 -4 -22 9 -14
-24 -113 -47 -143 -12 -15 -40 -40 -62 -56 -65 -47 -170 -37 -224 22 l-22 24
35 3 c40 2 121 41 146 69 29 32 56 104 69 187 l13 79 39 -44 c21 -24 60 -75
87 -112z m-1160 100 c0 -5 -4 -5 -10 -2 -5 3 -10 14 -10 23 0 15 2 15 10 2 5
-8 10 -19 10 -23z m784 24 c3 -5 -7 -11 -22 -14 -31 -6 -37 -3 -27 12 8 13 42
14 49 2z m-74 -5 c0 -3 -4 -8 -10 -11 -5 -3 -10 -1 -10 4 0 6 5 11 10 11 6 0
10 -2 10 -4z m-1093 -103 c-3 -10 -5 -2 -5 17 0 19 2 27 5 18 2 -10 2 -26 0
-35z m543 40 c0 -10 -29 -33 -42 -33 -13 1 -48 23 -48 31 0 2 20 5 45 5 25 1
45 -1 45 -3z m-553 -110 c-3 -10 -5 -2 -5 17 0 19 2 27 5 18 2 -10 2 -26 0
-35z m1693 -213 c0 -5 -5 -10 -11 -10 -5 0 -7 5 -4 10 3 6 8 10 11 10 2 0 4
-4 4 -10z m-97 -157 c-13 -2 -33 -2 -45 0 -13 2 -3 4 22 4 25 0 35 -2 23 -4z
m-83 -10 c-8 -3 -24 -10 -35 -15 -20 -9 -20 -9 -1 6 11 9 27 16 35 15 14 0 14
-1 1 -6z m-1106 -29 c20 -3 36 -7 36 -8 0 0 -7 -19 -15 -41 -19 -54 -19 -205
0 -250 l14 -35 -24 17 c-53 40 -87 135 -86 244 0 75 6 93 26 85 8 -3 30 -8 49
-12z m1006 12 c0 -2 -8 -10 -17 -17 -16 -13 -17 -12 -4 4 13 16 21 21 21 13z
m316 -28 c3 -5 3 -12 -1 -16 -3 -4 -11 1 -16 11 -6 9 -19 17 -29 17 -11 0 -20
4 -20 9 0 12 57 -6 66 -21z m-208 -12 c-7 -8 -17 -12 -22 -9 -4 3 -2 9 5 14
22 13 31 11 17 -5z m42 -46 c0 -13 -7 -20 -20 -20 -22 0 -23 1 -14 24 9 23 34
20 34 -4z m170 5 c0 -8 -4 -15 -10 -15 -5 0 -7 7 -4 15 4 8 8 15 10 15 2 0 4
-7 4 -15z m1397 -82 c-7 -6 -66 58 -66 72 0 6 16 -7 35 -28 20 -21 33 -41 31
-44z m-2427 17 c-14 -11 -29 -20 -35 -20 -5 0 4 9 20 20 38 25 48 25 15 0z
m90 10 c0 -12 -130 -73 -138 -65 -3 2 20 16 51 31 31 14 59 30 62 35 8 12 25
12 25 -1z m35 0 c3 -5 1 -10 -4 -10 -6 0 -11 5 -11 10 0 6 2 10 4 10 3 0 8 -4
11 -10z m224 -7 c0 -5 -13 -18 -30 -31 -33 -26 -40 -13 -9 18 20 20 40 27 39
13z m366 -28 l18 -30 -21 19 c-12 11 -22 26 -22 34 0 17 -1 18 25 -23z m-113
-49 l-4 -46 -19 24 c-22 28 -23 36 -7 71 10 22 14 24 23 12 6 -8 9 -35 7 -61z
m-1320 -15 c10 -24 17 -45 16 -47 -2 -1 -19 -5 -39 -9 -32 -6 -37 -4 -42 17
-9 31 -9 103 0 111 11 12 45 -26 65 -72z m844 42 c-7 -7 -26 7 -26 19 0 6 6 6
15 -2 9 -7 13 -15 11 -17z m-1004 -56 c27 -37 43 -67 37 -67 -7 0 -26 -16 -45
-35 l-33 -35 -20 54 c-16 44 -23 125 -12 154 4 13 33 -14 73 -71z m1238 65 c0
-5 -13 -18 -30 -30 -37 -28 -39 -20 -4 13 29 27 34 29 34 17z m-110 -6 c0 -2
-7 -7 -16 -10 -8 -3 -12 -2 -9 4 6 10 25 14 25 6z m805 -6 c15 -7 10 -9 -23
-9 -24 -1 -53 -6 -64 -12 -15 -8 -19 -8 -13 1 15 25 65 35 100 20z m-297 -54
c3 -4 -62 -36 -73 -36 -1 0 -5 12 -8 28 -3 15 -8 34 -12 43 -5 14 2 13 41 -7
26 -13 49 -26 52 -28z m7 34 c10 -11 16 -20 13 -20 -3 0 -13 9 -23 20 -10 11
-16 20 -13 20 3 0 13 -9 23 -20z m-1424 -52 c7 -14 6 -18 -5 -18 -12 0 -37 48
-36 69 1 7 27 -27 41 -51z m889 12 c0 -13 -1 -13 -10 0 -5 8 -10 22 -10 30 0
13 1 13 10 0 5 -8 10 -22 10 -30z m59 -45 c0 -11 -7 0 -15 25 -17 56 -17 64 1
25 8 -16 14 -39 14 -50z m279 23 c6 -18 13 -42 17 -53 3 -11 -3 -4 -14 15 -18
32 -27 70 -16 70 2 0 8 -15 13 -32z m257 -7 c4 -15 3 -21 -3 -17 -5 3 -12 17
-15 32 -5 30 8 20 18 -15z m107 -15 c-3 -33 -7 -43 -18 -39 -8 3 -14 8 -14 13
0 7 30 70 33 70 1 0 1 -20 -1 -44z m41 4 c3 -11 1 -18 -4 -14 -5 3 -9 12 -9
20 0 20 7 17 13 -6z m-893 -10 c11 -11 20 -32 19 -47 -1 -28 -1 -28 -10 4 -5
18 -19 39 -31 48 -13 8 -17 15 -10 15 6 0 21 -9 32 -20z m577 -12 c-3 -7 -5
-2 -5 12 0 14 2 19 5 13 2 -7 2 -19 0 -25z m1531 7 c29 -21 75 -100 69 -122
-2 -13 -9 -5 -21 25 -20 45 -61 82 -95 82 -14 0 -19 5 -15 15 8 19 34 19 62 0z
m-1778 -2 c-1 -14 -40 -56 -47 -50 -7 8 24 57 37 57 6 0 10 -3 10 -7z m-671
-110 c1 -42 -3 -54 -18 -63 -11 -5 -22 -6 -25 -2 -9 16 -27 143 -21 153 4 5
19 -1 35 -13 25 -20 29 -30 29 -75z m-538 70 c13 -16 12 -17 -3 -4 -10 7 -18
15 -18 17 0 8 8 3 21 -13z m1759 -27 c8 -3 3 -4 -12 -2 -32 4 -34 -1 -13 -24
13 -14 12 -16 -13 -15 -23 0 -27 4 -28 31 -1 34 3 34 66 10z m74 8 c3 -8 2
-12 -4 -9 -6 3 -10 10 -10 16 0 14 7 11 14 -7z m-1604 2 c0 -2 -24 -11 -53
-20 -59 -19 -103 -54 -123 -100 l-13 -31 -1 33 c0 39 27 85 46 78 8 -3 13 0
11 7 -1 6 17 16 41 22 46 11 92 17 92 11z m1378 -52 c1 -49 -20 -88 -32 -58
-3 9 -3 21 1 26 3 6 1 8 -5 4 -12 -7 -26 29 -17 45 4 6 17 14 29 19 11 5 22 9
22 9 1 1 2 -20 2 -45z m-1010 -26 c-9 -6 -6 -7 9 -3 37 10 47 -4 22 -31 -15
-16 -29 -22 -43 -18 -15 4 -17 3 -7 -4 8 -6 9 -12 3 -16 -15 -9 -22 19 -22 82
l1 57 25 -29 c20 -23 23 -31 12 -38z m-388 32 c0 -5 -7 -10 -16 -10 -8 0 -12
5 -9 10 3 6 10 10 16 10 5 0 9 -4 9 -10z m86 -35 c-32 -42 -56 -114 -56 -170
0 -14 -5 -25 -11 -25 -5 0 -7 -5 -3 -12 4 -7 3 -8 -4 -4 -7 4 -12 32 -12 64 0
66 34 150 71 176 43 30 49 17 15 -29z m1494 15 c0 -5 -2 -10 -4 -10 -3 0 -8 5
-11 10 -3 6 -1 10 4 10 6 0 11 -4 11 -10z m-1624 -35 c9 -14 14 -28 11 -31 -3
-3 -8 4 -12 15 -3 11 -18 24 -33 30 -24 9 -25 9 -5 10 14 1 29 -9 39 -24z
m1594 3 c24 -26 26 -42 4 -34 -9 3 -22 6 -29 6 -15 0 -28 27 -19 41 9 14 22
11 44 -13z m-1280 -22 c0 -3 -4 -8 -10 -11 -5 -3 -10 -1 -10 4 0 6 5 11 10 11
6 0 10 -2 10 -4z m470 -26 c0 -16 -4 -30 -8 -30 -5 0 -7 14 -4 30 2 17 6 30 8
30 2 0 4 -13 4 -30z m656 -26 c-3 -8 -10 -13 -15 -10 -9 6 -26 -22 -22 -37 1
-5 -3 -6 -9 -2 -6 4 -4 15 6 30 9 14 20 22 25 19 5 -3 9 5 10 18 0 13 3 17 6
10 3 -7 2 -20 -1 -28z m-492 7 c3 -4 -6 -6 -19 -3 -13 2 -45 -3 -70 -11 -25
-9 -43 -12 -40 -7 13 21 119 39 129 21z m-1187 -45 l-2 -44 -29 12 c-31 13
-55 41 -44 52 4 3 22 10 40 14 18 4 34 8 35 9 1 1 1 -19 0 -43z m1012 8 c14
-12 -19 -1 -35 12 -18 14 -18 14 6 3 14 -6 27 -13 29 -15z m235 -34 c6 -6 10
-20 11 -33 0 -32 19 -37 25 -6 l5 27 51 -33 c70 -45 117 -107 144 -188 12 -38
20 -70 18 -72 -2 -2 -29 8 -60 23 -37 18 -58 35 -62 50 -9 33 -23 27 -18 -8 6
-44 -4 -75 -39 -115 -29 -32 -35 -35 -88 -35 -115 0 -281 68 -410 167 -3 2 1
9 9 16 10 9 11 9 6 0 -5 -8 -2 -11 7 -7 9 3 13 13 10 25 -4 12 0 19 10 19 8 0
14 8 13 18 0 9 5 16 12 14 8 -1 10 2 7 8 -9 14 24 52 38 43 5 -3 7 -1 4 4 -4
6 3 19 14 29 12 11 25 28 29 39 6 17 8 15 15 -13 7 -34 30 -39 30 -7 0 12 10
22 25 26 42 12 50 10 50 -11 0 -12 7 -20 16 -20 10 0 14 6 11 15 -4 8 -2 17 2
19 10 7 24 -105 16 -126 -3 -8 1 -21 10 -28 24 -20 36 4 30 60 -3 25 -8 64
-11 87 l-5 42 32 -9 c18 -5 37 -14 43 -20z m656 -41 c0 -6 -4 -7 -10 -4 -5 3
-10 11 -10 16 0 6 5 7 10 4 6 -3 10 -11 10 -16z m117 -95 c2 -7 -22 -13 -69
-17 -40 -4 -85 -9 -100 -13 -24 -5 -28 -3 -28 14 0 11 8 23 18 25 34 10 175 2
179 -9z m-1894 -71 c23 -21 87 -149 87 -176 0 -17 -2 -17 -31 4 -17 12 -39 40
-49 63 -9 22 -37 63 -61 90 l-44 49 39 -6 c21 -3 48 -14 59 -24z m2553 -20
c25 -27 41 -69 30 -80 -3 -3 -10 7 -16 23 -6 16 -23 41 -38 57 -14 15 -20 27
-13 27 6 0 23 -12 37 -27z m-664 -30 c32 -29 18 -93 -21 -93 -11 0 -10 4 5 15
19 14 19 15 -5 34 -23 18 -23 19 -5 29 10 6 13 12 7 12 -7 0 -13 5 -13 10 0
15 11 12 32 -7z m546 -8 c7 -14 12 -38 11 -53 0 -24 -2 -23 -15 12 -8 21 -19
45 -25 52 -9 11 -8 14 3 14 8 0 20 -11 26 -25z m-1643 -54 c22 -14 54 -36 72
-50 17 -14 47 -39 66 -54 47 -37 82 -108 68 -136 -15 -26 -13 -41 1 -16 11 19
11 19 19 0 15 -39 11 -42 -43 -37 -85 8 -168 43 -261 113 -79 59 -86 67 -87
99 0 46 15 98 35 121 16 16 19 16 53 1 21 -10 55 -28 77 -41z m1523 34 c-3 -3
-9 2 -12 12 -6 14 -5 15 5 6 7 -7 10 -15 7 -18z m-1876 -120 c14 -27 34 -84
44 -125 9 -41 23 -90 31 -109 17 -40 11 -49 -15 -23 -10 10 -29 57 -42 103
-28 106 -50 149 -108 212 l-47 50 55 -29 c43 -23 61 -39 82 -79z m1282 32 c-8
-4 -14 -16 -15 -25 0 -11 -2 -13 -6 -4 -3 7 1 27 8 44 11 27 14 29 20 12 4
-12 1 -22 -7 -27z m-432 -81 c-11 -92 -54 -138 -142 -152 l-42 -7 17 27 c20
30 27 33 19 9 -3 -10 1 -7 9 7 9 14 13 29 10 34 -4 5 0 14 8 20 8 6 20 24 27
39 7 17 17 25 24 21 6 -4 8 -3 5 4 -4 5 7 22 24 37 38 32 49 21 41 -39z m682
44 c14 -5 26 -14 26 -19 0 -6 -6 -8 -14 -5 -28 11 -187 -25 -241 -54 l-54 -30
-16 25 c-15 23 -15 23 4 11 17 -10 24 -9 43 9 13 11 50 30 83 41 96 34 129 38
169 22z m-74 -247 c0 -22 5 -44 11 -50 7 -7 2 -17 -19 -32 l-30 -21 -35 43
c-25 31 -36 54 -37 83 -3 61 -2 64 24 64 14 0 28 5 31 11 13 19 55 -57 55 -98z
m-590 38 c0 -10 -7 -6 -20 14 -11 17 -20 35 -20 40 1 17 40 -36 40 -54z m-90
-40 c-1 -10 -6 -7 -15 9 -19 33 -18 50 0 26 8 -11 15 -27 15 -35z m280 39 c0
-20 -45 -50 -121 -80 -44 -18 -79 -35 -79 -39 0 -4 5 -12 11 -18 22 -22 3 -30
-34 -14 l-38 16 82 50 c152 93 179 106 179 85z m-607 -51 c29 -32 34 -49 14
-49 -6 0 -18 12 -24 28 -7 15 -25 35 -40 45 -28 18 -28 18 -3 12 14 -4 37 -20
53 -36z m455 -73 c-7 -8 -17 -12 -22 -9 -4 3 -2 9 5 14 22 13 31 11 17 -5z
m198 -116 c3 -14 10 -37 16 -52 9 -24 7 -31 -12 -46 l-22 -18 21 -42 c11 -23
21 -43 21 -45 0 -4 -64 -15 -122 -22 -31 -3 -27 47 14 174 l41 124 18 -24 c11
-13 22 -35 25 -49z m-215 7 c-10 -9 -11 -8 -5 6 3 10 9 15 12 12 3 -3 0 -11
-7 -18z m-63 -18 l27 -11 -30 -24 c-21 -17 -37 -23 -54 -19 -21 5 -23 3 -17
-17 17 -61 17 -77 -1 -113 l-20 -37 -21 83 c-12 46 -24 101 -27 123 l-6 39 61
-7 c34 -4 74 -12 88 -17z m-648 -19 c21 -29 21 -30 2 -30 -36 0 -31 -27 15
-90 32 -45 42 -65 34 -73 -6 -6 -11 -21 -11 -34 0 -31 -11 -28 -35 10 -15 23
-29 33 -51 35 -28 3 -32 7 -38 42 -3 22 -12 45 -19 52 -16 14 0 58 21 58 7 0
21 13 30 30 9 16 20 30 24 30 4 0 16 -13 28 -30z m414 15 c7 -19 -20 -19 -54
0 l-25 14 36 1 c24 0 39 -5 43 -15z m5 -54 c-12 -4 -97 27 -103 38 -3 4 22 -2
54 -13 33 -12 55 -23 49 -25z m188 -58 c-3 -10 -5 -2 -5 17 0 19 2 27 5 18 2
-10 2 -26 0 -35z m-159 5 c-2 -6 -10 -14 -16 -16 -7 -2 -10 2 -6 12 7 18 28
22 22 4z m-181 -23 c57 -8 123 -15 147 -15 25 0 48 -5 51 -11 5 -7 -25 -8 -97
-4 -113 7 -245 31 -254 47 -4 6 4 8 22 4 16 -3 75 -13 131 -21z m193 -70 c-7
-9 -16 -44 -20 -78 -7 -60 -7 -61 -9 -14 -1 47 23 126 36 114 3 -4 0 -14 -7
-22z m43 -132 c-32 -24 -43 -15 -43 31 0 25 5 57 11 73 12 28 12 27 30 -32 17
-56 18 -61 2 -72z m70 82 c-3 -9 -8 -14 -10 -11 -3 3 -2 9 2 15 9 16 15 13 8
-4z m117 0 c0 -7 -97 -55 -111 -55 -20 0 0 13 54 36 29 12 53 23 55 23 1 1 2
-1 2 -4z m-364 -61 c18 -3 24 -15 34 -71 11 -61 26 -121 45 -178 4 -12 0 -9
-9 6 -8 14 -24 57 -35 95 -27 97 -47 149 -55 147 -16 -7 -67 -2 -62 6 5 8 28
7 82 -5z m94 -67 c21 -4 20 -4 -7 -6 -25 -1 -33 3 -33 17 0 11 3 13 8 6 4 -7
18 -14 32 -17z m57 7 c-3 -3 -12 -4 -19 -1 -8 3 -5 6 6 6 11 1 17 -2 13 -5z
m143 -25 c-7 -11 -14 -18 -17 -15 -3 3 0 12 7 21 18 21 23 19 10 -6z m-328
-16 c25 -24 28 -33 26 -87 -1 -44 -2 -50 -5 -21 -6 66 -13 86 -40 111 -14 13
-22 24 -18 24 5 0 22 -12 37 -27z m308 -574 c0 -13 -32 4 -51 27 -13 16 -12
16 19 0 17 -9 32 -21 32 -27z"/>
<path d="M1110 4646 c0 -2 8 -10 18 -17 15 -13 16 -12 3 4 -13 16 -21 21 -21
13z"/>
<path d="M1195 4456 c0 -13 5 -23 11 -23 6 0 9 9 6 19 -7 27 -17 29 -17 4z"/>
<path d="M1225 4390 c10 -11 20 -20 22 -20 2 0 -2 9 -9 20 -7 11 -17 20 -22
20 -5 0 -1 -9 9 -20z"/>
<path d="M1250 4340 c0 -17 17 -47 23 -40 2 3 -2 16 -10 30 -7 14 -13 18 -13
10z"/>
<path d="M1245 4250 c-3 -5 -1 -10 4 -10 6 0 11 5 11 10 0 6 -2 10 -4 10 -3 0
-8 -4 -11 -10z"/>
<path d="M3230 3950 c-9 -6 -10 -10 -3 -10 6 0 15 5 18 10 8 12 4 12 -15 0z"/>
<path d="M3147 3861 c-4 -17 -3 -21 5 -13 5 5 8 16 6 23 -3 8 -7 3 -11 -10z"/>
<path d="M3115 3850 c-3 -5 -1 -10 4 -10 6 0 11 5 11 10 0 6 -2 10 -4 10 -3 0
-8 -4 -11 -10z"/>
<path d="M3083 3815 c0 -7 8 -10 19 -7 10 2 18 6 18 7 0 1 -8 5 -18 7 -11 3
-19 0 -19 -7z"/>
<path d="M3058 3745 c-24 -33 -23 -43 2 -15 11 13 20 27 20 32 0 12 -3 10 -22
-17z"/>
<path d="M3005 3729 c-4 -6 -5 -12 -2 -15 2 -3 7 2 10 11 7 17 1 20 -8 4z"/>
<path d="M2884 3578 l-19 -23 23 19 c12 11 22 21 22 23 0 8 -8 2 -26 -19z"/>
<path d="M2826 3491 c6 -11 3 -13 -12 -7 -10 4 -15 4 -12 0 4 -3 -5 -17 -19
-30 -20 -18 -22 -24 -9 -24 9 0 16 7 16 15 0 9 6 12 17 8 11 -4 14 -3 9 5 -4
7 -1 12 9 12 9 0 13 -4 10 -10 -10 -17 2 -11 16 8 7 9 9 14 5 10 -5 -4 -15 0
-23 10 -8 9 -11 11 -7 3z"/>
<path d="M2780 3365 c-14 -17 -35 -21 -24 -4 4 8 0 8 -15 0 -25 -14 -28 -23
-3 -14 15 6 15 5 3 -10 -12 -15 -11 -15 17 -1 17 8 33 21 36 29 7 19 2 19 -14
0z"/>
<path d="M2750 3300 c0 -5 5 -10 10 -10 6 0 10 5 10 10 0 6 -4 10 -10 10 -5 0
-10 -4 -10 -10z"/>
<path d="M2731 3274 c0 -11 3 -14 6 -6 3 7 2 16 -1 19 -3 4 -6 -2 -5 -13z"/>
<path d="M1340 3961 c0 -43 95 -85 139 -62 29 16 26 26 -16 52 -50 31 -53 32
-53 21 0 -6 15 -19 33 -31 32 -21 27 -25 -23 -21 -34 3 -60 18 -60 35 0 7 -4
17 -10 20 -5 3 -10 -3 -10 -14z"/>
<path d="M1583 3894 c-18 -48 62 -117 115 -98 14 5 27 15 30 22 3 11 0 12 -18
2 -33 -18 -89 -4 -102 26 -16 35 -5 38 37 9 34 -23 55 -31 55 -21 0 2 -25 20
-55 40 -47 31 -56 34 -62 20z"/>
<path d="M1892 3709 c-12 -19 -11 -20 10 -17 13 2 23 9 23 17 0 23 -19 23 -33
0z"/>
<path d="M1963 3664 c-3 -10 0 -29 8 -43 18 -32 102 -76 127 -66 14 6 11 9
-13 15 -42 9 -71 27 -89 52 -26 36 -19 40 21 13 21 -14 44 -25 53 -25 15 0
-21 28 -73 56 -25 13 -28 13 -34 -2z"/>
<path d="M1630 3515 c-7 -8 -16 -12 -21 -9 -5 3 -9 0 -9 -5 0 -14 17 -14 26 0
4 8 9 7 15 -2 6 -10 8 -7 6 9 -2 26 -1 26 -17 7z"/>
<path d="M1891 3526 c2 -2 15 -9 29 -15 24 -11 24 -11 6 3 -16 13 -49 24 -35
12z"/>
<path d="M1986 3466 c7 -19 0 -20 -27 -6 -10 6 -19 8 -19 6 0 -13 42 -26 56
-18 14 8 14 10 -1 22 -13 11 -15 10 -9 -4z"/>
<path d="M1580 3455 c-7 -8 -17 -12 -23 -8 -6 4 -7 1 -3 -6 6 -9 13 -8 27 5
10 9 19 19 19 21 0 7 -8 2 -20 -12z"/>
<path d="M2024 3442 c3 -6 0 -13 -6 -16 -7 -3 -3 -3 9 0 18 4 22 2 17 -10 -3
-9 -4 -16 -1 -16 17 0 13 31 -5 41 -12 7 -18 7 -14 1z"/>
<path d="M1514 3405 c-10 -8 -14 -15 -8 -15 6 0 17 7 24 15 16 19 9 19 -16 0z"/>
<path d="M2060 3400 c0 -5 5 -10 11 -10 5 0 7 5 4 10 -3 6 -8 10 -11 10 -2 0
-4 -4 -4 -10z"/>
<path d="M1936 3034 c-8 -22 -7 -34 3 -34 5 0 11 11 13 25 6 28 -6 34 -16 9z"/>
<path d="M1986 3041 c-4 -7 -5 -15 -2 -18 9 -9 19 4 14 18 -4 11 -6 11 -12 0z"/>
<path d="M1360 3036 c0 -2 8 -10 18 -17 15 -13 16 -12 3 4 -13 16 -21 21 -21
13z"/>
<path d="M1340 2995 c-6 -8 -10 -20 -8 -26 2 -6 12 0 21 15 18 27 8 37 -13 11z"/>
<path d="M1377 2983 c-4 -3 -7 -13 -7 -22 1 -13 3 -13 11 2 11 19 8 33 -4 20z"/>
<path d="M1410 2965 c-10 -12 -11 -24 -2 -53 14 -44 70 -137 79 -128 10 9 -28
151 -47 176 -15 20 -17 20 -30 5z"/>
<path d="M2070 2781 c0 -6 4 -13 10 -16 6 -3 7 1 4 9 -7 18 -14 21 -14 7z"/>
<path d="M2125 2730 c3 -5 11 -10 16 -10 6 0 7 5 4 10 -3 6 -11 10 -16 10 -6
0 -7 -4 -4 -10z"/>
<path d="M1650 2699 c0 -16 73 -43 78 -28 5 12 94 12 128 -1 15 -6 35 -8 43
-4 29 11 -59 34 -156 41 -76 5 -93 3 -93 -8z"/>
<path d="M2387 3363 c-16 -16 -5 -61 21 -86 26 -25 81 -39 67 -17 -3 6 -15 10
-25 10 -22 0 -50 36 -50 63 0 16 3 17 15 7 18 -15 20 1 3 18 -14 14 -22 15
-31 5z"/>
<path d="M2271 3194 c0 -11 3 -14 6 -6 3 7 2 16 -1 19 -3 4 -6 -2 -5 -13z"/>
<path d="M2215 3100 c3 -5 13 -10 21 -10 8 0 12 5 9 10 -3 6 -13 10 -21 10 -8
0 -12 -4 -9 -10z"/>
<path d="M2160 3070 c0 -5 7 -10 16 -10 8 0 12 5 9 10 -3 6 -10 10 -16 10 -5
0 -9 -4 -9 -10z"/>
<path d="M2300 3040 c0 -11 4 -20 9 -20 5 0 7 9 4 20 -3 11 -7 20 -9 20 -2 0
-4 -9 -4 -20z"/>
<path d="M2433 2133 c-15 -5 -17 -23 -4 -23 5 0 11 7 15 15 3 8 4 15 3 14 -1
0 -8 -3 -14 -6z"/>
<path d="M1450 2059 c0 -5 5 -7 10 -4 6 3 10 8 10 11 0 2 -4 4 -10 4 -5 0 -10
-5 -10 -11z"/>
<path d="M737 1949 c7 -7 15 -10 18 -7 3 3 -2 9 -12 12 -14 6 -15 5 -6 -5z"/>
<path d="M1745 1859 c-4 -6 -5 -12 -2 -15 2 -3 7 2 10 11 7 17 1 20 -8 4z"/>
<path d="M1700 1820 c-12 -7 -10 -9 7 -7 12 0 19 5 17 9 -6 10 -6 10 -24 -2z"/>
<path d="M1754 1515 c68 -36 96 -58 91 -72 -2 -7 2 -10 11 -6 21 8 17 29 -10
47 -55 36 -98 56 -118 56 -14 0 -6 -8 26 -25z"/>
<path d="M1864 1424 c-18 -14 -18 -15 4 -4 12 6 22 13 22 15 0 8 -5 6 -26 -11z"/>
<path d="M1875 1399 c-11 -16 -1 -19 13 -3 7 8 8 14 3 14 -5 0 -13 -5 -16 -11z"/>
</g>
</svg>
