<?xml version="1.0" standalone="no"?>
<!DOCTYPE svg PUBLIC "-//W3C//DTD SVG 20010904//EN"
 "http://www.w3.org/TR/2001/REC-SVG-20010904/DTD/svg10.dtd">
<svg version="1.0" xmlns="http://www.w3.org/2000/svg"
 width="636.000000pt" height="636.000000pt" viewBox="0 0 636.000000 636.000000"
 preserveAspectRatio="xMidYMid meet">
<metadata>
Created by potrace 1.14, written by Peter Selinger 2001-2017
</metadata>
<g transform="translate(0.000000,636.000000) scale(0.100000,-0.100000)"
fill="#000000" stroke="none">
<path d="M2750 6219 c-207 -33 -393 -83 -563 -150 -693 -276 -1227 -825 -1484
-1529 -49 -135 -108 -373 -129 -525 -23 -159 -25 -520 -5 -665 80 -583 314
-1069 710 -1482 l120 -125 0 -247 c0 -135 5 -277 11 -314 6 -37 38 -152 72
-255 66 -201 65 -189 33 -292 -3 -11 1 -6 9 10 8 17 17 38 20 49 5 15 9 16 21
6 8 -7 15 -20 15 -30 0 -22 -74 -114 -79 -98 -4 11 -22 -33 -77 -185 -45 -122
-2 -206 142 -280 68 -34 72 -24 5 12 -118 64 -151 105 -151 185 0 110 120 309
242 399 28 21 38 36 38 56 0 16 12 46 26 67 15 22 19 32 9 24 -9 -8 -30 -37
-46 -66 -16 -28 -38 -59 -49 -69 -19 -17 -20 -17 -20 -1 0 28 59 148 88 180
l27 29 -33 -22 c-20 -14 -47 -50 -69 -94 -25 -50 -38 -66 -41 -53 -5 23 2 85
12 109 7 14 5 16 -9 11 -16 -6 -17 2 -10 112 14 247 30 292 145 415 l55 59 99
-56 c55 -31 147 -77 205 -102 126 -54 116 -49 104 -64 -12 -14 -19 -388 -8
-388 18 0 263 168 381 261 34 27 97 73 140 102 l79 54 -2 43 c-5 96 -98 338
-138 360 -21 11 -33 8 -104 -25 -45 -21 -80 -39 -78 -41 1 -1 40 10 87 26 46
16 88 26 93 23 5 -3 28 -44 50 -91 l39 -85 -22 -45 c-12 -25 -41 -71 -66 -102
-24 -31 -44 -59 -44 -63 0 -15 41 -6 61 14 27 27 35 19 11 -11 -12 -14 -30
-23 -50 -24 -39 -1 -40 -4 -6 -16 29 -12 27 -34 -3 -38 -13 -2 -27 6 -36 19
l-16 21 -30 -21 c-17 -12 -40 -35 -52 -52 -11 -16 -45 -48 -75 -70 -29 -21
-73 -59 -96 -83 -27 -27 -56 -46 -75 -49 -29 -6 -33 -3 -39 19 -9 35 1 206 12
227 9 16 12 16 29 1 11 -8 14 -13 8 -9 -21 10 -15 -3 6 -15 19 -10 20 -6 19
71 -1 60 3 85 13 93 22 17 56 69 74 112 12 30 18 36 25 24 7 -11 10 -11 11 -2
1 6 3 17 4 22 1 6 3 15 4 21 1 8 18 10 52 7 29 -3 45 -2 37 3 -7 5 -28 9 -46
9 -20 0 -31 4 -27 10 3 6 4 10 2 10 -2 0 -33 -42 -68 -94 -35 -52 -66 -93 -68
-90 -9 9 34 99 75 155 37 50 48 58 60 49 17 -15 19 1 1 19 -16 17 24 49 127
101 100 51 128 51 172 3 19 -20 34 -41 34 -45 0 -13 22 -9 42 9 10 9 18 11 18
5 0 -6 -9 -17 -21 -25 l-20 -15 20 -41 c24 -47 71 -188 71 -214 0 -11 6 -17
18 -15 14 3 16 -3 14 -36 -4 -53 -26 -92 -60 -110 -16 -8 -34 -22 -42 -31 -12
-14 -10 -15 13 -6 38 15 95 81 103 118 8 42 -2 83 -20 83 -9 0 -17 16 -21 42
-4 24 -18 75 -31 113 l-23 70 46 -50 c76 -82 151 -179 162 -208 10 -25 7 -29
-42 -65 -29 -21 -65 -47 -80 -57 -15 -10 -26 -19 -24 -21 1 -2 38 8 80 21 87
28 113 31 120 13 3 -7 6 -4 6 7 1 11 -8 26 -20 33 -19 12 -18 14 28 53 42 35
49 37 60 23 9 -13 15 -14 35 -3 32 16 31 15 18 38 -9 18 -8 21 12 21 35 0 68
27 68 56 0 34 26 31 45 -6 9 -16 20 -30 26 -30 17 0 69 30 69 40 0 5 -14 25
-31 44 l-30 35 40 26 c23 14 41 32 41 39 0 8 14 37 31 64 20 32 35 74 42 120
l12 71 70 -30 c103 -43 194 -114 229 -179 84 -155 -14 -299 -268 -395 -40 -15
-66 -20 -66 -14 0 8 -4 8 -15 -1 -8 -6 -22 -10 -32 -8 -15 4 -13 7 10 18 40
19 33 30 -7 12 -19 -9 -37 -25 -40 -37 -4 -16 -20 -24 -72 -37 -62 -15 -67
-15 -71 2 -3 12 -12 16 -30 12 -18 -3 -24 -1 -19 7 4 6 14 11 22 11 15 0 19
37 5 58 -6 10 -13 11 -34 1 -31 -14 -31 -12 -13 -73 11 -35 11 -48 3 -50 -7
-2 -27 -8 -46 -14 -31 -10 -37 -9 -65 15 -17 14 -30 30 -28 35 1 5 -7 4 -18
-2 -11 -6 -24 -9 -29 -6 -4 3 -64 -10 -132 -29 -68 -19 -128 -35 -133 -35 -5
0 -1 10 10 21 10 12 -14 -2 -54 -31 l-73 -53 22 -23 c37 -39 2 -61 -42 -25
-23 18 -24 18 -62 -7 l-38 -26 25 -15 c14 -9 26 -21 26 -28 0 -18 -40 -16 -61
3 -23 21 -41 14 -134 -47 l-76 -50 28 -33 28 -32 13 23 c17 31 30 29 24 -2 -4
-22 1 -28 27 -38 l32 -12 -63 -30 c-70 -33 -85 -59 -44 -75 23 -9 52 -4 143
25 l22 7 -20 -38 c-29 -59 -26 -119 10 -155 35 -35 75 -38 130 -9 44 22 81 63
100 108 15 36 80 80 91 62 4 -6 18 -57 31 -113 l23 -102 8 129 c4 71 9 134 11
140 2 6 9 -26 16 -69 23 -141 29 -149 32 -45 1 52 1 134 -1 183 -2 81 -1 87
17 87 15 0 23 -11 33 -42 7 -24 18 -52 26 -63 8 -11 14 -30 14 -43 0 -12 8
-25 18 -29 9 -3 26 -13 36 -22 18 -15 19 -15 14 5 -7 27 -2 35 45 63 37 23 39
23 52 5 13 -18 14 -18 24 9 6 16 11 34 11 41 0 7 11 23 25 36 19 18 26 20 29
9 32 -99 44 -130 50 -120 23 37 16 298 -10 366 -5 12 2 15 32 15 59 0 237 27
347 51 93 21 100 21 133 6 34 -17 108 -23 138 -11 24 9 19 33 -9 44 -14 5 -25
13 -25 17 0 5 30 19 68 31 274 95 575 268 807 465 55 47 101 84 102 83 1 0 9
-102 18 -226 9 -124 22 -265 30 -315 8 -49 15 -99 16 -110 2 -41 17 29 18 88
3 164 119 540 203 660 11 15 44 43 74 62 50 32 75 65 38 51 -59 -23 -113 -18
-153 13 l-23 18 74 100 c41 55 95 133 119 174 43 72 44 75 30 106 -8 18 -22
33 -30 33 -14 0 -14 1 -1 10 15 9 13 11 -12 14 -7 0 -20 21 -30 46 -9 25 -17
41 -17 35 -1 -5 -16 15 -34 45 l-34 55 26 49 c31 59 111 146 134 146 27 0 93
-66 145 -144 l47 -71 5 50 c4 32 16 65 34 90 53 76 226 442 226 479 0 12 -19
1 -65 -37 -36 -30 -71 -54 -77 -54 -7 0 -35 -10 -62 -22 -27 -13 -73 -25 -102
-28 l-54 -6 0 29 c0 36 56 148 107 215 21 28 68 73 105 100 l67 49 16 -22 c21
-31 19 -15 -5 32 -11 22 -20 46 -20 53 0 16 -131 206 -193 281 l-42 50 4 117
c3 102 0 122 -19 165 -11 27 -33 62 -48 77 -36 38 -117 79 -150 75 -40 -5 -37
-25 5 -35 50 -11 84 -67 65 -107 -13 -30 -55 -53 -108 -61 -38 -5 -44 -1 -209
135 -93 77 -171 144 -173 148 -1 5 14 9 34 10 42 2 55 15 52 52 -3 24 -6 25
-73 26 -50 1 -75 -3 -87 -14 -24 -21 -23 -27 10 -41 l27 -13 -35 -30 c-19 -17
-82 -61 -140 -98 -84 -55 -108 -67 -123 -59 -10 6 -30 9 -45 7 -21 -2 -26 -8
-24 -25 2 -14 -5 -26 -19 -33 -17 -9 -19 -14 -8 -20 32 -20 -47 -62 -99 -52
-13 3 -30 15 -39 29 -14 21 -14 35 -4 105 6 45 9 83 8 85 -2 2 -17 -7 -32 -19
l-28 -22 7 30 c21 89 24 110 14 121 -6 8 -4 20 8 39 27 40 23 117 -9 186 -14
32 -64 117 -110 190 -130 204 -138 227 -80 249 22 9 34 8 56 -5 39 -22 42 -21
93 21 34 29 44 43 40 59 -4 15 1 24 19 34 31 16 34 45 5 37 -26 -7 -25 3 4 46
26 37 24 47 -5 47 -26 0 -80 56 -73 75 4 8 18 15 34 15 30 0 40 15 40 58 0 16
10 35 26 49 21 17 26 31 27 69 0 33 -5 51 -16 59 -23 17 -21 67 3 98 20 25 20
28 5 57 -8 16 -21 30 -29 30 -7 0 -18 10 -25 23 -7 12 -22 27 -34 32 -12 6
-28 22 -35 38 -15 31 -55 37 -70 10 -9 -15 -12 -15 -45 1 -20 9 -39 21 -42 26
-10 16 -34 11 -52 -10 -19 -22 -59 -27 -65 -8 -3 7 -22 11 -49 10 -41 -2 -109
15 -125 31 -4 4 -17 7 -28 7 -12 0 -36 9 -54 20 -18 11 -42 20 -55 20 -55 0
-178 -67 -196 -107 -11 -24 -26 -29 -36 -13 -11 18 -39 10 -73 -20 -38 -33
-40 -65 -5 -65 13 0 23 -3 24 -8 3 -30 -16 -24 -92 27 l-84 58 -212 -6 c-116
-3 -219 -9 -227 -12 -9 -3 -16 -1 -16 5 0 13 35 36 70 46 14 4 40 21 58 37 18
15 37 26 43 23 5 -4 9 -1 9 5 0 7 7 9 16 6 10 -4 13 -2 8 6 -5 8 -2 9 9 5 10
-3 17 -2 17 2 0 5 -4 11 -9 13 -5 2 -11 10 -13 18 -2 8 -7 18 -13 22 -6 4 -2
8 8 8 9 0 17 5 17 11 0 5 -4 7 -10 4 -5 -3 -10 0 -10 7 0 7 -11 25 -25 40 -14
15 -25 32 -25 38 0 11 -25 41 -32 39 -2 -1 -28 -5 -58 -10z m938 -275 c26 -18
27 -27 6 -48 -24 -24 -42 -19 -49 14 -11 49 5 61 43 34z m-123 -74 c-3 -5 -11
-10 -16 -10 -6 0 -7 5 -4 10 3 6 11 10 16 10 6 0 7 -4 4 -10z m216 -7 c19 -10
52 -17 74 -16 41 2 101 -19 107 -37 5 -17 68 -21 68 -4 0 19 47 29 65 14 12
-10 16 -9 21 4 8 22 21 20 27 -4 3 -13 14 -20 30 -20 25 0 37 -15 30 -37 -3
-7 -12 -13 -21 -13 -8 0 -13 -3 -9 -6 3 -4 -1 -21 -10 -38 -22 -41 -26 -87
-11 -99 9 -6 7 -7 -5 -3 -10 3 -22 6 -26 6 -5 0 -6 11 -4 24 3 16 -1 26 -14
31 -37 15 -64 13 -76 -6 -6 -10 -22 -19 -34 -19 -12 0 -24 -4 -28 -10 -3 -5
-12 -7 -19 -4 -26 10 -27 -27 -1 -48 24 -18 34 -47 18 -49 -43 -4 -66 -8 -111
-18 -35 -7 -60 -7 -72 -1 -9 5 -20 6 -24 3 -3 -3 -6 -1 -6 5 0 7 -3 11 -7 10
-15 -3 -63 22 -63 32 0 5 5 10 10 10 6 0 10 7 10 16 0 12 3 14 13 6 8 -7 16
-6 24 3 9 10 6 15 -13 24 -13 6 -24 16 -24 23 0 23 45 98 59 98 7 0 11 6 8 15
-4 8 -2 17 3 20 19 12 10 35 -19 53 -23 14 -27 21 -20 35 12 21 9 21 50 0z
m-743 -53 c29 -27 37 -64 22 -101 -35 -84 -164 -56 -164 36 0 73 89 114 142
65z m100 -129 c5 -30 -10 -45 -37 -36 -21 6 -29 43 -14 59 15 15 48 1 51 -23z
m941 -123 c13 -8 27 -8 49 0 l31 11 -21 -40 c-23 -45 -88 -95 -99 -78 -4 7
-12 8 -18 5 -8 -5 -8 0 -2 17 13 33 3 65 -20 72 -10 4 -19 13 -19 22 0 13 8
14 40 9 23 -3 49 -11 59 -18z m-1914 -68 c32 -11 77 -20 100 -20 34 0 74 -16
191 -78 252 -133 433 -238 520 -303 l42 -31 68 38 c177 96 216 116 221 111 3
-3 -15 -18 -39 -33 -76 -47 -208 -137 -213 -144 -2 -4 55 -56 128 -116 73 -60
211 -187 307 -284 96 -96 178 -174 182 -173 17 6 93 -99 123 -169 18 -43 29
-75 24 -72 -14 8 -11 -2 12 -41 22 -36 37 -151 18 -140 -5 4 -9 17 -9 30 0 13
-12 36 -26 50 -20 20 -25 33 -21 58 5 34 -13 60 -50 71 -16 5 -23 3 -23 -5 0
-17 -40 -59 -57 -59 -20 0 -16 14 12 40 29 27 31 48 10 76 -14 18 -14 18 -15
-6 0 -29 -25 -70 -42 -70 -6 0 -4 8 5 18 10 10 17 27 17 38 -1 13 -5 9 -15
-13 -8 -18 -19 -33 -25 -33 -6 0 -4 12 5 30 19 38 14 58 -25 95 -23 22 -33 26
-42 17 -9 -9 -9 -12 0 -12 17 0 41 -57 35 -81 -8 -28 -20 -23 -26 10 -4 21
-15 32 -37 39 -16 6 -30 8 -30 4 0 -15 86 -101 107 -107 13 -3 22 -9 21 -13 0
-4 40 -50 90 -102 51 -52 92 -91 92 -86 0 5 -10 17 -22 27 -16 15 -18 19 -5
19 8 0 18 -6 20 -12 3 -7 6 -2 6 11 1 20 -3 23 -25 18 -22 -4 -24 -3 -12 10
32 32 72 -24 50 -71 -7 -17 -5 -27 10 -46 29 -36 73 -127 92 -189 21 -73 20
-175 -3 -250 -18 -58 -72 -143 -108 -172 -10 -8 -3 5 15 28 48 61 62 112 62
219 0 76 -3 92 -14 88 -8 -3 -17 -22 -21 -42 -16 -87 -124 -272 -159 -272 -6
0 -20 -16 -30 -35 -27 -49 -60 -68 -105 -60 -79 14 -163 50 -184 79 -20 28
-20 29 -1 21 81 -34 151 -55 183 -55 32 0 45 6 70 35 17 20 31 41 31 46 0 6 8
8 17 5 15 -6 16 -5 1 11 -10 12 -15 36 -14 71 0 28 -1 52 -4 52 -7 0 -37 88
-46 133 l-7 39 29 -15 c42 -22 124 -114 124 -139 0 -5 -12 -8 -27 -8 -16 0
-35 -5 -43 -10 -12 -7 -8 -10 14 -10 l30 0 -30 -31 -29 -32 44 32 c24 17 50
31 58 31 7 0 13 4 13 8 0 12 -76 128 -89 136 -7 4 -11 42 -11 93 0 91 -26 207
-61 272 -15 28 -20 31 -25 17 -12 -30 13 -214 42 -313 13 -45 -23 -24 -50 30
-16 31 -42 64 -67 82 -41 30 -41 30 -36 84 l6 54 -59 -6 c-32 -4 -77 -13 -99
-21 -31 -10 -41 -11 -41 -2 0 7 17 71 39 142 33 111 58 208 78 304 5 25 5 24
23 -10 15 -26 19 -30 20 -15 1 32 20 -4 20 -38 0 -28 0 -28 23 -10 20 15 22
20 10 31 -16 16 -17 36 -2 63 10 20 10 20 -15 4 -14 -9 -31 -15 -38 -12 -7 2
8 17 35 33 50 31 56 41 32 50 -17 7 -60 -18 -87 -49 -17 -19 -18 -19 -25 -2
-5 14 4 28 35 55 40 36 41 38 23 54 -18 16 -19 16 -25 -8 -9 -37 -49 -61 -75
-46 -28 14 -27 30 2 27 16 -1 22 3 22 18 0 26 -31 31 -56 9 -13 -12 -23 -14
-30 -7 -16 16 37 73 68 73 26 0 26 0 7 21 -17 19 -18 19 -25 2 -4 -10 -14 -25
-22 -32 -14 -11 -16 -9 -14 16 1 20 -4 30 -20 38 -13 5 -23 16 -23 23 0 10 -8
12 -29 7 -24 -5 -30 -2 -35 13 -6 19 -9 18 -36 -9 -16 -17 -39 -29 -54 -29
-15 0 -72 32 -142 80 -65 43 -121 77 -126 74 -11 -7 -6 -11 130 -93 56 -35
102 -64 102 -66 0 -2 -18 -1 -40 2 -27 4 -53 0 -78 -11 -25 -11 -57 -16 -92
-14 l-55 3 43 23 c56 30 48 40 -10 14 -54 -25 -85 -48 -76 -58 4 -4 14 -1 22
6 13 10 20 8 41 -8 l26 -21 -36 -7 c-20 -3 -55 -4 -78 0 -30 4 -38 3 -27 -4
13 -9 13 -11 0 -19 -11 -8 -8 -12 15 -21 70 -25 68 -22 36 -60 -34 -40 -39
-55 -14 -45 12 4 7 -5 -12 -26 l-30 -33 41 32 c51 39 56 39 48 6 -5 -19 -4
-25 5 -20 6 4 11 11 11 16 0 5 5 21 11 37 8 22 12 24 20 13 7 -12 10 -11 15 8
4 14 12 21 20 18 9 -3 14 2 14 14 0 30 17 24 29 -11 12 -35 6 -53 -15 -45 -8
3 -14 1 -14 -4 0 -13 13 -12 83 5 65 15 72 19 62 34 -9 16 -36 13 -57 -6 -19
-17 -19 -16 -13 10 4 16 2 33 -4 41 -10 12 -5 14 26 13 21 -1 49 2 63 7 23 8
24 7 11 -8 -12 -14 -12 -21 -3 -37 7 -11 10 -25 6 -30 -4 -7 0 -9 12 -6 11 3
42 9 69 12 36 5 46 4 35 -4 -8 -6 -26 -11 -40 -11 -34 0 -54 -15 -47 -34 5
-12 0 -16 -24 -16 -17 0 -32 6 -35 15 -4 8 -12 15 -20 15 -7 0 -11 -6 -8 -13
5 -14 -54 -37 -95 -37 -11 0 -20 -5 -18 -12 1 -6 -9 -14 -23 -18 -24 -6 -24
-7 -6 -17 12 -6 25 -32 33 -63 13 -53 61 -180 72 -192 3 -4 6 43 6 105 0 73 4
120 13 134 16 30 55 49 116 58 71 10 79 14 64 34 -7 9 -8 13 -3 8 4 -4 16 0
25 8 27 25 121 30 164 10 46 -22 48 -5 -35 -298 -56 -195 -80 -254 -99 -242
-14 9 -68 -81 -85 -143 -12 -44 -16 -82 -12 -128 9 -112 -43 -265 -112 -337
-17 -17 -31 -36 -31 -41 0 -6 -5 -4 -11 4 -12 16 -12 18 5 -37 10 -30 -5 -29
-34 2 -38 41 -67 142 -60 209 3 31 5 56 5 56 -10 0 -110 -112 -104 -116 15 -9
10 -24 -6 -18 -10 4 -15 19 -15 43 0 37 11 51 88 116 19 16 25 17 32 5 6 -9
10 -2 15 26 9 57 44 161 73 219 13 28 72 120 130 204 126 185 168 271 176 361
l5 65 -15 -74 c-22 -106 -99 -244 -173 -309 -49 -44 -196 -139 -266 -173 -67
-33 -74 -34 -171 -32 -88 3 -114 8 -215 43 -141 51 -187 71 -220 101 -14 13
-52 38 -84 54 -32 17 -60 38 -63 48 -3 14 -7 15 -13 6 -5 -9 -16 -10 -40 -3
-29 8 -36 17 -51 64 l-18 55 2 -47 c2 -54 -8 -73 -18 -34 -6 25 -8 26 -23 11
-22 -19 -48 -19 -83 -1 -27 14 -28 14 -28 -10 0 -13 -4 -24 -10 -24 -5 0 -10
21 -10 47 0 46 -13 50 -23 8 -3 -11 -5 69 -6 178 -1 160 -4 197 -15 197 -7 0
-26 3 -42 6 -29 6 -29 5 -27 -43 0 -26 4 -61 8 -78 l8 -30 -25 35 c-14 19 -20
38 -15 41 5 4 -28 19 -72 34 -45 15 -85 24 -88 21 -4 -3 -1 -6 5 -6 6 0 37 -9
67 -21 48 -18 62 -29 91 -76 28 -43 33 -57 23 -69 -9 -11 -8 -14 4 -14 16 0
27 -29 27 -73 0 -33 16 -43 -146 87 -99 80 -234 212 -234 230 0 11 145 2 250
-15 54 -9 83 -9 129 1 l59 12 5 202 c5 215 19 318 63 457 33 104 96 217 137
247 41 28 113 29 192 2z m1790 11 c3 -5 1 -12 -5 -16 -5 -3 -10 1 -10 9 0 18
6 21 15 7z m206 -108 c-54 -124 -95 -203 -152 -296 -67 -108 -200 -291 -254
-352 -25 -27 -45 -53 -45 -56 0 -3 -11 -11 -25 -17 -56 -26 -70 -18 -205 116
l-129 128 227 171 c125 94 274 202 332 239 101 65 282 166 287 160 2 -1 -15
-43 -36 -93z m-854 -853 l34 -30 -51 0 c-27 0 -50 2 -50 5 0 8 23 55 28 55 2
0 20 -13 39 -30z m784 -68 c-11 -21 -27 -44 -35 -51 -9 -8 -16 -19 -16 -26 0
-8 -12 -27 -26 -44 -50 -60 -144 -47 -144 20 0 39 37 76 86 85 22 3 44 11 50
15 11 9 82 37 97 38 4 1 -1 -16 -12 -37z m-323 -274 c27 -27 7 -78 -30 -78
-10 0 -18 7 -18 16 0 14 3 14 15 4 12 -10 15 -10 15 2 0 15 -19 38 -32 38 -4
0 -8 -12 -8 -27 -1 -25 -2 -26 -11 -10 -23 39 38 86 69 55z m-1745 -119 c68
-23 108 -44 179 -98 50 -37 49 -51 -4 -51 -16 0 -28 -6 -28 -12 0 -30 60 -137
88 -157 39 -27 50 -27 26 1 l-19 21 35 -6 c51 -10 160 -68 181 -97 14 -19 19
-46 21 -108 2 -95 16 -72 -143 -230 -88 -88 -96 -94 -127 -88 -45 7 -82 -11
-82 -41 0 -39 -53 -21 -63 22 -4 15 -5 13 -6 -7 -1 -32 -24 -38 -40 -10 -6 9
-11 11 -11 5 0 -15 -40 -18 -40 -4 0 5 -9 7 -20 4 -26 -7 -26 11 2 64 20 37
21 47 12 92 -9 46 -9 51 7 51 49 0 60 24 37 87 -14 38 -3 77 40 152 l25 43 19
-35 c24 -48 41 -57 23 -13 -21 50 -19 146 5 208 24 62 24 64 8 50 -7 -5 -63
-30 -125 -55 -95 -38 -114 -43 -124 -31 -9 11 -9 21 -1 40 15 32 -3 77 -58
151 -22 29 -40 57 -40 63 0 19 155 12 223 -11z m-243 -33 c0 -7 7 -21 16 -32
14 -18 15 -18 8 6 -5 20 0 17 23 -15 42 -58 49 -75 14 -35 -31 35 -40 35 -21
-1 18 -33 1 -21 -24 19 -28 44 -44 88 -27 78 6 -4 11 -13 11 -20z m1283 -77
c-25 -39 -28 -41 -31 -19 -3 16 5 30 25 46 15 12 29 21 31 19 2 -2 -9 -22 -25
-46z m387 13 c0 -4 -5 -13 -11 -19 -7 -7 -12 -29 -13 -50 l-1 -38 -115 -7
c-63 -3 -117 -4 -120 -1 -13 13 87 85 144 102 64 21 116 26 116 13z m17 -34
c-3 -8 -6 -5 -6 6 -1 11 2 17 5 13 3 -3 4 -12 1 -19z m-476 -18 c-13 -11 -31
-20 -40 -20 -10 0 -6 7 14 20 39 26 57 25 26 0z m482 -54 c8 -23 35 -65 60
-92 35 -38 43 -52 36 -66 -17 -31 -10 -67 16 -84 22 -14 25 -22 21 -57 -3 -22
0 -51 5 -66 7 -18 7 -27 -1 -29 -8 -3 -7 -8 1 -18 9 -11 9 -18 1 -26 -7 -7
-12 -8 -12 -2 0 5 -4 3 -8 -4 -5 -7 -26 -13 -48 -15 -33 -2 -39 1 -37 17 2 31
-26 45 -77 39 -39 -4 -49 -1 -73 22 -64 61 -82 149 -55 265 14 59 53 100 98
100 22 0 30 6 39 30 5 17 12 30 15 30 2 0 11 -20 19 -44z m-1086 8 c55 -20 83
-56 83 -105 0 -39 -8 -47 -26 -29 -15 15 -142 60 -169 60 -18 0 -31 10 -45 33
-25 41 -25 46 3 57 27 11 98 4 154 -16z m-677 -10 c8 -8 31 -24 53 -35 37 -17
42 -18 58 -3 10 9 28 14 40 12 28 -4 51 -59 80 -191 18 -82 18 -90 3 -137 -13
-40 -26 -57 -65 -85 -36 -25 -49 -42 -49 -59 0 -14 -7 -32 -16 -41 -9 -8 -13
-22 -10 -30 7 -19 -14 -31 -25 -14 -7 11 -9 11 -9 -2 0 -12 -13 -18 -45 -22
-24 -4 -51 -4 -60 -1 -8 4 -15 1 -15 -5 0 -6 -7 -11 -15 -11 -18 0 -20 31 -3
48 9 9 9 12 0 12 -8 0 -12 17 -12 45 0 25 -6 55 -12 66 -11 17 -10 23 9 38
l22 19 -29 6 c-17 3 -30 10 -30 17 0 7 11 8 29 4 17 -3 32 -2 36 4 4 7 -11 11
-44 11 -28 0 -51 4 -51 9 0 5 16 23 35 40 35 30 51 39 41 23 -3 -5 8 -22 24
-37 l29 -28 -26 -49 c-14 -26 -23 -51 -20 -54 13 -14 77 8 96 32 24 30 19 40
-41 93 -21 18 -38 40 -38 47 0 26 41 98 78 137 37 38 34 49 -6 22 -21 -15 -23
-14 -42 17 -22 36 -23 41 -14 87 7 34 24 40 44 15z m1817 -26 c33 -38 66 -89
60 -95 -8 -7 -97 89 -97 105 0 18 14 15 37 -10z m1457 -15 c93 -32 203 -144
258 -259 85 -180 71 -376 -38 -541 -42 -63 -166 -171 -173 -151 -2 7 -13 20
-23 29 -10 10 -17 22 -16 27 2 6 -5 17 -15 24 -10 7 -19 21 -21 31 -1 9 -12
26 -24 37 -26 25 -24 31 49 145 87 136 86 134 53 191 -47 84 -176 264 -188
264 -7 0 -29 -21 -49 -47 -21 -27 -59 -73 -86 -103 l-50 -54 -16 42 c-10 23
-21 39 -26 36 -5 -3 -9 0 -9 5 0 21 -3 26 -22 40 -11 7 -17 20 -14 28 3 8 1
11 -4 8 -6 -3 -10 1 -10 9 0 9 -7 16 -15 16 -14 0 -16 5 -19 38 -1 7 -8 17
-16 22 -12 8 -5 19 37 59 118 113 294 155 437 104z m-2894 -28 c0 -29 -9 -44
-50 -85 -28 -28 -57 -50 -65 -50 -12 0 -35 55 -35 86 0 20 101 82 138 83 7 1
12 -12 12 -34z m1206 9 c-13 -35 -28 -160 -23 -201 6 -53 -10 -57 -47 -12 -43
50 -31 168 21 209 31 24 58 27 49 4z m-746 -135 c0 -11 -4 -17 -10 -14 -5 3
-10 13 -10 21 0 8 5 14 10 14 6 0 10 -9 10 -21z m360 -3 c0 -24 -15 -26 -28
-5 -11 16 -9 19 8 19 11 0 20 -6 20 -14z m-45 -30 c0 -10 -20 -32 -43 -49 -42
-31 -44 -31 -58 -13 -20 28 -19 30 34 59 51 29 67 30 67 3z m359 -150 c35 -23
33 -32 -11 -39 -73 -12 -159 -116 -148 -177 5 -22 4 -22 -9 5 -21 42 -20 45
19 111 20 33 43 84 52 114 21 75 22 76 48 37 13 -18 35 -41 49 -51z m226 -57
c0 -13 -44 -11 -64 4 -15 11 -12 12 23 9 23 -2 41 -8 41 -13z m-130 -48 c14
-26 13 -74 -2 -89 -18 -18 -68 -15 -75 4 -8 21 33 104 52 104 8 0 19 -9 25
-19z m-691 -123 l45 -84 -34 -43 c-46 -57 -162 -144 -234 -176 -63 -28 -69
-26 -82 23 -8 28 -19 28 -54 -1 -17 -15 -61 -31 -121 -45 -106 -24 -390 -57
-413 -49 -10 4 -18 -3 -25 -21 -6 -17 -10 -21 -10 -9 -1 13 -10 17 -35 17 -19
0 -37 3 -40 8 -6 10 16 37 38 45 13 5 16 11 9 18 -7 7 -1 35 19 89 l30 79 37
-29 c31 -25 92 -54 175 -84 16 -6 10 -12 -35 -33 -29 -14 -65 -29 -79 -33 -20
-7 -15 -8 25 -9 86 -1 253 47 520 149 71 27 111 38 113 30 3 -7 9 -4 18 7 18
23 17 33 -1 33 -26 0 -45 53 -34 94 13 48 93 133 111 118 7 -6 33 -48 57 -94z
m798 -90 c-7 -58 -30 -103 -63 -125 -24 -15 -27 -15 -55 1 -33 20 -39 8 -9
-19 11 -10 17 -22 14 -26 -17 -28 -48 17 -48 71 -1 24 -6 35 -16 35 -11 0 -14
-9 -12 -32 4 -43 -20 -35 -43 14 -16 33 -16 38 0 79 9 24 21 44 26 44 5 0 18
9 29 20 11 11 28 20 39 20 21 0 71 43 71 62 0 7 16 -12 36 -42 32 -49 36 -60
31 -102z m-556 104 c8 -20 6 -21 -11 -12 -11 6 -20 18 -20 26 0 22 22 12 31
-14z m779 -48 c0 -72 -19 -79 -91 -37 -31 19 -65 43 -75 55 l-19 20 60 -6 c34
-4 71 -3 85 3 39 15 40 14 40 -35z m-805 5 c33 -29 34 -32 18 -44 -17 -13 -17
-15 3 -37 53 -57 58 -117 17 -187 l-27 -46 -7 51 c-10 76 -31 98 -48 52 -8
-21 -9 -20 -15 12 -4 19 -21 54 -38 78 -16 24 -33 62 -36 85 l-5 41 26 -17
c27 -17 27 -17 27 7 0 23 11 33 37 35 7 1 28 -13 48 -30z m-979 -110 c108 -54
289 -59 434 -13 87 28 97 29 81 10 -7 -8 -47 -27 -89 -41 -94 -33 -274 -45
-374 -25 -104 20 -198 96 -198 160 0 13 11 8 43 -22 23 -21 69 -52 103 -69z
m334 91 c-11 -20 -40 -28 -40 -10 0 9 28 29 43 30 4 0 3 -9 -3 -20z m1395 -72
c16 -16 -35 1 -89 31 -27 14 -52 32 -54 40 -4 13 120 -49 143 -71z m-73 6 c29
-15 54 -28 56 -29 1 -1 -6 -33 -16 -71 l-19 -69 -54 -12 c-65 -13 -166 -16
-173 -5 -3 5 10 16 29 25 43 20 92 87 107 144 6 24 12 43 13 43 2 0 27 -12 57
-26z m210 -66 c6 -16 14 -25 20 -22 12 8 46 -24 65 -61 9 -16 22 -34 29 -38 8
-4 14 -20 13 -35 0 -15 11 -61 26 -102 30 -86 42 -257 17 -252 -10 2 -10 -2
-2 -18 11 -21 3 -97 -13 -117 -14 -18 -27 -16 -27 5 0 20 -29 111 -64 205
l-26 69 34 64 c38 73 32 83 -15 24 -18 -22 -36 -37 -40 -34 -5 3 -9 26 -10 52
l-1 47 -12 -33 c-6 -18 -14 -31 -17 -28 -3 3 -4 -7 -1 -22 2 -15 -1 -51 -6
-80 -5 -29 -6 -52 -2 -52 13 0 -2 -42 -21 -61 -10 -10 -21 -31 -25 -46 -19
-88 -32 -62 -35 70 -1 59 -7 110 -11 113 -5 4 -3 13 5 22 29 34 31 45 7 32
-33 -17 -40 -3 -46 87 -6 75 -5 81 21 111 15 18 31 30 36 26 5 -3 9 21 9 53
l0 58 40 -63 c31 -49 38 -67 30 -80 -5 -9 -10 -12 -10 -6 0 5 -7 19 -15 30
-13 15 -13 13 1 -15 16 -33 17 -34 30 -16 20 27 12 110 -15 145 -11 16 -21 37
-21 47 0 21 37 -35 52 -79z m-601 40 c14 -55 85 -128 123 -128 16 0 25 -4 21
-10 -3 -5 -23 -10 -43 -10 -45 0 -65 -11 -57 -32 8 -20 -22 -81 -35 -73 -16
10 -11 45 6 45 14 0 15 7 10 44 -4 25 -16 70 -27 100 -18 51 -25 106 -14 106
2 0 9 -19 16 -42z m-421 -1 c0 -27 -51 -92 -68 -86 -8 3 0 23 23 57 20 28 38
52 40 52 3 0 5 -10 5 -23z m242 -40 c15 -29 22 -64 23 -114 2 -58 7 -77 25
-100 14 -17 20 -21 17 -10 -15 41 -19 67 -10 67 6 0 15 -11 21 -25 12 -26 26
-32 37 -15 4 6 11 7 17 4 9 -6 6 12 -9 54 -3 6 2 12 11 12 10 0 21 -18 31 -52
20 -68 19 -78 -6 -78 -16 0 -19 5 -15 23 3 12 3 17 0 10 -3 -7 -21 -15 -40
-19 -27 -5 -34 -10 -29 -23 18 -44 27 -120 20 -156 l-8 -40 -14 50 c-8 28 -21
64 -29 80 -8 17 -12 21 -9 10 4 -11 13 -63 22 -115 l16 -95 -31 -46 c-47 -69
-39 -70 12 -3 24 33 69 83 99 113 l55 54 55 -52 c30 -28 65 -74 78 -101 13
-27 25 -47 27 -46 2 2 -4 28 -12 57 -9 29 -16 73 -17 98 l-1 46 -13 -35 -13
-35 -2 30 c-2 30 -2 30 -10 5 l-8 -25 -1 28 c-1 16 -7 27 -15 27 -17 0 -56 46
-56 66 0 7 9 15 19 19 11 3 37 19 58 35 21 17 47 37 58 45 11 9 31 18 45 21
14 3 57 19 97 35 96 39 100 38 105 -17 3 -42 0 -49 -27 -70 -17 -13 -53 -33
-81 -45 -30 -14 -43 -24 -34 -27 8 -3 24 -9 35 -14 18 -8 18 -8 3 5 -15 12
-13 15 26 35 24 11 47 18 50 15 9 -9 7 -126 -2 -138 -4 -6 -24 -21 -46 -33
-33 -20 -38 -21 -32 -5 5 13 1 12 -18 -6 l-26 -24 0 66 c0 53 -3 67 -15 67
-11 0 -15 13 -17 53 -1 51 -1 50 -8 -18 -4 -38 -8 -109 -9 -157 l-1 -88 33 -1
c17 -1 65 0 105 1 l73 2 -6 -39 c-4 -21 -13 -60 -21 -87 -8 -27 -14 -72 -15
-100 0 -28 -8 -94 -17 -146 -19 -108 -31 -119 -82 -76 -17 14 -55 33 -85 42
-30 10 -55 24 -57 32 -2 8 -2 52 0 99 3 74 6 83 21 78 12 -4 27 10 54 52 20
31 36 57 34 59 -2 2 -13 1 -26 -3 -17 -4 -20 -8 -9 -15 11 -8 11 -9 0 -6 -24
6 -15 23 18 34 18 6 37 19 42 28 9 16 8 16 -21 2 -39 -21 -58 -20 -64 2 -3 11
-5 8 -6 -9 -2 -57 -237 -249 -304 -249 -11 0 -50 20 -86 44 -36 23 -91 57
-122 75 -55 30 -117 101 -207 232 l-31 47 37 14 37 15 -44 -5 c-57 -7 -47 13
11 22 24 4 54 9 67 11 13 2 38 16 55 32 17 16 52 46 78 66 l46 37 29 -63 c16
-34 42 -95 58 -135 16 -41 32 -69 37 -64 5 5 -15 66 -47 140 -30 73 -55 136
-55 142 0 5 7 10 15 10 8 0 15 5 15 11 0 6 -9 9 -20 6 -14 -3 -26 3 -40 20
-25 32 -25 50 -2 57 10 3 32 25 50 48 27 35 32 50 32 95 0 30 -5 64 -11 75 -8
15 -8 19 0 14 6 -4 21 -26 33 -49z m676 -5 c2 -19 -4 -44 -13 -58 -17 -26 -23
-28 -44 -15 -12 8 -10 16 12 45 16 20 23 37 17 41 -17 10 -11 27 8 23 11 -2
18 -14 20 -36z m-584 -28 c8 -29 3 -39 -13 -29 -13 8 -15 55 -2 55 5 0 12 -12
15 -26z m-294 -32 c0 -14 -39 -46 -47 -39 -3 4 2 16 12 27 19 21 35 26 35 12z
m76 -90 c-13 -12 -17 8 -10 40 l9 33 3 -33 c2 -19 1 -36 -2 -40z m-59 16 c-3
-8 -6 -5 -6 6 -1 11 2 17 5 13 3 -3 4 -12 1 -19z m443 -9 c0 -5 -4 -9 -10 -9
-5 0 -10 7 -10 16 0 8 5 12 10 9 6 -3 10 -10 10 -16z m135 2 c31 -6 36 -10 22
-16 -24 -10 -82 2 -98 21 -11 13 -9 14 12 10 13 -4 42 -10 64 -15z m-1745 -30
c-16 -30 -12 -48 11 -54 18 -5 21 -11 17 -39 -3 -18 -9 -42 -13 -53 -5 -11 6
-3 24 18 40 45 72 48 106 10 26 -30 33 -90 15 -137 -12 -33 -24 -33 -38 -1 -6
14 -16 25 -22 25 -18 0 -10 -40 16 -80 25 -37 26 -43 19 -124 -4 -47 -10 -86
-14 -86 -4 0 -18 10 -30 21 -18 17 -25 19 -31 8 -5 -7 -3 -17 4 -23 8 -6 21
-25 31 -42 17 -30 17 -35 1 -97 -9 -37 -16 -82 -16 -102 0 -48 -17 -44 -30 8
-6 23 -15 56 -20 72 -5 17 -14 58 -20 93 -9 52 -8 68 4 94 19 36 19 41 6 33
-13 -8 -13 10 0 38 10 22 10 22 -6 0 -29 -40 -57 -26 -34 17 9 16 5 22 -19 35
-38 19 -45 19 -36 -2 28 -68 23 -165 -10 -203 -7 -8 -18 -40 -24 -70 -6 -30
-23 -90 -37 -133 -34 -103 -48 -91 -51 46 -1 56 -3 118 -4 137 -4 83 11 180
40 260 17 47 31 86 31 88 0 6 -45 -52 -65 -83 -10 -17 -20 -24 -23 -17 -8 26
-32 12 -32 -20 0 -28 -9 -40 -60 -82 -34 -27 -63 -46 -66 -43 -8 8 23 100 54
162 13 28 51 86 83 130 32 44 71 98 88 121 20 28 40 43 61 48 17 3 43 15 57
26 32 25 47 26 33 1z m1595 -31 c-4 -12 -9 -19 -12 -17 -3 3 -2 15 2 27 4 12
9 19 12 17 3 -3 2 -15 -2 -27z m105 0 c0 -5 -6 -10 -14 -10 -8 0 -18 5 -21 10
-3 6 3 10 14 10 12 0 21 -4 21 -10z m-810 -25 c-7 -9 -15 -13 -17 -11 -7 7 7
26 19 26 6 0 6 -6 -2 -15z m274 -26 c-16 -17 -42 -37 -59 -46 -24 -12 -20 -5
23 37 56 55 87 62 36 9z m791 -28 c3 -5 1 -12 -5 -16 -5 -3 -10 1 -10 9 0 18
6 21 15 7z m-1144 -44 c41 -14 98 -120 98 -182 0 -29 0 -29 -15 -10 -8 11 -19
26 -23 34 -7 12 -17 10 -56 -9 -41 -20 -48 -21 -62 -8 -13 14 -8 19 41 47 31
17 56 33 56 35 0 3 -25 29 -55 59 -59 58 -75 92 -27 59 15 -10 34 -21 43 -25z
m-414 -97 c29 -59 66 -261 109 -598 30 -241 37 -278 58 -305 46 -63 72 -194
40 -204 -16 -5 -42 65 -51 134 l-8 58 -5 -48 -5 -48 -69 165 c-83 202 -128
339 -155 471 -27 134 -36 277 -21 340 22 96 69 112 107 35z m1066 -45 c-3 -9
-8 -14 -10 -11 -3 3 -2 9 2 15 9 16 15 13 8 -4z m-447 -134 c40 -53 70 -98 68
-100 -11 -12 -297 156 -291 172 1 5 17 15 35 23 l33 13 22 -47 c28 -60 27 -59
37 -43 4 8 7 36 7 63 -2 37 0 45 8 33 6 -10 42 -61 81 -114z m969 119 c3 -6
-1 -13 -10 -16 -19 -8 -30 0 -20 15 8 14 22 14 30 1z m-15 -69 c0 -14 -18 -23
-30 -16 -6 4 -8 11 -5 16 8 12 35 12 35 0z m-700 -294 c125 -83 287 -228 331
-296 40 -61 36 -68 -13 -29 -149 115 -534 432 -537 441 -4 11 150 -70 219
-116z m427 -167 c29 -5 66 -16 82 -25 108 -55 148 -204 87 -325 -36 -72 -44
-79 -61 -57 -11 15 -17 17 -35 7 -12 -6 -25 -8 -28 -4 -4 4 -1 9 6 11 6 3 12
9 12 14 0 6 -8 5 -20 -1 -20 -11 -20 -11 5 -48 14 -20 25 -42 25 -49 0 -21
-83 -84 -104 -79 -10 3 -32 -2 -47 -10 -36 -18 -45 -18 -29 1 13 16 10 18 -14
9 -14 -5 -14 -9 -1 -34 8 -16 15 -35 15 -42 -1 -13 -82 -78 -97 -78 -12 0 -88
132 -85 148 2 6 -1 12 -5 12 -5 0 -41 32 -81 71 -66 64 -75 70 -90 57 -32 -28
-47 -31 -24 -6 l23 26 -28 22 -28 22 30 -8 c17 -4 58 -21 93 -37 65 -31 81
-31 63 0 -6 10 -11 14 -11 9 0 -4 -15 5 -34 20 -19 16 -45 36 -58 45 -27 20
-23 26 20 35 28 6 33 3 48 -28 18 -38 67 -73 90 -64 7 3 14 0 14 -6 0 -7 5 -6
15 2 19 15 27 9 30 -24 4 -36 12 -45 35 -39 15 4 20 0 20 -15 0 -11 -4 -22 -9
-24 -5 -1 -1 -14 10 -26 l19 -24 35 22 c35 22 35 22 18 50 -9 16 -25 31 -36
34 -13 3 -18 10 -13 21 4 11 -4 21 -24 33 -21 11 -29 23 -26 35 3 11 -2 17
-12 17 -10 0 -26 7 -36 15 -18 14 -17 15 22 15 34 0 49 -7 82 -36 22 -20 47
-52 56 -70 9 -19 20 -34 25 -34 4 0 11 23 15 50 7 52 16 62 33 33 9 -17 12
-16 38 9 l27 28 -46 47 c-30 32 -48 60 -52 84 -7 39 -69 141 -104 173 -12 11
-22 23 -22 28 0 9 80 3 167 -12z m482 -74 c12 -50 15 -236 4 -236 -5 0 -20 12
-36 25 l-27 24 11 98 c13 125 18 145 28 139 5 -3 14 -26 20 -50z m-269 4 c0
-5 -5 -10 -11 -10 -5 0 -7 5 -4 10 3 6 8 10 11 10 2 0 4 -4 4 -10z m532 -63
c15 -23 31 -60 36 -83 13 -57 -7 -103 -36 -85 -23 14 -55 211 -34 211 4 0 19
-19 34 -43z m-2402 16 c-1 -24 -74 -330 -97 -410 -43 -142 -51 -126 -32 58 21
211 66 359 108 359 12 0 21 -3 21 -7z m1360 -203 c0 -35 -2 -36 -35 -14 -35
23 -32 44 5 44 27 0 30 -3 30 -30z m-650 -82 c0 -15 -5 -18 -20 -13 -14 4 -20
2 -20 -9 0 -8 -5 -18 -11 -22 -7 -4 -9 0 -6 12 3 11 8 37 12 59 l7 40 19 -24
c10 -13 19 -32 19 -43z m410 38 c0 -3 -4 -8 -10 -11 -5 -3 -10 -1 -10 4 0 6 5
11 10 11 6 0 10 -2 10 -4z m650 -86 c0 -11 -4 -20 -9 -20 -14 0 -23 18 -16 30
10 17 25 11 25 -10z m-1369 -89 c53 -60 117 -167 106 -177 -3 -3 -31 1 -61 10
-62 18 -97 58 -117 129 -11 40 -4 97 11 97 5 0 32 -27 61 -59z m879 23 c0 -8
-7 -14 -15 -14 -15 0 -21 21 -9 33 10 9 24 -2 24 -19z m-1011 -69 c1 -19 0
-19 -21 2 -18 19 -19 24 -8 38 13 16 15 16 21 -2 4 -10 8 -27 8 -38z m1071 15
c9 -16 8 -22 -5 -26 -21 -8 -39 10 -32 30 9 22 24 20 37 -4z m275 -30 c0 -22
-29 -18 -33 3 -3 14 1 18 15 15 10 -2 18 -10 18 -18z m-227 -48 c2 -12 -1 -22
-6 -22 -15 0 -34 28 -27 40 10 17 30 6 33 -18z m-1525 -57 c26 -116 20 -215
-13 -215 -17 0 -30 74 -30 167 0 145 18 165 43 48z m77 -14 c-1 -12 -7 -9 -25
12 -14 16 -22 33 -19 39 9 14 44 -27 44 -51z m2146 -50 c-15 -9 -30 -28 -33
-42 -5 -25 -7 -26 -34 -16 -31 12 -39 27 -15 27 8 0 21 6 28 13 27 26 62 46
71 40 5 -3 -3 -13 -17 -22z m84 -28 c0 -7 -39 17 -46 28 -3 6 5 3 20 -6 14
-10 26 -19 26 -22z m-580 -18 c0 -8 -4 -15 -9 -15 -13 0 -22 16 -14 24 11 11
23 6 23 -9z m581 -55 c61 -36 77 -50 60 -50 -19 0 -141 58 -160 75 -3 4 8 25
13 25 2 0 41 -22 87 -50z m-217 -11 c20 -19 20 -19 -11 -8 -18 6 -38 18 -45
26 -11 14 -10 15 11 8 14 -4 34 -16 45 -26z m-338 0 c10 -17 -13 -36 -27 -22
-12 12 -4 33 11 33 5 0 12 -5 16 -11z m-176 -39 c26 -17 55 -39 65 -50 13 -14
31 -20 62 -20 27 0 42 -4 38 -10 -3 -5 -1 -55 6 -111 10 -84 10 -102 -1 -109
-23 -14 -28 -4 -35 72 -8 82 -24 108 -67 108 -31 0 -159 -61 -195 -93 -25 -23
-30 -17 -35 43 -2 22 3 40 12 48 13 12 13 13 -3 8 -10 -3 -29 -6 -41 -6 -22 0
-23 -3 -19 -52 4 -53 4 -53 -12 -25 -9 15 -24 27 -35 27 -32 0 -43 -36 -37
-120 l5 -76 -49 -23 c-50 -22 -78 -22 -99 3 -9 11 0 23 44 57 30 24 54 45 52
46 -2 2 -56 -17 -121 -42 -64 -25 -119 -45 -122 -45 -3 0 13 20 35 44 22 24
51 64 63 88 26 52 29 54 91 62 42 6 48 9 38 21 -7 8 -9 22 -6 31 5 13 9 14 21
4 8 -7 15 -21 15 -31 0 -22 8 -23 34 -4 14 11 17 22 13 50 -7 41 6 45 40 13
13 -12 23 -16 23 -10 0 6 18 29 40 52 47 48 85 53 126 15 15 -14 32 -25 38
-25 6 0 -7 15 -28 33 -24 20 -36 38 -32 45 11 18 25 15 76 -18z m-375 -100
c-3 -5 -12 -10 -18 -10 -7 0 -6 4 3 10 19 12 23 12 15 0z m-115 -65 c-7 -8
-17 -15 -22 -15 -6 0 -5 7 2 15 7 8 17 15 22 15 6 0 5 -7 -2 -15z m543 -112
c6 -51 4 -60 -14 -75 -12 -10 -26 -18 -33 -18 -10 0 -43 108 -34 114 28 21 55
36 64 36 6 0 14 -25 17 -57z m-333 -167 c0 -15 -59 -40 -69 -30 -7 7 40 43 57
44 6 0 12 -6 12 -14z m-134 -20 c14 -23 14 -28 -5 -70 -24 -56 -81 -90 -106
-65 -13 13 -12 21 11 67 21 42 64 92 80 92 2 0 11 -11 20 -24z"/>
<path d="M4036 5531 c-4 -7 -5 -15 -2 -18 9 -9 19 4 14 18 -4 11 -6 11 -12 0z"/>
<path d="M2155 5471 c22 -11 47 -19 55 -19 17 0 -32 22 -70 32 -14 3 -7 -3 15
-13z"/>
<path d="M1966 5444 c-18 -18 -22 -114 -6 -130 7 -7 7 -23 -2 -50 -11 -34 -17
-39 -46 -42 -42 -4 -37 -26 7 -29 18 -1 39 -4 47 -7 12 -5 12 -2 3 15 -8 16
-8 28 0 45 11 25 46 33 54 12 3 -9 12 -5 26 12 19 21 22 22 16 5 -4 -11 -18
-51 -31 -89 -40 -116 -67 -286 -87 -553 -2 -17 0 -30 4 -28 3 3 9 39 13 82 10
108 71 432 100 534 13 46 22 87 20 91 -3 5 8 8 24 8 35 0 67 32 57 57 -6 16
-8 16 -16 -4 -10 -28 -43 -30 -61 -5 -7 10 -28 22 -47 25 -35 7 -34 9 -14 -40
3 -7 -4 -11 -17 -10 -32 2 -46 39 -33 82 12 39 11 42 -11 19z"/>
<path d="M2110 5440 c0 -15 7 -20 28 -20 15 0 33 -5 39 -11 7 -7 12 -6 16 4 4
11 -6 20 -34 31 -49 20 -49 20 -49 -4z"/>
<path d="M1923 5341 c1 -21 8 -36 17 -39 12 -4 13 -2 3 9 -6 8 -13 25 -16 39
-4 17 -5 15 -4 -9z"/>
<path d="M2160 5320 c-24 -19 -24 -20 -4 -20 12 0 25 7 28 16 9 24 4 25 -24 4z"/>
<path d="M1896 5294 c-13 -34 21 -47 45 -17 8 9 9 14 2 10 -6 -4 -18 -1 -26 8
-13 13 -16 13 -21 -1z"/>
<path d="M2215 5299 c-4 -6 -5 -13 -2 -16 7 -7 27 6 27 18 0 12 -17 12 -25 -2z"/>
<path d="M2231 5227 c74 -41 224 -131 333 -201 205 -132 226 -144 226 -130 -1
10 -162 114 -365 237 -116 71 -303 167 -323 167 -4 0 54 -33 129 -73z"/>
<path d="M2274 5255 c11 -8 29 -15 40 -15 19 1 19 2 -4 15 -35 20 -62 19 -36
0z"/>
<path d="M1989 5228 c-5 -15 -3 -60 2 -64 9 -5 29 52 22 60 -6 6 -22 8 -24 4z"/>
<path d="M2367 5213 c-4 -3 12 -17 34 -30 23 -13 43 -22 45 -21 5 6 -22 35
-43 46 -25 14 -27 14 -36 5z"/>
<path d="M1913 5139 c-17 -19 -34 -28 -45 -26 -16 5 -18 -2 -18 -48 0 -39 4
-54 16 -59 19 -7 34 1 33 17 0 9 -2 8 -6 -1 -6 -15 -23 -6 -23 13 0 7 6 20 13
27 6 7 12 20 12 28 0 21 39 24 58 6 21 -22 24 -21 31 15 12 61 -28 77 -71 28z"/>
<path d="M1860 5151 c0 -18 18 -21 30 -6 10 13 9 15 -9 15 -11 0 -21 -4 -21
-9z"/>
<path d="M2490 5150 c0 -8 28 -40 35 -40 2 0 1 9 -2 19 -5 20 -33 38 -33 21z"/>
<path d="M2894 5099 c56 -62 68 -71 90 -63 25 10 20 17 -46 60 -94 62 -97 63
-44 3z"/>
<path d="M2553 5109 c2 -12 9 -25 15 -27 17 -5 15 23 -3 38 -13 11 -15 9 -12
-11z"/>
<path d="M2600 5082 c0 -15 11 -21 27 -15 12 5 12 7 1 14 -17 11 -28 11 -28 1z"/>
<path d="M1918 5068 c17 -17 15 -58 -3 -78 -14 -15 -13 -18 9 -28 22 -10 24
-8 30 28 7 44 -10 90 -33 90 -12 0 -12 -3 -3 -12z"/>
<path d="M2640 5046 c0 -3 16 -17 35 -32 30 -23 37 -24 51 -13 14 12 12 15
-22 30 -39 17 -64 23 -64 15z"/>
<path d="M1802 5010 c0 -14 2 -19 5 -12 2 6 2 18 0 25 -3 6 -5 1 -5 -13z"/>
<path d="M3012 4995 c-21 -16 -22 -35 -1 -35 6 0 8 4 4 9 -3 6 2 14 12 20 15
7 39 -8 128 -82 61 -51 169 -149 241 -219 73 -71 136 -128 140 -128 24 2 -456
440 -489 448 -7 1 -22 -5 -35 -13z"/>
<path d="M1836 4977 c-7 -29 -3 -31 18 -8 14 16 15 19 2 24 -9 4 -16 -2 -20
-16z"/>
<path d="M2775 4970 c-9 -27 1 -37 23 -24 22 14 22 38 0 42 -10 2 -19 -5 -23
-18z"/>
<path d="M1793 4925 c0 -22 2 -30 4 -17 2 12 2 30 0 40 -3 9 -5 -1 -4 -23z"/>
<path d="M2824 4939 c-19 -22 -19 -22 3 -10 24 12 39 31 25 31 -5 0 -17 -10
-28 -21z"/>
<path d="M1846 4935 c-28 -28 -20 -44 18 -38 18 3 43 0 55 -7 21 -11 22 -10
19 22 -3 30 -6 33 -39 36 -24 2 -42 -3 -53 -13z"/>
<path d="M3025 4941 c-3 -5 8 -18 25 -27 16 -10 32 -26 35 -36 3 -10 8 -27 11
-38 8 -31 -20 -25 -56 12 -28 28 -33 30 -42 15 -13 -25 1 -86 24 -98 22 -12
69 -4 80 14 4 7 8 33 8 59 0 36 -6 54 -26 77 -26 31 -48 39 -59 22z"/>
<path d="M2896 4899 c-25 -20 -26 -22 -9 -34 15 -12 19 -9 30 17 17 40 12 43
-21 17z"/>
<path d="M2935 4878 c-12 -29 -12 -34 2 -45 20 -16 19 -17 26 35 6 50 -8 55
-28 10z"/>
<path d="M2089 4876 c8 -9 40 -33 72 -53 66 -40 66 -41 44 -143 -17 -78 -17
-80 -6 -80 10 0 31 99 31 146 l0 33 53 -25 c63 -28 199 -65 236 -63 20 1 22 2
6 6 -117 26 -304 105 -409 171 -26 16 -36 19 -27 8z"/>
<path d="M1783 4820 c0 -25 2 -35 4 -22 2 12 2 32 0 45 -2 12 -4 2 -4 -23z"/>
<path d="M1840 4840 c-11 -11 -19 -28 -19 -37 1 -16 2 -16 6 -1 9 35 60 28 90
-11 11 -14 12 -11 13 16 0 51 -52 71 -90 33z"/>
<path d="M3150 4811 c0 -25 -46 -61 -77 -61 -14 0 -21 -4 -18 -10 11 -17 64
-11 85 10 17 17 29 80 15 80 -3 0 -5 -9 -5 -19z"/>
<path d="M2385 4810 c8 -13 186 -122 191 -117 2 2 -41 31 -96 65 -55 33 -98
56 -95 52z"/>
<path d="M3200 4804 c0 -8 5 -12 10 -9 6 3 10 10 10 16 0 5 -4 9 -10 9 -5 0
-10 -7 -10 -16z"/>
<path d="M1845 4799 c-11 -17 1 -21 15 -4 8 9 8 15 2 15 -6 0 -14 -5 -17 -11z"/>
<path d="M3220 4779 c0 -5 5 -7 10 -4 6 3 10 8 10 11 0 2 -4 4 -10 4 -5 0 -10
-5 -10 -11z"/>
<path d="M1821 4764 c0 -11 3 -14 6 -6 3 7 2 16 -1 19 -3 4 -6 -2 -5 -13z"/>
<path d="M1863 4765 c-4 -11 0 -21 10 -27 22 -12 22 -30 0 -28 -55 6 -81 -31
-45 -63 23 -21 52 -22 52 -2 0 8 -7 15 -16 15 -8 0 -12 -4 -9 -10 3 -5 2 -10
-3 -10 -18 0 -21 29 -6 45 30 29 69 7 62 -36 -5 -33 -31 -46 -68 -32 -28 11
-29 10 -19 -9 9 -17 17 -19 47 -13 46 9 52 18 52 80 0 73 -39 135 -57 90z"/>
<path d="M3244 4769 c-7 -12 13 -29 35 -29 11 0 10 5 -4 20 -21 23 -22 23 -31
9z"/>
<path d="M2650 4650 c8 -5 20 -10 25 -10 6 0 3 5 -5 10 -8 5 -19 10 -25 10 -5
0 -3 -5 5 -10z"/>
<path d="M3360 4630 c-13 -8 -13 -10 2 -10 9 0 26 -12 38 -27 22 -28 22 -28
18 -4 -4 30 -38 54 -58 41z"/>
<path d="M1800 4516 c0 -34 1 -35 20 -24 11 7 20 16 20 19 0 3 -9 14 -20 24
-20 18 -20 17 -20 -19z"/>
<path d="M1878 4533 c6 -2 18 -2 25 0 6 3 1 5 -13 5 -14 0 -19 -2 -12 -5z"/>
<path d="M3605 4478 c32 -38 60 -68 63 -68 7 0 -56 75 -89 105 -18 17 -6 0 26
-37z"/>
<path d="M2160 4506 c0 -8 -10 -22 -22 -30 -22 -15 -20 -16 30 -16 28 0 52 5
52 10 0 6 -9 10 -20 10 -13 0 -20 7 -20 20 0 11 -4 20 -10 20 -5 0 -10 -6 -10
-14z"/>
<path d="M2254 4475 c-16 -13 -43 -24 -59 -25 -17 0 -47 -11 -67 -25 -26 -18
-50 -25 -82 -25 -26 0 -46 -4 -46 -10 0 -5 5 -10 10 -10 25 0 6 -18 -25 -24
-35 -7 -47 -23 -22 -30 48 -15 49 -16 37 -31 -16 -19 -9 -28 40 -50 37 -17 40
-21 41 -59 1 -23 3 -33 6 -23 4 18 6 17 29 -4 13 -12 24 -18 24 -12 0 5 -9 18
-20 28 -27 24 -25 33 5 27 30 -5 31 4 5 38 -24 30 -26 47 -4 29 25 -21 50 -20
110 2 49 19 54 23 39 32 -14 7 -20 7 -23 -1 -2 -7 -8 -12 -14 -12 -6 0 -7 7
-4 16 3 8 2 24 -4 34 -9 17 -7 17 20 7 24 -9 32 -8 49 8 14 12 21 14 21 5 0
-7 -7 -18 -17 -25 -25 -19 -6 -37 30 -29 53 11 70 23 56 40 -6 8 -8 14 -3 14
5 0 1 7 -9 14 -17 13 -16 15 14 21 23 5 28 10 18 16 -8 5 -24 9 -37 9 -20 0
-21 3 -12 20 10 19 9 20 -31 14 -40 -7 -42 -6 -37 14 9 32 -4 34 -38 7z m-48
-161 c10 -38 -8 -49 -45 -30 -38 20 -42 41 -6 32 14 -4 25 -3 24 1 -5 33 19
30 27 -3z"/>
<path d="M1832 4477 c-8 -10 -1 -12 34 -12 28 0 44 4 44 13 0 16 -64 16 -78
-1z"/>
<path d="M3062 4479 c2 -6 8 -10 13 -10 5 0 11 4 13 10 2 6 -4 11 -13 11 -9 0
-15 -5 -13 -11z"/>
<path d="M3533 4454 c-16 -25 -16 -27 2 -40 13 -10 21 -11 26 -3 3 6 10 11 15
11 30 2 34 12 13 34 -28 30 -35 30 -56 -2z"/>
<path d="M2965 4460 c3 -5 12 -7 20 -3 21 7 19 13 -6 13 -11 0 -18 -4 -14 -10z"/>
<path d="M1848 4450 c-9 -6 -22 -27 -29 -47 -11 -35 -10 -38 17 -60 16 -13 35
-21 42 -18 8 3 20 5 28 5 8 0 14 5 14 10 0 6 -11 10 -24 10 -28 0 -49 22 -44
47 2 12 12 18 31 18 31 -1 36 19 8 35 -23 12 -22 12 -43 0z"/>
<path d="M3602 4408 c-13 -13 -16 -38 -4 -38 4 0 13 9 19 20 14 22 2 35 -15
18z"/>
<path d="M3140 4386 c0 -14 5 -28 10 -31 6 -3 10 5 10 19 0 14 -4 28 -10 31
-6 3 -10 -5 -10 -19z"/>
<path d="M3192 4390 c0 -14 2 -19 5 -12 2 6 2 18 0 25 -3 6 -5 1 -5 -13z"/>
<path d="M3635 4380 c-3 -5 3 -22 14 -36 l21 -27 0 25 c0 29 -24 55 -35 38z"/>
<path d="M1815 4330 c10 -11 20 -20 23 -20 3 0 -3 9 -13 20 -10 11 -20 20 -23
20 -3 0 3 -9 13 -20z"/>
<path d="M1890 4310 c-12 -8 -11 -10 8 -10 12 0 22 5 22 10 0 13 -11 13 -30 0z"/>
<path d="M1804 4279 c3 -17 6 -35 6 -38 0 -12 40 -51 52 -51 7 0 2 9 -10 20
-14 14 -22 33 -22 54 0 22 -6 36 -16 40 -14 5 -16 1 -10 -25z"/>
<path d="M2336 4291 c-35 -12 -46 -20 -36 -26 9 -6 1 -13 -31 -26 -24 -10 -51
-18 -59 -18 -10 1 -11 2 -2 6 6 2 12 9 12 14 0 6 -9 5 -21 -1 -19 -11 -20 -12
-3 -25 17 -12 16 -13 -4 -19 -26 -9 -30 -24 -5 -22 10 1 26 -18 44 -54 25 -50
99 -136 87 -100 -41 116 -43 129 -22 158 12 15 37 38 58 52 21 13 33 26 27 28
-6 2 -7 12 -1 28 5 13 8 24 7 23 -1 0 -24 -8 -51 -18z"/>
<path d="M1850 4261 c0 -17 3 -32 8 -34 4 -3 7 10 7 29 0 19 -3 34 -7 34 -5 0
-8 -13 -8 -29z"/>
<path d="M1782 4250 c0 -19 2 -27 5 -17 2 9 2 25 0 35 -3 9 -5 1 -5 -18z"/>
<path d="M1878 4268 c-7 -17 9 -58 22 -58 5 0 10 6 10 13 0 8 4 7 10 -3 8 -11
10 -6 8 20 -2 27 -8 36 -24 38 -12 2 -24 -3 -26 -10z"/>
<path d="M2250 4260 c-13 -8 -13 -10 2 -10 9 0 20 5 23 10 8 13 -5 13 -25 0z"/>
<path d="M3796 4237 c3 -10 9 -15 12 -12 3 3 0 11 -7 18 -10 9 -11 8 -5 -6z"/>
<path d="M1816 4186 c3 -8 20 -21 37 -29 37 -18 67 -7 67 24 0 19 -1 19 -16 5
-20 -20 -43 -20 -72 -1 -18 13 -21 14 -16 1z"/>
<path d="M2190 4136 c0 -8 5 -18 10 -21 6 -3 10 1 10 9 0 8 -4 18 -10 21 -5 3
-10 -1 -10 -9z"/>
<path d="M2718 4033 c7 -3 16 -2 19 1 4 3 -2 6 -13 5 -11 0 -14 -3 -6 -6z"/>
<path d="M2765 4020 c-3 -5 1 -10 10 -10 9 0 13 5 10 10 -3 6 -8 10 -10 10 -2
0 -7 -4 -10 -10z"/>
<path d="M3042 3776 c-27 -31 -78 -143 -69 -152 7 -7 92 116 104 151 15 44 3
44 -35 1z m-19 -81 c-3 -9 -8 -14 -10 -11 -3 3 -2 9 2 15 9 16 15 13 8 -4z"/>
<path d="M3862 3755 c0 -16 2 -22 5 -12 2 9 2 23 0 30 -3 6 -5 -1 -5 -18z"/>
<path d="M3057 3631 c-63 -69 -97 -160 -97 -256 l0 -50 23 35 c17 27 22 51 24
107 1 75 0 72 82 184 23 33 5 21 -32 -20z m-61 -199 c-12 -11 -17 7 -9 34 l8
29 3 -28 c2 -16 1 -31 -2 -35z"/>
<path d="M3991 5344 c-73 -50 -160 -138 -262 -269 -149 -190 -175 -249 -129
-295 22 -22 50 -27 50 -9 0 17 32 38 58 39 13 0 20 4 17 10 -10 17 -32 11 -66
-17 l-32 -27 -18 23 c-21 25 -24 58 -9 81 8 12 10 12 10 -5 1 -12 6 -5 14 17
18 49 30 68 125 185 77 96 201 222 271 276 50 38 34 33 -29 -9z"/>
<path d="M3752 4170 c14 -22 24 -19 15 5 -4 8 -11 15 -17 15 -6 0 -6 -7 2 -20z"/>
<path d="M2256 3525 c-64 -26 -116 -69 -116 -96 0 -24 47 -59 80 -59 49 0 150
96 150 143 0 43 -31 47 -114 12z m-41 -65 c-3 -5 -12 -10 -18 -10 -7 0 -6 4 3
10 19 12 23 12 15 0z"/>
<path d="M2032 3403 c-45 -45 -43 -68 8 -69 38 -1 40 0 39 30 0 17 -4 40 -8
51 -7 19 -10 18 -39 -12z"/>
<path d="M3380 3655 c-10 -12 -8 -21 10 -50 12 -19 30 -40 41 -45 38 -21 98
16 84 52 -9 21 -69 58 -97 58 -14 0 -31 -7 -38 -15z m75 -15 c3 -5 2 -10 -4
-10 -5 0 -13 5 -16 10 -3 6 -2 10 4 10 5 0 13 -4 16 -10z"/>
<path d="M3562 3608 c-7 -7 -12 -23 -12 -36 0 -18 4 -23 16 -18 9 3 18 6 20 6
8 0 4 49 -4 54 -5 3 -14 0 -20 -6z"/>
<path d="M3571 3473 c7 -12 15 -20 18 -17 3 2 -3 12 -13 22 -17 16 -18 16 -5
-5z"/>
<path d="M3525 3459 c-9 -14 -2 -20 14 -10 8 6 9 11 3 15 -6 3 -14 1 -17 -5z"/>
<path d="M1721 2924 c0 -11 3 -14 6 -6 3 7 2 16 -1 19 -3 4 -6 -2 -5 -13z"/>
<path d="M3651 2863 c0 -36 3 -43 9 -28 12 28 12 63 0 70 -6 4 -10 -12 -9 -42z"/>
<path d="M3882 2490 c0 -14 2 -19 5 -12 2 6 2 18 0 25 -3 6 -5 1 -5 -13z"/>
<path d="M2860 2870 c-8 -5 -10 -10 -5 -10 6 0 17 5 25 10 8 5 11 10 5 10 -5
0 -17 -5 -25 -10z"/>
<path d="M2955 2809 c-4 -17 -4 -33 -1 -36 3 -4 6 1 6 11 0 9 4 15 9 12 4 -3
6 6 3 19 -6 33 -9 31 -17 -6z"/>
<path d="M2936 2745 c-9 -26 -7 -32 5 -12 6 10 9 21 6 23 -2 3 -7 -2 -11 -11z"/>
<path d="M1499 2843 c-13 -16 -12 -17 4 -4 9 7 17 15 17 17 0 8 -8 3 -21 -13z"/>
<path d="M1581 2843 c0 -6 -4 -20 -7 -30 -5 -14 -4 -15 5 -7 7 7 11 20 8 30
-3 11 -5 14 -6 7z"/>
<path d="M1670 2700 c0 -5 5 -10 11 -10 5 0 7 5 4 10 -3 6 -8 10 -11 10 -2 0
-4 -4 -4 -10z"/>
<path d="M1311 2524 c0 -11 3 -14 6 -6 3 7 2 16 -1 19 -3 4 -6 -2 -5 -13z"/>
<path d="M2950 1580 c0 -5 5 -10 11 -10 5 0 7 5 4 10 -3 6 -8 10 -11 10 -2 0
-4 -4 -4 -10z"/>
<path d="M3065 1050 c-4 -6 12 -10 42 -9 39 1 43 3 23 9 -36 11 -58 11 -65 0z"/>
<path d="M2958 1033 c7 -3 16 -2 19 1 4 3 -2 6 -13 5 -11 0 -14 -3 -6 -6z"/>
<path d="M4344 4302 c-30 -25 -57 -69 -49 -82 19 -30 114 23 101 57 -3 8 -6
21 -6 29 0 19 -20 17 -46 -4z"/>
<path d="M3398 1419 c-39 -20 -43 -26 -30 -46 5 -8 19 -6 50 8 38 18 42 22 31
37 -8 9 -13 18 -14 19 0 0 -17 -8 -37 -18z"/>
<path d="M3436 1355 c-11 -8 -28 -15 -37 -15 -16 0 -17 -4 -8 -30 l11 -29 38
19 c31 16 37 23 33 45 -6 29 -11 30 -37 10z"/>
<path d="M3184 1327 c-12 -7 -19 -17 -17 -24 3 -8 13 -7 34 5 16 9 29 20 29
25 0 11 -22 8 -46 -6z"/>
<path d="M2375 1160 c-3 -6 1 -7 9 -4 18 7 21 14 7 14 -6 0 -13 -4 -16 -10z"/>
<path d="M2080 1125 c-32 -11 -35 -17 -40 -60 l-5 -47 -22 30 c-13 18 -31 30
-45 30 -13 0 -27 1 -33 3 -5 2 -11 1 -12 -3 -7 -19 -2 -28 15 -28 18 0 42 -41
42 -72 0 -34 -45 -68 -89 -68 -42 0 -63 -16 -40 -31 12 -8 12 -11 -1 -19 -8
-5 -20 -10 -27 -10 -20 0 -63 -60 -63 -88 0 -27 1 -26 40 16 28 30 47 42 67
42 37 0 48 -9 57 -43 5 -23 1 -33 -23 -56 -48 -45 -19 -50 42 -9 39 27 79 16
122 -35 19 -22 35 -45 35 -50 0 -5 24 13 54 41 30 27 74 62 99 79 44 29 44 29
27 51 -10 12 -21 22 -25 22 -5 0 -30 -14 -58 -31 -79 -48 -79 -47 -75 166 1
102 1 184 -2 184 -3 -1 -21 -7 -40 -14z m-2 -207 c16 -16 15 -50 -3 -74 -14
-18 -14 -18 -15 8 0 17 -8 33 -19 40 -15 9 -17 15 -9 25 13 16 30 17 46 1z
m-48 -91 c0 -12 3 -32 6 -44 10 -36 -8 -27 -35 17 -14 22 -33 42 -43 46 -26 8
-19 35 12 47 19 7 60 -37 60 -66z m173 -92 c-10 -13 -24 -25 -30 -25 -7 0 -13
-7 -13 -17 0 -9 -3 -13 -7 -10 -3 4 -15 0 -25 -10 -20 -18 -25 -4 -5 16 10 11
8 12 -10 6 -28 -8 -30 6 -3 30 12 11 29 16 45 13 14 -3 33 1 42 8 25 19 26 17
6 -11z"/>
<path d="M3492 1051 c-20 -36 -23 -37 -47 -11 -24 26 -61 26 -76 -1 -33 -62
53 -237 126 -255 51 -13 74 42 75 171 0 110 -41 161 -78 96z m-47 -45 c20 -30
32 -126 17 -126 -23 0 -71 127 -55 144 12 11 22 6 38 -18z m80 -118 c-4 -18
-11 -37 -17 -43 -6 -7 -8 -5 -4 5 2 8 7 27 10 43 4 15 9 27 12 27 3 0 3 -15
-1 -32z"/>
<path d="M2210 1049 c0 -5 5 -7 10 -4 6 3 10 8 10 11 0 2 -4 4 -10 4 -5 0 -10
-5 -10 -11z"/>
<path d="M1931 966 c-19 -20 -21 -26 -9 -26 19 0 41 25 36 40 -2 6 -14 0 -27
-14z"/>
<path d="M1638 617 c-76 -64 -138 -163 -138 -219 0 -21 2 -38 5 -38 2 0 26 23
52 51 26 28 82 78 123 111 41 34 77 65 78 69 7 17 -25 9 -58 -16 -43 -31 -44
-31 -26 4 9 16 13 31 9 34 -3 4 2 18 11 32 9 14 14 25 11 25 -2 0 -33 -24 -67
-53z"/>
<path d="M1840 660 c0 -5 4 -10 9 -10 6 0 13 5 16 10 3 6 -1 10 -9 10 -9 0
-16 -4 -16 -10z"/>
<path d="M1784 636 c-22 -17 -11 -35 13 -20 19 12 29 34 16 34 -5 0 -18 -6
-29 -14z"/>
<path d="M1935 626 c-17 -13 -17 -15 -4 -16 9 0 23 -7 30 -17 13 -15 12 -15
-8 -5 -12 7 -32 12 -45 12 -21 0 -20 -2 9 -20 47 -28 57 -98 18 -114 -12 -4
-13 -2 -2 14 10 17 9 25 -3 47 -22 39 -63 52 -90 28 -31 -28 -22 -90 10 -70 8
5 7 12 -2 23 -11 13 -11 14 2 10 22 -7 25 -44 4 -52 -19 -7 -54 19 -54 41 0
10 -6 10 -26 -4 -19 -12 -22 -18 -13 -21 28 -9 49 -36 49 -63 0 -36 -46 -91
-73 -87 -16 2 -24 -7 -38 -47 -25 -71 -24 -111 2 -118 33 -9 21 -48 -21 -70
l-35 -19 35 6 c19 4 38 10 44 16 5 5 9 37 10 72 1 55 7 74 49 151 27 49 56 91
65 94 10 3 58 25 109 49 91 42 92 42 84 71 -12 41 -40 93 -50 93 -5 0 -15 2
-23 5 -7 3 -22 -1 -33 -9z"/>
<path d="M1672 426 c-76 -61 -122 -111 -138 -152 -15 -39 -13 -64 4 -64 4 0
45 33 91 74 54 48 89 72 100 69 11 -3 24 5 35 22 15 22 16 32 6 55 -15 36 -49
35 -98 -4z"/>
</g>
</svg>
