<?xml version="1.0" standalone="no"?>
<!DOCTYPE svg PUBLIC "-//W3C//DTD SVG 20010904//EN"
 "http://www.w3.org/TR/2001/REC-SVG-20010904/DTD/svg10.dtd">
<svg version="1.0" xmlns="http://www.w3.org/2000/svg"
 width="518.000000pt" height="518.000000pt" viewBox="0 0 518.000000 518.000000"
 preserveAspectRatio="xMidYMid meet">
<metadata>
Created by potrace 1.14, written by Peter Selinger 2001-2017
</metadata>
<g transform="translate(0.000000,518.000000) scale(0.100000,-0.100000)"
fill="#000000" stroke="none">
<path d="M724 4559 c-21 -41 -16 -123 20 -300 29 -143 60 -247 139 -469 81
-227 157 -583 157 -732 0 -66 -1 -68 -25 -68 -19 0 -55 30 -145 120 -66 66
-124 120 -130 120 -27 0 -50 -23 -61 -60 -11 -36 -9 -44 17 -95 15 -32 58 -91
94 -132 36 -41 73 -85 84 -98 l18 -23 -96 -133 c-85 -120 -103 -152 -165 -304
-38 -93 -76 -192 -85 -220 -9 -27 -33 -81 -54 -120 -35 -64 -46 -76 -136 -136
-101 -69 -181 -139 -197 -174 -6 -11 -19 -36 -29 -55 -11 -19 -19 -45 -20 -57
0 -29 33 -63 62 -63 13 0 63 -12 113 -26 132 -37 603 -148 840 -199 61 -13
270 -60 465 -105 195 -44 501 -114 680 -155 179 -41 465 -106 635 -145 171
-39 366 -84 435 -100 69 -15 253 -58 410 -94 484 -112 541 -125 690 -156 172
-36 180 -36 208 -10 29 27 29 97 2 240 -11 58 -27 184 -35 280 -26 297 -65
514 -124 684 -12 33 -21 63 -21 67 0 11 49 36 185 94 61 26 134 58 163 71 29
13 55 24 58 24 12 0 141 64 156 78 27 23 23 78 -7 107 -38 39 -89 33 -301 -35
-102 -33 -196 -60 -208 -60 -20 0 -22 4 -19 48 3 40 23 199 63 477 21 151 29
339 35 810 6 468 12 595 35 714 14 73 13 74 -15 105 -33 36 -83 36 -120 -1
-78 -79 -177 -354 -250 -696 -19 -88 -40 -166 -46 -171 -13 -14 -33 11 -66 84
-107 236 -219 405 -360 541 -159 155 -298 236 -642 376 -104 42 -211 57 -307
43 -126 -18 -152 -29 -609 -255 -480 -238 -610 -325 -689 -459 -42 -72 -60
-91 -75 -82 -6 4 -40 56 -76 116 -64 107 -154 229 -330 452 -49 62 -123 169
-165 238 -69 114 -78 125 -107 128 -27 3 -34 -2 -49 -29z m534 -931 c7 -7 12
-8 12 -4 0 5 9 -3 21 -18 11 -14 24 -26 29 -26 21 0 86 -54 102 -85 61 -117
240 -656 240 -720 -1 -21 -11 -70 -23 -107 -24 -77 -19 -75 -115 -33 l-51 22
-6 111 c-7 129 -32 259 -81 422 -36 122 -107 322 -130 368 -30 60 -29 101 2
70z m-115 -383 c9 -38 17 -95 18 -125 1 -30 4 -41 5 -25 9 73 39 215 46 215 4
0 8 -46 8 -103 0 -95 -2 -108 -29 -158 -16 -30 -32 -71 -35 -93 -4 -21 -9 -36
-11 -34 -2 2 -9 59 -15 128 -6 69 -20 182 -31 253 -20 124 -20 128 -2 169 l18
41 6 -99 c3 -54 13 -130 22 -169z m2312 -80 c81 -20 290 -126 345 -175 25 -22
37 -37 26 -34 -15 6 -17 3 -12 -17 6 -22 5 -22 -6 -5 -59 86 -72 87 -66 3 6
-70 37 -140 69 -158 19 -9 25 -6 51 25 16 20 33 36 37 36 4 0 17 -21 29 -46
12 -25 18 -43 14 -40 -5 3 -15 19 -22 36 -16 38 -26 38 -48 1 -27 -47 -53 -45
-118 10 -77 65 -110 71 -423 72 -223 1 -273 -2 -385 -21 -71 -12 -131 -21
-133 -18 -2 2 29 10 69 17 40 7 63 15 50 17 -48 8 -49 87 -1 113 22 12 23 3 4
-31 -20 -35 -19 -40 9 -40 44 0 156 117 156 164 0 26 -30 46 -71 46 -56 0
-113 -42 -182 -132 -64 -84 -129 -137 -211 -173 -73 -32 -111 -33 -132 0 -33
51 -13 130 49 187 17 15 28 28 24 28 -11 0 -157 -61 -252 -106 -165 -77 -287
-166 -441 -322 -46 -47 -84 -81 -84 -75 0 17 198 203 290 272 106 81 342 196
523 256 142 47 337 92 457 106 41 5 82 11 90 13 42 11 241 5 295 -9z m-2110
-151 c42 -37 80 -76 85 -88 12 -33 24 -163 13 -151 -5 6 -31 37 -58 70 -62 77
-157 175 -168 175 -5 0 -4 -6 2 -14 8 -10 8 -21 1 -40 -14 -37 -13 -43 3 -22
12 16 20 9 85 -71 40 -48 88 -107 107 -130 35 -42 47 -80 21 -70 -65 25 -186
82 -205 97 -22 16 -25 25 -25 86 1 58 -1 63 -8 34 -4 -19 -5 -50 -2 -67 5 -36
3 -38 -27 -23 -23 13 -24 48 -4 143 18 86 48 137 80 137 16 0 52 -24 100 -66z
m-114 -263 c119 -62 153 -78 414 -186 148 -62 516 -244 568 -280 48 -34 305
-196 367 -231 35 -20 121 -73 190 -117 69 -45 138 -89 154 -97 45 -23 5 -25
-47 -2 -24 11 -100 55 -168 99 -68 44 -158 99 -199 123 -41 24 -92 54 -112 67
-21 12 -39 23 -41 23 -3 0 -65 36 -138 80 -140 84 -489 260 -815 410 -250 116
-385 198 -444 272 -19 24 -3 16 66 -35 50 -36 142 -93 205 -126z m1217 163
c32 -22 29 -78 -7 -148 -17 -31 -28 -56 -27 -56 2 0 30 12 62 26 70 31 292 96
313 92 8 -2 -32 -16 -90 -32 -237 -65 -373 -140 -561 -309 -57 -51 -94 -81
-83 -67 30 38 143 140 203 183 52 39 60 51 42 62 -22 13 -4 95 21 95 6 0 7
-14 3 -35 -12 -64 37 -32 90 57 37 63 34 112 -8 116 -70 8 -135 -56 -182 -181
-38 -102 -83 -167 -154 -226 -69 -58 -99 -63 -135 -26 -44 43 -28 118 40 194
44 48 85 57 85 17 0 -14 -5 -28 -12 -32 -7 -4 -8 -3 -4 5 4 7 5 19 2 28 -6 14
-13 10 -42 -18 -61 -58 -89 -142 -59 -173 26 -26 43 -19 108 39 73 67 107 116
147 216 49 121 117 189 190 189 20 0 46 -7 58 -16z m1993 -143 c-8 -5 -10 -14
-5 -22 10 -16 7 -62 -12 -209 -16 -126 -61 -411 -71 -450 -6 -24 -6 -23 -14
10 -4 19 -15 129 -24 245 -15 189 -15 211 -1 221 9 6 16 16 16 22 0 6 7 23 15
39 8 15 20 43 27 61 7 17 19 32 26 32 7 0 11 4 8 9 -7 11 34 64 42 56 4 -3 0
-10 -7 -14z m-533 -46 c-3 -3 -9 2 -12 12 -6 14 -5 15 5 6 7 -7 10 -15 7 -18z
m-2710 -3 c20 -20 45 -174 62 -377 4 -55 10 -106 11 -113 2 -8 -6 -18 -18 -23
-18 -6 -26 -3 -43 18 -26 34 -26 34 -40 263 -6 107 -13 207 -16 223 -7 33 16
37 44 9z m61 -32 c15 -8 19 -28 25 -126 9 -155 12 -167 57 -218 22 -24 39 -48
39 -54 0 -10 -74 -62 -88 -62 -5 0 -13 42 -16 93 -4 50 -16 152 -27 225 -24
172 -25 161 10 142z m2728 -102 c-3 -8 -6 -5 -6 6 -1 11 2 17 5 13 3 -3 4 -12
1 -19z m-2454 -23 c29 -12 47 -26 47 -36 0 -20 -70 -127 -101 -154 l-22 -20 7
79 c3 43 6 97 6 118 0 22 4 38 8 36 4 -1 29 -12 55 -23z m2502 -91 l23 -29 29
28 c16 15 34 27 40 27 19 0 56 -126 44 -147 -9 -15 -10 -14 -11 12 0 17 -10
50 -21 75 l-20 45 -19 -22 c-29 -36 -56 -29 -85 20 -14 24 -25 52 -24 63 1 12
5 8 11 -12 6 -17 21 -44 33 -60z m-611 56 c6 -6 22 -10 37 -10 32 0 92 -51
257 -218 56 -57 102 -100 102 -94 0 15 -36 59 -137 165 -51 55 -93 103 -93
108 0 5 17 2 38 -7 20 -9 42 -17 49 -18 7 -1 20 -9 30 -18 10 -9 34 -24 54
-34 54 -28 409 -445 409 -481 0 -6 -8 -14 -17 -18 -34 -14 -187 -65 -194 -65
-4 0 -47 51 -97 113 -49 61 -158 182 -242 267 -137 139 -280 303 -280 321 0
10 73 0 84 -11z m-313 -12 c43 4 149 -24 149 -39 0 -5 3 -8 8 -8 13 3 72 -23
72 -31 0 -8 7 -11 44 -22 4 -2 92 -88 195 -193 199 -202 350 -380 335 -394 -5
-5 -94 -37 -199 -71 -241 -79 -220 -71 -203 -81 26 -17 102 -9 194 21 51 16
130 39 175 51 80 21 83 21 96 3 7 -10 12 -22 10 -27 -1 -5 -50 -24 -107 -42
-97 -30 -291 -96 -420 -144 -30 -11 -47 -20 -37 -21 17 0 17 -2 3 -22 -28 -40
-17 -42 17 -5 29 34 53 44 267 116 129 44 249 82 266 84 28 5 32 3 42 -29 12
-39 9 -43 -44 -45 -69 -3 -227 -28 -284 -45 -136 -40 -201 -77 -330 -184 -64
-53 -73 -66 -76 -98 -3 -36 -3 -37 14 -16 9 12 22 30 28 39 7 13 17 16 36 12
l26 -7 -25 -71 c-16 -46 -21 -75 -15 -81 6 -6 16 8 28 39 33 87 55 108 92 84
11 -7 11 -16 1 -52 -7 -24 -17 -50 -22 -57 -5 -7 -7 -15 -4 -18 3 -3 15 11 26
33 42 78 60 89 91 52 26 -29 40 -102 37 -189 -1 -45 2 -75 8 -75 6 0 10 44 10
110 1 125 8 155 36 155 35 0 59 -56 60 -140 1 -41 5 -86 9 -100 6 -15 8 28 7
113 -2 121 0 137 14 137 20 0 37 -20 61 -69 l18 -36 -6 40 c-3 22 -6 45 -7 50
-2 12 70 12 98 0 18 -8 19 -7 5 10 -8 10 -28 26 -43 35 l-28 17 30 13 c17 7
47 9 70 6 31 -4 41 -2 41 9 0 8 -7 18 -16 23 -18 10 -11 32 11 32 7 0 16 6 19
13 3 8 8 7 16 -5 6 -10 18 -18 26 -18 24 0 8 -88 -33 -184 -19 -45 -59 -144
-90 -221 -30 -77 -58 -144 -62 -148 -6 -6 -465 91 -561 119 -33 9 -85 195 -78
280 4 41 18 73 82 178 42 71 75 130 72 133 -4 5 -97 -142 -139 -222 -20 -36
-27 -65 -27 -103 0 -61 26 -184 47 -225 8 -16 13 -30 11 -31 -2 -2 -235 49
-518 113 -471 107 -515 119 -513 136 2 17 25 184 39 283 5 35 11 38 39 19 17
-13 17 -16 -7 -68 -28 -57 -54 -156 -45 -166 4 -3 9 8 12 23 3 16 25 67 49
114 l43 85 57 -3 c58 -4 85 -19 99 -55 11 -28 27 -19 27 14 l0 32 60 -6 c76
-7 103 -24 135 -88 14 -27 30 -47 35 -44 15 9 12 32 -11 77 -14 28 -17 39 -7
36 48 -19 58 -19 58 -3 0 24 -44 114 -84 169 -142 199 -370 322 -666 357 -127
14 -142 18 -135 29 4 6 10 8 14 6 4 -3 16 7 27 22 10 15 33 41 49 57 17 17 36
43 42 58 7 15 24 32 38 37 14 5 25 14 25 19 0 5 14 12 30 16 27 6 58 -9 228
-106 108 -61 260 -152 336 -202 77 -49 154 -96 172 -103 41 -17 123 -19 107
-3 -6 6 -103 69 -215 139 -111 71 -270 170 -351 222 -82 51 -156 102 -165 112
-9 11 -12 17 -7 14 16 -9 57 10 50 23 -5 6 0 9 11 8 11 -2 26 1 34 6 8 5 17
10 20 10 3 1 27 11 54 23 27 12 54 22 61 22 6 0 15 3 19 8 4 4 12 8 17 8 5 1
10 2 12 3 1 2 13 4 27 7 14 2 32 7 40 11 8 3 18 7 22 7 3 1 10 4 14 9 4 4 16
7 26 7 11 0 26 7 34 15 19 18 38 20 28 3 -5 -8 0 -7 10 2 10 8 24 15 30 15 49
4 137 19 141 25 3 4 36 6 75 4 44 -1 72 2 77 9 4 6 8 7 10 1 2 -5 21 -8 44 -6z
m-1345 -68 c24 -10 25 -12 12 -28 -27 -31 -48 -102 -48 -162 0 -113 -30 -203
-99 -297 -27 -38 -36 -43 -69 -43 -21 0 -47 7 -59 15 -45 31 -52 118 -16 188
8 16 12 31 10 33 -4 4 -118 -126 -167 -191 -15 -19 -14 -19 10 -2 36 25 86 22
115 -7 31 -31 40 -84 26 -153 -6 -31 -9 -58 -7 -60 2 -3 44 46 93 108 48 62
130 164 182 227 82 99 92 116 77 124 -22 12 -36 50 -29 77 7 28 23 27 23 -1 0
-13 5 -30 10 -38 16 -23 44 17 59 84 15 68 38 72 33 5 l-4 -44 33 30 c40 36
31 24 -94 -122 -53 -62 -157 -191 -232 -287 -74 -96 -194 -241 -266 -323 -163
-183 -159 -179 -159 -167 0 6 48 64 106 129 95 106 104 119 86 126 -30 11 -45
46 -37 85 8 46 21 43 29 -6 11 -70 38 -47 61 52 26 115 -4 170 -74 133 -48
-24 -73 -88 -82 -210 -9 -115 -26 -178 -69 -252 -24 -42 -36 -53 -55 -53 -33
0 -32 10 11 74 44 67 59 117 74 242 6 55 20 119 31 143 11 24 18 46 16 47 -2
2 -99 -95 -216 -216 -117 -121 -217 -220 -223 -220 -5 0 93 107 220 238 126
130 274 289 328 352 145 170 328 380 331 380 1 0 14 -5 29 -10z m2454 -165 c0
-5 -5 -3 -10 5 -5 8 -10 20 -10 25 0 6 5 3 10 -5 5 -8 10 -19 10 -25z m14 -31
c3 -8 2 -12 -4 -9 -6 3 -10 10 -10 16 0 14 7 11 14 -7z m-241 -16 c12 -13 25
-22 30 -20 4 1 7 -5 7 -13 0 -8 5 -15 11 -15 6 0 20 -11 30 -24 11 -14 28 -28
39 -31 10 -3 22 -15 25 -26 4 -11 18 -24 31 -29 13 -5 24 -14 24 -19 0 -5 10
-11 21 -14 15 -4 20 -11 16 -21 -4 -9 -2 -16 4 -16 5 0 15 -12 21 -26 11 -22
10 -28 -7 -40 -28 -20 -50 -17 -62 9 -12 26 -206 272 -223 282 -5 3 -10 10
-10 16 0 16 19 10 43 -13z m206 -43 c0 -5 -4 -3 -9 5 -5 8 -9 22 -9 30 0 16
17 -16 18 -35z m72 -16 c18 -35 29 -79 18 -79 -5 0 -9 10 -9 23 0 12 -4 28 -9
36 -8 12 -12 13 -26 1 -14 -11 -18 -11 -31 3 -8 9 -9 13 -3 8 15 -12 39 -3 39
15 0 20 8 17 21 -7z m38 -209 c1 -13 0 -13 -9 0 -5 8 -9 26 -9 40 l1 25 8 -25
c4 -14 8 -32 9 -40z m19 19 c-3 -20 -5 -19 -9 9 -3 20 -2 29 4 23 5 -5 7 -19
5 -32z m-2553 -92 c-22 -13 -49 -26 -59 -30 -10 -4 -16 -10 -13 -14 6 -5 73 9
110 23 10 4 26 -4 42 -22 30 -32 32 -44 5 -44 -30 0 -127 -39 -142 -57 -12
-15 -11 -15 17 -1 60 31 163 40 191 17 11 -9 7 -16 -26 -40 -22 -16 -53 -29
-68 -29 -31 0 -60 -26 -86 -77 -9 -18 -27 -49 -41 -69 -40 -58 -29 -63 20 -10
25 26 45 52 45 56 0 5 11 22 25 38 17 21 31 28 45 25 12 -3 39 7 70 27 l51 33
32 -30 c18 -17 53 -46 79 -66 l47 -35 -40 -26 c-43 -29 -42 -27 -91 -161 -18
-49 -41 -104 -50 -121 l-18 -31 -207 46 c-195 44 -208 48 -214 71 -4 14 -7 89
-8 167 l-1 143 101 100 c55 55 107 100 115 100 8 0 14 4 14 8 0 13 41 31 70
31 22 1 20 -2 -15 -22z m2572 -9 c-3 -7 -5 -2 -5 12 0 14 2 19 5 13 2 -7 2
-19 0 -25z m-27 -120 c10 -66 9 -203 -4 -618 -2 -52 0 -169 4 -260 3 -91 4
-168 1 -172 -3 -3 -39 1 -78 10 -62 14 -73 20 -73 38 0 11 13 113 30 225 16
112 34 251 40 308 14 145 12 371 -5 466 -19 105 -20 101 18 112 28 8 33 7 44
-13 7 -12 18 -55 23 -96z m-190 93 c0 -5 -51 -25 -112 -44 -287 -90 -419 -129
-424 -124 -5 4 61 27 286 97 58 18 137 43 175 56 39 12 71 23 73 23 1 1 2 -3
2 -8z m70 -13 c0 -2 7 -37 16 -78 18 -89 21 -357 4 -500 -14 -122 -69 -512
-73 -516 -2 -2 -36 5 -77 15 -54 12 -74 21 -72 32 2 8 19 55 37 104 87 233
146 473 144 579 -1 44 -3 41 -10 -28 -13 -126 -109 -459 -178 -619 -19 -44
-23 -47 -48 -41 -16 4 -30 8 -32 10 -2 2 14 43 37 91 70 148 117 330 128 493
8 118 -14 249 -57 333 -33 66 -42 55 81 98 70 25 100 32 100 27z m-1925 -53
c16 -3 33 -12 37 -18 4 -7 8 -8 8 -4 0 5 12 2 28 -6 15 -8 39 -20 53 -27 19
-8 25 -18 22 -33 -3 -13 4 -31 17 -45 21 -23 21 -24 4 -37 -11 -8 -29 -11 -40
-9 -12 3 -25 1 -29 -5 -4 -8 -12 -8 -25 -1 -15 8 -20 6 -25 -9 -5 -16 -9 -17
-29 -8 -14 7 -22 15 -20 19 3 5 -2 8 -11 8 -24 0 -73 50 -86 87 -8 24 -7 42 2
67 13 36 20 38 94 21z m2091 -634 c6 -393 5 -463 -7 -459 -27 9 -35 257 -22
753 10 390 21 280 29 -294z m59 447 c29 -111 51 -249 60 -373 21 -315 37 -480
50 -542 4 -18 1 -23 -15 -23 -12 0 -21 8 -24 23 -7 28 -23 238 -31 387 -13
258 -31 420 -60 540 -24 101 -26 117 -15 98 5 -9 21 -58 35 -110z m-15 -102
c11 -66 29 -261 40 -435 11 -174 23 -333 26 -355 l6 -39 -38 8 c-22 4 -42 8
-45 11 -3 2 -9 203 -13 446 -3 244 -8 468 -11 498 -4 48 -3 51 5 20 5 -19 19
-89 30 -154z m-3276 158 c9 -24 7 -54 -4 -54 -5 0 -10 12 -10 26 0 23 -2 25
-17 13 -28 -24 -53 -92 -53 -146 0 -40 -4 -53 -15 -53 -38 0 -6 159 42 212 20
22 49 23 57 2z m344 -309 c-1 -2 -15 -1 -30 2 -25 5 -27 9 -33 72 -3 36 -8 84
-11 106 -4 34 0 46 28 80 l33 39 8 -148 c5 -81 7 -149 5 -151z m-74 82 l5 -69
-42 7 c-23 4 -45 9 -49 12 -17 10 6 99 36 136 l31 39 6 -29 c4 -15 10 -59 13
-96z m796 95 c0 -10 7 -44 15 -75 12 -48 13 -75 4 -160 -6 -56 -12 -103 -13
-105 -3 -2 -213 43 -248 54 -26 8 -23 17 33 86 28 35 57 77 64 93 16 35 109
125 130 125 8 0 15 -8 15 -18z m-1214 -57 c18 -15 16 -15 -26 -9 -65 9 -85 23
-34 24 22 0 49 -7 60 -15z m314 -55 c0 -32 -6 -36 -30 -20 -12 7 -12 12 4 29
25 27 26 27 26 -9z m3247 -652 c-3 -7 -5 -2 -5 12 0 14 2 19 5 13 2 -7 2 -19
0 -25z m17 -68 c4 -31 3 -40 -4 -30 -5 8 -10 30 -10 49 0 45 6 37 14 -19z"/>
<path d="M3160 3163 c-72 -11 -72 -11 -54 -39 37 -56 14 -114 -78 -199 l-62
-58 47 7 c26 3 68 9 94 12 40 6 44 8 25 15 -35 13 -28 58 21 130 26 39 63 78
96 101 l54 38 -59 -1 c-32 -1 -70 -3 -84 -6z"/>
<path d="M3355 3150 c6 -20 -22 -80 -38 -80 -4 0 -1 10 7 22 20 28 20 44 0 52
-23 9 -65 -16 -111 -67 -63 -69 -91 -135 -63 -152 17 -10 115 23 264 89 78 35
152 67 165 73 23 9 21 11 -30 31 -47 19 -168 51 -192 52 -5 0 -6 -9 -2 -20z"/>
<path d="M2836 3109 c-21 -5 -62 -16 -91 -24 -46 -14 -52 -18 -48 -38 3 -14
-4 -33 -17 -47 l-21 -25 16 33 c15 31 15 32 -5 32 -62 0 -167 -114 -158 -172
6 -43 31 -44 121 -4 87 39 88 39 258 218 l37 38 -27 -1 c-14 -1 -44 -5 -65
-10z"/>
<path d="M3570 3063 c-8 -3 -73 -33 -145 -66 -71 -33 -159 -70 -195 -83 l-65
-23 115 -1 c203 -2 384 -16 416 -33 l29 -15 0 91 c0 70 -4 95 -15 104 -24 20
-26 16 -26 -41 1 -39 -4 -59 -18 -75 -24 -26 -67 -27 -90 -2 -19 21 -18 62 0
68 7 2 10 -5 7 -20 -3 -17 2 -26 22 -37 34 -18 45 -4 45 62 0 65 -29 90 -80
71z"/>
<path d="M2046 2102 c-3 -5 34 -23 82 -42 84 -32 303 -145 386 -198 23 -15 80
-55 128 -91 77 -57 89 -69 104 -113 9 -27 18 -47 21 -44 3 3 1 19 -5 35 -6 17
-9 31 -7 31 2 0 30 -18 61 -40 32 -22 62 -40 68 -39 6 0 0 8 -14 17 -13 9 -84
63 -157 120 -152 118 -263 187 -448 277 -151 73 -212 98 -219 87z"/>
<path d="M2536 1391 c-4 -7 -5 -15 -2 -18 9 -9 19 4 14 18 -4 11 -6 11 -12 0z"/>
<path d="M2552 1285 c-1 -27 -5 -61 -7 -75 l-6 -25 11 25 c6 13 9 47 7 75 l-3
50 -2 -50z"/>
<path d="M2780 1279 c0 -5 5 -7 10 -4 6 3 10 8 10 11 0 2 -4 4 -10 4 -5 0 -10
-5 -10 -11z"/>
<path d="M3329 1100 c-6 -53 -5 -120 1 -120 12 0 22 112 10 124 -7 7 -10 5
-11 -4z"/>
<path d="M3721 904 c0 -11 3 -14 6 -6 3 7 2 16 -1 19 -3 4 -6 -2 -5 -13z"/>
<path d="M1638 2328 c-93 -109 -103 -124 -84 -128 16 -4 21 -14 23 -40 1 -19
-1 -26 -4 -15 -9 35 -20 37 -42 7 -34 -49 -46 -120 -28 -165 25 -59 55 -52
107 25 59 85 68 113 81 230 7 67 19 121 34 156 13 28 23 52 21 52 -1 0 -50
-55 -108 -122z"/>
<path d="M1632 1674 c-44 -44 -28 -43 22 1 22 19 33 34 25 34 -8 -1 -29 -17
-47 -35z"/>
<path d="M2420 1640 c0 -5 5 -10 10 -10 6 0 10 5 10 10 0 6 -4 10 -10 10 -5 0
-10 -4 -10 -10z"/>
</g>
</svg>
