<?xml version="1.0" standalone="no"?>
<!DOCTYPE svg PUBLIC "-//W3C//DTD SVG 20010904//EN"
 "http://www.w3.org/TR/2001/REC-SVG-20010904/DTD/svg10.dtd">
<svg version="1.0" xmlns="http://www.w3.org/2000/svg"
 width="602.000000pt" height="602.000000pt" viewBox="0 0 602.000000 602.000000"
 preserveAspectRatio="xMidYMid meet">
<metadata>
Created by potrace 1.14, written by Peter Selinger 2001-2017
</metadata>
<g transform="translate(0.000000,602.000000) scale(0.100000,-0.100000)"
fill="#000000" stroke="none">
<path d="M3370 5474 c-103 -10 -284 -46 -369 -74 -142 -46 -400 -181 -483
-252 -85 -73 -175 -185 -230 -285 -22 -41 -45 -72 -52 -69 -6 2 -61 27 -122
55 -139 63 -331 121 -533 161 -142 29 -198 32 -175 11 5 -5 50 -21 99 -35 113
-34 186 -59 300 -106 119 -49 388 -170 398 -180 5 -4 -3 -34 -16 -66 -91 -217
-150 -554 -131 -746 4 -41 3 -68 -3 -68 -11 0 -208 157 -241 192 -18 20 -21
29 -13 54 5 16 12 79 15 140 5 99 3 113 -13 128 -36 33 -92 11 -121 -49 -11
-23 -20 -47 -20 -53 0 -21 -54 -13 -115 18 -33 16 -72 30 -86 30 -32 0 -59
-28 -59 -63 0 -21 -5 -27 -20 -27 -30 0 -78 -27 -91 -51 -6 -11 -8 -32 -5 -45
4 -13 1 -32 -6 -43 -16 -25 2 -67 35 -82 l23 -10 -38 -39 c-40 -40 -51 -87
-25 -108 16 -13 252 -20 284 -9 19 7 25 2 49 -45 33 -65 109 -180 181 -272 29
-37 53 -72 53 -76 0 -17 -116 -32 -205 -27 -160 9 -255 57 -436 217 -62 55
-116 100 -120 100 -5 0 -6 -15 -3 -32 19 -110 31 -152 70 -247 78 -186 161
-308 266 -389 l60 -47 -58 -12 c-127 -26 -294 -9 -372 39 -42 26 -41 16 5 -41
61 -76 153 -158 244 -220 214 -144 439 -185 646 -116 107 36 185 86 272 173
56 57 75 72 82 61 5 -8 29 -63 54 -124 26 -60 55 -131 67 -157 l21 -47 -35
-39 c-62 -69 -75 -190 -29 -280 12 -24 21 -60 21 -87 0 -31 7 -55 22 -75 l21
-29 39 33 c60 52 108 61 308 60 151 -1 183 -4 237 -23 34 -11 65 -21 68 -21
13 0 3 30 -12 39 -24 14 -7 14 18 1 16 -9 17 -14 8 -32 -9 -17 -9 -23 0 -26
19 -6 120 -91 130 -110 8 -14 14 -15 43 -4 19 6 49 12 66 12 l32 0 0 63 c0 40
9 87 25 132 21 60 34 79 96 139 l72 69 25 -34 c111 -148 296 -250 591 -323
272 -69 484 -62 762 24 89 27 213 95 204 110 -2 4 -36 10 -74 14 -62 5 -329
60 -337 69 -2 2 33 8 79 14 107 15 154 31 317 110 120 58 143 73 212 143 43
43 78 82 78 88 0 5 -48 -3 -107 -19 -168 -45 -292 -54 -549 -41 -231 12 -355
32 -484 76 -41 14 -77 26 -80 26 -2 0 11 8 30 18 19 11 56 31 82 46 26 15 87
38 135 51 130 35 371 136 421 177 10 8 21 3 45 -19 43 -42 198 -133 225 -133
45 0 63 66 37 133 -6 13 -2 17 18 17 31 0 79 37 75 58 -2 9 7 26 19 39 13 12
23 29 23 38 0 22 -24 67 -48 89 -19 17 -20 20 -6 41 11 16 12 29 5 48 -13 34
-33 44 -106 52 -61 7 -115 23 -115 34 0 3 5 24 10 47 12 51 1 93 -31 116 -39
29 -66 14 -101 -56 -16 -33 -37 -68 -45 -77 -8 -9 -22 -39 -33 -65 l-18 -49
-67 -13 c-37 -7 -69 -12 -71 -9 -2 2 9 28 26 58 37 70 94 216 115 299 10 39
34 91 60 132 72 108 227 365 294 486 l63 113 35 -3 c45 -4 55 18 14 27 -17 4
-31 8 -31 10 0 2 21 50 47 107 29 64 47 118 47 143 1 36 -2 40 -25 43 -23 3
-44 -16 -145 -128 l-119 -132 -59 6 c-32 3 -73 6 -91 6 -31 0 -33 2 -39 50
-19 142 -100 349 -191 485 -132 198 -399 399 -655 490 -167 59 -263 76 -445
80 -93 1 -190 1 -215 -1z m-200 -379 c52 -7 136 -26 185 -40 108 -31 306 -125
395 -188 149 -106 288 -277 349 -429 41 -100 40 -108 -6 -109 -21 0 -90 -8
-153 -18 l-115 -18 -157 151 c-87 83 -173 169 -191 191 -38 45 -113 155 -140
204 l-17 33 -38 -38 c-44 -46 -168 -109 -382 -195 -85 -34 -174 -73 -197 -86
l-43 -25 -125 83 c-69 46 -125 87 -125 92 0 23 67 134 121 202 103 128 163
165 310 194 70 14 226 12 329 -4z m173 -387 c29 -60 67 -106 207 -253 l171
-179 -83 -18 c-169 -37 -240 -70 -330 -156 -38 -36 -50 -71 -25 -73 27 -3 43
4 101 44 76 51 150 78 290 107 l109 22 18 -24 c75 -96 80 -107 62 -116 -34
-17 -178 -61 -332 -101 -154 -40 -189 -55 -159 -66 27 -10 420 95 492 132 24
12 30 13 37 1 5 -7 9 -16 9 -20 0 -13 -271 -95 -440 -133 -91 -21 -173 -44
-182 -53 -31 -27 -22 -64 32 -124 70 -79 134 -123 221 -152 77 -26 205 -51
322 -62 l67 -7 -31 -56 c-47 -83 -154 -221 -273 -351 -58 -63 -116 -134 -128
-157 -13 -24 -30 -43 -40 -43 -14 0 -17 18 -20 138 -4 161 -22 215 -89 259
-36 24 -52 26 -192 34 -83 4 -201 17 -261 28 -61 12 -144 21 -185 21 -85 0
-99 -8 -147 -76 -43 -60 -82 -104 -92 -104 -5 0 -19 11 -31 24 -20 21 -21 28
-12 62 17 67 31 214 31 328 l0 109 60 -6 c33 -4 95 -2 138 4 79 11 239 69 254
91 21 35 3 59 -202 262 l-209 209 30 57 c17 32 47 74 68 94 l38 37 74 -59
c126 -101 209 -200 209 -250 0 -10 6 -27 14 -37 21 -30 46 -3 46 49 -1 71 -33
123 -151 240 -71 69 -107 112 -101 118 5 5 95 44 200 87 188 77 295 131 343
170 13 11 27 20 30 21 3 0 22 -33 42 -72z m-854 -164 l101 -66 -45 -50 c-24
-27 -58 -78 -75 -112 -60 -121 -62 -137 -70 -571 -7 -348 -11 -411 -28 -485
-47 -196 -117 -327 -237 -439 -192 -179 -451 -208 -710 -79 -62 31 -220 133
-229 147 -3 5 29 8 72 8 124 1 304 45 326 81 3 5 -25 26 -62 47 -85 50 -188
152 -242 244 -44 74 -124 250 -117 258 3 2 29 -17 58 -42 77 -66 152 -109 244
-141 69 -24 96 -27 190 -27 91 0 124 4 190 26 129 42 213 105 279 211 44 70
61 116 95 259 38 159 39 167 55 348 14 150 78 449 96 449 4 0 53 -30 109 -66z
m2716 -164 c-14 -27 -27 -50 -29 -50 -3 0 -12 3 -21 6 -14 6 -9 14 26 50 24
24 45 44 46 44 2 0 -8 -22 -22 -50z m-3441 -137 c-3 -32 -8 -59 -9 -61 -1 -1
-14 2 -29 8 -26 10 -26 10 -11 47 34 82 59 85 49 6z m3392 41 c-9 -24 -116
-207 -210 -362 -176 -287 -324 -480 -511 -667 -173 -173 -292 -258 -382 -272
l-38 -6 26 34 c19 24 37 36 63 40 81 13 196 116 417 374 173 202 239 291 239
322 0 38 -31 27 -101 -34 -56 -51 -325 -275 -371 -312 -14 -10 -12 0 9 49 24
55 44 78 183 205 175 161 389 378 529 538 80 90 99 107 124 107 22 0 28 -4 23
-16z m-196 -44 c-23 -27 -46 -52 -51 -56 -5 -3 -9 20 -9 50 l0 56 51 0 51 0
-42 -50z m-795 -12 c3 -13 9 -93 12 -178 6 -180 -9 -300 -62 -494 -52 -190
-108 -320 -209 -485 -50 -84 -51 -86 -50 -165 0 -94 19 -139 81 -197 121 -115
313 -198 553 -241 151 -26 486 -35 612 -16 48 8 84 10 82 6 -11 -17 -134 -78
-205 -102 -125 -42 -257 -58 -439 -54 -88 1 -160 2 -160 1 0 -1 35 -23 78 -48
93 -54 248 -116 355 -141 43 -10 72 -21 65 -25 -40 -21 -168 -34 -333 -34
-161 1 -192 4 -300 29 -241 57 -421 135 -523 230 -93 86 -174 225 -199 340
-28 134 2 210 136 350 290 303 391 474 391 667 0 146 -43 302 -125 457 -25 47
-44 86 -42 88 5 5 199 32 238 33 30 1 38 -3 44 -21z m-2643 -22 c18 -13 17
-14 -11 -24 -27 -9 -33 -8 -46 11 -8 12 -15 25 -15 30 0 12 47 0 72 -17z
m-101 -66 c14 0 10 -13 -15 -43 -23 -28 -24 -29 -55 -13 -17 9 -31 20 -31 25
0 20 51 43 78 35 8 -2 18 -4 23 -4z m-51 -124 c0 -26 -21 -29 -43 -7 l-21 21
32 0 c21 0 32 -5 32 -14z m1255 -52 c46 -39 63 -60 56 -67 -7 -7 -28 6 -68 43
-32 29 -65 59 -73 67 -12 11 -12 13 2 13 9 0 47 -25 83 -56z m-890 14 c-14
-18 -41 -55 -58 -82 -18 -28 -38 -51 -45 -52 -7 -1 -8 0 -2 3 6 3 24 31 40 63
16 32 42 67 57 79 38 28 39 26 8 -11z m-395 -108 c0 -11 -7 -20 -15 -20 -18 0
-19 12 -3 28 16 16 18 15 18 -8z m1460 -41 c0 -7 -73 -39 -90 -39 -5 0 -3 15
4 33 8 17 17 41 21 51 5 18 8 17 35 -9 17 -16 30 -32 30 -36z m1144 42 c7 -11
-131 -67 -141 -57 -11 11 13 28 69 47 62 21 65 22 72 10z m-1994 -63 c0 -5 -5
-18 -10 -29 -9 -15 -15 -17 -31 -9 -19 10 -19 12 -2 34 17 22 43 25 43 4z
m-113 -65 c129 -103 224 -196 214 -206 -8 -8 -24 1 -54 30 -23 22 -80 72 -126
112 -88 75 -118 86 -153 54 -10 -9 -20 -14 -23 -11 -7 7 55 68 70 68 7 0 39
-21 72 -47z m1657 -65 c13 -30 -2 -21 -61 35 l-55 52 48 11 49 10 6 -45 c3
-25 9 -54 13 -63z m-1416 1 c-12 -36 -22 -43 -37 -25 -16 19 18 80 36 65 8 -8
9 -18 1 -40z m-283 -18 c20 -12 35 -32 42 -57 9 -30 9 -35 0 -20 -7 11 -24 33
-38 50 -22 25 -29 28 -41 18 -19 -15 -32 -3 -17 15 15 17 18 17 54 -6z m2793
-80 c-113 -140 -298 -348 -340 -383 -55 -46 -113 -88 -121 -88 -14 0 102 174
142 214 40 39 330 284 339 285 2 1 -7 -12 -20 -28z m-2618 -91 c0 -9 -8 -24
-17 -32 -35 -30 -43 -29 -24 2 11 18 16 41 13 53 -5 20 -4 20 11 8 9 -7 17
-21 17 -31z m3027 -116 c-3 -31 -7 -57 -9 -59 -2 -1 -17 0 -34 2 l-31 5 29 54
c38 71 52 70 45 -2z m-2096 -99 c74 -14 190 -29 259 -32 75 -3 136 -11 152
-20 33 -16 53 -52 63 -112 l7 -44 -63 6 c-35 4 -74 9 -85 13 -15 4 -32 -3 -57
-25 -43 -38 -51 -39 -67 -1 -9 21 -21 31 -44 35 -296 49 -354 63 -435 104 -45
23 -45 32 -1 79 28 30 99 29 271 -3z m2292 -55 c29 0 19 -28 -14 -35 -26 -6
-36 -2 -58 20 l-26 27 40 -6 c22 -3 48 -6 58 -6z m-2438 -99 c22 -6 103 -21
180 -35 77 -13 141 -29 143 -35 5 -16 43 -61 51 -61 5 0 28 16 52 35 27 21 51
33 64 30 11 -2 46 -7 78 -10 l57 -6 0 -79 c0 -43 -4 -81 -9 -85 -15 -8 -210
23 -318 51 -159 41 -490 172 -532 210 -3 2 8 17 23 33 l28 29 71 -33 c40 -18
90 -38 112 -44z m2099 37 c3 -13 5 -63 4 -113 l-1 -90 -7 95 c-4 52 -11 103
-15 113 -4 9 -3 17 3 17 5 0 12 -10 16 -22z m-236 -51 c2 -12 -3 -17 -17 -17
-12 0 -21 6 -21 13 0 31 32 34 38 4z m601 -2 c28 -14 41 -33 41 -61 0 -10 -13
-14 -45 -14 l-45 0 0 45 c0 49 6 53 49 30z m-757 -20 c4 -19 1 -25 -12 -25
-16 0 -30 19 -30 41 0 5 8 9 19 9 12 0 20 -9 23 -25z m-1824 -161 c11 -9 12
-33 2 -130 -20 -216 -15 -202 -66 -202 -23 0 -52 -3 -63 -7 -21 -6 -35 19 -85
150 -13 33 -37 88 -54 121 l-31 61 40 39 c23 21 52 58 66 82 l25 43 77 -72
c42 -40 82 -78 89 -85z m2098 64 c30 -28 52 -53 50 -56 -3 -2 -30 14 -61 36
-31 23 -69 44 -85 47 -34 8 -185 -27 -239 -55 -43 -22 -71 -54 -71 -83 0 -10
9 -35 20 -57 24 -47 24 -51 6 -44 -18 7 -46 76 -46 113 0 67 21 80 193 121
168 39 168 39 233 -22z m473 -7 c18 -11 5 -31 -20 -31 -12 0 -19 7 -19 20 0
21 16 26 39 11z m-557 -62 c28 -14 37 -24 30 -31 -8 -8 -23 -6 -53 6 -38 16
-43 16 -66 0 -27 -17 -25 -6 5 29 19 22 34 22 84 -4z m-499 -60 c13 -37 35
-85 51 -109 26 -40 27 -42 9 -55 -15 -12 -20 -11 -35 3 -19 20 -90 217 -80
226 16 17 35 -5 55 -65z m292 11 c-12 -13 -15 -28 -11 -47 6 -27 6 -27 -9 -9
-21 28 -19 52 7 70 28 20 36 12 13 -14z m-1388 -15 c54 -14 108 -25 120 -25
28 0 37 -14 18 -30 -23 -19 -151 -7 -214 20 -28 13 -51 24 -51 25 0 12 14 35
21 35 5 0 52 -11 106 -25z m956 18 c4 -3 2 -12 -4 -19 -8 -10 -15 -11 -30 -1
-10 6 -19 15 -19 19 0 10 44 11 53 1z m1126 -45 c1 -20 -7 -22 -29 -8 -12 7
-12 12 0 35 13 24 15 25 21 8 4 -10 8 -26 8 -35z m-1168 -1 c-1 -12 -15 -9
-19 4 -3 6 1 10 8 8 6 -3 11 -8 11 -12z m79 3 c0 -5 -2 -10 -4 -10 -3 0 -8 5
-11 10 -3 6 -1 10 4 10 6 0 11 -4 11 -10z m-4 -35 c14 -11 15 -14 4 -15 -26 0
-60 12 -60 21 0 14 34 10 56 -6z m-36 -37 c0 -13 -23 -5 -28 10 -2 7 2 10 12
6 9 -3 16 -11 16 -16z m-1030 2 c0 -5 -4 -10 -10 -10 -5 0 -10 5 -10 10 0 6 5
10 10 10 6 0 10 -4 10 -10z m1080 -31 c0 -5 -7 -6 -15 -3 -8 4 -15 13 -15 21
0 13 3 13 15 3 8 -7 15 -16 15 -21z m-1028 6 c0 -5 -5 -11 -11 -13 -6 -2 -11
4 -11 13 0 9 5 15 11 13 6 -2 11 -8 11 -13z m-167 -68 c9 -28 21 -88 27 -132
13 -100 14 -104 32 -111 10 -4 50 30 118 98 128 130 184 168 248 168 26 0 71
-5 101 -11 l55 -11 12 -65 c7 -35 26 -90 42 -122 l29 -58 -63 -56 -63 -56 -32
33 c-42 43 -107 75 -177 86 -87 14 -183 -5 -286 -56 -57 -29 -58 -29 -58 -5 0
10 -11 39 -25 65 -27 51 -30 91 -19 229 6 70 8 75 25 66 10 -5 25 -33 34 -62z
m73 62 c-2 -6 -8 -10 -13 -10 -5 0 -11 4 -13 10 -2 6 4 11 13 11 9 0 15 -5 13
-11z m51 -28 c-15 -5 -22 6 -14 19 6 9 10 9 16 -1 5 -8 4 -15 -2 -18z m131 20
c0 -16 -28 -20 -40 -5 -10 12 -8 14 14 14 14 0 26 -4 26 -9z m70 -6 c0 -8 -9
-15 -20 -15 -20 0 -26 11 -13 23 12 13 33 7 33 -8z m-110 -37 c0 -5 -11 -8
-25 -8 -23 0 -34 18 -19 33 7 7 44 -14 44 -25z m-128 -3 c0 -5 -5 -11 -11 -13
-6 -2 -11 4 -11 13 0 9 5 15 11 13 6 -2 11 -8 11 -13z m178 0 c-7 -8 -17 -15
-22 -15 -6 0 -5 7 2 15 7 8 17 15 22 15 6 0 5 -7 -2 -15z m-119 -20 c1 -17
-18 -17 -25 0 -4 11 -1 15 10 13 8 -2 15 -7 15 -13z m59 -20 c-7 -8 -16 -15
-21 -15 -5 0 -9 7 -9 15 0 9 9 15 21 15 18 0 19 -2 9 -15z m-100 -10 c0 -8 -4
-15 -9 -15 -13 0 -22 16 -14 24 11 11 23 6 23 -9z m56 -16 c3 -6 0 -15 -7 -20
-13 -7 -28 5 -29 24 0 11 28 8 36 -4z m-42 -37 c2 -4 -2 -15 -9 -25 -12 -16
-13 -16 -17 8 -5 24 14 36 26 17z m-364 -72 c0 -24 -3 -24 -40 -5 -39 20 -38
25 5 25 28 0 35 -4 35 -20z m-37 -122 c15 -11 11 -13 -27 -13 -47 0 -96 -32
-96 -64 0 -9 -4 -22 -9 -29 -7 -11 -9 -11 -14 1 -6 16 16 66 44 96 22 24 75
28 102 9z m667 -53 c48 -24 87 -61 77 -71 -3 -4 -26 3 -51 14 -111 52 -228 55
-334 7 -58 -26 -82 -29 -69 -8 10 16 110 62 167 77 69 19 149 12 210 -19z
m-650 -55 c0 -5 -6 -10 -13 -10 -8 0 -19 -10 -25 -22 -8 -17 -11 -19 -11 -6
-1 18 24 48 40 48 5 0 9 -4 9 -10z m578 -64 c48 -25 65 -56 51 -94 -16 -46
-35 -48 -31 -2 5 51 -20 87 -68 100 -45 12 -106 1 -148 -26 l-27 -17 20 23
c11 12 29 26 40 31 29 13 127 4 163 -15z"/>
<path d="M2960 5019 c-75 -11 -157 -43 -236 -90 -67 -41 -212 -174 -201 -185
4 -4 20 4 35 18 143 132 414 226 627 216 34 -2 62 1 63 7 10 28 -177 50 -288
34z"/>
<path d="M3160 4884 c-53 -38 -325 -168 -439 -210 -55 -21 -101 -41 -101 -45
0 -20 317 79 420 131 75 38 180 117 180 135 0 21 -20 18 -60 -11z"/>
<path d="M3417 4866 c-8 -20 34 -100 88 -169 25 -32 85 -87 133 -122 89 -66
180 -120 188 -113 2 3 -22 25 -53 50 -81 64 -244 231 -298 306 -25 34 -47 62
-49 62 -2 0 -6 -6 -9 -14z"/>
<path d="M2820 4843 c-71 -28 -76 -31 -69 -38 6 -6 161 44 174 56 17 17 -39 8
-105 -18z"/>
<path d="M3747 4656 c129 -125 201 -205 250 -275 2 -2 6 -1 9 2 8 8 -66 135
-121 207 -64 84 -236 220 -278 220 -13 0 31 -49 140 -154z"/>
<path d="M2630 4227 c0 -21 241 -297 259 -297 25 0 8 31 -55 101 -37 41 -92
104 -122 142 -53 63 -82 83 -82 54z"/>
<path d="M3014 3548 c-25 -38 -34 -63 -29 -78 7 -22 65 -53 90 -49 32 7 23 33
-13 40 -44 9 -47 13 -32 49 14 34 1 65 -16 38z"/>
<path d="M2447 4450 c-29 -33 -75 -147 -111 -272 -34 -120 -39 -148 -27 -148
6 0 11 7 11 15 0 26 69 202 126 323 35 74 48 112 39 112 -7 0 -25 -13 -38 -30z"/>
<path d="M2297 3623 c-5 -213 -20 -319 -57 -429 -23 -66 -23 -64 -11 -64 12 0
56 112 81 206 35 135 44 240 31 365 -7 62 -14 116 -17 121 -16 26 -22 -13 -27
-199z"/>
<path d="M2097 3364 c-113 -106 -260 -160 -412 -151 -107 6 -184 32 -244 83
-50 44 -63 39 -26 -10 32 -41 74 -75 135 -106 56 -29 185 -39 269 -20 123 27
267 116 321 199 53 80 38 82 -43 5z"/>
<path d="M2013 3104 c-52 -25 -166 -54 -213 -54 -14 0 -49 6 -78 14 -66 17
-64 1 3 -27 72 -28 195 -29 255 -1 48 22 100 66 100 84 0 14 -7 12 -67 -16z"/>
<path d="M2115 2979 c-62 -51 -157 -100 -255 -131 -64 -19 -96 -23 -215 -23
-124 1 -148 4 -213 26 -95 34 -87 13 12 -29 189 -82 356 -74 548 24 87 45 178
126 178 159 0 8 -1 15 -3 15 -1 0 -25 -18 -52 -41z"/>
<path d="M4016 4172 c-3 -5 10 -70 29 -144 19 -75 37 -171 41 -214 11 -127 23
-121 23 11 0 178 -27 306 -72 344 -9 6 -18 8 -21 3z"/>
<path d="M3787 3058 c-63 -64 -123 -153 -150 -222 -33 -87 -13 -281 36 -344
16 -21 17 -8 2 43 -19 60 -19 184 -2 252 16 59 80 171 143 248 24 30 44 59 44
65 0 21 -23 8 -73 -42z"/>
<path d="M3777 2713 c-13 -12 -7 -57 14 -100 25 -52 122 -143 232 -216 88 -58
227 -132 227 -120 -1 5 -46 37 -102 73 -133 86 -298 242 -333 316 -27 57 -28
58 -38 47z"/>
<path d="M3985 2580 c-10 -16 114 -88 227 -130 132 -49 207 -62 398 -67 251
-7 314 9 100 25 -86 6 -212 23 -281 36 -117 24 -299 80 -361 112 -49 25 -77
34 -83 24z"/>
<path d="M3810 2382 c0 -12 80 -86 130 -119 67 -45 179 -99 241 -117 119 -34
389 -67 389 -47 0 6 -12 11 -26 11 -51 0 -224 41 -336 79 -131 44 -214 84
-316 152 -75 51 -82 54 -82 41z"/>
<path d="M1115 2234 c-61 -10 -141 -37 -209 -71 -84 -42 -200 -149 -217 -200
-8 -26 -8 -77 0 -197 26 -391 26 -365 -2 -395 -13 -14 -27 -38 -30 -52 -9 -34
9 -92 34 -114 11 -11 27 -33 35 -51 20 -41 71 -69 110 -59 16 4 79 10 139 15
61 4 139 15 175 24 147 40 266 132 322 251 l31 66 22 -54 c47 -117 113 -188
223 -240 61 -29 76 -32 163 -32 90 0 99 2 171 37 104 52 191 145 253 270 25
51 45 89 45 85 0 -16 -51 -188 -70 -237 -22 -57 -26 -127 -7 -150 23 -30 62
-50 95 -50 26 0 43 9 72 38 36 36 68 114 109 270 7 23 15 42 19 42 13 0 185
-154 240 -216 30 -32 77 -97 105 -143 65 -105 92 -124 167 -115 87 10 108 26
144 107 18 40 48 122 67 184 18 62 35 110 38 108 2 -2 21 -55 42 -117 46 -135
116 -283 166 -351 43 -59 107 -92 154 -82 70 16 116 79 182 255 76 201 109
358 111 523 l1 118 -33 30 c-40 36 -96 39 -136 8 -40 -31 -44 -45 -56 -180
-12 -145 -71 -391 -100 -422 -16 -18 -128 314 -175 518 -39 174 -52 204 -99
228 -36 19 -42 19 -80 6 -24 -8 -49 -26 -61 -45 -11 -17 -54 -143 -94 -280
-41 -137 -78 -260 -83 -273 l-9 -25 -32 40 c-17 21 -62 71 -99 109 l-67 71 67
17 c75 20 155 57 191 90 30 28 61 93 61 132 0 49 -43 127 -96 174 -61 53 -206
124 -301 146 -107 26 -228 18 -282 -18 -55 -37 -68 -60 -84 -151 l-13 -79 -12
78 c-7 43 -20 92 -30 108 -53 92 -166 93 -211 2 -12 -24 -12 -36 -1 -70 66
-208 -62 -520 -232 -566 -91 -24 -191 46 -224 156 -15 53 -16 82 -8 240 13
288 12 357 -9 388 -36 55 -111 58 -149 6 -10 -13 -25 -50 -33 -81 -13 -49 -45
-291 -45 -342 0 -15 -6 -11 -27 17 -28 37 -93 87 -112 87 -6 0 9 29 34 65 24
36 47 81 51 101 25 136 -63 238 -216 248 -36 2 -78 2 -95 0z m34 -267 c-58
-54 -205 -148 -235 -151 -14 -1 -20 9 -25 37 -6 36 -3 40 35 71 23 18 52 39
66 46 45 24 134 49 175 49 l40 0 -56 -52z m1611 -138 c53 -12 190 -76 190 -88
0 -14 -219 -61 -285 -61 -20 0 -20 3 -11 80 11 90 12 91 106 69z m-1522 -210
c20 -7 34 -21 41 -41 28 -80 -46 -179 -160 -216 -73 -23 -175 -37 -182 -25 -3
5 -7 59 -8 122 l-3 113 35 15 c94 40 214 54 277 32z"/>
<path d="M4462 1554 c-27 -18 -62 -85 -109 -208 -19 -50 -83 -192 -141 -316
-89 -187 -106 -233 -107 -273 0 -42 4 -52 33 -78 50 -45 115 -37 160 21 22 29
189 378 237 495 86 213 97 288 49 344 -20 24 -34 31 -63 31 -20 0 -47 -7 -59
-16z"/>
<path d="M4773 1470 c-21 -13 -36 -32 -44 -58 -17 -58 7 -100 86 -152 87 -57
91 -63 68 -97 -11 -15 -60 -98 -110 -183 -50 -85 -120 -202 -157 -259 -71
-112 -79 -146 -51 -201 19 -38 43 -50 96 -50 36 0 47 6 78 38 41 45 206 311
282 457 29 55 53 102 55 104 2 2 29 -17 61 -42 105 -81 154 -107 198 -107 52
0 83 22 91 65 13 71 -64 153 -330 350 -213 158 -256 176 -323 135z"/>
</g>
</svg>
