<svg width="1370" height="1518">
    <defs>
        <clipPath id="svgPath">
            <path fill="#FFFFFF" stroke="#000000" stroke-width="1.5794" stroke-miterlimit="10" d="M323.5 241L1 812L28.5 1065.5C31.6667 1151.5 47.2 1338.3 84 1397.5C130 1471.5 148.5 1466.5 185.5 1443.5C215.1 1425.1 603.167 1484.83 793.5 1517C838 1472.5 931.7 1379.8 950.5 1365C969.3 1350.2 1194.67 1005.5 1305 835C1312.67 727.5 1335.4 509.8 1365 499C1394.6 488.2 1254.33 162.5 1180.5 1C941 18 451.8 55.7 411 70.5C370.2 85.3 335.667 190.333 323.5 241Z"/>
        </clipPath>
    </defs>
</svg>
