<?xml version="1.0" standalone="no"?>
<!DOCTYPE svg PUBLIC "-//W3C//DTD SVG 20010904//EN"
 "http://www.w3.org/TR/2001/REC-SVG-20010904/DTD/svg10.dtd">
<svg version="1.0" xmlns="http://www.w3.org/2000/svg"
 width="1332.000000pt" height="1332.000000pt" viewBox="0 0 1332.000000 1332.000000"
 preserveAspectRatio="xMidYMid meet">
<metadata>
Created by potrace 1.14, written by Peter Selinger 2001-2017
</metadata>
<g transform="translate(0.000000,1332.000000) scale(0.100000,-0.100000)"
fill="#000000" stroke="none">
<path d="M2530 12916 c0 -7 6 -19 14 -26 8 -6 12 -18 9 -26 -5 -13 14 -20 41
-15 17 3 237 -176 410 -334 209 -190 583 -620 900 -1034 71 -93 165 -250 172
-289 4 -22 10 -30 16 -24 23 23 -88 276 -203 464 -289 470 -894 1079 -1251
1259 -82 41 -108 47 -108 25z"/>
<path d="M2500 12863 c0 -76 48 -280 106 -452 172 -509 356 -936 549 -1270 88
-155 304 -477 316 -474 4 2 6 -3 4 -10 -5 -14 113 -168 134 -175 9 -3 11 0 5
9 -6 11 -5 11 10 0 24 -20 15 -24 -146 -60 -76 -17 -154 -38 -175 -46 -21 -9
-63 -22 -93 -30 l-55 -13 69 -1 c61 -1 170 13 419 54 43 6 80 9 82 5 7 -12
-22 -20 -67 -20 -46 0 -235 -37 -257 -50 -10 -6 77 -7 228 -3 230 6 244 5 238
-11 -4 -10 -7 -22 -7 -27 0 -6 -4 -8 -9 -5 -16 10 -29 -18 -50 -109 -12 -49
-35 -133 -51 -185 -28 -92 -58 -236 -99 -465 -11 -60 -38 -191 -60 -290 -23
-99 -45 -198 -50 -220 -5 -22 -14 -71 -20 -110 -6 -38 -13 -88 -17 -110 l-7
-40 -12 35 c-21 55 -17 94 15 175 17 42 30 90 30 108 0 148 -242 724 -558
1326 -71 136 -89 178 -82 192 18 33 10 51 -62 147 l-73 95 -3 -94 c-3 -87 -1
-99 28 -160 17 -37 41 -109 54 -160 23 -88 32 -157 72 -502 8 -75 17 -145 18
-155 16 -89 16 -97 4 -77 -57 90 -248 331 -370 467 -95 105 -333 322 -396 362
-38 24 -40 27 -35 66 10 73 -33 153 -117 220 l-38 30 5 -122 c6 -134 20 -179
68 -216 22 -17 43 -72 121 -319 189 -593 318 -1044 369 -1286 14 -66 31 -130
38 -143 l13 -25 24 26 c13 14 27 25 31 25 5 0 -3 -12 -16 -26 -14 -15 -25 -30
-25 -35 0 -17 98 -91 164 -124 39 -20 73 -40 76 -44 5 -9 149 -51 184 -54 25
-3 50 74 34 108 -8 17 -5 34 16 77 25 54 35 105 17 94 -5 -3 6 34 24 82 18 48
44 127 56 175 l23 88 35 -68 c32 -62 35 -76 36 -154 0 -49 -5 -92 -11 -100
-15 -19 -1 -136 24 -209 24 -69 149 -375 168 -412 8 -16 21 -28 30 -28 13 0
39 -48 57 -105 6 -17 2 -20 -31 -21 -21 0 -78 -18 -130 -41 -50 -23 -92 -37
-92 -31 0 24 -268 -200 -434 -362 -305 -298 -391 -432 -357 -558 7 -26 17 -51
23 -57 7 -7 8 -3 4 12 -9 28 3 78 16 65 5 -5 10 -31 10 -58 1 -37 -5 -61 -25
-95 -34 -58 -35 -76 -2 -26 14 20 27 37 29 37 2 0 13 -28 26 -62 12 -35 84
-191 160 -348 76 -157 150 -314 165 -350 34 -82 66 -117 116 -125 22 -4 43
-14 48 -23 10 -20 25 -102 18 -102 -2 0 -26 9 -51 21 -44 19 -49 19 -72 5 -20
-14 -24 -24 -24 -71 0 -186 112 -431 350 -765 45 -63 87 -125 93 -137 12 -27
26 -28 118 -7 70 16 92 34 41 34 -15 0 -50 11 -78 25 -40 20 -57 37 -90 93
-23 38 -36 69 -30 70 104 17 128 11 150 -41 l13 -32 37 80 c41 87 69 183 64
217 -3 18 -16 24 -98 41 -107 21 -320 81 -358 100 -20 9 -33 35 -63 122 -38
110 -46 145 -31 145 4 0 41 -11 82 -24 111 -36 500 -151 615 -182 55 -14 107
-30 116 -35 21 -11 38 -164 20 -182 -6 -6 -11 -25 -11 -43 0 -81 -64 -186
-172 -280 -37 -32 -65 -60 -64 -62 6 -5 156 56 199 81 59 35 101 82 142 157
37 70 47 69 16 -2 -27 -62 -104 -161 -164 -209 -94 -75 -258 -138 -363 -139
-65 0 -121 29 -184 97 -34 36 -65 73 -68 82 -4 9 -22 42 -41 74 -26 45 -38 57
-54 55 -29 -4 -33 -35 -47 -313 -6 -127 -17 -261 -26 -300 -30 -136 -33 -219
-13 -429 10 -109 22 -202 26 -206 4 -4 27 -5 51 -2 32 3 42 8 42 22 0 11 5 22
10 25 6 3 10 11 10 16 0 6 -4 8 -9 5 -11 -7 -20 52 -13 89 4 25 6 26 12 10 7
-19 107 -54 160 -56 14 0 19 -3 13 -6 -7 -2 -13 -19 -13 -37 0 -28 -5 -35 -32
-44 -26 -8 8 -11 155 -10 103 1 190 -2 194 -5 10 -11 82 -8 103 3 23 12 283
-6 288 -20 2 -6 26 -10 54 -10 77 0 352 -60 405 -89 11 -5 26 -18 34 -27 13
-16 12 -16 -6 -7 -11 6 -53 11 -93 11 l-73 2 6 -43 c6 -39 4 -43 -24 -59 l-30
-17 -7 50 c-9 67 -24 62 -24 -9 0 -32 -5 -63 -10 -68 -7 -7 -7 -36 -1 -85 14
-105 48 -466 56 -580 7 -95 6 -96 -19 -112 -54 -36 -52 -45 -60 331 -5 230
-12 377 -22 437 -9 50 -15 106 -15 126 l0 36 -67 7 c-89 8 -124 8 -118 -2 2
-4 -2 -63 -9 -132 -8 -68 -17 -178 -21 -244 -5 -94 -12 -135 -32 -186 -29 -76
-140 -300 -148 -300 -3 0 -3 4 0 8 11 17 76 341 100 492 39 252 39 249 22 246
-9 -1 -18 -5 -21 -8 -3 -3 -19 -83 -35 -179 -33 -197 -68 -367 -111 -549 -26
-112 -35 -133 -83 -205 -72 -106 -121 -153 -143 -139 -64 40 -83 128 -82 369
0 104 4 208 8 230 5 24 9 31 10 17 1 -21 6 -19 62 30 77 67 240 258 232 271
-3 6 -1 7 4 4 6 -4 23 9 38 28 14 20 20 34 13 33 -7 -2 -12 5 -11 16 1 13 -8
6 -29 -20 -17 -22 -91 -98 -164 -171 -73 -72 -134 -140 -137 -150 -4 -16 -5
-16 -6 2 -3 56 94 351 165 502 19 39 34 74 34 77 0 3 -18 6 -39 6 -38 0 -41
-3 -89 -78 -108 -168 -190 -365 -218 -522 -20 -113 -18 -327 5 -435 33 -154
96 -264 170 -295 45 -18 74 3 250 183 260 266 262 268 300 394 19 59 37 112
41 116 15 17 50 -3 50 -29 0 -27 9 -30 30 -11 8 7 7 2 -3 -15 -20 -33 -23
-168 -6 -329 11 -112 26 -149 62 -149 33 0 106 49 150 100 53 62 142 242 160
324 17 77 35 101 64 92 11 -4 53 -33 94 -66 71 -58 142 -90 196 -90 21 0 23 5
24 53 1 45 2 47 8 18 9 -50 25 -24 55 89 73 270 100 570 77 830 -5 52 -12 107
-16 123 -6 24 -4 27 16 26 13 0 18 -3 11 -6 -9 -3 -7 -12 8 -30 11 -14 29 -56
40 -92 33 -106 27 -390 -12 -566 -15 -68 -66 -268 -74 -288 -3 -9 39 14 93 50
129 87 341 190 418 204 99 18 404 -20 490 -61 84 -40 208 -79 302 -95 105 -18
123 -20 308 -30 107 -6 128 -11 197 -42 l77 -34 118 11 c65 5 156 14 202 20
46 5 179 14 297 20 118 5 310 15 428 20 117 6 258 17 311 25 104 16 121 17
114 11 -9 -9 -582 -97 -784 -121 -204 -23 -538 -50 -625 -50 -97 0 -110 2
-170 31 -62 30 -73 32 -215 37 -184 7 -309 28 -440 74 -55 19 -116 35 -135 35
-19 -1 -116 11 -215 25 -281 40 -293 39 -460 -34 -77 -34 -184 -82 -237 -108
l-97 -47 -25 -62 c-22 -53 -25 -81 -31 -226 -8 -212 27 -661 55 -708 8 -15 9
-14 10 5 0 23 48 157 74 208 8 17 19 42 25 58 11 30 37 45 51 31 5 -5 4 -48
-2 -97 -20 -156 19 -436 78 -572 l17 -40 23 105 c29 138 89 330 109 349 13 13
17 13 29 1 11 -12 13 -25 6 -60 -5 -25 -9 -97 -9 -160 -1 -169 31 -302 94
-400 19 -30 35 -65 35 -77 0 -45 18 -21 60 77 23 55 46 103 51 105 4 3 20 28
36 56 23 43 28 48 34 31 4 -11 13 -121 19 -244 l11 -223 32 -28 c17 -15 34
-27 37 -27 3 0 14 32 24 71 23 92 93 229 151 299 25 30 67 84 94 120 75 99
150 149 252 171 41 9 80 8 190 -6 128 -17 143 -17 204 -2 36 9 84 29 108 45
61 43 179 155 200 191 31 53 4 34 -63 -45 -36 -42 -77 -82 -92 -90 -42 -22
-93 -18 -124 10 l-28 23 19 29 c10 16 61 86 112 155 98 131 131 157 221 175
38 8 40 -1 10 -33 -18 -20 -22 -36 -23 -105 -1 -79 7 -82 20 -7 6 40 72 110
123 132 15 7 37 21 49 31 12 11 56 39 98 62 117 67 92 26 -30 -48 -69 -41
-107 -70 -111 -85 -3 -12 -17 -29 -30 -37 -13 -9 -41 -52 -62 -96 -22 -44 -41
-77 -44 -74 -3 3 -16 -25 -28 -63 -33 -99 -53 -134 -105 -182 -106 -98 -243
-123 -444 -82 -57 12 -125 21 -150 21 -85 0 -208 -76 -248 -154 -8 -16 -42
-69 -74 -117 -62 -92 -119 -203 -118 -229 0 -8 48 -46 105 -85 132 -88 540
-350 658 -422 105 -64 319 -173 341 -173 8 0 15 -5 15 -11 0 -20 108 -1 233
42 364 123 802 361 1237 672 154 110 310 248 310 275 0 7 4 11 9 8 5 -3 34 21
65 55 77 83 71 61 -7 -27 l-64 -71 -38 -154 c-68 -276 -176 -567 -301 -809
-76 -145 -129 -224 -146 -214 -9 6 -9 9 0 12 20 6 79 113 137 248 75 173 330
872 322 880 -2 2 -39 -30 -83 -72 -263 -248 -580 -470 -917 -639 -103 -52
-188 -97 -190 -101 -1 -3 23 -16 53 -28 130 -53 490 -258 587 -334 97 -77 93
-76 155 -49 63 28 176 97 233 142 45 36 56 61 135 315 136 437 174 573 211
750 32 159 38 144 9 -26 -34 -199 -70 -362 -110 -499 -41 -137 -128 -383 -155
-436 -9 -17 -14 -33 -12 -36 6 -6 57 61 57 75 0 15 86 80 267 200 l152 101
129 158 c71 87 175 203 231 257 56 54 100 101 98 102 -2 2 -23 -10 -46 -28
l-42 -31 6 34 c3 19 9 56 14 82 6 35 5 61 -6 95 -16 53 -12 118 10 140 22 22
37 6 37 -39 0 -22 10 -63 21 -90 17 -40 24 -47 35 -38 8 6 14 23 13 38 -1 28
49 231 60 243 9 10 275 67 371 78 191 24 389 79 520 145 140 71 289 205 315
285 9 26 31 62 51 81 20 19 63 68 97 109 33 41 64 80 69 85 18 20 -25 -71 -53
-112 -15 -24 -25 -43 -21 -43 5 0 40 27 79 61 77 65 151 168 209 293 18 39 42
77 53 83 33 21 61 86 61 145 0 104 -52 227 -167 403 -55 83 -91 122 -157 168
-15 10 -44 54 -66 98 -22 43 -58 109 -81 145 -39 65 -40 66 -15 60 53 -13 77
-27 122 -68 55 -50 45 -25 -16 45 -50 57 -264 202 -287 195 -4 -1 -17 3 -28 9
-65 35 -335 53 -515 33 -333 -36 -291 -21 -518 -178 -181 -124 -240 -175 -291
-251 -40 -58 -129 -145 -153 -148 -27 -4 -228 -83 -358 -143 -239 -108 -312
-144 -379 -189 -96 -63 -664 -362 -1048 -552 -205 -101 -331 -169 -328 -176 2
-7 -4 -22 -14 -34 l-18 -22 -31 23 c-36 27 -37 28 -18 53 10 13 21 16 40 11
15 -3 26 -2 26 4 0 23 200 153 390 254 58 30 146 77 195 103 189 100 515 281
635 353 217 130 298 173 428 229 229 100 337 143 355 143 25 0 86 27 129 56
20 15 58 56 83 94 85 126 305 280 490 342 49 17 94 34 99 38 4 5 61 21 126 36
130 31 130 31 130 107 0 23 -13 67 -34 110 -46 96 -67 184 -67 276 0 42 -5 91
-10 108 -10 30 -13 32 -32 21 -22 -11 -22 -11 -3 10 19 21 18 23 -19 129 -39
111 -81 203 -110 238 -15 19 -16 19 -10 -15 4 -19 8 -44 11 -55 2 -11 -3 -6
-11 12 -30 65 -86 142 -161 222 -58 62 -79 79 -89 71 -10 -9 -12 -7 -8 8 10
40 -214 221 -492 396 -194 123 -300 201 -332 245 -55 74 -16 68 137 -23 l125
-73 32 24 c49 37 100 52 180 53 95 0 163 -26 234 -89 90 -80 159 -236 159
-358 0 -39 5 -54 24 -72 l24 -22 20 26 c32 40 55 123 56 195 l1 65 -31 -3
c-24 -2 -33 2 -42 23 -17 37 -16 41 23 105 47 78 44 85 -7 16 l-42 -57 -18 23
c-39 51 -43 66 -23 88 10 11 16 23 13 26 -3 3 -15 -4 -25 -15 l-19 -21 -39 40
c-36 37 -38 41 -25 65 8 14 29 44 48 65 18 22 29 40 24 40 -12 0 -92 -89 -92
-101 0 -15 -20 -10 -46 10 l-24 19 41 52 c22 28 38 55 34 58 -4 4 -19 -8 -34
-27 -63 -82 -54 -77 -94 -57 l-37 17 53 79 c28 44 57 80 64 80 35 0 222 -185
269 -267 15 -26 52 -85 82 -130 50 -75 55 -88 60 -151 5 -77 -14 -158 -54
-231 -22 -40 -23 -46 -9 -61 15 -16 13 -18 -30 -24 -25 -4 -45 -9 -45 -11 0
-2 9 -19 20 -38 19 -31 28 -36 82 -46 34 -6 65 -14 69 -18 4 -5 47 -78 95
-163 48 -85 89 -156 90 -158 1 -2 19 4 40 13 45 19 266 99 304 110 14 4 62 21
108 37 75 27 82 32 76 52 -8 24 -13 96 -7 96 2 0 36 7 76 14 379 76 487 89
487 57 0 -9 7 -26 15 -38 16 -22 43 -23 138 -3 41 9 42 8 27 -21 -9 -17 -22
-19 -100 -19 -64 0 -93 -4 -103 -14 -9 -9 -64 -21 -143 -31 -293 -38 -613
-145 -812 -271 -29 -19 -59 -34 -67 -34 -7 0 -21 -10 -29 -22 -13 -19 -19 -20
-41 -10 -14 6 -25 7 -25 2 0 -7 18 -55 26 -68 1 -2 51 22 111 52 295 148 822
319 1099 356 133 18 266 10 304 -18 36 -27 98 -29 226 -7 164 28 279 78 398
171 68 54 154 156 195 234 46 87 40 138 -20 159 -76 26 -199 5 -421 -72 -71
-25 -128 -42 -128 -38 0 4 16 23 36 42 88 85 185 252 186 321 1 81 -69 100
-153 42 -113 -78 -356 -368 -416 -496 l-27 -58 -40 6 c-44 7 -119 29 -145 44
-8 4 -20 22 -26 39 l-10 31 -50 -46 c-65 -61 -122 -85 -216 -92 -92 -5 -196
24 -228 64 -11 15 -29 24 -46 24 -58 0 -117 51 -146 129 -43 113 -33 285 21
392 19 35 44 58 54 48 2 -2 -4 -47 -15 -99 -21 -110 -23 -168 -8 -242 15 -70
60 -168 90 -194 32 -28 158 -59 240 -58 110 2 299 75 285 110 -3 9 1 25 9 37
10 14 13 33 8 61 l-6 39 30 -6 c30 -6 32 -4 92 106 99 183 134 282 147 409 6
59 4 68 -10 68 -21 0 -254 -80 -461 -159 -88 -34 -162 -61 -163 -61 -2 0 12
21 30 48 49 68 142 272 173 377 53 185 74 425 39 459 -27 27 -51 18 -101 -40
-129 -149 -454 -376 -517 -360 -11 3 -42 24 -67 46 l-47 40 -7 102 c-10 133
-27 198 -75 278 -102 172 -269 284 -471 314 -121 18 -191 2 -176 -38 4 -11 19
-16 44 -16 89 -1 234 -45 332 -101 l53 -31 -25 -26 c-13 -15 -33 -40 -43 -57
-17 -27 -15 -26 17 8 20 20 46 37 57 37 25 0 70 -71 73 -115 4 -52 -1 -95 -11
-95 -11 0 -40 93 -40 131 0 30 -23 54 -44 46 -28 -11 -30 -87 -3 -166 l24 -72
-24 -19 c-14 -11 -33 -22 -44 -25 -10 -4 -19 -12 -19 -20 0 -18 -28 -27 -37
-12 -5 7 -46 35 -93 64 -210 127 -363 161 -439 97 l-29 -24 -21 42 c-15 30
-21 37 -21 22 0 -12 9 -33 20 -47 11 -14 20 -39 20 -57 0 -50 73 -100 148
-100 12 0 37 -14 56 -30 42 -37 102 -59 184 -67 34 -3 60 -8 58 -11 -3 -2 1
-14 9 -26 25 -35 19 -84 -15 -118 -30 -30 -32 -30 -102 -23 -164 16 -363 87
-473 170 -45 34 -115 117 -143 171 -20 38 31 186 104 301 29 46 38 53 91 68
85 24 156 53 219 91 31 19 73 38 94 44 77 21 138 82 160 159 23 82 5 187 -69
406 -44 130 -46 140 -61 450 -19 377 -50 744 -66 792 -67 197 -396 765 -621
1071 -296 403 -500 662 -642 815 -50 53 -91 102 -91 107 0 21 35 9 86 -30 123
-93 353 -360 635 -737 165 -219 295 -414 389 -580 41 -72 76 -130 77 -129 2 1
-8 29 -21 62 l-24 59 21 36 c12 20 30 47 40 60 17 24 17 24 3 -7 l-15 -32 34
8 c34 8 35 7 35 -22 0 -30 0 -30 25 -14 23 15 24 15 18 -1 -4 -10 -16 -34 -28
-53 -51 -84 -69 -132 -58 -159 42 -102 127 -290 130 -287 2 2 -3 37 -12 77
-21 102 -19 123 16 214 40 100 166 458 224 630 47 142 68 195 174 423 138 301
211 429 461 812 254 389 349 556 453 801 44 104 79 227 74 264 -3 27 64 45 95
26 35 -22 16 11 -22 37 -44 29 -137 30 -223 1 -184 -61 -551 -306 -832 -555
-132 -117 -402 -386 -500 -499 -99 -115 -227 -286 -314 -421 l-69 -106 -42 81
c-174 334 -450 643 -825 925 -206 155 -364 243 -480 266 -68 14 -226 60 -427
126 -193 63 -471 114 -623 114 -25 0 -45 5 -45 10 0 30 431 -10 534 -50 16 -6
31 -9 33 -6 2 2 -24 13 -59 24 -72 24 -201 46 -368 64 -156 16 -627 17 -760 0
-303 -38 -595 -100 -810 -174 -328 -112 -590 -299 -813 -578 -257 -324 -455
-738 -511 -1073 l-12 -72 -31 45 c-17 25 -61 83 -97 128 -37 46 -62 81 -56 77
30 -19 -188 345 -290 483 -14 19 -60 58 -103 88 -42 30 -114 84 -158 120 -45
36 -77 59 -73 52 4 -7 62 -91 128 -186 67 -95 135 -193 151 -217 41 -62 205
-280 347 -462 114 -147 178 -239 178 -255 0 -5 -19 -5 -42 -2 -30 5 -39 4 -34
-4 4 -7 16 -12 26 -12 17 0 19 -5 14 -47 -10 -89 -11 -92 -52 -98 -20 -4 -49
-8 -63 -11 -22 -4 -30 2 -54 38 -25 39 -26 41 -5 23 13 -11 20 -14 16 -7 -5 8
5 27 27 51 19 21 42 59 52 85 18 46 18 46 39 29 11 -10 -13 19 -54 65 -185
205 -466 556 -566 707 -30 44 -76 112 -104 150 -28 39 -65 94 -82 123 -18 32
-34 50 -39 45 -15 -15 17 -78 58 -112 21 -18 29 -28 18 -22 -38 18 -216 204
-240 250 -13 25 -24 41 -25 34 -1 -32 351 -700 528 -1003 47 -80 96 -165 108
-190 l24 -45 -30 35 c-145 168 -411 633 -543 950 -58 140 -159 398 -171 438
-15 47 2 19 23 -39 13 -33 25 -59 27 -56 2 2 -3 20 -11 40 -18 44 -19 50 -2
41 6 -3 -4 10 -24 29 -29 28 -47 64 -83 164 -76 209 -106 282 -168 407 -32 65
-58 125 -58 132 0 8 -4 14 -10 14 -5 0 -10 -8 -10 -17z m8530 -227 c0 -2 -7
-7 -16 -10 -8 -3 -12 -2 -9 4 6 10 25 14 25 6z m-328 -188 c-9 -9 -9 -15 2
-27 19 -23 36 -79 36 -120 0 -81 -89 -206 -321 -451 -146 -154 -361 -349 -366
-333 -2 6 8 78 22 161 41 245 28 211 -35 -91 -13 -59 -25 -105 -28 -103 -2 3
-26 -3 -51 -13 -62 -23 -134 -101 -260 -281 -29 -41 -72 -102 -97 -135 -25
-33 -55 -76 -68 -96 -14 -20 -38 -51 -55 -69 -37 -41 -161 -270 -196 -363 -14
-37 -25 -82 -25 -100 0 -61 -14 -54 -88 46 -40 54 -69 96 -63 92 16 -9 13 8
-4 31 -19 25 -18 34 3 62 17 22 33 22 95 -3 36 -15 16 17 -23 34 -37 16 -38
19 -25 38 8 11 32 53 54 93 29 54 40 68 44 54 17 -58 29 -150 25 -194 -5 -54
7 -68 19 -22 10 34 7 193 -5 252 -9 44 -7 49 76 210 125 242 206 350 472 624
241 248 513 481 742 634 79 53 95 61 82 40 -4 -7 -3 -8 5 -4 6 4 9 11 6 16 -3
5 3 13 12 19 24 14 30 14 15 -1z m83 -290 c-118 -121 -208 -221 -350 -393 -27
-33 -41 -53 -30 -44 11 9 42 28 68 43 26 15 73 48 104 73 l57 46 -27 -45 c-14
-24 -63 -98 -108 -164 -132 -193 -252 -382 -315 -496 -32 -59 -60 -106 -61
-104 -2 2 6 43 17 92 12 48 22 109 24 134 3 47 35 116 111 245 24 41 42 75 40
75 -5 0 -272 -335 -325 -408 -25 -34 -69 -95 -98 -135 -136 -184 -387 -576
-482 -752 -64 -118 -76 -106 -25 26 133 347 608 1035 1011 1464 181 193 481
470 514 474 3 1 -54 -59 -125 -131z m-7647 -504 c2 -8 8 -11 14 -8 7 4 8 2 4
-5 -7 -11 29 -107 114 -303 21 -48 37 -88 36 -88 -16 0 -326 546 -326 573 0
11 155 -154 158 -169z m-28 126 c6 -11 8 -20 6 -20 -3 0 -10 9 -16 20 -6 11
-8 20 -6 20 3 0 10 -9 16 -20z m7005 -618 c-20 -73 -42 -147 -50 -165 -14 -31
-14 -19 2 37 3 10 1 16 -4 13 -4 -3 -18 0 -30 6 -22 12 -21 14 44 130 36 65
67 116 69 114 2 -2 -12 -63 -31 -135z m-2385 108 c43 -6 9 -7 -105 -3 -208 6
-726 -11 -970 -32 -362 -30 -612 -71 -1360 -224 -628 -129 -753 -157 -814
-183 -24 -10 -46 -16 -48 -14 -16 16 284 123 452 162 39 8 207 49 375 90 537
132 903 190 1350 214 188 10 1022 2 1120 -10z m-3940 -165 c13 -14 21 -25 18
-25 -2 0 -15 11 -28 25 -13 14 -21 25 -18 25 2 0 15 -11 28 -25z m3223 -240
c124 -210 153 -258 205 -340 28 -44 54 -93 58 -110 l7 -30 -38 35 c-82 76
-328 502 -350 605 l-6 30 26 -35 c15 -19 58 -89 98 -155z m132 125 c19 -21 18
-21 -85 13 -8 3 3 6 26 6 29 1 46 -5 59 -19z m-1958 -46 c-3 -3 -12 -4 -19 -1
-8 3 -5 6 6 6 11 1 17 -2 13 -5z m-96 -30 c-35 -13 -94 -46 -131 -72 -81 -56
-315 -259 -384 -331 -32 -34 -52 -49 -59 -42 -29 29 57 150 180 256 93 80 233
156 352 191 100 30 122 29 42 -2z m3209 -208 c0 -17 -55 -58 -101 -76 -30 -12
-86 -39 -126 -61 -82 -44 -104 -48 -133 -19 -17 17 -24 18 -41 9 l-21 -11 23
-24 c12 -13 18 -24 12 -24 -5 0 -18 9 -28 20 -10 11 -26 22 -36 25 -11 4 -19
10 -19 14 0 19 268 129 350 144 35 6 120 8 120 3z m21 -82 c-44 -20 -193 -116
-395 -254 -21 -14 -42 -33 -157 -138 l-47 -43 27 -60 26 -61 105 -53 c58 -28
110 -50 117 -48 6 2 18 -6 27 -19 9 -12 16 -18 16 -13 0 6 23 -26 51 -70 28
-44 60 -92 69 -106 31 -45 97 -181 124 -257 32 -91 62 -241 71 -354 4 -49 11
-88 16 -88 5 0 9 12 9 28 0 55 -30 296 -45 359 -15 64 -14 98 1 51 13 -42 192
-400 276 -553 69 -127 84 -162 94 -225 7 -41 11 -76 9 -78 -8 -8 -204 166
-325 288 -445 448 -458 464 -539 613 -24 42 -47 77 -52 77 -5 0 -9 9 -9 19 0
11 -9 36 -21 55 -21 37 -36 48 -25 21 13 -34 -6 -10 -67 88 -68 109 -117 199
-117 217 0 7 9 5 22 -4 32 -22 39 -20 26 8 -8 20 -7 28 6 41 9 9 16 21 16 27
0 11 -58 -39 -132 -114 l-48 -48 35 -54 c19 -30 35 -58 35 -62 0 -4 7 -15 15
-24 14 -16 14 -18 -2 -24 -9 -4 -14 -4 -11 0 13 12 -12 44 -34 44 -12 0 -29 7
-38 15 -14 13 -21 9 -62 -30 -56 -52 -115 -87 -105 -61 8 20 -7 21 -23 1 -7
-8 -16 -12 -21 -9 -5 3 -12 -2 -15 -10 -3 -8 -15 -18 -25 -21 -13 -5 -18 -12
-14 -24 4 -15 -9 -21 -97 -41 -174 -38 -371 -67 -424 -61 l-49 6 40 18 c34 15
35 17 10 12 -89 -17 -174 -17 -226 0 -77 26 -102 46 -155 130 -25 41 -50 75
-55 75 -26 0 5 -110 48 -173 44 -64 84 -81 198 -87 99 -5 100 -5 98 -30 -4
-51 10 -71 125 -187 125 -127 215 -194 352 -263 47 -23 90 -50 97 -59 43 -55
75 -146 108 -311 53 -259 53 -264 56 -437 2 -136 0 -162 -15 -185 -12 -19 -14
-28 -6 -33 7 -5 10 -20 6 -39 l-6 -31 25 28 c13 15 29 46 35 69 10 34 85 168
95 168 7 0 -8 -41 -16 -46 -11 -7 8 -44 22 -44 13 0 47 40 71 84 10 18 17 24
18 15 0 -20 36 -53 48 -45 14 8 25 -82 15 -119 -5 -16 -8 -37 -7 -45 1 -8 2
-27 3 -42 1 -40 31 -36 60 7 24 36 36 36 43 0 3 -14 11 -19 26 -18 19 2 22 -2
22 -34 0 -34 -13 -50 -177 -218 -98 -100 -203 -212 -233 -250 -56 -71 -113
-113 -301 -225 -50 -30 -98 -61 -105 -68 -22 -21 -126 -63 -141 -58 -8 3 -12
2 -9 -3 3 -5 -1 -12 -10 -15 -10 -4 -13 -2 -8 6 5 7 1 9 -12 6 -10 -3 -75 -22
-144 -42 -69 -19 -153 -44 -187 -55 -35 -11 -101 -26 -147 -33 l-83 -12 -149
66 c-82 37 -230 101 -328 143 -164 70 -221 100 -299 159 -99 75 -380 321 -417
366 -25 29 -66 74 -91 100 -53 55 -76 94 -119 203 -29 74 -71 219 -65 225 1 2
24 -11 50 -27 46 -29 135 -63 203 -76 24 -5 38 -17 58 -50 13 -24 32 -49 40
-56 8 -6 22 -27 30 -46 19 -39 27 -39 16 1 -4 16 -6 44 -4 62 4 33 5 34 53 34
27 0 64 6 82 14 41 17 97 80 97 109 0 19 -2 18 -20 -10 -10 -17 -28 -37 -39
-42 -26 -14 -84 -14 -133 1 l-39 12 5 60 c3 34 8 111 12 171 6 105 44 370 64
445 12 45 92 108 254 198 113 64 266 187 266 215 0 6 -10 2 -22 -9 -50 -44
-61 -45 -22 -3 59 62 101 155 119 262 6 38 -9 53 -20 18 -7 -23 -169 -136
-183 -127 -18 11 -163 34 -292 47 -68 7 -119 14 -112 17 7 2 10 7 7 12 -3 4 4
29 14 54 l20 45 71 -24 c152 -52 244 -52 354 -2 51 24 146 104 146 123 0 5 -7
17 -15 28 -16 22 -47 17 -84 -14 -34 -29 -23 -32 28 -9 24 11 46 17 49 14 10
-10 -124 -63 -202 -80 -126 -28 -332 -1 -491 65 -41 18 -78 29 -83 26 -11 -6
-90 -167 -139 -281 -19 -44 -39 -82 -45 -86 -5 -4 -7 -16 -3 -28 3 -12 11 -19
16 -16 5 4 9 1 9 -4 0 -21 21 -10 31 17 59 147 166 321 189 307 5 -3 -13 -51
-40 -105 -28 -55 -50 -103 -50 -106 0 -16 32 22 59 71 17 29 35 57 42 61 16
10 -78 -162 -118 -215 -18 -25 -32 -49 -30 -55 2 -6 46 -21 98 -34 179 -44
375 -13 563 89 60 32 110 58 112 56 1 -1 -15 -26 -35 -56 -66 -99 -244 -201
-352 -201 -62 0 -77 -9 -84 -48 -17 -101 -36 -121 -77 -83 -20 20 -21 40 -3
99 7 21 4 22 -37 22 -69 0 -161 21 -184 41 -31 28 -41 23 -13 -7 24 -26 24
-26 2 -15 -27 14 -30 4 -5 -15 16 -13 15 -16 -12 -38 l-29 -24 -8 -154 c-14
-273 13 -406 109 -538 l25 -35 -37 35 c-22 20 -54 69 -75 115 -21 44 -43 91
-50 105 l-11 25 4 -25 c16 -93 16 -95 -4 -40 -28 74 -39 124 -49 230 -10 90
-4 203 9 195 7 -4 20 63 25 130 1 17 6 39 11 50 9 22 -44 -36 -67 -75 -47 -76
-49 -339 -5 -512 28 -112 50 -163 100 -243 l37 -57 -42 24 c-23 12 -65 43 -92
68 -28 25 -58 44 -68 42 -25 -4 -94 86 -140 183 -58 123 -135 315 -148 367
-17 74 -13 144 19 317 47 250 95 386 144 409 17 7 39 38 65 89 38 75 51 91 32
40 -6 -14 -6 -29 0 -38 7 -11 9 -11 9 4 0 25 33 85 69 127 l30 35 62 -60 c34
-33 59 -54 55 -47 -11 19 2 15 47 -17 47 -32 214 -101 243 -101 15 1 13 4 -8
16 -16 8 -28 19 -28 24 0 5 -18 19 -40 30 -22 11 -40 18 -40 14 0 -11 -52 26
-140 101 -120 101 -116 93 -72 143 l37 43 90 -84 c89 -82 196 -167 212 -167 5
0 40 -13 78 -29 91 -37 249 -60 308 -43 36 9 44 9 55 -5 11 -15 12 -15 12 5 0
11 -10 33 -22 47 -19 21 -37 28 -98 36 -108 15 -104 12 -70 68 17 27 36 54 43
59 7 6 59 20 117 32 93 19 155 39 123 40 -25 0 12 149 53 209 21 32 22 36 7
42 -20 7 117 34 247 49 160 17 409 29 515 24 146 -8 462 -66 541 -100 22 -9
58 -25 82 -35 24 -11 49 -17 55 -13 19 9 -12 -16 -98 -81 -208 -156 -503 -285
-651 -285 -24 0 -45 -4 -48 -9 -10 -16 68 -19 161 -5 116 17 194 43 308 103
100 52 357 221 480 314 303 231 370 278 419 297 19 7 24 6 20 -3 -2 -7 18 -26
46 -43 l50 -31 -117 -93 c-65 -51 -109 -83 -99 -71 11 11 54 49 97 82 87 69
101 89 64 89 -16 0 -25 6 -25 15 0 8 -4 15 -9 15 -24 0 -283 -193 -336 -250
-16 -18 -24 -30 -17 -26 7 4 20 2 29 -5 33 -28 79 -20 130 23 29 24 23 16 -17
-22 -36 -34 -77 -70 -92 -81 l-26 -19 -21 36 c-12 19 -21 40 -21 46 0 7 -5 6
-14 -1 -12 -10 -17 -7 -29 15 -8 15 -17 22 -20 17 -4 -6 0 -16 8 -23 16 -13
20 -40 7 -40 -5 0 -14 -11 -20 -24 -10 -22 -7 -25 29 -41 21 -10 39 -20 39
-23 0 -3 -8 -15 -17 -26 -16 -19 -16 -19 -1 -7 38 29 37 3 -1 -40 -49 -56 -24
-62 30 -7 46 48 319 294 394 355 152 124 310 221 440 270 80 29 93 28 26 -3z
m-4632 -38 c9 -11 9 -16 -1 -22 -7 -4 -10 -4 -6 1 4 4 3 14 -3 22 -6 7 -9 13
-6 13 2 0 10 -6 16 -14z m-109 -41 c13 -14 21 -25 18 -25 -2 0 -15 11 -28 25
-13 14 -21 25 -18 25 2 0 15 -11 28 -25z m-1352 -119 c92 -89 315 -359 484
-586 122 -165 240 -347 305 -474 54 -105 56 -112 54 -182 -1 -58 2 -74 15 -82
14 -8 14 -16 -6 -90 -12 -45 -24 -82 -27 -82 -2 0 -2 13 2 29 11 49 -72 290
-108 312 -5 4 -15 44 -23 89 -13 83 -34 130 -58 130 -13 0 -80 -99 -73 -107 3
-2 18 12 33 31 l29 35 -5 -87 c-2 -48 -6 -72 -8 -54 -3 27 -7 33 -21 29 -19
-5 -40 34 -103 187 -26 62 -28 79 -28 192 0 104 -3 126 -16 131 -24 9 -35 -9
-41 -71 l-6 -58 -61 119 c-122 234 -261 443 -296 443 -16 0 -11 -54 6 -76 15
-18 15 -18 10 11 -6 29 -6 29 10 10 30 -38 115 -216 108 -227 -4 -6 -3 -8 3
-5 6 4 18 -9 26 -31 9 -20 55 -125 102 -232 l87 -195 -10 -70 c-5 -38 -13 -79
-17 -89 -7 -17 -5 -18 18 -12 23 5 27 3 33 -20 5 -20 0 -32 -26 -59 -28 -29
-32 -39 -28 -74 3 -38 2 -40 -16 -28 -10 7 -27 42 -38 77 -167 558 -328 1024
-420 1214 -15 33 -28 61 -28 63 0 13 57 -33 138 -111z m1515 94 c10 -10 9 -11
-2 -5 -9 5 -12 4 -7 -3 4 -6 13 -9 20 -6 8 3 17 1 21 -5 14 -24 -43 -10 -58
13 -14 21 -14 24 -2 22 9 -1 21 -8 28 -16z m579 -55 c127 -27 293 -89 282
-106 -2 -4 8 -15 23 -23 31 -16 132 -118 182 -183 l32 -43 -31 -45 c-17 -25
-35 -45 -40 -45 -5 0 -41 36 -81 79 -78 86 -99 101 -113 78 -15 -23 -56 7 -48
35 3 14 1 19 -6 14 -6 -4 -10 1 -9 12 1 18 27 27 27 10 0 -5 4 -7 9 -4 4 3 50
-12 102 -33 52 -21 96 -34 98 -29 11 30 -138 126 -176 114 -11 -3 -59 8 -109
24 -154 53 -248 69 -339 60 -113 -12 -203 -12 -207 1 -2 5 -19 10 -38 10 -48
0 -90 9 -90 19 0 4 26 11 57 15 32 4 71 14 88 23 27 14 60 17 287 30 15 1 60
-5 100 -13z m-82 -172 c155 -44 353 -151 415 -224 12 -14 -5 -5 -45 22 -105
73 -135 89 -238 126 -150 55 -313 104 -323 97 -5 -3 -9 0 -9 7 0 16 92 3 200
-28z m238 -19 c21 -6 32 -34 12 -34 -5 0 -10 5 -10 11 0 8 -6 7 -17 -2 -14
-12 -16 -12 -8 0 6 11 4 13 -8 8 -8 -3 -21 1 -27 9 -10 11 -8 14 11 14 13 0
34 -3 47 -6z m-1333 -544 c-21 -152 -19 -149 -57 -114 -22 21 -28 23 -20 9 12
-25 44 -147 39 -152 -2 -2 -22 52 -45 120 -45 137 -64 233 -87 442 -8 77 -17
160 -20 185 -4 38 11 14 100 -165 l106 -210 -16 -115z m2364 458 c-37 -73 -84
-141 -139 -198 -32 -34 -43 -42 -27 -20 14 20 51 85 81 145 41 81 62 112 78
116 13 3 24 5 26 3 2 -1 -7 -22 -19 -46z m-1192 -106 c-184 -294 -269 -463
-338 -673 -75 -228 -92 -339 -93 -614 -1 -170 3 -244 13 -285 12 -47 16 -51
21 -30 5 22 12 12 57 -72 l51 -98 -8 -67 -7 -68 -2 54 c0 30 -4 51 -7 48 -4
-3 -6 -32 -6 -64 1 -48 -1 -55 -11 -42 -7 9 -24 19 -39 23 -17 4 -28 13 -29
24 0 9 -7 -1 -15 -23 -10 -25 -13 -57 -10 -85 5 -39 4 -43 -8 -28 -11 16 -15
11 -31 -42 -10 -33 -20 -58 -22 -56 -3 2 14 66 37 140 23 75 40 144 38 154 -4
18 -63 -120 -105 -243 -21 -62 -23 -65 -17 -25 3 25 11 53 16 63 5 10 7 21 4
24 -3 3 -8 0 -11 -8 -30 -83 -54 -142 -55 -132 -1 28 63 183 120 289 63 119
76 179 47 213 -15 18 -70 196 -87 284 -17 85 -14 278 5 392 48 281 161 557
335 815 64 95 202 249 208 231 2 -6 -21 -50 -51 -99z m897 -26 c-33 -53 -62
-96 -66 -96 -3 0 -32 23 -63 52 l-57 52 119 47 c65 25 120 45 122 43 2 -2 -23
-46 -55 -98z m3395 -162 c31 -21 36 -22 46 -7 9 13 16 13 33 4 12 -6 21 -15
19 -20 -1 -4 83 -95 187 -202 282 -290 373 -404 462 -582 94 -186 132 -355
120 -536 -16 -247 -94 -464 -230 -639 -47 -61 -126 -141 -126 -128 0 4 20 35
44 69 129 182 198 434 200 727 1 138 -9 204 -46 320 -59 185 -231 443 -423
636 -44 44 -100 106 -125 137 -24 30 -48 53 -52 51 -5 -3 -7 -2 -6 3 3 9 -41
83 -49 83 -3 0 2 -11 11 -25 9 -14 15 -25 14 -25 -2 0 -55 52 -118 116 -115
116 -115 116 -55 79 33 -21 75 -48 94 -61z m-4253 -163 c-18 -19 -17 -19 30
-5 26 8 49 12 51 10 2 -2 -14 -51 -37 -110 -22 -58 -40 -109 -40 -113 0 -3 15
14 34 38 19 24 46 55 61 68 23 22 22 17 -15 -60 -53 -110 -105 -277 -129 -414
-11 -63 -32 -140 -50 -181 -118 -274 -120 -604 -5 -776 39 -58 29 -61 -27 -10
-95 85 -206 281 -234 411 -17 80 -18 96 -5 66 15 -35 12 8 -6 87 -24 104 -15
257 21 368 55 172 145 366 218 475 38 56 134 165 145 165 3 0 -3 -9 -12 -19z
m-1099 -117 c-2 -2 -18 -7 -37 -10 l-33 -7 6 39 c4 21 7 55 7 74 1 34 2 33 31
-29 16 -35 28 -66 26 -67z m969 117 c-11 -16 42 -18 60 -2 9 9 -15 -21 -53
-66 -39 -46 -96 -120 -127 -165 -31 -45 -56 -79 -56 -76 0 14 45 104 79 161
21 34 50 83 65 110 15 26 29 47 32 47 3 0 3 -4 0 -9z m3612 -216 c154 -237
198 -298 263 -370 27 -29 49 -56 49 -60 0 -12 147 -165 264 -274 124 -116 471
-404 529 -440 20 -12 37 -26 37 -31 0 -4 55 -45 123 -90 67 -46 115 -80 107
-77 -8 3 -68 30 -132 61 -106 49 -119 53 -127 38 -10 -16 -10 -16 -11 0 0 15
-88 88 -107 88 -4 0 -26 12 -47 26 -33 22 -37 24 -33 8 3 -11 9 -53 12 -95 6
-59 4 -83 -8 -105 l-16 -29 -22 55 c-13 30 -53 116 -90 191 l-67 137 -180 178
c-98 99 -208 217 -244 264 -76 99 -210 319 -202 332 3 4 -7 23 -22 41 -25 30
-30 32 -85 29 -32 -2 -67 -1 -79 3 -20 6 -21 8 -4 26 12 13 30 19 61 19 23 0
43 2 43 4 0 3 -24 44 -54 93 -57 94 -115 204 -98 188 6 -5 69 -100 140 -210z
m535 148 c-5 -12 -3 -14 7 -8 9 5 11 4 6 -3 -4 -7 -3 -12 2 -12 5 0 20 -26 33
-57 12 -32 47 -114 76 -182 29 -68 52 -125 51 -127 -7 -6 -188 387 -183 396
10 16 15 12 8 -7z m-1163 -46 c0 -18 -61 -36 -158 -47 -43 -5 -98 -14 -122
-20 -30 -7 -63 -8 -100 -2 -47 8 -50 10 -18 11 40 1 286 45 333 60 44 14 65
13 65 -2z m1501 -84 c14 -36 27 -53 39 -53 15 0 95 -49 154 -95 19 -14 19 -16
-7 -52 -32 -44 -26 -59 7 -18 21 27 24 27 29 10 14 -47 18 -211 8 -337 -11
-142 -37 -322 -51 -348 -10 -17 -6 -33 -55 220 -20 102 -54 262 -76 355 -73
310 -89 380 -88 395 0 16 3 11 40 -77z m-2041 -14 c11 -6 6 -8 -16 -9 -16 0
-39 7 -50 15 -18 14 -16 14 16 8 19 -3 42 -9 50 -14z m1023 -45 c-53 -70 -145
-138 -213 -159 -36 -11 -72 -26 -79 -33 -12 -12 -48 -14 -195 -9 -151 4 -197
9 -280 31 -110 29 -174 62 -206 106 -12 17 -19 30 -16 30 4 0 39 -9 79 -20 63
-18 105 -20 327 -21 140 -1 266 2 280 5 14 4 67 13 118 20 67 10 100 20 115
35 18 16 78 48 95 51 2 0 -9 -16 -25 -36z m-785 19 c-10 -2 -26 -2 -35 0 -10
3 -2 5 17 5 19 0 27 -2 18 -5z m-3187 -125 c-43 -135 -78 -355 -111 -708 -20
-205 -8 -623 20 -728 14 -54 -12 -33 -37 29 -45 114 -81 452 -68 652 13 221
39 334 147 650 72 208 106 280 49 105z m1149 -18 c-6 -11 -13 -20 -16 -20 -2
0 0 9 6 20 6 11 13 20 16 20 2 0 0 -9 -6 -20z m2915 -51 c11 -17 -1 -21 -15
-4 -8 9 -8 15 -2 15 6 0 14 -5 17 -11z m-4838 -91 c-2 -13 -4 -5 -4 17 -1 22
1 32 4 23 2 -10 2 -28 0 -40z m4970 -10 c-3 -7 -5 -2 -5 12 0 14 2 19 5 13 2
-7 2 -19 0 -25z m-28 -65 c1 -66 19 -70 23 -5 4 55 30 68 37 17 3 -26 4 -27
11 -10 5 11 8 -104 7 -255 -1 -244 2 -299 26 -490 22 -177 41 -290 62 -375 3
-15 19 162 19 225 1 30 -1 105 -4 165 l-4 110 -6 -90 c-4 -52 -7 56 -8 254
l-2 345 40 -62 c22 -34 45 -62 50 -62 6 0 10 -9 10 -20 0 -31 184 -251 333
-399 l136 -135 4 -160 c3 -120 9 -184 26 -251 49 -201 101 -579 117 -843 l7
-112 39 -6 c22 -4 46 -13 54 -21 12 -13 14 -4 14 63 0 43 -5 141 -11 217 -8
101 -9 141 -1 146 32 19 56 159 65 365 3 87 23 83 33 -6 11 -110 7 -692 -6
-778 -6 -41 -12 -91 -12 -110 -4 -203 -124 -750 -164 -750 -12 0 -15 -6 -10
-24 4 -17 1 -26 -10 -30 -9 -3 -14 -12 -11 -19 3 -7 -4 -28 -14 -47 -11 -19
-17 -26 -15 -15 10 38 35 221 46 340 19 192 -18 778 -51 810 -7 7 -8 -11 -2
-55 16 -127 7 -404 -21 -640 -50 -424 -98 -667 -187 -965 -37 -122 -168 -455
-180 -455 -17 0 -20 29 -23 272 -3 139 -11 348 -20 465 -16 221 -45 827 -49
1043 -1 69 2 208 6 310 5 125 4 180 -2 169 -6 -9 -26 -160 -46 -335 -31 -279
-44 -376 -85 -634 -5 -30 -18 -100 -29 -155 -17 -82 -20 -90 -16 -42 4 62 -9
76 -24 25 -5 -18 -10 -27 -10 -19 -1 8 -21 -5 -48 -31 -66 -60 -130 -103 -241
-160 -94 -47 -135 -58 -147 -38 -8 13 14 42 26 34 15 -9 173 92 385 246 20 15
21 18 8 110 -19 136 -34 472 -29 628 5 132 4 134 -25 192 -16 32 -34 61 -40
65 -5 3 -22 45 -36 93 -15 48 -31 92 -36 99 -5 7 -11 27 -13 45 -1 18 -14 94
-28 168 -58 305 -62 630 -12 1005 26 197 43 349 43 395 1 25 9 96 19 158 18
115 31 124 32 25z m-5257 -165 c10 -40 35 -108 56 -150 26 -51 34 -74 23 -68
-43 23 -60 57 -86 175 -15 66 -29 125 -32 130 -3 6 0 5 7 -2 7 -7 22 -45 32
-85z m1686 -208 c0 -8 -4 1 -10 20 -9 33 -11 34 -24 15 -14 -18 -14 -18 -14 1
0 12 5 47 12 80 l12 59 12 -80 c7 -44 12 -87 12 -95z m-961 128 c-3 -7 -5 -2
-5 12 0 14 2 19 5 13 2 -7 2 -19 0 -25z m-320 -30 c-3 -8 -6 -5 -6 6 -1 11 2
17 5 13 3 -3 4 -12 1 -19z m1230 -140 c-2 -13 -4 -5 -4 17 -1 22 1 32 4 23 2
-10 2 -28 0 -40z m30 20 c-3 -7 -5 -2 -5 12 0 14 2 19 5 13 2 -7 2 -19 0 -25z
m4732 -188 c1 -36 -4 -83 -10 -104 l-11 -39 -24 43 -24 42 25 86 c14 47 26 98
26 112 3 43 17 -72 18 -140z m-4760 88 c-1 -42 -3 -48 -9 -28 -12 36 -12 80 0
80 6 0 10 -24 9 -52z m-22 -95 c-2 -16 -4 -5 -4 22 0 28 2 40 4 28 2 -13 2
-35 0 -50z m164 27 c4 0 9 8 11 18 2 9 12 -37 22 -103 10 -66 21 -131 24 -145
6 -22 7 -20 13 15 6 39 6 39 8 7 2 -63 42 -297 73 -432 42 -186 88 -322 149
-442 122 -237 254 -356 527 -472 45 -19 82 -33 82 -31 0 3 -35 22 -78 44 -92
46 -163 97 -215 154 -81 89 -242 340 -262 407 -8 25 -8 25 14 6 27 -25 27 -16
-4 44 -56 110 -151 377 -139 389 13 12 50 -52 120 -209 74 -165 137 -276 199
-347 60 -70 474 -337 697 -449 85 -43 383 -174 395 -174 3 0 3 6 0 13 -4 12 4
12 51 0 32 -7 86 -12 122 -11 56 1 72 -3 115 -29 91 -54 195 -123 195 -128 0
-3 -12 2 -27 12 l-26 17 5 -27 c5 -24 3 -27 -14 -21 -10 3 -26 0 -34 -6 -12
-11 -1 -19 62 -52 80 -41 111 -46 50 -8 -37 22 -48 37 -20 26 18 -7 124 -89
120 -93 -3 -3 -148 57 -187 78 -13 7 -32 16 -42 21 -10 5 -36 18 -58 30 -27
14 -44 17 -50 11 -7 -7 -2 -13 14 -17 51 -12 110 -97 192 -273 42 -92 93 -208
112 -257 45 -115 103 -345 108 -421 1 -33 10 -103 18 -155 9 -52 19 -192 22
-310 4 -118 8 -222 11 -231 3 -9 -3 -19 -11 -23 -12 -4 -22 7 -39 47 -63 143
-122 290 -187 467 -39 107 -78 209 -87 225 l-15 30 -9 -30 c-5 -19 -3 -48 6
-80 8 -27 16 -66 20 -85 l5 -35 -18 35 -19 35 -7 -60 c-4 -33 -15 -107 -24
-165 l-17 -105 1 145 c0 111 -4 161 -19 214 -12 45 -15 71 -8 75 6 4 -1 23
-19 48 -44 65 -59 99 -59 132 0 31 -49 162 -115 306 -46 101 -205 375 -217
375 -13 0 -3 -27 48 -143 66 -146 124 -288 124 -301 0 -6 -6 -2 -12 9 -11 20
-68 89 -68 82 0 -7 87 -156 101 -174 8 -9 -27 19 -77 62 -53 47 -85 81 -77 83
8 2 12 9 10 15 -5 18 -345 243 -501 332 -137 78 -143 83 -275 225 -260 278
-429 471 -492 561 -88 125 -88 125 -89 113 0 -13 168 -268 222 -338 66 -83
198 -234 290 -328 l95 -98 -168 87 c-93 47 -172 83 -175 80 -3 -3 26 -27 65
-53 39 -26 71 -49 71 -50 0 -44 -358 256 -483 405 -93 111 -140 179 -131 192
4 7 3 9 -3 6 -6 -4 -17 3 -25 16 -39 61 -59 97 -55 97 3 0 15 -16 27 -36 12
-19 25 -33 27 -30 3 3 -15 38 -40 78 -83 132 -147 301 -187 488 -11 52 -28
120 -38 150 -16 53 -17 54 -23 25 -6 -29 -7 -29 -8 8 -1 46 -18 49 -26 3 -19
-101 61 -513 130 -670 14 -31 23 -56 20 -56 -9 0 -65 120 -65 140 0 11 -4 20
-10 20 -5 0 -6 7 -3 17 4 10 2 14 -4 10 -19 -12 -81 202 -104 353 -8 60 -8 92
4 160 18 100 49 180 55 142 5 -33 126 -117 180 -125 11 -1 30 -10 43 -18 35
-23 66 -31 74 -19 3 5 -2 10 -14 10 -28 0 -67 52 -84 112 -24 85 -40 159 -35
163 2 3 12 -29 22 -71 18 -74 18 -75 32 -49 11 22 12 36 3 67 -5 22 -8 42 -6
44 2 2 12 -25 21 -60 10 -36 25 -71 34 -78 9 -7 13 -8 9 -2 -13 22 -28 238
-18 269 9 30 9 30 10 4 1 -15 8 -42 16 -60 l16 -34 -7 40 c-4 22 -6 51 -4 65
4 44 4 54 -3 80 -7 24 -7 24 4 3 7 -13 16 -23 20 -23z m68 -7 c12 -24 19 -43
16 -43 -5 0 -45 75 -45 86 0 11 6 2 29 -43z m-202 -25 c-3 -7 -5 -2 -5 12 0
14 2 19 5 13 2 -7 2 -19 0 -25z m3373 -12 c0 -2 -8 -10 -17 -17 -16 -13 -17
-12 -4 4 13 16 21 21 21 13z m-3363 -38 c-3 -8 -6 -5 -6 6 -1 11 2 17 5 13 3
-3 4 -12 1 -19z m10 -60 c-3 -7 -5 -2 -5 12 0 14 2 19 5 13 2 -7 2 -19 0 -25z
m288 -42 c17 -15 -18 6 -52 32 -18 13 -33 29 -33 35 0 6 17 -5 38 -24 20 -18
42 -38 47 -43z m-328 17 c-3 -10 -5 -2 -5 17 0 19 2 27 5 18 2 -10 2 -26 0
-35z m50 -15 c-3 -8 -6 -5 -6 6 -1 11 2 17 5 13 3 -3 4 -12 1 -19z m3740 -200
c-3 -7 -5 -2 -5 12 0 14 2 19 5 13 2 -7 2 -19 0 -25z m741 -113 l0 -40 -17 50
c-14 37 -16 54 -7 64 9 11 12 9 17 -10 4 -13 7 -42 7 -64z m-5250 -88 c6 -7
14 -32 18 -55 4 -23 11 -45 15 -48 5 -3 9 -11 9 -17 0 -7 -5 -4 -11 6 -5 9
-22 17 -36 17 -36 0 -176 -69 -250 -124 -34 -25 -60 -39 -56 -31 6 16 -7 20
-23 8 -5 -5 1 2 14 15 13 12 32 22 42 22 11 0 27 12 37 26 17 27 211 194 224
194 3 0 11 -6 17 -13z m6219 -39 c-3 -7 -5 -2 -5 12 0 14 2 19 5 13 2 -7 2
-19 0 -25z m-5933 -17 c-4 -17 -9 -30 -11 -27 -3 2 -2 19 2 36 9 41 17 33 9
-9z m-47 7 c-3 -8 -6 -5 -6 6 -1 11 2 17 5 13 3 -3 4 -12 1 -19z m-40 -58 c-6
-55 -5 -60 13 -60 11 0 20 -4 20 -10 0 -5 -7 -10 -15 -10 -8 0 -15 -7 -15 -15
0 -19 10 -19 37 0 13 9 20 22 17 30 -5 11 1 15 20 15 40 0 33 -33 -19 -89 -47
-50 -54 -76 -35 -126 6 -15 6 -24 1 -20 -5 3 -12 19 -16 35 -10 44 -23 46 -63
8 -21 -19 -129 -111 -242 -204 -113 -94 -229 -194 -258 -222 -51 -49 -72 -62
-72 -44 0 39 345 368 568 541 l42 33 0 68 c0 69 8 130 18 130 3 0 2 -27 -1
-60z m6031 -74 c-5 -107 -32 -170 -97 -229 -52 -47 -91 -66 -228 -111 -90 -30
-120 -45 -152 -76 -41 -40 -102 -156 -123 -234 -6 -25 -15 -43 -20 -40 -21 13
6 153 44 228 51 100 99 138 231 185 130 46 176 73 244 143 66 70 92 129 94
217 1 25 4 37 6 27 3 -11 3 -61 1 -110z m-6001 52 c-2 -13 -4 -3 -4 22 0 25 2
35 4 23 2 -13 2 -33 0 -45z m40 -10 c-3 -7 -5 -2 -5 12 0 14 2 19 5 13 2 -7 2
-19 0 -25z m-251 -5 c8 -11 13 -13 14 -5 0 23 16 12 34 -25 l18 -38 -53 -48
c-30 -27 -116 -99 -192 -160 l-137 -110 22 -25 23 -24 62 68 c34 38 65 65 70
61 4 -4 -71 -86 -167 -182 l-175 -175 -34 34 -34 34 114 114 c117 115 201 226
244 320 23 50 74 108 139 156 35 26 35 27 52 5z m605 -477 c27 -70 46 -133 42
-139 -3 -5 -1 -7 4 -4 6 4 13 0 17 -8 9 -24 -11 -17 -61 21 -49 38 -56 50 -40
72 17 22 8 110 -18 173 -27 67 -34 107 -9 49 8 -19 37 -93 65 -164z m-1373 37
c-9 -10 -20 -43 -26 -73 -5 -30 -13 -64 -17 -75 l-8 -20 23 20 c13 11 0 -10
-29 -47 -29 -38 -59 -68 -66 -68 -8 0 -21 -10 -29 -22 -18 -25 -66 -36 -66
-16 -1 7 -7 2 -16 -12 l-15 -25 7 25 c16 62 87 163 188 268 56 57 90 86 54 45z
m1462 -23 c6 -11 8 -20 6 -20 -3 0 -10 9 -16 20 -6 11 -8 20 -6 20 3 0 10 -9
16 -20z m3577 -47 c-2 -21 -17 -84 -32 -139 -22 -80 -32 -104 -50 -112 -43
-20 -83 -142 -125 -376 -12 -66 -25 -156 -30 -200 -9 -80 -9 -80 -5 25 7 168
58 405 140 659 47 142 66 180 92 180 12 0 14 -8 10 -37z m-3786 -4 l24 -20
-30 17 c-39 24 -40 24 -28 24 6 0 21 -9 34 -21z m65 -47 c-4 -3 -14 2 -24 12
-16 18 -16 18 6 6 13 -6 21 -14 18 -18z m-82 -16 c-17 -8 -49 -25 -71 -39 -22
-14 -81 -48 -132 -76 -50 -28 -133 -82 -184 -119 -180 -133 -194 -142 -235
-142 -51 0 -156 36 -269 93 l-92 47 -54 -50 -55 -50 9 -42 c9 -39 28 -91 112
-303 20 -49 50 -137 67 -194 17 -57 51 -142 76 -189 24 -47 44 -95 44 -105 0
-23 -97 -212 -117 -229 -10 -8 -17 -8 -25 0 -9 9 -4 31 21 89 60 140 57 126
28 165 -79 104 -164 362 -203 618 -14 90 -26 166 -28 167 -4 4 -12 -6 -80
-100 l-55 -78 23 -62 c13 -34 49 -113 80 -176 32 -62 55 -115 53 -117 -7 -7
-108 183 -138 258 -15 40 -33 72 -39 70 -7 -1 -23 -16 -37 -33 -38 -45 -40
-27 -4 36 l32 56 -21 65 c-11 37 -20 70 -20 74 0 18 33 40 60 40 21 0 30 -7
40 -31 11 -27 11 -35 -5 -62 -13 -24 -1 -16 49 33 l66 64 2 61 2 60 3 -52 c2
-29 6 -53 9 -53 3 0 25 16 50 36 l44 36 -26 31 c-23 27 -24 32 -10 45 18 19
45 11 209 -57 54 -23 133 -50 176 -61 l77 -19 60 56 c81 78 208 171 272 201
54 25 169 50 232 51 l35 0 -31 -13z m112 -92 c39 -24 75 -44 80 -44 5 0 20 -9
34 -20 78 -63 306 -204 515 -320 83 -45 229 -130 325 -188 208 -125 390 -221
480 -253 97 -33 96 -42 -1 -13 -217 67 -562 219 -808 356 -166 92 -448 264
-486 297 -11 9 -29 23 -40 31 -19 13 -19 13 -3 -5 16 -17 15 -19 -30 -40 -57
-26 -120 -87 -128 -124 -13 -54 -42 -88 -80 -94 -20 -4 -45 -2 -55 3 -10 6
-25 7 -34 4 -21 -9 -14 -100 11 -140 10 -17 0 -9 -24 18 -71 79 -132 105 -182
78 -25 -14 -43 -74 -35 -118 8 -44 55 -139 89 -179 14 -17 26 -37 26 -45 0
-13 -85 -256 -119 -340 -13 -34 -41 -36 -76 -5 l-25 22 60 118 c33 64 60 129
60 143 0 15 -16 66 -35 115 -50 125 -60 190 -46 301 14 110 29 148 76 192 19
18 35 40 35 49 0 27 83 76 153 91 l65 13 -51 -63 c-29 -34 -61 -77 -71 -96
l-19 -33 27 25 c15 14 53 56 84 93 31 38 69 75 84 83 25 13 30 12 65 -11 28
-20 48 -25 84 -24 l47 2 -71 79 c-40 44 -74 84 -76 90 -4 12 -4 12 95 -48z
m3579 -344 c-46 -236 -54 -279 -90 -514 -13 -87 -26 -161 -29 -164 -26 -25 29
400 85 668 27 126 63 241 73 228 2 -1 -16 -100 -39 -218z m2662 42 l3 -134 43
-35 c30 -25 56 -64 90 -132 50 -98 69 -146 61 -154 -3 -3 -53 45 -112 105 -59
61 -126 121 -150 135 -23 14 -48 35 -54 47 -7 12 -12 68 -12 133 -1 107 0 113
19 113 32 0 62 27 76 67 12 37 12 37 22 13 6 -14 12 -85 14 -158z m-1207 -57
c25 -113 113 -217 210 -248 107 -35 211 -50 305 -45 49 3 98 2 109 -1 27 -10
-302 -35 -368 -28 -155 16 -276 135 -307 302 -12 66 -5 176 14 209 10 18 13
10 19 -59 3 -44 12 -102 18 -130z m537 191 c65 -17 189 -74 205 -94 11 -13 7
-14 -32 -7 -25 4 -63 15 -85 25 -22 10 -72 26 -110 35 -86 20 -107 31 -85 45
20 13 46 12 107 -4z m1419 -168 c-27 -141 -33 -154 -86 -199 -28 -23 -50 -47
-50 -53 -1 -16 -149 -321 -158 -324 -8 -2 -62 83 -62 99 0 5 13 37 30 72 16
34 25 64 20 65 -6 2 -10 10 -10 17 0 7 -25 36 -56 64 -31 29 -55 53 -53 55 2
1 40 22 84 45 106 57 195 117 280 189 39 33 71 59 73 57 2 -2 -4 -41 -12 -87z
m-7945 -6 c44 -102 146 -449 155 -528 6 -51 -10 -105 -26 -88 -4 5 -26 61 -50
124 -23 63 -49 126 -57 140 -13 24 -14 24 -7 -10 4 -19 19 -71 35 -115 37
-108 10 -68 -40 58 -72 180 -146 467 -122 475 6 2 11 10 11 18 0 11 8 10 41
-6 30 -16 45 -32 60 -68z m3256 72 c-3 -3 -12 -4 -19 -1 -8 3 -5 6 6 6 11 1
17 -2 13 -5z m-2945 -121 c-6 -2 -10 -8 -7 -13 3 -4 -4 -6 -16 -3 -16 4 -17 8
-7 14 7 5 20 8 28 8 10 0 11 -2 2 -6z m322 -196 c32 -40 29 -56 -7 -40 -13 6
-28 26 -34 47 -14 47 -1 44 41 -7z m3619 -162 c-28 -140 -34 -190 -25 -193 6
-2 12 -13 12 -25 0 -16 -20 -1 -92 69 -51 49 -115 109 -142 133 l-48 43 23 23
c13 13 83 47 154 75 72 29 134 56 139 61 5 5 11 7 13 6 1 -2 -14 -88 -34 -192z
m-342 48 c161 -165 352 -405 385 -482 22 -53 16 -50 -16 8 -38 68 -67 107
-149 200 -36 41 -95 108 -130 150 -35 42 -100 114 -145 160 -45 46 -72 79 -61
73 11 -6 63 -55 116 -109z m3103 111 c9 -3 25 -21 36 -40 20 -31 20 -34 4 -59
-16 -24 -16 -28 0 -63 9 -20 23 -66 31 -102 l15 -65 -26 -22 c-14 -13 -37 -23
-52 -23 -27 0 -27 1 -30 78 -2 42 -12 112 -22 154 -24 94 -25 106 -3 130 18
20 23 21 47 12z m536 -54 c18 -25 19 -29 4 -23 -14 5 -16 3 -10 -13 17 -43 18
-80 2 -93 -9 -7 -16 -20 -16 -29 0 -20 -20 -35 -105 -79 -95 -49 -165 -66
-200 -47 -34 17 -35 17 -35 0 0 -8 -12 -28 -26 -43 l-25 -28 8 25 c4 14 6 53
5 87 -2 78 11 88 52 40 45 -53 77 -50 212 19 60 30 110 57 112 58 1 2 -11 29
-28 61 -29 55 -29 59 -14 76 24 26 39 24 64 -11z m-6036 -22 c-9 -18 -48 -84
-86 -147 -41 -69 -68 -125 -68 -142 0 -20 16 -46 55 -90 62 -69 67 -92 34
-153 -11 -21 -15 -35 -10 -31 25 15 8 -14 -26 -47 -52 -49 -93 -68 -151 -68
-57 0 -141 38 -173 78 -12 15 -23 23 -26 17 -17 -45 -43 -42 -43 6 0 73 42 90
84 34 59 -77 148 -105 246 -77 42 12 47 18 68 68 12 30 22 62 22 71 0 10 -27
42 -59 73 -101 94 -92 159 43 308 36 40 73 86 81 102 9 17 18 30 21 30 2 0 -3
-15 -12 -32z m2011 12 c3 -6 -1 -7 -9 -4 -18 7 -21 14 -7 14 6 0 13 -4 16 -10z
m3262 -228 c29 -69 59 -132 65 -140 17 -20 70 -11 157 28 77 33 101 33 101 0
0 -20 -46 -55 -108 -79 -29 -12 -37 -12 -67 5 -38 20 -55 13 -37 -16 11 -18 9
-20 -19 -20 -42 0 -63 13 -87 54 -47 80 -100 266 -87 308 7 20 8 20 17 3 6 -9
35 -74 65 -143z m-539 93 c52 -12 114 -37 130 -51 2 -1 -22 -39 -54 -83 l-58
-81 -56 7 c-30 3 -57 7 -59 9 -4 4 18 37 49 74 16 18 20 20 16 7 -3 -11 -2
-16 4 -12 15 9 12 47 -2 43 -7 -3 -35 -31 -61 -64 -27 -33 -59 -62 -74 -66
-14 -4 -43 -21 -65 -38 -40 -32 -47 -26 -29 24 10 24 9 24 -26 19 l-36 -6 5
82 c4 63 9 87 24 101 48 48 174 63 292 35z m-2468 -189 c382 -186 790 -474
828 -583 13 -40 0 -44 -17 -6 -47 103 -162 187 -546 400 -445 246 -595 333
-595 344 0 5 26 -4 58 -20 31 -17 154 -78 272 -135z m-3430 66 c-7 -26 -24
-73 -36 -104 -13 -32 -24 -68 -24 -81 0 -30 77 -104 157 -150 l62 -36 51 70
c62 86 79 87 94 9 15 -75 52 -100 145 -100 61 1 162 19 193 35 7 4 -3 -7 -22
-25 -51 -46 -96 -63 -170 -63 -93 -1 -155 30 -182 91 l-20 44 -33 -32 c-19
-18 -33 -38 -32 -44 1 -6 -13 -12 -31 -14 -63 -6 -189 69 -248 149 -36 50 -32
93 21 195 68 134 102 159 75 56z m2004 1 c-3 -34 -112 -325 -128 -341 -15 -15
-17 -15 -33 1 -14 14 -15 21 -6 35 6 10 27 81 47 158 20 76 41 154 47 172 l11
33 31 -20 c18 -12 31 -28 31 -38z m5976 27 c0 -37 -121 -296 -186 -398 -51
-79 -114 -143 -134 -137 -21 7 -42 -17 -38 -40 3 -19 -47 -63 -59 -52 -3 4 14
37 39 75 62 91 118 189 169 297 24 50 45 94 47 99 7 14 -65 -38 -110 -79 -36
-34 -49 -40 -98 -43 -39 -3 -61 0 -71 9 -8 8 -34 15 -59 17 -48 3 -112 29
-117 49 -3 6 28 20 74 34 43 13 179 57 303 100 255 87 240 82 240 69z m-7293
-72 c7 -6 11 -13 9 -17 -3 -4 11 -27 31 -51 41 -52 77 -112 93 -155 l11 -30
-36 35 c-20 19 -50 63 -66 97 -36 75 -59 92 -95 68 -13 -8 -24 -20 -24 -25 0
-21 -18 -9 -30 19 -30 73 43 113 107 59z m3972 -588 c6 -129 11 -290 11 -357
l0 -121 -54 56 c-32 33 -51 61 -46 67 4 5 4 37 -1 70 -22 163 -38 350 -29 353
6 2 11 25 11 50 1 26 3 39 6 30 11 -42 21 -11 27 85 3 56 13 145 21 197 8 52
15 111 16 130 3 55 27 -302 38 -560z m-4255 557 c12 -12 31 -53 41 -89 17 -66
18 -67 54 -70 47 -4 56 -38 17 -64 -14 -9 -26 -22 -26 -30 0 -37 -77 -45 -114
-11 -47 40 -76 254 -38 276 26 16 41 13 66 -12z m517 -64 c13 -16 12 -17 -3
-4 -10 7 -18 15 -18 17 0 8 8 3 21 -13z m4553 1 c3 -8 2 -12 -4 -9 -6 3 -10
10 -10 16 0 14 7 11 14 -7z m-3053 -95 c-11 -46 -22 -91 -26 -100 -4 -11 8
-22 47 -40 29 -13 85 -45 125 -71 40 -26 85 -54 100 -62 16 -8 42 -26 58 -40
17 -14 44 -37 60 -52 l30 -26 -30 19 c-16 11 -99 52 -184 92 -85 40 -170 83
-189 96 l-35 24 -33 -80 c-39 -95 -129 -267 -209 -399 -66 -108 -63 -105 -70
-98 -10 10 158 400 227 526 l42 75 -24 16 c-77 51 -80 79 -5 43 25 -12 47 -22
49 -22 7 0 66 138 73 170 3 19 8 30 10 24 2 -6 -5 -49 -16 -95z m-948 -74 c32
-30 36 -38 27 -55 -9 -16 -7 -26 9 -46 l20 -26 -48 -63 c-72 -93 -141 -274
-141 -367 0 -35 -2 -38 -27 -38 -24 1 -92 21 -145 44 -13 6 -20 -5 -39 -66
-24 -75 -45 -112 -60 -102 -14 8 -10 154 6 250 29 165 114 382 205 523 l40 62
58 -40 c31 -23 74 -57 95 -76z m7059 38 c-59 -115 -254 -345 -362 -427 -33
-25 -60 -44 -60 -41 0 8 142 207 198 278 69 87 235 253 240 239 2 -6 -6 -28
-16 -49z m-4302 -118 c0 -5 -69 -35 -79 -34 -5 0 68 38 77 39 1 0 2 -2 2 -5z
m1077 -35 c23 -11 44 -24 48 -30 3 -5 37 -19 75 -30 50 -15 81 -32 110 -59
l40 -38 110 5 c65 3 115 1 121 -5 6 -6 0 -8 -19 -5 -94 13 -479 -195 -649
-353 -108 -100 -227 -294 -240 -393 -5 -36 -1 -43 48 -99 30 -33 71 -82 92
-109 21 -27 79 -101 129 -164 244 -310 395 -528 527 -760 79 -139 95 -183 27
-75 -60 95 -157 232 -241 340 -86 110 -426 574 -517 705 -36 52 -78 105 -92
117 -14 13 -26 32 -26 42 0 11 -5 23 -11 26 -7 5 -6 12 4 23 7 10 30 55 51
102 21 47 55 115 77 151 41 70 121 277 133 343 4 22 18 53 30 70 13 17 35 52
50 79 55 99 77 137 80 137 1 0 21 -9 43 -20z m-3570 -65 c75 -79 202 -381 191
-457 -7 -53 -33 -21 -83 102 -89 218 -155 330 -194 330 -24 0 -54 -35 -85 -96
-45 -91 -60 -167 -61 -314 0 -154 16 -215 72 -279 l32 -36 1 35 c0 26 3 31 10
20 23 -36 -2 -83 -40 -73 -33 9 -96 87 -120 149 -68 179 -7 522 112 629 31 28
46 35 80 35 36 0 47 -6 85 -45z m2750 13 c-3 -8 -6 -5 -6 6 -1 11 2 17 5 13 3
-3 4 -12 1 -19z m-294 0 c-4 -7 -7 -22 -5 -33 l2 -20 -9 20 c-7 18 2 45 16 45
2 0 1 -6 -4 -12z m304 -60 c-3 -8 -6 -5 -6 6 -1 11 2 17 5 13 3 -3 4 -12 1
-19z m-430 6 c-3 -3 -12 -4 -19 -1 -8 3 -5 6 6 6 11 1 17 -2 13 -5z m4830 -46
c-129 -221 -353 -340 -662 -352 -104 -4 -106 -4 -25 3 193 18 214 26 171 63
-18 15 -25 15 -98 -4 -43 -11 -85 -26 -94 -34 -9 -8 -29 -14 -45 -12 -38 3
-62 -11 -43 -23 10 -6 7 -9 -11 -9 l-24 0 22 23 c15 14 35 22 59 22 48 0 59
28 32 79 -23 43 -44 28 192 129 185 80 383 143 484 156 33 4 62 6 64 4 2 -1
-8 -21 -22 -45z m-4806 15 c13 -16 12 -17 -3 -4 -10 7 -18 15 -18 17 0 8 8 3
21 -13z m55 -30 c-7 -7 -21 -4 -21 5 0 4 -4 14 -9 22 -6 9 -1 7 12 -4 12 -11
20 -21 18 -23z m-1409 -65 c-3 -8 -6 -5 -6 6 -1 11 2 17 5 13 3 -3 4 -12 1
-19z m-197 -38 c28 -20 44 -23 112 -23 72 1 80 -1 89 -20 6 -16 7 -9 3 23 -4
25 -4 43 -1 40 9 -9 36 -164 52 -295 22 -183 20 -176 51 -165 45 17 40 10 -11
-18 -222 -123 -384 -331 -479 -616 -14 -43 -29 -96 -32 -117 -8 -51 -22 -41
-30 23 -6 44 -9 49 -20 34 -6 -10 -20 -46 -29 -81 -18 -64 -18 -65 5 -117 23
-53 111 -317 124 -373 19 -82 -232 414 -359 709 l-69 158 -23 -28 c-13 -16
-48 -65 -78 -109 -67 -99 -235 -287 -345 -385 -46 -41 -122 -113 -169 -159
-82 -80 -160 -145 -223 -185 -21 -13 -32 -16 -40 -8 -8 8 -1 24 26 57 36 43
62 64 36 28 -14 -20 64 59 153 155 32 34 61 62 65 63 4 0 66 64 137 142 72 78
201 212 288 298 86 86 157 159 157 164 0 4 -14 36 -31 72 -17 35 -29 67 -26
70 11 10 43 -17 67 -56 14 -23 28 -41 33 -41 4 0 16 13 25 30 9 16 20 30 24
30 10 0 -1 -29 -22 -60 -17 -25 -16 -27 89 -238 l107 -213 12 48 c7 27 24 73
38 103 24 51 26 65 25 190 0 74 5 191 13 260 7 69 10 130 5 135 -4 6 -10 33
-13 60 -3 28 -13 75 -22 105 -18 58 -19 145 -4 186 18 47 75 113 115 134 52
28 128 23 175 -10z m3426 -29 c28 -16 58 -41 67 -54 l16 -24 -96 -7 c-269 -20
-505 -152 -672 -376 -54 -72 -58 -75 -75 -59 -10 10 -24 35 -31 56 -12 34 -11
48 2 101 14 54 23 69 72 114 119 109 306 212 455 249 l85 22 21 -24 c19 -22
20 -22 11 -2 -13 26 -4 31 54 32 27 1 57 -9 91 -28z m-1933 -25 c-10 -13 -21
-22 -26 -19 -4 2 3 13 15 23 30 26 32 25 11 -4z m-109 -128 c-52 -78 -86 -122
-52 -67 15 24 15 25 -5 25 -11 -1 -38 -19 -60 -41 l-39 -40 42 53 c38 47 62
69 44 40 -4 -7 -3 -8 5 -4 6 4 8 12 5 18 -8 12 96 109 108 102 4 -3 -18 -41
-48 -86z m4049 68 c18 -14 22 -32 9 -39 -11 -8 -54 31 -47 43 8 13 16 12 38
-4z m-4574 -93 c30 -27 121 -109 201 -183 80 -74 199 -182 265 -240 349 -305
696 -683 868 -943 59 -90 157 -266 157 -283 0 -5 -25 36 -55 91 -78 141 -158
244 -352 451 -219 234 -606 623 -695 699 -38 33 -111 96 -162 139 -117 103
-139 119 -98 75 18 -19 41 -59 51 -87 l19 -52 -96 0 c-54 0 -114 -3 -135 -7
l-39 -6 7 69 c4 38 9 70 10 72 2 2 22 -6 45 -18 23 -12 39 -17 35 -11 -3 6
-24 21 -47 32 -37 19 -40 23 -34 54 8 40 -2 49 -53 47 -69 -2 -6 18 76 25 l78
6 -60 58 c-72 71 -64 78 14 12z m4635 26 c-24 -27 -60 -47 -49 -27 16 28 39
48 53 48 12 0 11 -4 -4 -21z m-5047 -51 c30 -33 79 -145 127 -293 24 -73 25
-81 10 -90 -103 -62 -182 -120 -244 -180 -41 -39 -91 -81 -111 -93 -19 -12
-59 -49 -88 -82 -64 -74 -86 -88 -141 -98 -41 -7 -44 -10 -61 -57 -10 -28 -18
-42 -18 -32 -3 60 105 299 182 403 43 59 164 184 178 184 9 0 21 -124 13 -144
-3 -9 -2 -16 4 -16 14 0 29 49 44 141 l12 79 63 40 c68 45 80 57 66 71 -6 6
-32 1 -68 -11 -71 -24 -68 -24 -55 -1 5 11 15 63 22 115 7 56 17 96 23 96 6 0
25 -15 42 -32z m1585 -267 l90 -104 -6 -45 c-3 -25 -6 -53 -6 -63 0 -34 -16
-20 -75 62 -79 110 -222 290 -247 312 -16 14 -31 16 -63 11 -62 -9 -67 16 -8
45 24 12 48 19 53 16 5 -3 12 0 16 6 8 14 115 -91 246 -240z m2615 243 c-3 -3
-12 -4 -19 -1 -8 3 -5 6 6 6 11 1 17 -2 13 -5z m-377 -78 c19 -11 46 -19 59
-17 22 3 23 1 12 -13 -8 -9 -22 -14 -35 -11 -11 3 -32 7 -46 9 -15 2 -32 15
-43 35 -18 30 -18 31 0 24 10 -4 34 -16 53 -27z m140 20 c0 -3 -4 -8 -10 -11
-5 -3 -10 -1 -10 4 0 6 5 11 10 11 6 0 10 -2 10 -4z m-2743 -32 c-9 -9 -28 6
-21 18 4 6 10 6 17 -1 6 -6 8 -13 4 -17z m-2787 -175 c0 -25 98 -69 151 -69
45 0 45 0 41 -30 -4 -27 -10 -32 -60 -46 -31 -9 -78 -17 -106 -18 l-50 -1 -33
56 c-43 73 -53 141 -28 206 l18 46 33 -64 c18 -35 33 -71 34 -80z m2653 -19
c8 -36 125 -175 261 -310 58 -57 106 -108 106 -112 0 -13 -32 -38 -48 -38 -9
0 -77 58 -149 129 -120 117 -155 156 -121 135 17 -11 -74 106 -106 135 -31 29
-32 40 -6 74 25 32 56 26 63 -13z m2195 -60 c101 -48 199 -137 238 -217 22
-44 27 -71 31 -161 5 -98 4 -108 -15 -125 -20 -18 -20 -18 -27 25 -10 58 -52
173 -82 225 -28 49 -98 114 -147 137 -42 20 -165 46 -217 46 -43 0 -46 7 -24
54 37 77 105 81 243 16z m-2223 -60 l70 -75 -72 70 c-40 38 -73 74 -73 79 0 5
1 7 3 5 1 -3 34 -38 72 -79z m-2443 -85 c-6 -31 -20 -42 -28 -21 -5 13 -9 12
-25 -8 -10 -13 -19 -28 -20 -33 0 -4 -24 -26 -52 -48 -58 -46 -117 -135 -117
-177 0 -20 -17 -45 -61 -92 -126 -135 -293 -235 -451 -270 -26 -6 -28 -4 -28
23 0 16 -6 31 -12 33 -7 3 41 37 107 76 66 39 145 91 175 116 30 25 98 74 150
109 93 62 150 116 150 142 0 13 155 158 180 168 30 11 37 7 32 -18z m3174 4
c5 -9 -46 -62 -54 -55 -1 2 3 17 9 34 11 32 32 42 45 21z m-1190 -44 c30 -9
61 -27 79 -47 l30 -32 -33 27 c-91 73 -239 60 -468 -44 -272 -123 -437 -283
-546 -529 -71 -162 -118 -409 -118 -622 0 -54 -4 -98 -9 -98 -35 0 -39 282 -6
465 66 375 272 657 589 806 172 80 362 110 482 74z m1342 -247 c-49 -59 -51
-60 -73 -44 -17 12 -15 17 26 80 l44 67 22 -27 22 -28 -41 -48z m-1360 -150
c7 -7 12 -24 12 -38 0 -14 -5 -31 -12 -38 -15 -15 -60 -16 -75 -1 -9 9 -19 6
-39 -10 -33 -26 -90 -28 -117 -3 -19 16 -21 15 -79 -48 -40 -43 -75 -96 -105
-157 -25 -51 -47 -93 -50 -93 -10 0 -48 24 -55 34 -4 6 -21 -18 -38 -54 -17
-36 -28 -54 -25 -40 3 14 25 63 48 110 68 139 226 284 367 336 45 16 152 18
168 2z m-3921 -200 c-3 -7 -5 -2 -5 12 0 14 2 19 5 13 2 -7 2 -19 0 -25z m-10
-60 c-3 -8 -6 -5 -6 6 -1 11 2 17 5 13 3 -3 4 -12 1 -19z m2441 -103 c-3 -3
-9 2 -12 12 -6 14 -5 15 5 6 7 -7 10 -15 7 -18z m-2198 -30 c-38 -10 -46 -9
-52 4 -12 27 -9 28 45 18 l52 -11 -45 -11z m2262 -110 c55 -132 61 -152 51
-158 -4 -3 -54 -14 -109 -26 -56 -11 -108 -23 -116 -26 -9 -4 -21 10 -36 40
-12 25 -22 47 -22 48 0 1 24 1 52 -1 76 -5 90 12 112 132 9 53 14 102 10 109
-5 8 -4 9 3 2 5 -5 30 -59 55 -120z m4814 114 c-22 -5 -45 -14 -53 -20 -8 -8
-13 -8 -13 -1 0 13 47 30 80 30 17 0 12 -3 -14 -9z m-5579 -41 c-3 -8 -6 -5
-6 6 -1 11 2 17 5 13 3 -3 4 -12 1 -19z m-496 -25 c13 -16 12 -17 -3 -4 -17
13 -22 21 -14 21 2 0 10 -8 17 -17z m5736 -2 c14 -12 20 -25 17 -38 -9 -32 28
-67 70 -66 32 1 43 -7 115 -83 153 -161 213 -279 215 -421 1 -103 -9 -116
-119 -144 -43 -10 -80 -18 -81 -16 -2 2 33 25 76 52 44 28 80 55 80 61 0 19
-55 143 -95 215 l-37 67 -55 -13 -54 -13 -91 122 c-50 66 -106 137 -124 156
l-34 36 40 39 c22 21 40 45 40 52 0 18 11 16 37 -6z m-3640 -43 c-3 -8 -6 -5
-6 6 -1 11 2 17 5 13 3 -3 4 -12 1 -19z m-1580 -75 c-3 -10 -5 -2 -5 17 0 19
2 27 5 18 2 -10 2 -26 0 -35z m-34 -109 c45 -15 47 -17 47 -54 0 -108 -35
-411 -39 -338 -1 15 -93 361 -106 396 -6 17 41 15 98 -4z m-113 -156 c23 -90
58 -212 76 -273 29 -99 36 -172 15 -163 -18 7 -112 121 -129 155 -21 42 -82
360 -82 428 0 3 18 7 66 14 6 0 30 -72 54 -161z m-375 -33 c33 -145 69 -281
86 -326 16 -40 -45 -187 -95 -228 -14 -12 -16 -11 -16 6 0 30 -27 292 -51 497
-23 190 -21 200 25 194 16 -3 24 -27 51 -143z m1022 139 c-3 -3 -12 -4 -19 -1
-8 3 -5 6 6 6 11 1 17 -2 13 -5z m-202 -60 c8 3 17 1 20 -4 10 -16 -11 -42
-45 -56 -29 -12 -31 -12 -26 2 3 9 9 34 13 57 5 36 7 38 15 18 5 -15 14 -21
23 -17z m4589 -160 c13 -5 16 -23 16 -89 0 -104 -9 -129 -52 -144 -30 -11 -35
-10 -53 12 -29 35 -93 74 -145 88 -25 6 -94 14 -153 18 l-108 6 133 57 c133
56 133 56 240 57 58 1 113 -2 122 -5z m-1357 -110 c-3 -3 -12 -4 -19 -1 -8 3
-5 6 6 6 11 1 17 -2 13 -5z m-40 -10 c-3 -3 -12 -4 -19 -1 -8 3 -5 6 6 6 11 1
17 -2 13 -5z m-2864 -81 c-13 -2 -35 -2 -50 0 -16 2 -5 4 22 4 28 0 40 -2 28
-4z m5574 -101 c18 -11 80 -159 94 -221 6 -28 9 -75 6 -104 -5 -70 -29 -158
-42 -154 -12 4 -39 101 -54 195 -10 65 -42 163 -61 185 -9 10 -65 -11 -130
-49 -85 -49 -230 -93 -345 -104 -55 -5 -194 -12 -309 -16 l-208 -6 -79 -64
c-47 -38 -84 -62 -93 -58 -9 3 -17 -3 -21 -17 -4 -13 -42 -60 -84 -104 -42
-45 -120 -130 -174 -189 -55 -58 -203 -200 -330 -314 -127 -114 -252 -226
-277 -249 l-45 -42 65 19 c65 19 258 61 675 146 240 49 591 146 723 199 88 36
213 109 268 157 17 15 57 59 87 96 55 67 56 68 46 112 -15 74 -31 120 -40 114
-12 -7 -11 -2 8 72 15 56 20 63 38 58 37 -11 95 -56 117 -92 19 -31 20 -38 8
-71 -13 -38 -85 -169 -101 -185 -6 -6 -9 -6 -9 2 0 25 -22 8 -127 -97 -222
-223 -426 -338 -737 -416 -144 -37 -580 -112 -831 -145 -88 -12 -168 -23 -178
-26 -10 -3 -33 -8 -52 -10 -28 -3 -35 -1 -35 13 0 49 113 176 391 442 119 113
279 276 357 362 117 130 245 249 385 359 14 10 92 18 306 31 332 20 385 30
551 111 58 28 116 54 130 59 33 10 92 11 107 1z m-4894 -52 c-3 -11 -7 -20 -9
-20 -2 0 -4 9 -4 20 0 11 4 20 9 20 5 0 7 -9 4 -20z m5202 -137 c-10 -42 -18
-18 -9 29 6 32 9 37 12 19 2 -12 1 -34 -3 -48z m-6115 -3 c0 -11 -26 -45 -58
-78 -32 -31 -68 -70 -80 -85 -20 -28 -51 -34 -59 -12 -2 6 19 41 46 78 28 38
53 77 56 87 6 20 23 27 68 29 21 1 27 -4 27 -19z m160 10 c0 -5 -10 -10 -22
-9 -22 0 -22 1 -3 9 11 5 21 9 23 9 1 1 2 -3 2 -9z m926 -30 c5 -34 49 -269
59 -320 3 -15 0 -11 -9 10 -8 21 -19 33 -27 31 -40 -11 -169 -23 -183 -18 -11
5 -16 19 -16 52 0 44 0 45 40 51 47 8 75 34 65 64 -4 11 -31 35 -61 52 -38 21
-53 35 -50 45 3 8 6 27 6 41 l0 27 85 0 85 0 6 -35z m-661 -45 c54 -31 85 -88
85 -156 l0 -54 -73 -39 c-78 -43 -78 -56 2 -32 51 15 62 11 39 -12 -7 -7 -43
-12 -91 -12 l-79 0 31 42 c85 116 47 210 -85 210 -32 0 -47 4 -51 15 -25 64
130 91 222 38z m1118 -103 c18 -13 56 -45 85 -71 l54 -49 -52 -11 c-74 -16
-74 -16 -176 45 -91 54 -116 74 -95 74 6 0 11 7 11 15 0 17 -2 18 -24 9 -9 -3
-13 -10 -10 -15 3 -5 -2 -6 -11 -3 -14 6 41 43 140 95 l30 15 8 -41 c6 -29 17
-47 40 -63z m-1395 61 c41 -26 62 -72 62 -140 0 -34 -4 -64 -8 -67 -5 -3 -16
8 -26 25 -11 19 -25 29 -41 29 -20 0 -24 6 -27 37 -2 31 -8 39 -31 48 -22 7
-35 6 -58 -7 -36 -21 -36 -14 -3 36 21 31 30 37 50 32 28 -7 30 -3 7 20 -16
15 -15 16 18 9 19 -4 44 -14 57 -22z m-153 -9 c-11 -8 -28 -25 -38 -37 -10
-12 -15 -15 -11 -7 12 24 47 60 58 60 6 0 2 -7 -9 -16z m3569 -15 c36 -9 59
-24 93 -60 25 -27 49 -46 53 -44 5 3 11 -23 15 -58 5 -48 3 -71 -8 -93 -24
-46 -53 -67 -82 -60 -28 7 -31 20 -10 56 8 14 14 33 15 42 0 14 -4 13 -25 -7
-13 -14 -32 -25 -42 -25 -36 0 -100 -35 -116 -62 -16 -29 -17 -29 -103 -26
-81 3 -88 5 -107 30 -19 26 -19 27 -1 77 14 40 23 51 40 51 28 0 46 -23 42
-52 -3 -20 2 -23 44 -29 25 -4 57 -10 70 -13 20 -6 19 -5 -4 9 -32 18 -34 28
-12 102 9 30 13 57 11 60 -3 3 -20 -2 -38 -11 -29 -14 -34 -14 -49 -1 -9 8
-26 15 -38 15 -55 0 46 84 126 106 50 13 50 13 126 -7z m145 -82 c-2 -3 -15
10 -28 27 l-24 31 28 -27 c16 -15 27 -29 24 -31z m-2645 -133 c26 -9 45 -18
43 -20 -2 -2 -28 5 -58 15 -30 11 -49 20 -43 20 6 1 32 -6 58 -15z m4346 -102
c0 -5 -7 -17 -15 -28 -14 -18 -14 -17 -4 9 12 27 19 34 19 19z m30 -77 c0 -2
-13 -11 -30 -20 -38 -19 -40 -11 -2 9 31 17 32 18 32 11z m-82 -52 c-6 -8 -20
-19 -30 -24 -18 -10 -19 -9 -4 14 9 13 23 24 31 24 11 0 12 -3 3 -14z m-3347
-350 c-40 -232 -71 -478 -73 -578 -1 -63 -2 -71 -7 -37 l-6 43 -39 -40 c-22
-22 -40 -49 -41 -60 -1 -18 0 -19 27 -5 15 8 28 12 28 9 0 -2 -27 -18 -60 -35
-69 -35 -68 -32 -42 -162 l18 -88 -22 0 c-13 0 -26 -5 -30 -11 -18 -30 -26 39
-26 229 0 223 8 301 52 517 54 264 42 237 149 332 53 46 97 79 99 74 2 -6 -10
-90 -27 -188z m-1485 -60 c-8 -15 -15 -22 -16 -15 0 17 20 55 27 49 2 -3 -2
-18 -11 -34z m2112 -723 c92 0 93 -2 17 -45 -32 -18 -45 -22 -36 -12 27 34 3
27 -109 -29 -111 -56 -115 -57 -221 -63 -59 -3 -105 -3 -101 1 4 3 68 41 142
83 125 70 138 75 179 70 24 -3 82 -5 129 -5z m-72 -105 c-11 -8 -25 -15 -30
-15 -6 1 0 7 14 15 32 19 40 18 16 0z"/>
<path d="M9167 10593 c-29 -39 -33 -51 -25 -67 11 -20 11 -20 19 -1 4 11 16
41 28 68 11 26 19 47 17 47 -2 0 -20 -21 -39 -47z"/>
<path d="M6335 10100 l-60 -7 63 -1 c36 -1 62 2 62 8 0 6 -1 9 -2 8 -2 -1 -30
-4 -63 -8z"/>
<path d="M6166 10089 c-49 -5 -92 -12 -95 -15 -3 -4 19 -4 49 0 30 3 76 6 103
6 26 0 47 5 47 10 0 6 -3 9 -7 9 -5 -1 -48 -6 -97 -10z"/>
<path d="M6013 10063 c9 -2 23 -2 30 0 6 3 -1 5 -18 5 -16 0 -22 -2 -12 -5z"/>
<path d="M5948 10053 c6 -2 18 -2 25 0 6 3 1 5 -13 5 -14 0 -19 -2 -12 -5z"/>
<path d="M7309 9953 l-24 -28 28 24 c15 14 27 26 27 28 0 8 -8 1 -31 -24z"/>
<path d="M7359 9903 c-13 -16 -12 -17 4 -4 9 7 17 15 17 17 0 8 -8 3 -21 -13z"/>
<path d="M7319 9883 c-8 -9 -9 -14 -2 -10 6 4 13 1 16 -5 3 -7 4 -3 4 10 -1
26 -1 26 -18 5z"/>
<path d="M7399 9863 c-13 -16 -12 -17 4 -4 9 7 17 15 17 17 0 8 -8 3 -21 -13z"/>
<path d="M6390 9794 c0 -71 242 -175 404 -173 80 0 140 17 71 19 -77 3 -75 15
2 16 82 0 174 22 208 49 18 14 15 14 -20 -1 -29 -12 -82 -17 -193 -21 -133 -3
-164 -1 -235 17 -95 24 -182 62 -214 92 -23 21 -23 21 -23 2z"/>
<path d="M7840 9643 c0 -5 10 -24 22 -43 l23 -35 3 28 c2 16 -2 35 -9 43 -12
15 -39 19 -39 7z"/>
<path d="M7897 9568 c-7 -25 0 -41 14 -33 12 8 12 42 0 49 -5 3 -11 -4 -14
-16z"/>
<path d="M7936 9492 c-5 -8 39 -82 49 -82 14 0 35 14 35 24 0 15 -52 66 -67
66 -7 0 -14 -4 -17 -8z"/>
<path d="M4668 9412 c-10 -2 -18 -13 -18 -24 0 -18 -2 -19 -17 -7 -15 11 -15
10 1 -8 21 -26 33 -22 47 14 11 29 10 31 -13 25z"/>
<path d="M4700 9350 c-10 -31 -11 -43 -2 -52 14 -14 24 -5 42 40 11 29 11 35
-1 43 -22 14 -25 11 -39 -31z"/>
<path d="M4766 9344 c-8 -21 -3 -26 18 -18 9 4 15 11 13 17 -6 18 -24 19 -31
1z"/>
<path d="M4751 9286 c-8 -19 -8 -33 -2 -39 6 -6 12 -1 16 16 10 39 -1 57 -14
23z"/>
<path d="M4780 9244 c-6 -16 -12 -34 -15 -40 -2 -6 1 -16 7 -22 7 -7 18 -1 36
19 l25 30 -21 22 -21 21 -11 -30z"/>
<path d="M4655 9240 c-3 -5 -2 -10 4 -10 5 0 13 5 16 10 3 6 2 10 -4 10 -5 0
-13 -4 -16 -10z"/>
<path d="M4716 9184 c-4 -10 -1 -14 6 -12 15 5 23 28 10 28 -5 0 -13 -7 -16
-16z"/>
<path d="M8360 9014 c0 -14 4 -23 10 -19 6 3 10 15 10 26 0 10 -4 19 -10 19
-5 0 -10 -12 -10 -26z"/>
<path d="M6114 8691 c-15 -44 -26 -59 -51 -72 -18 -9 -39 -22 -47 -29 -9 -7
-27 -9 -45 -5 -18 4 -38 1 -50 -7 -18 -11 -26 -10 -57 7 -21 11 -39 28 -42 37
-2 10 -8 18 -12 18 -17 0 -40 32 -40 55 0 30 -16 41 -36 24 -11 -9 -14 -22 -9
-46 6 -31 4 -33 -24 -33 -38 0 -123 -51 -141 -84 -33 -63 13 -158 118 -238 34
-26 56 -49 49 -51 -18 -7 17 -31 77 -53 33 -12 78 -18 126 -18 70 -1 82 3 170
47 52 26 102 51 110 57 8 5 32 12 53 15 26 4 54 20 82 46 72 66 70 133 -3 144
-20 3 -57 10 -81 15 -36 9 -48 8 -68 -6 -24 -15 -53 -14 -82 5 -11 7 -9 19 13
63 32 66 45 152 24 160 -10 4 -20 -10 -34 -51z"/>
<path d="M6000 8114 c-55 -11 -157 -47 -198 -70 -50 -29 -122 -102 -122 -123
0 -10 7 -8 25 9 21 20 25 21 31 7 5 -15 9 -15 41 -2 20 8 41 15 47 15 6 0 -19
-13 -55 -29 -36 -15 -86 -42 -111 -59 -92 -63 -188 -195 -172 -236 9 -23 13
-21 64 28 l45 44 95 -9 c52 -5 111 -16 130 -24 93 -39 155 -50 275 -48 174 1
382 46 386 82 1 6 2 14 3 19 0 4 12 21 25 37 21 27 22 28 7 3 -25 -43 -20 -49
27 -31 47 18 77 40 38 28 -16 -5 -21 -4 -17 4 4 6 15 11 24 12 9 0 1 7 -18 14
-54 21 -15 17 62 -6 75 -22 211 -50 216 -44 9 8 -11 44 -40 74 -41 42 -101 72
-208 105 -69 21 -90 32 -112 60 -33 41 -137 95 -199 103 -24 4 -49 13 -55 22
-9 12 -35 16 -110 17 -55 1 -110 0 -124 -2z"/>
<path d="M2346 9987 c3 -10 9 -15 12 -12 3 3 0 11 -7 18 -10 9 -11 8 -5 -6z"/>
<path d="M2450 9785 c0 -5 5 -17 10 -25 5 -8 10 -10 10 -5 0 6 -5 17 -10 25
-5 8 -10 11 -10 5z"/>
<path d="M7970 9280 c11 -16 26 -33 32 -36 7 -4 -1 9 -16 29 -34 44 -46 50
-16 7z"/>
<path d="M7908 8835 c-22 -104 -53 -768 -44 -960 10 -202 20 -280 35 -271 4 3
7 -26 8 -64 1 -38 13 -117 28 -177 26 -105 45 -150 45 -106 0 12 9 102 19 200
11 98 25 248 31 334 l11 156 -35 164 c-35 165 -56 326 -79 604 -8 98 -15 139
-19 120z"/>
<path d="M8030 6277 c0 -25 3 -59 6 -76 10 -50 30 -20 31 46 1 46 0 52 -7 28
l-8 -30 -1 32 c-2 51 -21 51 -21 0z"/>
<path d="M4111 7704 c0 -11 3 -14 6 -6 3 7 2 16 -1 19 -3 4 -6 -2 -5 -13z"/>
<path d="M4121 7664 c0 -11 3 -14 6 -6 3 7 2 16 -1 19 -3 4 -6 -2 -5 -13z"/>
<path d="M4920 7386 c0 -2 8 -10 18 -17 15 -13 16 -12 3 4 -13 16 -21 21 -21
13z"/>
<path d="M5057 7365 c10 -13 22 -25 27 -25 5 0 -1 11 -14 25 -30 32 -36 32
-13 0z"/>
<path d="M5000 7295 c13 -14 26 -25 28 -25 3 0 -5 11 -18 25 -13 14 -26 25
-28 25 -3 0 5 -11 18 -25z"/>
<path d="M4130 7276 c0 -2 14 -14 30 -26 17 -12 30 -19 30 -16 0 2 -13 14 -30
26 -16 12 -30 19 -30 16z"/>
<path d="M8181 5231 c-1 -30 -3 -32 -18 -20 -13 10 -13 8 2 -10 20 -23 20 -23
23 -2 2 11 1 31 -1 44 -3 15 -5 12 -6 -12z"/>
<path d="M8614 5388 l-19 -23 23 19 c21 18 27 26 19 26 -2 0 -12 -10 -23 -22z"/>
<path d="M11948 5373 c6 -2 18 -2 25 0 6 3 1 5 -13 5 -14 0 -19 -2 -12 -5z"/>
<path d="M6930 5233 c8 -2 29 -9 45 -14 28 -8 29 -8 11 6 -11 8 -31 15 -45 14
-15 0 -19 -3 -11 -6z"/>
<path d="M5208 3563 c-10 -2 -18 -9 -18 -14 0 -6 8 -5 20 1 11 6 20 13 20 15
0 3 -1 4 -2 4 -2 -1 -11 -3 -20 -6z"/>
<path d="M1424 10340 l6 -105 37 -31 c20 -17 33 -35 30 -41 -4 -6 -3 -13 1
-15 14 -5 56 -143 121 -398 69 -268 91 -371 121 -561 28 -178 32 -186 97 -216
49 -23 52 -26 36 -38 -59 -43 53 -389 170 -522 l31 -36 106 7 c105 6 106 6
152 -23 25 -16 66 -33 92 -39 43 -9 48 -8 61 12 7 11 16 55 20 96 4 41 18 112
31 158 28 96 30 132 9 132 -9 0 -21 -21 -31 -57 -15 -51 -18 -55 -24 -33 -12
40 -55 109 -93 149 -19 20 -53 74 -76 119 -40 79 -41 84 -41 182 0 66 4 99 10
95 12 -8 35 -51 45 -85 5 -20 2 -18 -17 10 l-23 35 -3 -64 c-2 -43 1 -68 11
-80 8 -9 37 -57 65 -107 61 -108 82 -129 117 -120 14 4 25 14 25 23 0 16 -68
146 -101 193 -10 14 -26 61 -37 106 -38 152 -115 290 -311 551 -140 188 -241
305 -405 471 -66 67 -121 128 -122 135 0 6 -2 29 -2 50 -2 33 -11 48 -58 95
l-56 57 6 -105z m333 -427 c61 -62 150 -175 226 -285 37 -54 65 -98 63 -98 -2
0 -34 39 -70 88 -102 134 -147 186 -162 188 -8 1 -14 1 -14 -1 0 -2 30 -46 66
-99 36 -53 63 -96 60 -96 -3 0 -29 35 -58 78 -110 163 -189 264 -204 258 -8
-3 -14 0 -14 7 0 7 -11 38 -24 70 l-24 59 56 -63 c31 -35 76 -82 99 -106z m7
-193 c3 0 3 7 0 15 -12 31 5 13 35 -36 17 -27 28 -55 25 -61 -4 -6 -3 -8 3 -5
9 6 32 -29 136 -202 13 -22 16 -31 7 -26 -8 5 -5 -7 8 -29 13 -21 21 -40 18
-43 -2 -2 -52 19 -110 48 -75 37 -108 58 -111 73 -3 12 -25 107 -49 211 -25
105 -49 203 -55 218 -23 61 -9 37 39 -60 27 -57 51 -103 54 -103z m217 -195
l10 -20 -16 20 c-9 11 -21 29 -26 40 l-10 20 16 -20 c9 -11 21 -29 26 -40z
m150 -107 c15 -28 5 -21 -21 15 -15 20 -17 27 -6 18 9 -8 22 -23 27 -33z
m-306 -68 c3 -5 -1 -10 -9 -10 -9 0 -16 5 -16 10 0 6 4 10 9 10 6 0 13 -4 16
-10z m353 -15 c-3 -3 -9 2 -12 12 -6 14 -5 15 5 6 7 -7 10 -15 7 -18z m40 -99
l-2 -51 -3 50 c-3 27 -10 56 -16 65 -11 13 -10 13 6 1 13 -10 17 -26 15 -65z
m-281 8 c-6 -7 -97 28 -97 36 0 5 23 -1 50 -12 28 -11 49 -22 47 -24z m-17
-64 l31 -13 -7 -66 c-3 -36 -7 -67 -9 -69 -4 -5 -70 21 -81 32 -12 11 -34 112
-34 152 l0 23 34 -23 c19 -12 48 -29 66 -36z m291 -52 c1 -7 5 1 9 17 7 26 8
24 9 -20 l1 -50 -40 70 c-21 39 -39 75 -39 80 -1 14 59 -82 60 -97z m-32 -92
c34 -65 56 -116 49 -112 -7 3 -32 11 -55 18 -47 13 -57 32 -69 120 -5 38 -3
52 7 59 8 5 9 9 4 9 -6 0 -11 10 -12 21 -3 32 7 17 76 -115z m188 -103 c-3
-10 -5 -2 -5 17 0 19 2 27 5 18 2 -10 2 -26 0 -35z m-227 -471 c3 -2 -5 -2
-18 0 -13 2 -32 18 -44 38 l-22 35 40 -35 c21 -19 41 -37 44 -38z m340 -82 c0
-38 -14 -45 -33 -16 -14 21 -14 24 1 38 22 20 32 13 32 -22z m-77 -20 c-4 -16
-8 -18 -20 -9 -11 10 -11 14 -1 20 21 14 26 10 21 -11z"/>
<path d="M1700 9943 c0 -7 9 -17 21 -23 11 -7 18 -14 15 -17 -8 -9 52 -86 69
-89 11 -2 12 2 6 14 -17 30 -110 127 -111 115z"/>
<path d="M1770 9666 c0 -2 8 -10 18 -17 15 -13 16 -12 3 4 -13 16 -21 21 -21
13z"/>
<path d="M1896 9500 c48 -70 64 -86 34 -35 -13 22 -34 51 -48 65 -15 16 -10 4
14 -30z"/>
<path d="M9751 9464 c0 -11 3 -14 6 -6 3 7 2 16 -1 19 -3 4 -6 -2 -5 -13z"/>
<path d="M9761 9433 c-1 -6 17 -82 39 -169 22 -87 40 -166 40 -176 0 -10 7
-18 15 -18 21 0 20 7 -20 133 -19 62 -43 141 -54 177 -10 36 -20 60 -20 53z"/>
<path d="M3107 8480 c-3 -8 -8 -27 -11 -41 -3 -15 -13 -30 -22 -33 -9 -3 -58
10 -110 29 -51 19 -98 35 -104 35 -18 0 -3 -50 57 -199 65 -161 122 -272 166
-325 l33 -39 73 58 72 58 -6 41 c-19 119 -137 450 -148 416z"/>
<path d="M2564 8383 c-18 -85 -52 -120 -105 -109 -27 5 -30 4 -24 -15 27 -84
286 -461 378 -549 l41 -40 63 62 62 61 -20 28 c-13 19 -18 36 -13 53 8 35 -30
113 -106 216 -102 138 -251 320 -260 320 -6 0 -12 -12 -16 -27z"/>
<path d="M9325 5992 c-38 -6 -115 -34 -115 -40 0 -4 26 -22 58 -39 109 -63
141 -82 224 -139 95 -66 192 -144 226 -183 l23 -26 -4 30 c-19 126 -143 316
-239 366 -38 20 -137 37 -173 31z"/>
<path d="M11500 5235 c-63 -13 -127 -28 -142 -33 -14 -6 -54 -16 -88 -22 -140
-25 -810 -222 -844 -248 -6 -5 -44 -19 -84 -32 -41 -13 -80 -29 -87 -37 -26
-26 -29 -100 -7 -197 12 -50 24 -115 28 -144 7 -55 38 -113 120 -228 25 -35
51 -64 59 -64 27 0 26 21 -3 58 -35 44 -116 202 -108 210 3 3 6 2 6 -1 0 -4
17 0 38 9 20 9 54 22 74 29 l37 14 82 -154 82 -154 56 -7 c31 -4 88 -17 126
-29 39 -13 72 -22 74 -19 2 2 -9 43 -24 90 -27 87 -27 88 -152 218 -123 129
-210 241 -252 323 -21 43 -28 87 -12 81 5 -1 48 -52 96 -113 48 -60 142 -164
209 -230 241 -237 462 -362 746 -420 65 -13 110 -16 193 -12 125 8 190 31 237
84 25 28 30 42 30 84 0 68 -24 110 -112 195 -126 122 -170 151 -256 170 -177
39 -295 91 -423 185 -68 50 -159 141 -159 158 0 22 20 19 56 -9 84 -65 179
-124 277 -171 105 -50 123 -56 112 -39 -8 14 -2 13 110 -10 366 -73 715 0 715
150 0 53 -39 97 -128 143 -63 33 -142 59 -412 136 -58 16 -94 30 -80 31 24 1
24 1 6 15 -26 20 -58 18 -196 -10z m542 -216 c63 -21 170 -77 123 -65 -11 3
-67 15 -125 26 -131 27 -358 83 -470 116 -75 23 -130 54 -130 74 0 8 498 -117
602 -151z m-187 -58 c121 -27 244 -53 273 -57 29 -4 50 -10 45 -14 -38 -36
-314 -62 -466 -43 l-69 8 -34 56 c-27 44 -34 62 -28 83 6 24 11 27 33 22 14
-3 125 -28 246 -55z m-408 29 c35 -9 49 -20 78 -62 19 -29 33 -54 30 -56 -2
-2 -50 6 -106 19 -88 20 -99 24 -76 32 26 8 26 9 12 44 -19 44 -19 45 3 39 9
-3 36 -10 59 -16z m-110 -66 c-3 -3 -12 -4 -19 -1 -8 3 -5 6 6 6 11 1 17 -2
13 -5z m-387 -236 c8 -1 31 -14 51 -29 31 -24 37 -37 48 -96 7 -37 15 -90 18
-116 l5 -49 -31 17 c-18 9 -29 20 -26 25 4 6 -2 7 -12 3 -15 -5 -16 -4 -5 8
11 11 16 11 35 0 21 -13 21 -13 7 5 -8 10 -64 67 -125 125 -87 85 -105 106
-83 102 14 -3 34 0 45 6 10 6 27 8 38 5 11 -3 27 -6 35 -6z m442 -88 c56 -40
58 -41 88 -25 33 17 32 35 -2 35 -12 0 -19 3 -16 6 3 3 32 0 65 -6 50 -10 75
-25 178 -104 121 -93 179 -155 192 -204 5 -20 0 -30 -21 -49 -15 -13 -34 -23
-42 -23 -25 0 -467 262 -506 300 -42 41 -59 87 -37 101 24 15 42 10 101 -31z
m-176 -72 c50 -35 54 -43 98 -220 8 -37 -1 -36 -90 7 l-74 36 0 104 c0 58 4
105 9 105 5 0 30 -15 57 -32z m379 -223 c83 -48 152 -90 155 -93 11 -11 -249
8 -299 22 -29 8 -54 16 -56 18 -1 2 -5 43 -9 92 l-7 88 33 -20 c18 -11 101
-59 183 -107z"/>
<path d="M10968 4633 c7 -3 16 -2 19 1 4 3 -2 6 -13 5 -11 0 -14 -3 -6 -6z"/>
<path d="M10908 4623 c7 -3 16 -2 19 1 4 3 -2 6 -13 5 -11 0 -14 -3 -6 -6z"/>
<path d="M2152 4569 c-69 -9 -163 -48 -200 -82 -56 -52 -67 -129 -31 -203 29
-61 139 -176 218 -228 83 -56 194 -101 285 -117 99 -17 244 -7 339 24 42 14
77 24 77 22 0 -5 -162 -96 -356 -200 -219 -116 -321 -190 -436 -314 -154 -166
-167 -290 -42 -399 94 -84 225 -108 419 -77 243 38 413 119 596 283 50 44 101
126 251 402 108 198 106 192 67 188 -29 -3 -33 -8 -53 -73 -29 -91 -56 -142
-66 -126 -4 7 8 50 28 97 19 46 33 86 31 89 -3 2 -49 7 -102 11 -81 6 -97 5
-92 -7 3 -9 -27 -38 -87 -82 -123 -90 -141 -104 -105 -83 40 24 55 9 21 -21
l-29 -25 30 20 c93 61 118 67 77 20 -11 -13 -13 -32 -9 -75 6 -61 -7 -91 -45
-106 -10 -3 -18 -13 -18 -22 0 -8 -22 -45 -48 -82 -27 -38 -57 -83 -67 -101
-11 -18 -25 -30 -32 -28 -15 6 -73 -22 -73 -35 0 -6 -4 -7 -10 -4 -5 3 -10 0
-10 -7 0 -9 -3 -9 -10 2 -8 12 -10 9 -10 -13 0 -25 2 -27 21 -17 11 7 23 10
25 7 10 -9 -121 -59 -208 -79 -64 -14 -129 -21 -208 -22 -102 -1 -120 2 -159
22 -114 61 -118 121 -16 241 87 102 249 227 627 485 104 71 202 144 219 164
l31 35 -7 91 c-4 50 -8 92 -9 93 -1 2 -42 5 -91 8 -122 8 -123 18 -2 13 l97
-3 0 43 c0 23 -4 42 -10 42 -5 0 -16 13 -24 29 -11 21 -49 47 -136 94 -115 62
-125 66 -238 81 -265 37 -311 39 -420 25z m161 -186 l87 -58 -87 -6 c-49 -4
-123 -7 -165 -8 -69 -1 -79 1 -92 21 -22 31 -20 45 10 65 22 14 110 39 150 42
6 1 49 -25 97 -56z m293 16 c66 -11 172 -33 235 -49 l114 -29 -216 2 -217 2
-87 45 c-47 24 -89 49 -92 54 -8 12 107 1 263 -25z m-97 -128 c12 -8 12 -13
-2 -35 -9 -14 -17 -27 -17 -29 0 -3 34 -8 76 -12 46 -4 74 -11 72 -17 -2 -6
-24 -35 -48 -65 l-45 -53 -56 4 c-78 7 -205 59 -288 117 -107 75 -103 78 87
54 l119 -16 32 31 c35 32 47 35 70 21z m242 -85 c-12 -14 3 -18 152 -32 37 -4
64 -10 60 -14 -24 -23 -325 -96 -344 -85 -5 3 6 22 24 42 92 105 112 124 115
114 2 -7 -1 -18 -7 -25z m119 -881 c0 -6 -87 -65 -97 -65 -4 0 15 16 42 34 54
38 55 38 55 31z"/>
<path d="M2915 4490 c3 -5 13 -10 21 -10 8 0 12 5 9 10 -3 6 -13 10 -21 10 -8
0 -12 -4 -9 -10z"/>
<path d="M10273 4259 l-10 -39 36 0 c56 0 61 11 21 47 l-36 32 -11 -40z"/>
<path d="M10548 4253 c6 -2 18 -2 25 0 6 3 1 5 -13 5 -14 0 -19 -2 -12 -5z"/>
<path d="M3403 3799 c-11 -39 -17 -67 -13 -62 4 4 28 33 53 65 36 44 43 58 31
62 -40 15 -50 7 -71 -65z"/>
<path d="M4283 3793 c9 -2 23 -2 30 0 6 3 -1 5 -18 5 -16 0 -22 -2 -12 -5z"/>
<path d="M3179 3288 c-100 -166 -289 -394 -423 -511 -226 -197 -445 -289 -996
-417 -124 -29 -259 -65 -300 -81 -143 -55 -275 -160 -320 -256 -21 -44 -22
-57 -17 -163 4 -63 11 -139 16 -168 7 -34 7 -61 1 -77 -21 -56 -166 -184 -278
-245 -65 -36 -70 -93 -9 -114 21 -8 38 -3 89 22 l62 31 51 -48 c94 -89 250
-122 408 -87 62 14 89 26 138 64 107 83 108 83 143 64 25 -13 64 -16 211 -17
168 0 183 1 227 23 58 29 96 84 138 201 32 89 72 156 103 175 50 30 62 -86 21
-205 -32 -94 -33 -137 -4 -161 12 -10 35 -18 50 -18 26 0 28 -4 39 -59 6 -33
25 -86 41 -118 16 -32 26 -61 22 -65 -4 -4 -46 -20 -92 -35 -81 -27 -86 -30
-107 -73 -31 -61 -30 -110 4 -151 73 -87 207 -91 508 -16 121 30 158 44 150
56 -3 5 47 74 112 153 316 387 803 1070 1052 1476 44 73 81 133 81 135 0 1
-31 2 -69 2 -63 0 -73 3 -100 29 -38 37 -52 95 -60 255 l-6 126 -40 -65 c-208
-338 -388 -530 -500 -530 -40 0 -47 5 -104 65 -33 36 -69 82 -80 103 -10 20
-29 46 -41 57 -12 11 -31 37 -41 58 -11 20 -23 37 -27 37 -19 0 -56 -36 -69
-69 -27 -64 -165 -265 -222 -322 -62 -62 -154 -112 -236 -129 -43 -9 -61 -19
-91 -52 -40 -44 -238 -342 -299 -448 -32 -58 -36 -61 -31 -30 13 76 135 300
242 445 71 96 101 122 157 135 123 27 223 111 322 270 86 140 108 165 170 194
43 20 55 30 51 44 -3 9 -10 37 -17 62 -19 67 -17 367 4 450 8 36 14 66 13 68
-2 1 -23 -30 -47 -70z m-205 -1180 c-29 -187 -98 -447 -119 -451 -6 -1 -29 54
-53 123 -36 105 -42 133 -37 174 10 80 37 118 90 127 11 2 40 18 65 36 25 17
48 32 53 32 4 1 4 -18 1 -41z"/>
<path d="M2652 3270 c0 -14 2 -19 5 -12 2 6 2 18 0 25 -3 6 -5 1 -5 -13z"/>
<path d="M4582 3103 c-5 -10 -12 -55 -14 -100 -4 -72 -10 -94 -46 -166 -38
-77 -119 -172 -173 -203 -9 -5 -44 -63 -77 -130 -152 -303 -364 -628 -722
-1109 -177 -237 -281 -364 -390 -479 -58 -61 -69 -78 -50 -72 56 15 119 18
153 7 20 -7 104 -57 188 -113 84 -55 165 -105 179 -111 14 -6 72 -14 130 -18
58 -3 124 -13 147 -20 35 -11 71 -11 200 0 218 17 233 20 233 42 0 53 135 327
244 494 52 79 62 107 131 333 41 136 103 359 139 496 58 224 64 252 52 275
-67 129 -80 441 -30 690 9 40 13 75 11 77 -2 3 -16 0 -31 -6 -65 -24 -119 -4
-207 77 -51 48 -59 52 -67 36z"/>
<path d="M5070 2205 c-13 -44 -29 -83 -34 -86 -5 -4 -6 -16 -3 -28 4 -17 2
-19 -13 -11 -10 5 -30 24 -44 41 -29 34 -29 34 -46 -56 -33 -174 -135 -521
-205 -704 -19 -50 -35 -93 -35 -96 0 -3 9 -1 20 5 11 6 25 8 30 5 29 -18 39
-173 20 -294 -13 -76 -15 -140 -6 -169 8 -25 136 -98 234 -132 34 -13 62 -26
62 -31 0 -4 24 -15 53 -25 l53 -16 -10 -59 c-11 -68 5 -116 48 -144 28 -18 48
-12 81 26 18 20 18 22 2 16 -15 -6 -16 -2 -11 36 4 23 12 56 19 73 14 34 10
34 123 9 21 -5 32 -4 32 4 0 6 -4 11 -9 11 -6 0 -32 17 -60 37 -40 30 -48 40
-40 54 7 14 -4 25 -58 60 -52 34 -68 40 -71 29 -8 -25 -71 -82 -84 -78 -21 7
-21 54 0 101 l19 43 -28 32 c-16 18 -29 39 -29 47 0 20 5 19 34 -10 14 -14 29
-25 35 -25 5 0 44 57 87 127 88 145 222 350 267 406 26 33 28 41 18 61 -7 12
-25 30 -40 39 -15 9 -42 43 -59 75 -33 61 -72 203 -72 260 0 20 -4 31 -10 27
-5 -3 -10 -14 -10 -23 0 -9 -13 -43 -29 -75 -28 -58 -28 -58 -9 -82 38 -49 4
-95 -45 -62 -31 20 -82 128 -107 225 -21 84 -38 229 -42 362 l-3 75 -25 -80z"/>
<path d="M5679 1651 c-17 -70 -86 -231 -99 -231 -4 0 -47 -73 -95 -162 -48
-90 -123 -224 -166 -299 -44 -75 -79 -139 -79 -142 0 -11 106 -64 152 -77 26
-7 59 -9 73 -6 20 5 43 -4 98 -37 284 -171 589 -292 985 -391 249 -62 341 -76
526 -78 148 -2 153 -2 61 -8 -117 -6 -101 -15 59 -30 196 -18 567 -7 936 29
l85 8 -80 2 -80 3 85 19 c47 10 106 26 133 35 l48 16 -48 22 c-58 27 -601 338
-660 378 -23 15 -45 28 -50 28 -4 0 -55 -19 -113 -41 -58 -23 -154 -53 -214
-68 l-109 -27 37 -22 c21 -12 48 -22 62 -22 13 0 24 -4 24 -10 0 -31 -209 11
-344 69 -130 56 -250 126 -542 322 -238 158 -409 285 -427 316 -4 7 -17 13
-27 13 -15 0 -20 -7 -20 -29 0 -63 -54 -65 -121 -4 -53 48 -65 73 -79 170 -9
63 -9 110 -1 199 7 64 10 118 9 119 -2 2 -10 -27 -19 -64z"/>
<path d="M9730 1485 c0 -3 5 -14 12 -25 16 -25 -8 -59 -116 -161 -90 -85 -217
-227 -172 -191 16 12 35 22 42 22 8 0 22 9 32 21 9 11 74 64 145 116 70 52
132 103 137 113 18 33 12 78 -12 94 -21 15 -68 22 -68 11z"/>
<path d="M920 1202 c0 -10 26 -34 50 -47 8 -4 2 6 -14 23 -32 34 -36 37 -36
24z"/>
</g>
</svg>
