<?xml version="1.0" standalone="no"?>
<!DOCTYPE svg PUBLIC "-//W3C//DTD SVG 20010904//EN"
 "http://www.w3.org/TR/2001/REC-SVG-20010904/DTD/svg10.dtd">
<svg version="1.0" xmlns="http://www.w3.org/2000/svg"
 width="500.000000pt" height="500.000000pt" viewBox="0 0 500.000000 500.000000"
 preserveAspectRatio="xMidYMid meet">
<metadata>
Created by potrace 1.14, written by Peter Selinger 2001-2017
</metadata>
<g transform="translate(0.000000,500.000000) scale(0.100000,-0.100000)"
fill="#000000" stroke="none">
<path d="M1765 4803 c-15 -38 -51 -113 -80 -168 -29 -55 -65 -131 -80 -170
-15 -38 -28 -71 -29 -72 -2 -2 -54 -14 -117 -28 -143 -32 -292 -81 -312 -103
-26 -28 -30 -67 -13 -125 28 -97 25 -100 -84 -66 -90 28 -220 56 -317 68 -45
6 -94 13 -110 15 -19 4 -16 2 7 -5 19 -6 55 -19 80 -29 25 -10 104 -35 175
-55 137 -40 235 -82 235 -100 0 -14 -47 -30 -148 -50 -143 -29 -413 -12 -479
31 -28 18 -28 15 -2 -38 22 -45 92 -99 196 -153 88 -46 261 -52 336 -13 10 5
21 7 24 4 9 -9 -31 -44 -97 -82 -118 -68 -200 -170 -200 -248 0 -59 78 -154
160 -196 14 -7 26 -14 28 -15 1 -1 -12 -35 -29 -76 -27 -62 -32 -87 -33 -154
-1 -85 0 -86 98 -313 46 -106 49 -186 12 -260 -30 -60 -43 -71 -103 -86 l-47
-12 35 -21 c19 -12 62 -29 97 -39 54 -15 76 -16 147 -7 108 13 169 47 196 109
11 24 21 44 23 44 2 0 20 -25 40 -55 25 -38 32 -57 24 -59 -142 -42 -330 -86
-368 -86 -16 0 -32 -4 -35 -10 -4 -6 5 -10 19 -10 34 0 117 -23 114 -31 -2 -4
-33 -34 -69 -67 -71 -63 -199 -197 -313 -326 -38 -43 -94 -94 -125 -114 -31
-20 -90 -64 -131 -97 -103 -83 -127 -100 -190 -137 -62 -36 -110 -80 -164
-151 -34 -45 -36 -50 -22 -66 31 -34 16 -77 -39 -110 -35 -20 -36 -23 -33 -73
4 -64 21 -72 72 -33 29 22 41 25 73 19 21 -4 50 -13 66 -21 23 -11 26 -18 21
-41 -13 -54 -33 -91 -58 -108 l-27 -17 6 -116 c9 -168 23 -284 40 -325 9 -22
15 -68 15 -121 0 -86 13 -112 25 -53 7 32 32 99 127 348 25 63 62 162 83 220
38 104 148 326 183 371 l19 23 69 -17 c116 -29 228 -90 302 -166 72 -74 82
-93 82 -157 0 -24 2 -44 5 -44 2 0 15 10 28 23 12 12 37 34 55 50 28 24 32 33
32 78 0 47 4 55 39 88 21 20 51 45 67 57 30 23 27 40 -12 54 -28 11 -33 54 -8
68 9 5 14 18 12 33 -2 19 -13 27 -50 39 -55 17 -60 35 -25 75 16 19 32 26 57
26 60 0 94 -7 134 -25 32 -15 37 -21 33 -43 -4 -21 1 -27 29 -39 l34 -14 0
-120 c0 -66 -4 -120 -9 -120 -14 0 -21 -38 -31 -172 -9 -122 -28 -199 -80
-325 -19 -43 -2 -63 54 -63 72 0 137 30 164 75 101 170 104 177 99 211 -5 31
-1 40 50 92 72 73 124 154 130 204 5 30 15 47 46 73 22 19 47 35 54 35 8 0 78
-16 156 -34 122 -30 213 -45 423 -72 41 -5 42 -6 77 -82 45 -96 64 -120 152
-185 38 -29 98 -88 133 -132 35 -44 83 -100 107 -125 23 -25 75 -89 114 -142
68 -93 124 -148 150 -148 33 0 70 32 86 74 21 55 15 97 -25 177 -25 48 -31 76
-39 180 -6 67 -14 126 -19 131 -6 6 -37 12 -71 15 l-60 6 -41 69 c-29 48 -63
86 -111 126 -73 59 -81 72 -50 72 50 0 334 131 429 198 15 11 43 22 62 25 19
3 44 7 55 9 16 2 27 -11 55 -67 20 -38 53 -101 73 -140 107 -198 247 -668 247
-833 0 -51 33 -189 48 -204 7 -7 16 0 26 20 8 16 38 50 66 75 51 46 51 47 36
74 -55 99 -62 193 -15 193 13 0 19 -7 19 -22 0 -30 15 -54 24 -39 15 24 34 11
32 -21 -1 -28 4 -35 34 -50 70 -34 103 -48 108 -43 3 2 -1 31 -8 64 -16 76
-10 91 35 91 43 0 43 5 15 173 -11 65 -20 145 -20 179 0 51 3 61 20 65 14 4
20 14 20 33 0 30 23 56 40 45 5 -3 10 -22 10 -41 0 -30 3 -34 28 -34 15 -1 43
-7 63 -14 52 -18 208 -125 227 -155 20 -31 33 -42 44 -35 4 3 23 -6 41 -20 19
-15 37 -26 40 -26 4 0 7 30 7 68 1 39 7 77 15 92 19 33 20 90 1 90 -8 0 -17
16 -21 37 -4 21 -20 79 -37 128 -24 74 -30 108 -31 191 -2 105 8 137 41 132
22 -4 44 84 36 145 -5 38 -16 61 -55 107 l-49 59 0 126 c0 115 2 130 26 176
25 51 25 51 5 65 -11 8 -21 27 -23 42 -3 24 -8 27 -43 30 -22 2 -44 7 -50 12
-5 4 -30 13 -55 20 -25 6 -64 23 -87 36 -42 24 -43 26 -43 79 0 60 11 77 65
95 40 13 44 29 15 55 -25 23 -26 71 -2 83 9 5 35 13 57 17 l40 7 -25 20 c-21
17 -33 19 -105 13 -65 -6 -83 -4 -93 8 -18 22 10 47 53 47 20 0 35 6 39 15 3
8 12 15 21 15 48 0 -24 56 -157 122 -26 13 -47 29 -48 37 0 8 -4 28 -10 45 -5
17 -19 87 -31 156 -25 143 -51 225 -102 325 -34 67 -49 77 -27 19 19 -48 51
-226 57 -315 3 -52 1 -119 -7 -169 -13 -81 -13 -82 -39 -76 -43 11 -393 26
-440 19 -43 -6 -43 -5 -31 17 20 37 6 152 -30 255 -45 127 -68 251 -76 395
l-6 125 53 80 c29 44 69 118 90 165 42 95 107 222 170 332 23 40 66 115 95
166 29 52 69 115 87 140 37 50 81 132 75 138 -2 2 -31 -15 -63 -38 -33 -23
-114 -68 -180 -101 -166 -83 -321 -192 -439 -309 -55 -54 -100 -97 -101 -96
-1 2 -27 31 -57 65 -30 34 -72 91 -93 128 -22 36 -62 87 -89 112 -28 25 -67
60 -86 78 -180 163 -278 217 -544 301 -89 28 -124 34 -195 34 -47 0 -103 -4
-123 -9 -20 -5 -101 -47 -180 -94 -79 -46 -171 -99 -206 -116 l-64 -32 8 205
c4 113 5 206 2 206 -3 0 -18 -30 -33 -67z m8 -90 c-2 -21 -7 -87 -11 -147 l-7
-109 -60 -23 c-85 -32 -87 -32 -64 24 19 44 142 292 146 292 0 0 -1 -17 -4
-37z m2361 -275 c-26 -35 -174 -155 -263 -213 -173 -115 -259 -188 -345 -291
-22 -27 -35 -32 -88 -38 -35 -4 -65 -12 -69 -17 -3 -6 -35 -17 -70 -25 -35 -8
-127 -35 -204 -59 -77 -24 -162 -49 -190 -55 -88 -19 -413 -150 -334 -134 24
5 29 1 54 -53 41 -88 68 -164 61 -170 -3 -4 -42 -2 -85 4 -50 6 -100 7 -136 1
-69 -10 -111 1 -155 42 l-32 30 -34 -28 c-30 -24 -49 -52 -25 -38 4 3 17 -4
27 -15 18 -20 18 -21 1 -31 -34 -19 -87 -70 -81 -79 3 -5 -4 -30 -15 -55 -25
-55 -26 -71 -6 -54 13 11 15 8 15 -17 0 -36 30 -77 73 -100 61 -31 168 -52
222 -43 28 5 56 9 63 9 18 1 16 -113 -3 -149 -46 -89 -112 -163 -176 -196 -17
-8 -29 -17 -27 -18 9 -8 58 -15 56 -8 -2 4 17 25 41 47 79 72 201 275 201 336
0 14 16 47 35 72 44 57 85 134 85 158 0 24 16 25 25 2 50 -126 136 -355 172
-458 42 -120 45 -136 41 -205 -6 -99 -25 -134 -90 -165 -67 -32 -71 -32 -53 7
39 90 68 176 72 217 3 41 0 37 -26 -41 -16 -47 -46 -118 -67 -157 -34 -65 -37
-79 -41 -168 -3 -66 0 -115 10 -150 8 -29 12 -53 10 -53 -2 0 -16 6 -31 14
-44 23 -90 78 -132 157 -37 70 -52 82 -30 25 5 -14 6 -26 1 -26 -9 0 -63 65
-81 100 -20 37 -15 191 9 267 18 60 18 62 0 50 -10 -6 -19 -18 -19 -25 0 -7
-7 -24 -16 -37 -8 -13 -17 -43 -19 -67 -2 -38 -7 -46 -46 -70 -58 -38 -121
-39 -137 -3 -14 30 -11 29 -104 9 -40 -8 -113 -16 -163 -17 -87 -2 -92 -1
-173 40 -118 60 -281 161 -320 197 -18 17 -47 51 -63 75 -34 52 -38 116 -15
216 8 33 18 89 22 124 l7 65 22 -25 c51 -57 77 -68 156 -63 83 6 126 19 138
43 20 36 22 106 6 144 -9 21 -13 46 -11 55 3 10 -2 31 -13 47 -19 33 -157 133
-197 144 -24 6 -24 6 19 53 23 26 56 50 72 54 47 11 154 77 215 132 65 59 64
80 -1 24 -91 -79 -275 -177 -414 -222 -117 -37 -242 -108 -312 -176 -35 -34
-63 -70 -63 -80 0 -12 21 3 68 51 47 50 91 82 148 113 45 23 84 42 86 42 10 0
27 -88 39 -203 12 -123 7 -221 -16 -322 -21 -95 -24 -139 -9 -181 8 -21 14
-40 14 -40 0 -3 -45 -16 -52 -15 -5 1 -8 -4 -8 -10 0 -5 -3 -8 -8 -5 -4 2 -25
-4 -47 -14 -22 -11 -46 -19 -52 -20 -21 0 -16 182 7 297 11 54 20 104 20 111
0 26 -27 10 -87 -53 -69 -72 -84 -109 -86 -210 -2 -82 9 -129 40 -166 l27 -32
-26 -21 c-14 -11 -44 -43 -67 -69 l-41 -48 0 44 c0 31 -12 69 -43 133 -83 170
-100 227 -94 309 4 51 15 95 37 146 27 60 30 75 19 82 -8 4 -38 21 -66 38 -62
34 -123 116 -123 164 0 60 108 188 196 233 35 18 138 112 130 119 -1 2 -29 -6
-62 -18 -49 -17 -77 -20 -164 -17 -92 3 -113 7 -170 34 -70 33 -189 113 -190
128 0 4 10 6 23 2 115 -31 390 -33 500 -2 84 23 201 79 282 135 39 27 106 66
150 88 l80 40 175 -8 c356 -16 526 -60 611 -157 62 -72 219 -299 219 -317 0
-3 -32 -21 -71 -41 -40 -19 -109 -60 -155 -89 l-83 -54 -21 33 c-11 18 -20 37
-20 42 0 5 -13 34 -29 64 -16 30 -34 75 -41 100 -10 38 -13 42 -22 26 -15 -27
-3 -119 23 -170 12 -25 37 -60 55 -78 42 -43 30 -58 -45 -58 -63 0 -124 24
-158 62 -25 26 -43 103 -43 180 0 30 -4 47 -10 43 -12 -8 -13 -126 -1 -178 5
-22 20 -50 33 -64 32 -35 115 -73 161 -73 l38 0 -27 -35 c-17 -23 -22 -35 -13
-35 18 0 33 12 37 28 20 98 503 352 767 402 33 7 112 25 175 40 63 16 145 34
182 40 l68 12 138 137 c158 156 274 241 474 347 75 39 147 79 159 88 30 20 36
13 13 -16z m-2022 -69 c51 -17 157 -62 235 -100 138 -67 143 -71 227 -162 48
-51 105 -118 127 -148 43 -57 104 -168 96 -176 -6 -6 -39 41 -66 94 -34 68
-45 66 -38 -8 5 -48 12 -67 27 -78 26 -17 26 -35 0 -28 -10 3 -24 -1 -31 -9
-18 -22 -27 -16 -25 18 1 31 -2 34 -59 55 -153 58 -187 91 -195 186 l-5 62
-60 6 c-33 3 -73 13 -90 23 -28 16 -28 17 -5 12 77 -14 160 -18 160 -6 0 24
-122 140 -159 150 -50 14 -141 13 -141 -1 0 -6 17 -38 39 -69 33 -50 35 -57
17 -51 -11 4 -36 30 -54 57 -17 27 -37 50 -42 52 -5 2 -41 -11 -79 -28 -64
-30 -76 -32 -155 -29 -76 4 -87 7 -102 27 -9 13 -26 34 -37 47 l-22 25 -76
-45 c-69 -40 -83 -44 -145 -46 -55 -1 -76 3 -104 20 -45 27 -58 27 -70 -4 -5
-14 -17 -25 -26 -25 -14 0 -13 5 5 35 18 30 18 37 6 41 -21 9 -7 26 15 19 10
-3 21 -1 25 5 3 5 13 10 22 10 13 0 13 -3 3 -15 -15 -19 -10 -25 45 -54 68
-36 114 -26 232 48 31 19 41 31 37 43 -6 20 3 23 25 9 9 -6 22 -4 37 6 13 8
31 13 41 11 14 -3 11 -7 -14 -23 -18 -11 -33 -22 -33 -25 0 -3 20 -27 45 -54
l44 -48 59 4 c40 3 83 16 137 41 l78 37 -23 25 c-30 32 -99 65 -135 65 -39 0
-27 9 26 19 71 14 83 13 181 -20z m1912 -96 c-21 -38 -54 -95 -74 -128 -20
-33 -58 -103 -84 -155 -27 -52 -52 -99 -57 -105 -4 -5 -25 -51 -47 -102 -22
-51 -61 -123 -86 -160 -25 -37 -52 -86 -59 -108 -20 -57 -66 -125 -214 -324
-40 -53 -73 -102 -73 -108 0 -19 -12 -15 -44 13 -28 25 -29 27 -10 37 53 29
158 145 190 212 19 38 39 74 45 81 7 8 7 14 0 18 -5 4 -29 -26 -52 -66 -23
-40 -65 -97 -93 -127 -48 -50 -115 -101 -134 -101 -14 0 -93 129 -113 187 -12
32 -23 97 -26 145 l-6 87 59 68 c33 37 72 86 86 108 58 85 70 94 147 110 42 9
92 13 119 9 26 -3 67 -1 92 5 50 11 54 10 46 -16 -4 -12 -39 -31 -105 -56
-112 -43 -205 -99 -237 -143 -60 -83 -134 -285 -134 -367 0 -52 16 -38 23 20
4 40 12 54 42 80 43 37 103 50 160 34 41 -11 51 -9 41 8 -11 17 -84 32 -121
25 -20 -3 -51 -17 -70 -30 -19 -13 -35 -21 -35 -18 0 11 52 140 70 174 18 33
21 35 83 38 42 2 76 -2 100 -12 41 -17 48 -9 16 20 -17 15 -35 19 -85 18 l-65
-1 26 27 c32 34 210 125 224 115 6 -3 11 2 11 12 0 14 2 15 9 4 6 -9 11 -10
15 -2 4 6 18 11 32 11 13 0 24 5 24 10 0 6 9 10 21 10 27 0 76 29 83 49 3 9
41 84 85 166 54 102 99 173 143 222 34 40 64 73 66 73 2 0 -14 -30 -34 -67z
m-3054 -199 c148 -38 230 -65 230 -75 0 -4 -10 -9 -22 -12 -14 -4 -47 6 -92
28 -39 20 -122 48 -184 64 -62 16 -116 32 -120 36 -8 8 13 3 188 -41z m1879
-426 c7 -24 30 -81 50 -128 21 -47 50 -114 65 -150 15 -36 36 -83 46 -105 27
-54 70 -166 70 -179 0 -15 -23 30 -45 87 -10 26 -21 47 -24 47 -4 0 -13 -27
-20 -61 -13 -59 -13 -61 11 -87 32 -35 58 -74 58 -87 0 -5 -8 2 -18 16 -24 37
-72 92 -76 88 -19 -25 -46 -97 -46 -122 0 -24 -3 -28 -10 -17 -15 23 -12 57
10 97 30 57 26 68 -38 108 -78 48 -104 93 -110 194 l-4 76 -64 66 c-62 65 -86
111 -67 130 7 7 12 -1 17 -23 8 -41 114 -144 130 -128 6 7 11 54 11 111 0 102
9 127 21 62 10 -50 10 -98 0 -153 l-8 -46 63 -31 c35 -18 65 -31 67 -29 2 2
-19 53 -46 113 -28 59 -53 119 -57 133 -4 14 -9 33 -11 43 -3 9 -1 17 4 17 5
0 14 -19 21 -42z m-1125 -354 c25 -24 17 -46 -21 -58 -50 -16 -86 40 -40 62
31 15 43 14 61 -4z m-104 -39 c0 -8 -7 -15 -15 -15 -8 0 -15 7 -15 15 0 8 7
15 15 15 8 0 15 -7 15 -15z m924 -11 c26 -25 17 -47 -28 -64 -33 -12 -62 -6
-70 16 -8 22 1 34 38 50 40 17 42 17 60 -2z m-116 -57 c2 -10 -3 -17 -12 -17
-18 0 -29 16 -21 31 9 14 29 6 33 -14z m-1229 -374 c15 -30 21 -61 21 -104 l0
-62 -21 19 c-12 10 -32 38 -46 62 -21 36 -25 55 -25 125 -1 62 4 91 18 117
l18 35 7 -75 c4 -46 15 -92 28 -117z m1868 135 c-3 -8 -6 -5 -6 6 -1 11 2 17
5 13 3 -3 4 -12 1 -19z m-55 -158 c23 -17 34 -30 25 -30 -20 0 -87 63 -87 81
1 9 4 8 11 -4 6 -10 29 -31 51 -47z m-762 -366 c0 -17 -26 -19 -36 -3 -7 12
15 31 28 23 4 -3 8 -12 8 -20z m-389 -57 c-12 -12 -31 0 -31 19 0 12 3 12 20
2 11 -7 16 -16 11 -21z m1614 6 l100 -7 -90 -12 c-129 -18 -395 -29 -395 -16
0 22 35 27 255 40 17 1 75 -1 130 -5z m-115 -60 c-19 -8 -51 -18 -71 -20 -50
-7 -61 14 -12 22 21 4 43 8 48 10 6 2 24 3 40 3 l30 0 -35 -15z m-953 -99 c-4
-4 -29 -10 -56 -15 -28 -4 -65 -15 -84 -24 -31 -15 -36 -14 -78 4 -24 12 -52
21 -61 21 -15 0 -14 5 7 36 14 20 25 41 25 47 0 5 13 6 33 2 49 -11 135 -7
165 8 26 13 27 12 41 -30 8 -24 12 -46 8 -49z m783 79 c-1 -19 -21 -36 -66
-57 -27 -13 -55 -30 -62 -39 -11 -13 -18 -14 -38 -5 -55 25 -18 64 88 92 62
17 78 19 78 9z m-1721 -42 c15 -10 15 -10 -66 -27 -16 -3 -58 -14 -95 -25 -50
-15 -66 -23 -62 -34 5 -12 -2 -14 -42 -9 -78 10 -120 21 -104 26 14 5 247 61
295 71 35 8 60 7 74 -2z m1144 -72 c49 -25 74 -88 45 -117 -9 -9 -8 -15 8 -28
18 -15 18 -15 -3 -4 -26 12 -27 18 -14 53 13 33 -15 77 -59 93 -19 7 -27 13
-17 13 10 1 28 -4 40 -10z m347 1 c0 -5 -5 -10 -11 -10 -5 0 -7 5 -4 10 3 6 8
10 11 10 2 0 4 -4 4 -10z m-425 -10 c-11 -5 -27 -9 -35 -9 -13 -1 -13 0 0 9 8
5 24 9 35 9 l20 0 -20 -9z m-900 -9 c-14 -14 -174 -81 -192 -81 -28 0 -6 24
35 38 23 7 59 22 79 32 40 20 94 27 78 11z m758 -13 c9 -31 4 -32 -23 -3 -23
24 -23 25 -3 25 13 0 23 -8 26 -22z m-443 -52 c0 -36 -4 -67 -9 -70 -9 -6 -20
121 -12 130 15 14 21 -4 21 -60z m900 29 c9 5 10 1 6 -13 -9 -26 18 -92 37
-92 8 0 20 7 27 15 12 15 30 12 30 -5 0 -19 -69 -50 -111 -49 -42 1 -43 1 -18
12 23 11 25 15 17 42 -5 17 -14 39 -19 50 -5 11 -13 33 -19 50 l-11 30 25 -24
c14 -13 30 -20 36 -16z m-1493 3 c29 -12 53 -26 53 -31 0 -5 -8 -6 -17 -2 -10
4 -37 15 -60 23 -24 8 -43 18 -43 23 0 13 9 11 67 -13z m1268 -9 c4 -13 1 -27
-9 -38 -21 -23 -20 -34 4 -49 12 -7 18 -16 16 -21 -3 -4 12 -16 34 -26 22 -10
47 -27 57 -38 16 -17 11 -16 -33 6 -47 24 -87 57 -68 57 5 0 -2 7 -14 16 -26
18 -65 90 -57 104 3 6 19 10 35 10 20 0 31 -6 35 -21z m-800 -66 c-12 -117
-20 -137 -91 -208 -36 -36 -69 -65 -74 -65 -5 0 -45 -32 -87 -71 -89 -81 -161
-134 -171 -124 -13 12 64 136 116 186 28 27 52 46 52 41 0 -5 -22 -39 -50 -76
-27 -36 -44 -66 -38 -66 20 0 168 164 216 238 26 40 59 89 75 109 15 20 27 39
27 44 0 14 19 59 26 59 3 0 3 -30 -1 -67z m1535 -19 c104 -35 149 -58 137 -70
-11 -11 -188 41 -195 57 -2 4 -9 6 -17 3 -16 -7 -115 35 -115 49 0 15 74 0
190 -39z m-285 2 c71 -10 178 -37 192 -48 7 -5 16 -7 21 -4 4 2 30 -1 58 -9
27 -7 44 -14 37 -14 -6 -1 -65 -10 -130 -21 -118 -20 -118 -20 -143 0 -14 11
-48 37 -77 57 -55 40 -71 69 -30 54 12 -4 45 -11 72 -15z m-1452 -108 c-45
-45 -85 -80 -88 -76 -8 7 55 81 106 123 75 64 65 36 -18 -47z m934 10 c-3 -7
-5 -2 -5 12 0 14 2 19 5 13 2 -7 2 -19 0 -25z m2042 18 c7 -8 21 -12 31 -9 27
7 27 -25 0 -77 l-20 -39 -40 27 -41 26 22 17 c15 11 20 22 16 34 -13 31 11 47
32 21z m-2554 -17 c9 -29 -3 -109 -21 -137 -8 -12 -12 -27 -9 -31 3 -5 -8 -44
-23 -87 -33 -87 -42 -82 -42 23 0 47 5 75 19 97 10 17 27 59 36 94 18 65 29
76 40 41z m949 -55 c19 -4 24 -12 23 -32 -2 -23 3 -27 32 -32 29 -4 38 -13 62
-60 16 -30 29 -64 29 -75 0 -11 7 -42 15 -69 8 -27 14 -50 12 -52 -1 -1 -40
19 -87 46 -82 47 -85 49 -84 84 1 31 -1 34 -17 26 -34 -19 -54 -9 -110 53
l-56 62 5 57 4 57 42 3 c35 3 46 -2 74 -29 18 -18 43 -35 56 -39z m-514 22 c0
-19 -9 -24 -58 -32 -35 -5 -42 -4 -42 10 0 9 11 18 28 22 15 3 32 7 37 9 23 8
35 4 35 -9z m-589 -79 c-16 -16 -13 -30 4 -23 13 4 15 -8 15 -80 0 -94 -9
-104 -40 -44 -42 81 -45 90 -32 108 7 9 22 37 34 62 22 44 22 45 26 16 2 -16
-1 -33 -7 -39z m644 43 c4 -6 23 -17 43 -26 l36 -15 -29 -24 c-17 -13 -54 -36
-82 -51 -51 -26 -63 -26 -122 -8 -23 7 -24 5 -18 -24 5 -27 3 -32 -12 -32 -12
0 -23 14 -34 41 -11 28 -21 40 -31 36 -7 -3 -24 5 -37 19 l-22 24 39 0 c44 0
173 33 213 55 31 17 48 18 56 5z m593 -8 c3 -9 -4 -11 -25 -6 -50 12 -61 24
-19 22 22 -2 41 -9 44 -16z m1337 -30 c-3 -3 -11 0 -18 7 -9 10 -8 11 6 5 10
-3 15 -9 12 -12z m-1786 -16 c-2 -1 -19 -8 -38 -14 -29 -10 -32 -10 -21 3 7 8
24 15 38 15 14 0 23 -2 21 -4z m643 -23 c14 -12 18 -31 18 -81 0 -75 -16 -102
-62 -102 l-28 0 0 100 0 100 27 0 c14 0 35 -7 45 -17z m370 0 c21 -19 24 -53
4 -53 -7 0 -16 9 -19 21 -4 13 -12 20 -24 17 -14 -3 -19 -14 -21 -61 -3 -65
11 -96 34 -76 19 15 18 45 -2 53 -22 8 -7 26 22 26 19 0 24 -5 24 -27 0 -26 1
-26 17 -10 11 11 16 30 15 53 -3 42 20 74 53 74 35 0 45 -20 45 -94 0 -72 -15
-106 -48 -106 -21 0 -52 29 -52 49 0 10 -10 5 -33 -17 -18 -18 -41 -32 -50
-32 -10 0 -20 -7 -23 -15 -14 -35 -21 -9 -23 81 -1 79 1 100 15 115 21 23 42
24 66 2z m379 7 c10 -6 19 -20 19 -30 0 -26 -16 -26 -23 1 -7 26 -31 20 -35
-8 -2 -13 9 -29 33 -47 20 -16 35 -36 35 -48 0 -26 -27 -58 -50 -58 -24 0 -54
36 -46 55 7 19 26 11 26 -11 0 -8 9 -14 20 -14 32 0 25 41 -10 65 -39 25 -48
59 -25 85 21 23 29 24 56 10z m347 -2 c16 -16 16 -160 0 -176 -7 -7 -21 -12
-33 -12 -36 0 -45 20 -45 100 0 80 9 100 45 100 12 0 26 -5 33 -12z m-968 -17
c13 -26 13 -74 -1 -88 -8 -8 -8 -17 0 -31 6 -11 11 -28 11 -38 0 -13 -3 -14
-15 -4 -8 7 -15 18 -15 25 0 7 -7 18 -15 25 -13 11 -15 8 -15 -18 0 -17 -4
-33 -9 -37 -15 -9 -22 29 -20 109 l3 76 33 0 c22 0 36 -6 43 -19z m111 -8 c0
-16 6 -55 13 -88 7 -33 11 -64 9 -68 -8 -13 -33 14 -33 34 0 23 -29 26 -35 4
-3 -8 -7 -22 -10 -31 -3 -8 -9 -13 -13 -10 -5 3 -5 31 -1 63 19 125 18 123 44
123 20 0 25 -5 26 -27z m371 -30 l16 -58 1 58 c1 31 6 57 11 57 6 0 10 -39 10
-96 0 -110 -13 -120 -41 -33 -17 51 -18 52 -18 19 -2 -45 -11 -80 -22 -80 -5
0 -9 43 -9 95 0 85 2 95 18 95 13 0 22 -15 34 -57z m356 45 c14 -14 16 -84 2
-93 -6 -4 -4 -19 5 -42 18 -42 18 -43 5 -43 -6 0 -18 16 -27 35 -19 39 -33 37
-33 -6 0 -16 -4 -29 -10 -29 -6 0 -10 38 -10 95 l0 95 28 0 c15 0 33 -5 40
-12z m243 0 c0 -7 6 -48 13 -91 7 -42 10 -79 8 -82 -9 -9 -22 6 -22 26 0 14
-7 19 -25 19 -20 0 -25 -5 -25 -25 0 -14 -4 -25 -10 -25 -13 0 -13 18 2 113
10 71 13 77 35 77 13 0 23 -6 24 -12z m127 0 c15 -15 16 -80 1 -95 -8 -8 -6
-19 5 -41 19 -36 20 -42 5 -42 -5 0 -17 16 -25 35 -8 19 -19 35 -24 35 -6 0
-10 -16 -10 -35 0 -19 -4 -35 -10 -35 -6 0 -10 38 -10 95 l0 95 28 0 c15 0 33
-5 40 -12z m-1792 -67 c-13 -20 -26 -11 -26 16 0 25 1 26 16 11 9 -9 13 -21
10 -27z m-566 -11 c0 -29 -24 -35 -56 -13 l-28 18 39 6 c22 3 41 7 43 8 1 0 2
-8 2 -19z m1890 0 c0 -5 -13 -10 -30 -10 -16 0 -30 5 -30 10 0 6 14 10 30 10
17 0 30 -4 30 -10z m-1711 -11 c-17 -11 -50 -11 -66 -1 -6 4 10 8 35 9 31 1
41 -1 31 -8z m-79 -58 c0 -18 -18 -21 -30 -6 -10 13 -9 15 9 15 11 0 21 -4 21
-9z m811 -10 c-21 -13 -4 -54 20 -48 10 3 19 1 19 -4 0 -5 -11 -9 -25 -9 -18
0 -26 7 -31 24 -7 28 1 46 19 46 8 0 8 -3 -2 -9z m-754 -63 c-3 -8 -6 -5 -6 6
-1 11 2 17 5 13 3 -3 4 -12 1 -19z m-357 -43 c0 -28 -24 -34 -34 -9 -8 20 1
34 20 34 8 0 14 -10 14 -25z m690 18 c0 -5 -4 -14 -9 -22 -5 -8 -5 -27 0 -44
5 -19 5 -35 -1 -41 -11 -11 -25 38 -15 53 3 6 0 11 -8 11 -8 0 -33 -20 -56
-45 -23 -25 -44 -45 -46 -45 -15 0 1 23 54 78 54 56 81 75 81 55z m500 -27
c-61 -23 -115 -27 -136 -12 -17 13 -15 14 21 10 22 -3 51 -1 65 5 14 5 39 10
55 10 l30 0 -35 -13z m-798 -91 c12 -24 20 -46 17 -48 -8 -7 -185 -77 -217
-86 -18 -5 -32 -7 -32 -4 0 10 122 136 155 160 43 31 53 29 77 -22z m2312 -10
c3 -8 2 -15 -3 -15 -5 0 -14 7 -21 15 -10 12 -10 15 3 15 8 0 17 -7 21 -15z
m-1456 -18 c2 -10 -3 -17 -12 -17 -8 0 -35 -16 -61 -36 -36 -27 -54 -34 -78
-32 l-32 4 29 12 c17 7 49 31 73 53 45 41 75 47 81 16z m1402 -44 c19 -24 20
-28 6 -31 -11 -2 -16 -15 -16 -40 l-1 -37 -19 35 c-26 48 -26 100 1 100 4 0
17 -12 29 -27z m-4470 -123 c-18 -34 -23 -16 -9 31 12 39 14 41 17 17 2 -15
-2 -37 -8 -48z m2820 55 c0 -6 -73 -25 -78 -20 -3 3 6 9 19 14 26 10 59 14 59
6z m-1398 -71 c5 -3 -3 -19 -17 -36 -14 -16 -25 -35 -26 -41 -1 -27 -18 31
-18 65 -1 36 0 37 25 27 15 -5 31 -12 36 -15z m-630 -61 c9 -38 15 -70 12 -72
-7 -7 -29 17 -48 53 -16 30 -17 41 -8 61 6 14 15 25 19 25 5 0 16 -30 25 -67z
m3349 -134 c58 -31 141 -120 119 -127 -12 -4 -142 70 -177 102 -24 20 -31 56
-12 56 6 0 38 -14 70 -31z m-1426 -87 c-5 -34 -3 -41 20 -56 14 -9 23 -21 20
-26 -10 -16 -24 -12 -52 16 -24 24 -26 24 -44 8 -11 -9 -22 -14 -25 -11 -4 4
0 9 9 13 9 3 28 26 42 50 14 24 28 44 31 44 3 0 3 -17 -1 -38z m1643 -7 c13
-29 5 -33 -14 -7 -15 20 -18 32 -6 32 5 0 14 -11 20 -25z m-313 -15 c-3 -5
-11 -10 -16 -10 -6 0 -7 5 -4 10 3 6 11 10 16 10 6 0 7 -4 4 -10z m-1018 -272
c-3 -8 -6 -5 -6 6 -1 11 2 17 5 13 3 -3 4 -12 1 -19z m-22 -63 c-10 -19 -24
-35 -31 -35 -9 0 -4 14 14 39 32 47 44 44 17 -4z m911 -2 c-7 -7 -26 7 -26 19
0 6 6 6 15 -2 9 -7 13 -15 11 -17z m-881 -38 c0 -45 -2 -52 -12 -39 -6 9 -10
21 -8 27 2 7 6 24 9 40 4 15 7 27 9 27 1 0 2 -25 2 -55z m881 -70 c9 -14 15
-28 12 -30 -6 -6 -48 33 -48 45 0 18 20 10 36 -15z m-840 -85 c8 0 14 -5 14
-11 0 -6 -8 -9 -17 -7 -12 2 -19 13 -20 33 -1 20 0 23 4 8 2 -13 11 -23 19
-23z"/>
<path d="M1630 3566 c0 -3 14 -12 30 -21 17 -9 30 -13 30 -11 0 3 -13 12 -30
21 -16 9 -30 13 -30 11z"/>
<path d="M2440 3555 c-14 -8 -20 -14 -15 -14 6 0 21 6 35 14 14 8 21 14 15 14
-5 0 -21 -6 -35 -14z"/>
<path d="M1762 3534 c12 -17 28 -40 35 -50 6 -11 12 -14 12 -8 1 6 -15 28 -35
50 -24 26 -28 28 -12 8z"/>
<path d="M1700 3527 c0 -2 15 -14 33 -27 20 -15 27 -17 18 -6 -13 16 -51 41
-51 33z"/>
<path d="M1825 3410 c-3 -6 0 -17 9 -25 20 -21 24 -19 18 10 -5 26 -16 32 -27
15z"/>
<path d="M1851 3089 c-45 -31 -83 -71 -75 -78 2 -2 13 4 25 15 12 10 36 19 55
19 28 1 31 -1 22 -15 -7 -8 -19 -21 -27 -27 -13 -12 -13 -13 1 -13 26 0 50 37
55 85 3 25 2 45 -3 45 -5 0 -29 -14 -53 -31z"/>
<path d="M1783 2654 c27 -14 51 -23 53 -21 6 6 -73 47 -89 47 -7 -1 10 -12 36
-26z"/>
<path d="M2455 2640 c-13 -6 -15 -9 -5 -9 8 0 22 4 30 9 18 12 2 12 -25 0z"/>
<path d="M2034 4345 c25 -20 46 -40 46 -44 0 -5 36 -8 79 -7 44 1 78 2 78 3
-4 3 -114 46 -166 64 -79 28 -90 23 -37 -16z"/>
<path d="M2379 4194 c28 -30 51 -64 51 -75 0 -23 6 -26 85 -33 l60 -6 -58 55
c-54 52 -102 82 -164 106 -21 8 -17 0 26 -47z"/>
<path d="M2432 4015 c7 -83 41 -111 226 -182 10 -4 11 9 6 63 -9 94 -41 135
-122 158 -32 9 -71 16 -86 16 -28 0 -28 0 -24 -55z"/>
<path d="M3515 3710 c32 -33 45 -38 45 -16 0 17 -38 46 -59 46 -10 0 -5 -10
14 -30z"/>
<path d="M3629 3669 c-14 -24 -29 -53 -33 -63 -12 -33 23 3 45 47 29 55 18 69
-12 16z"/>
<path d="M2792 3342 c7 -89 26 -124 99 -172 33 -22 62 -40 64 -40 8 0 25 67
25 100 0 77 -39 124 -134 164 -58 24 -59 23 -54 -52z"/>
<path d="M3276 1783 c-3 -4 -6 -39 -6 -80 0 -55 3 -73 14 -73 24 0 32 24 28
87 -3 57 -18 83 -36 66z"/>
<path d="M3775 1778 c-2 -7 -4 -40 -2 -73 1 -46 6 -60 18 -63 20 -4 28 38 20
99 -6 42 -26 63 -36 37z"/>
<path d="M4367 1784 c-13 -14 -8 -131 7 -143 24 -20 37 11 34 81 -2 47 -7 64
-18 66 -9 1 -19 0 -23 -4z"/>
<path d="M3400 1740 c0 -29 4 -40 13 -37 6 2 12 19 12 37 0 18 -6 35 -12 38
-9 2 -13 -9 -13 -38z"/>
<path d="M3525 1737 c-5 -25 -4 -42 3 -49 17 -17 25 13 14 53 l-9 34 -8 -38z"/>
<path d="M4240 1740 c0 -34 3 -41 18 -38 12 2 17 13 17 38 0 25 -5 36 -17 38
-15 3 -18 -4 -18 -38z"/>
<path d="M4501 1760 c-1 -14 -4 -35 -7 -47 -5 -17 -2 -23 10 -23 17 0 20 27 6
70 l-8 25 -1 -25z"/>
<path d="M4610 1740 c0 -34 3 -41 18 -38 12 2 17 13 17 38 0 25 -5 36 -17 38
-15 3 -18 -4 -18 -38z"/>
</g>
</svg>
